<mxfile host="app.diagrams.net" agent="Mozilla/5.0 (Windows NT 10.0; Win64; x64) AppleWebKit/537.36 (KHTML, like Gecko) Chrome/136.0.0.0 Safari/537.36" version="27.0.9">
  <diagram name="Page-1" id="BhpeLCRANf4r8uZc28JV">
    <mxGraphModel dx="1639" dy="891" grid="1" gridSize="10" guides="1" tooltips="1" connect="1" arrows="1" fold="1" page="1" pageScale="1" pageWidth="850" pageHeight="1100" math="0" shadow="0">
      <root>
        <mxCell id="0" />
        <mxCell id="1" parent="0" />
        <mxCell id="ejDFjRWyY2k5rN37OPCX-1" value="" style="rounded=0;whiteSpace=wrap;html=1;fillColor=none;" parent="1" vertex="1">
          <mxGeometry x="80" y="111" width="120" height="480" as="geometry" />
        </mxCell>
        <mxCell id="ejDFjRWyY2k5rN37OPCX-2" value="SOURCE" style="rounded=0;whiteSpace=wrap;html=1;strokeColor=#6c8ebf;fontStyle=3;fillColor=#dae8fc;" parent="1" vertex="1">
          <mxGeometry x="90" y="101" width="100" height="30" as="geometry" />
        </mxCell>
        <mxCell id="ejDFjRWyY2k5rN37OPCX-17" style="edgeStyle=orthogonalEdgeStyle;rounded=0;orthogonalLoop=1;jettySize=auto;html=1;" parent="1" source="ejDFjRWyY2k5rN37OPCX-4" target="ejDFjRWyY2k5rN37OPCX-12" edge="1">
          <mxGeometry relative="1" as="geometry" />
        </mxCell>
        <mxCell id="ejDFjRWyY2k5rN37OPCX-4" value="" style="shape=image;verticalLabelPosition=bottom;labelBackgroundColor=default;verticalAlign=top;aspect=fixed;imageAspect=0;image=data:image/png,iVBORw0KGgoAAAANSUhEUgAAAgAAAAIACAYAAAD0eNT6AAAAAXNSR0IArs4c6QAAIABJREFUeAHt3V2sZWdZwPFTIlBIjPIhCeHDxs6cIviFjV4Q1Ao0UOzXzF47oFckmhqoVhP1ypuaeEEMEipUIomSmHjTCMyZArWggWAsMR3amb3OtNKPaaHihdJSvWK61z6vWdOZyUw77Zx3n33OXvt5fiSln+fMef/Pf6/3/6695py1Nf9DAAEEEEAAAQQQQAABBBBAAAEEEEAAAQQQQAABBBBAAAEEEEAAAQQQQAABBBBAAAEEEEAAAQQQQAABBBBAAAEEEEAAAQQQQAABBBBAAAEEEEAAAQQQQAABBBBAAAEEEEAAAQQQQAABBBBAAAEEEEAAAQQQQAABBBBAAAEEEEAAAQQQQAABBBBAAAEEEEAAAQQQQAABBBBAAAEEEEAAAQQQQAABBBBAAAEEEEAAAQQQQAABBBBAAAEEEEAAAQQQQAABBBBAAAEEEEAAAQQQQAABBBBAAAEEEEAAAQQQQAABBBBAAAEEEEAAAQQQQAABBBBAAAEEEEAAAQQQQAABBBBAAAEEEEAAAQQQQAABBBBAAAEEEEAAAQQQQAABBBBAAAEEEEAAAQQQQAABBBBAAAEEEEAAAQQQQAABBBBAAAEEEEAAAQQQQAABBBBAAAEEEEAAAQQQQAABBBBAAAEEEEAAAQQQQAABBBBAAAEEEEAAAQQQQAABBBBAAAEEEEAAAQQQQAABBBBAAAEEEEAAAQQQQAABBBBAAAEEEEAAAQQQQAABBBBAAAEEEEAAAQQQQAABBBBAAAEEEEAAAQQQQAABBBBAAAEEEEAAAQQQQAABBBBAAAEEEEAAAQQQQAABBBBAAAEEEEAAAQQQQAABBBBAAAEEEEAAAQQQQAABBBBAAAEEEEAAAQQQQAABBBBAAAEEEEAAAQQQQAABBBBAAAEEEEAAAQQQQAABBBCYm0A5duB1083Re2ft6JaubW7vNpt/nrXNpGubR7u2eaprm5Nd2xR/hGDwf6dn+sRs0tzXTZq7us3RZ2ft+E+7dvyBZ46P3l6O3PTSuWXygQgggAACwyVQjlz3ym7S3DBtm9tOb/RbNvcQm/uiIq0Pvnu7dvTXfRT0gThcm31lCCCAAAIvSqCUW18ybZur+tNe1zb9KXBRm4XPE5/l1qxtjk03R3/2zPHxL7yoaP4lAggggMAwCJTHPnTpbLP5SNc2J2z6omcRDkzb5qH+LYNy7OAbh2G5rwIBBBBA4CyB/jb/rG3+uGub/1rERd/nEA8XcKDr2uaL0+Pjd50Vz18ggAACCCyPQP/+ftc2j1/ggu12ffzb9UuZ8axt7j/1vEC59SXLM9+vjAACCCQlUO7/4GVd29xp43daX5YDpx4qnYxuLGXtkqQvQ8tGAAEE9pZANxndePq3dy3lBLisDcevO9jY+fdnjo9/eW9fBX41BBBAIBGB8vA1L+8mzadshIPdCDMHWde7Wf7j+h9N9JK0VAQQQGD3CZQHD7yma8fftPnb/AfuwOPTycH37P4rwq+AAAIIJCBQ2g++adqOHhj4hT/z6dfaz3/gcqv/xlP9HasEL09LRAABBHaHQJmM3tK1o+/a/J38V9CBe8vk4E/tzivDZ0UAAQQCE+hP/jZ/G/8Kbvzn3hH5wbQdXx34ZWppCCCAwGIJ9O/5u+1v81/xzf9MCHSztvn9xb5CfDYEEEAgIIFTT/t74O/M5uHP57+/vrI8ppvNR33PgIAXLEtCAIHFEfBb/Zz8g5z8LxQrn+5/WNXiXi0+EwIIIBCEQHd83AS++F9oQ/DPgpzwt+3t5uiz7gQEuWBZBgIILIbA6W/v+/S2L6TZNg7rjRNLm6NPLuZV47MggAACAQj43v5u/WeKv2k7+vMAL1tLQAABBHZG4PT3949zwnNaN8ttODCbjG/a2SvHRyOAAAIrTKAcue6VfqSv03+m0/85az05nYx/bYVfvr50BBBAYH4Cs3b8J+dcEJ0ct3FyxCtUMD3pOwbOf/3wkQggsKIETv+Ev+/Z0EJtaCKuMuJm7fhofydsRV/GvmwEEECgnsBss/mIzd/mz4GmdJujf6h/BfkIBBBAYAUJ9N8QpWubEy7+AoADzzqw9fV3lLKx3x8YcIAD8zpwsmysP1U29j9aNvYfKxv7v1I29n2qbKz/XtnYf3W5c/21g8iF6ebBX3fht/lz4FwHRmXrq1fO+8L3cTYNDnDgYg7Mysb+o+Xw+sfL4f3Xlq9ddulSgqBrm79z8T/34u+v+dCU7uiBUr70tou9iP17F3oOcGARDjxdNvZ9phxef+eefYfScs/4FV3b+K5/lQ+L2SBzRNLsW9eWcviKRby4fQ6bBAc4sF0HHiqH1n+n3PHWl+3qXYFu0txgM8uxmZnzfHOeffPd233R+u9c4DnAgUU68EQ5tP+WXXt7YNo2t9kY5tsYcMvDzUOBHoj0UCgHlujAI2Xj8vct/G7ArG0mNrI8G5lZzztrDwUu8eK3yBOVz+WEvroOHNr/j+XO9TcsJATKsQOv69pmy6Yw76bg41K5c/RGDwXaPFZ38zC7KLP7fv+7BnYcAdPN0XtTXcA96Oc7A+7QAQ8Fug3sTggHBuDAVtnY97HyN1e+dO4QmLWjWwSAUzwH6hzwUKANYAAbQJTTrHXs7M7M18sXLvvxuSKga5vbXfzrLv544dU74KFAESACODAQBzbL5/a9sToCunb8VRuaDY0D8zmwdffbnV52dnrBDz8OLMaBE+UL+y6vioBZO25d/Oe7+OOGm+8U6AQ4kBOgTXQxm+iqczxRPvfTr992BHRt87iNzEbGgfkd8FCgCBABHBiMA4f2t+WLb37VtiKga5snXfznv/hjh13vgIcCbQCD2QCchFf9FL+Ir//r2/rdAV3bnLSJ2cQ4sHMHPBQoAkQABwbkwF9c9C6AC//OL/wYYvisA75T4IAufos4Rfkc7iassgNb5fC+G140AmxeNi8OLNABPz54lS+YvnYbfjQHvv+i3zbYxX+BF/8dfoc5s4gxCw8Fug3sTggHhuPA+h0veBfAphNj0zHHYc3RQ4E2gOFsAGaRfhaH1t9/wQiwcQxr4zCPOPPwUKCNJ/3G4y2Fobyl8FD58r6XPy8CbDhxNhyzHNosPRRoAxRBHBiIA4fWbxYA3qf30wD30gEPBQ7lBOTrcBrP7sB3yx1vfdl5EeDUOLRTo68nmpMeChzICcgGmH0DtP7D+35bAOzlCdCv5Y6D7xTowis+ODAIB/Z9u5S1S85GQLTTlvW4gzBUBzwU6E6A98M5sHQHDl3+DgHgZO5kvucO9A8F/qKT0CBOQjaipW9EPFjWteDTAmDPL/5O5kM9me/p1+WhwGVd9Py6NlwOnHJg/amzvyVwTy9+Nl2nbg4UDwU6fTt9c2CpDhxev+bUXQAB4GTOgb13wHcKtAEsdQNwNyD73YBnf1Kgi//eX/wxx7x3wEOBIkAEcGApDhzef8QdALejvSWxVAc8FLiUi5/Tb/bTr/Vv7J+VO9726jWnUadRDizRAQ8FuhgLEg4sw4HDV7xLACz1BLjEjce6B3P3w0OBbgO7E8KBvXdg34cFgI1wMBth5jsRHgq0Aez9BoB5cuafEAACQAAMxAEPBdqQkm9I3grY07cC1u8SAAO5+Gc+/Vr7mbeCPBRoAxRBHNgzB+4XAALAHYAhOeChQKfAPT0F7tlmY67Dm+sjAmBIF39fixjpf3Lgt64t5fAVLpjDu2CaiZlEcuC/BYBN16Y7QAc8FOhk6lY4B3bZgR8KgAFe/L0nfuY98dx/9lCgDWCXN4BIp1lrmePujAAQAO4ADNYBDwXaAEUQB3bPAQEw2It/7tOvuyCn5++hQCe7OU52Ns3d2zQjsRUAAsAdgIE74KFAF/NIm461DMdnATDwi7+TsDshvQMeChzORdMGZhZRHBAAAsAdgBVxwEOBNp4oG491DMNlAbAiF393AtwJ6FoPBdo4hrFxmEOMOQgAAeAOwCo5cOxA2brrZz0Y58E4DnBgxw4IgFW6+PtaxUrvwNEbSvnS23b84neKi3GKM0dznNcBAWBTtamuogP3X1/Kl39GBDgFcoADczsgAFbx4u9rFi29A0dvLFt3//zcL/55Tw0+zomTAzEcEAA2U5vpijsw+8Y7S9lYFwJOghzgQJUDAmDFL/5+d4DfHXDq+wTce03Z+qefq3rxO8XFOMWZoznO64AAEADuAERxYDIqs3ve7dkAp0AhyIFtOSAAolz8rUPInOPA7N73la1/+aVS7nzLti4E854gfJzTJwdW1wEBcM5F0+10t9MjOtDHwOxff/VUEJz6HgJfemspd14hDJwSOZDcAQEgAJycOcABDnAgoQMCIOHQI55yrcndGw5wgAN1DggAAaD8OcABDnAgoQMCIOHQVXJdJeOFFwc4ENEBASAAlD8HOMABDiR0QAAkHHrEkrUmJzQOcIADdQ4IAAGg/DnAAQ5wIKEDAiDh0FVyXSXjhRcHOBDRAQEgAJQ/BzjAAQ4kdEAAJBx6xJK1Jic0DnCAA3UOCAABoPw5wAEOcCChAwIg4dBVcl0l44UXBzgQ0QEBIACUPwc4wAEOJHRAACQcesSStSYnNA5wgAN1DggAAaD8OcABDnAgoQMCIOHQVXJdJeOFFwc4ENEBASAAlD8HOMABDiR0QAAkHHrEkrUmJzQOcIADdQ4IAAGg/DnAAQ5wIKEDAiDh0FVyXSXjhRcHOBDRAQEgAJQ/BzjAAQ4kdEAAJBx6xJK1Jic0DnCAA3UOCAABoPw5wAEOcCChAwIg4dBVcl0l44UXBzgQ0QEBIACUPwc4wAEOJHRAACQcesSStSYnNA5wgAN1DggAAaD8OcABDnAgoQMCIOHQVXJdJeOFFwc4ENEBASAAlD8HOMABDiR0QAAkHHrEkrUmJzQOcIADdQ4IAAGg/DnAAQ5wIKEDAiDh0FVyXSXjhRcHOBDRAQEgAJQ/BzjAAQ4kdEAAJBx6xJK1Jic0DnCAA3UOCAABoPw5wAEOcCChAwIg4dBVcl0l44UXBzgQ0QEBIACUPwc4wAEOJHRAACQcesSStSYnNA5wgAN1DggAAaD8OcABDnAgoQMCIOHQVXJdJeOFFwc4ENEBASAAlD8HOMABDiR0QAAkHHrEkrUmJzQOcIADdQ4IAAGg/DnAAQ5wIKEDAiDh0FVyXSXjhRcHOBDRAQEgAJQ/BzjAAQ4kdEAAJBx6xJK1Jic0DnCAA3UOCAABoPw5wAEOcCChAwIg4dBVcl0l44UXBzgQ0QEBIACUPwc4wAEOJHRAACQcesSStSYnNA5wgAN1DggAAaD8OcABDnAgoQMCIOHQVXJdJeOFFwc4ENEBASAAlD8HOMABDiR0QAAkHHrEkrUmJzQOcIADdQ4IAAGg/DnAAQ5wIKEDAiDh0FVyXSXjhRcHOBDRAQEgAJQ/BzjAAQ4kdEAAJBx6xJK1Jic0DnCAA3UOCAABoPw5wAEOcCChAwIg4dBVcl0l44UXBzgQ0QEBIACUPwc4wAEOJHRAACQcesSStSYnNA5wgAN1DggAAaD8OcABDnAgoQMCIOHQVXJdJeOFFwc4ENEBASAAlD8HOMABDiR0QAAkHHrEkrUmJzQOcIADdQ4IAAGg/DnAAQ5wIKEDAiDh0FVyXSXjhRcHOBDRAQEgAJQ/BzjAAQ4kdEAAJBx6xJK1Jic0DnCAA3UOCAABoPw5wAEOcCChAwIg4dBVcl0l44UXBzgQ0QEBIACUPwc4wAEOJHRAACQcesSStSYnNA5wgAN1DggAAaD8OcABDnAgoQMCIOHQVXJdJeOFFwc4ENEBASAAlD8HOMABDiR0QAAkHHrEkrUmJzQOcIADdQ4IAAGg/DnAAQ5wIKEDAiDh0FVyXSXjhRcHOBDRAQEgAJQ/BzjAAQ4kdEAAJBx6xJK1Jic0DnCAA3UOCAABoPw5wAEOcCChAwIg4dBVcl0l44UXBzgQ0QEBIACUPwc4wAEOJHRAACQcesSStSYnNA5wgAN1DggAAaD8OcABDnAgoQMCIOHQVXJdJeOFFwc4ENEBASAAlD8HOMABDiR0QAAkHHrEkrUmJzQOcIADdQ4IAAGg/DnAAQ5wIKEDAiDh0FVyXSXjhRcHOBDRAQEgAJQ/BzjAAQ4kdEAAJBx6xJK1Jic0DnCAA3UOCAABoPw5wAEOcCChAwIg4dBVcl0l44UXBzgQ0QEBIACUPwc4wAEOJHRAACQcesSStSYnNA5wgAN1DggAAaD8OcABDnAgoQMCIOHQVXJdJeOFFwc4ENEBASAAlD8HOMABDiR0QAAkHHrEkrUmJzQOcIADdQ4IAAGg/DnAAQ5wIKEDAiDh0FVyXSXjhRcHOBDRAQEgAJQ/BzjAAQ4kdEAAJBx6xJK1Jic0DnCAA3UOCAABoPw5wAEOcCChAwIg4dBVcl0l44UXBzgQ0QEBIACUPwc4wAEOJHRAACQcesSStSYnNA5wgAN1DggAAaD8OcABDnAgoQMCIOHQVXJdJeOFFwc4ENEBASAAlD8HOMABDiR0QAAkHHrEkrUmJzQOcIADdQ4IAAGg/DnAAQ5wIKEDAiDh0FVyXSXjhRcHOBDRAQEgAJQ/BzjAAQ4kdEAAJBx6xJK1Jic0DnCAA3UOCAABoPw5wAEOcCChAwIg4dBVcl0l44UXBzgQ0QEBIACUPwc4wAEOJHRAACQcesSStSYnNA5wgAN1DggAAaD8OcABDnAgoQMCIOHQVXJdJeOFFwc4ENEBASAAlD8HOMABDiR0QAAkHHrEkrUmJzQOcIADdQ4IAAGg/DnAAQ5wIKEDAiDh0FVyXSXjhRcHOBDRAQEgAJQ/BzjAAQ4kdEAAJBx6xJK1Jic0DnCAA3UOCAABoPw5wAEOcCChAwIg4dBVcl0l44UXBzgQ0QEBIACUPwc4wAEOJHRAACQcesSStSYnNA5wgAN1DggAAaD8OcABDnAgoQMCIOHQVXJdJeOFFwc4ENEBASAAlD8HOMABDiR0QAAkHHrEkrUmJzQOcIADdQ4IAAGg/DnAAQ5wIKEDAiDh0FVyXSXjhRcHOBDRAQEgAJQ/BzjAAQ4kdEAAJBx6xJK1Jic0DnCAA3UOCAABoPw5wAEOcCChAwIg4dBVcl0l44UXBzgQ0QEBIACUPwc4wAEOJHRAACQcesSStSYnNA5wgAN1DggAAaD8OcABDnAgoQMCIOHQVXJdJeOFFwc4ENEBASAAlD8HOMABDiR0QAAkHHrEkrUmJzQOcIADdQ4IAAGg/DnAAQ5wIKEDAiDh0FVyXSXjhRcHOBDRAQEgAJQ/BzjAAQ4kdEAAJBx6xJK1Jic0DnCAA3UOCAABoPw5wAEOcCChAwIg4dBVcl0l44UXBzgQ0QEBIACUPwc4wAEOJHRAACQcesSStSYnNA5wgAN1DggAAaD8OcABDnAgoQMCIOHQVXJdJeOFFwc4ENEBASAAlD8HOMABDiR0QAAkHHrEkrUmJzQOcIADdQ4IAAGg/DnAAQ5wIKEDAiDh0FVyXSXjhRcHOBDRAQEgAJQ/BzjAAQ4kdEAAJBx6xJK1Jic0DnCAA3UOCAABoPw5wAEOcCChAwIg4dBVcl0l44UXBzgQ0QEBIACUPwc4wAEOJHRAACQcesSStSYnNA5wgAN1DggAAaD8OcABDnAgoQMCIOHQVXJdJeOFFwc4ENEBASAAlD8HOMABDiR0QAAkHHrEkrUmJzQOcIADdQ4IAAGg/DnAAQ5wIKEDAiDh0FVyXSXjhRcHOBDRAQEgAJQ/BzjAAQ4kdEAAJBx6xJK1Jic0DnCAA3UOCAABoPw5wAEOcCChAwIg4dBVcl0l44UXBzgQ0QEBIACUPwc4wAEOJHRAACQcesSStSYnNA5wgAN1DggAAaD8OcABDnAgoQMCIOHQVXJdJeOFFwc4ENEBASAAlD8HOMABDiR0QAAkHHrEkrUmJzQOcIADdQ4IAAGg/DnAAQ5wIKEDAiDh0FVyXSXjhRcHOBDRAQEgAJQ/BzjAAQ4kdEAAJBx6xJK1Jic0DnCAA3UOCAABoPw5wAEOcCChAwIg4dBVcl0l44UXBzgQ0QEBIACUPwc4wAEOJHRAACQcesSStSYnNA5wgAN1DggAAaD8OcABDnAgoQMCIOHQVXJdJeOFFwc4ENEBASAAlD8HOMABDiR0QAAkHHrEkrUmJzQOcIADdQ4IAAGg/DnAAQ5wIKEDAiDh0FVyXSXjhRcHOBDRAQEgAJQ/BzjAAQ4kdEAAJBx6xJK1Jic0DnCAA3UOCAABoPw5wAEOcCChAwIg4dBVcl0l44UXBzgQ0QEBIACUPwc4wAEOJHRAACQcesSStSYnNA5wgAN1DggAAaD8OcABDnAgoQMCIOHQVXJdJeOFFwc4ENEBASAAlD8HOMABDiR0QAAkHHrEkrUmJzQOcIADdQ4IAAGg/DnAAQ5wIKEDAiDh0FVyXSXjhRcHOBDRAQEgAJQ/BzjAAQ4kdEAAJBx6xJK1Jic0DnCAA3UOCAABoPw5wAEOcCChAwIg4dBVcl0l44UXBzgQ0QEBIACUPwc4wAEOJHRAACQcesSStSYnNA5wgAN1DggAAaD8OcABDnAgoQMCIOHQVXJdJeOFFwc4ENEBASAAlD8HOMABDiR0QAAkHHrEkrUmJzQOcIADdQ4IAAGg/DnAAQ5wIKEDAiDh0FVyXSXjhRcHOBDRAQEgAJQ/BzjAAQ4kdEAAJBx6xJK1Jic0DnCAA3UOCAABoPw5wAEOcCChAwIg4dBVcl0l44UXBzgQ0QEBIACUPwc4wAEOJHRAACQcesSStSYnNA5wgAN1DggAAaD8OcABDnAgoQMCIOHQVXJdJeOFFwc4ENEBASAAlD8HOMABDiR0QAAkHHrEkrUmJzQOcIADdQ4IAAGg/DnAAQ5wIKEDAiDh0FVyXSXjhRcHOBDRAQEgAJQ/BzjAAQ4kdEAAJBx6xJK1Jic0DnCAA3UOCAABoPw5wAEOcCChAwIg4dBVcl0l44UXBzgQ0QEBIACUPwc4wAEOJHRAACQcesSStSYnNA5wgAN1DggAAaD8OcABDnAgoQMCIOHQVXJdJeOFFwc4ENEBASAAlD8HOMABDiR0QAAkHHrEkrUmJzQOcIADdQ4IAAGg/DnAAQ5wIKEDAiDh0FVyXSXjhRcHOBDRAQEgAJQ/BzjAAQ4kdEAAJBx6xJK1Jic0DnCAA3UOCAABoPw5wAEOcCChAwIg4dBVcl0l44UXBzgQ0QEBIACUPwc4wAEOJHRAACQcesSStSYnNA5wgAN1DggAAaD8OcABDnAgoQMCIOHQVXJdJeOFFwc4ENEBASAAlD8HOMABDiR0QAAkHHrEkrUmJzQOcIADdQ4IAAGg/DnAAQ5wIKEDAiDh0FVyXSXjhRcHOBDRAQEgAJQ/BzjAAQ4kdEAAJBx6xJK1Jic0DnCAA3UOCAABoPw5wAEOcCChAwIg4dBVcl0l44UXBzgQ0QEBIACUPwc4wAEOJHRAACQcesSStSYnNA5wgAN1DggAAaD8OcABDnAgoQMCIOHQVXJdJeOFFwc4ENEBASAAlD8HOMABDiR0QAAkHHrEkrUmJzQOcIADdQ4IAAGg/DnAAQ5wIKEDAiDh0FVyXSXjhRcHOBDRAQEgAJQ/BzjAAQ4kdEAAJBx6xJK1Jic0DnCAA3UOCAABoPw5wAEOcCChAwIg4dBVcl0l44UXBzgQ0QEBIACUPwc4wAEOJHRAACQcesSStSYnNA5wgAN1DggAAaD8OcABDnAgoQMCIOHQVXJdJeOFFwc4ENGBPgBORlyYNXnBcoADHOAAB17QgR/2AfAkQC8IyG0xd0g4wAEOcCCiA//TB8DjAkAAcIADHOAAB1I5cGJt1o5bQ0819Igla01OaBzgAAcqHJi1zbG1rh1/VQAIAA5wgAMc4EAqB+7u3wK43dBTDV0lV1Sy14bXBgc4ENSBv1qbtaNbgi7ORmej4wAHOMABDlzAgdnm6Oa16ebovQJA4XKAAxzgAAfyODCdHHzPWrlv/BNd22wZfJ7Bm7VZc4ADHEjtwKw8eOA1a/3/Zm0zIUNqGdwiu8AtMq8JrwkOcCCiA7NJc9+pzb//v2k7+kTERVqTFy8HOMABDnDgfAembfOxswHQHR9fD9D5gPDAgwMc4AAHQjowGb3/bACUe8av6Nrm6ZALdWvX7X0OcIADHODAGQee7vf8swHQ/0XXNn8rANQuBzjAAQ5wILADk+Yz523+/d9M2+YqQw88dPV7pn79mQsc4EBaB6bHml95XgCUcutLurZ5VASIAA5wgAMc4EBIBx4uZe2S5wVA/w9m7fjDhh5y6Glrl8985gAHOPCsA7PJ+KYLbv79PywPX/PybtJ8DywvGA5wgAMc4EAoB57o9/gXDIBn7wI0f2TooYbu9O/9Tg5wgAPJHeh/7s+Lbv6n7gIcue6V3eboMREgAjjAAQ5wgAMRHBg9Uh770KUXDYD+P+gmzTWGHmHo1sBjDnCAAxwY/8a2Nv8z/1E3aTZA88LhAAc4wAEOrLQDnz+zr2/7z+X4+M1d2/zA4Fd68N73S/6+n9ev1y8HUjvwVGk/+KZtb/zn/odd21zrRwWnlkdACAgOcIADq+nAVteOD5y7p1f/9bRtblOQIoADHOAABziwOg5MJ83Hqzf8537Aqe8N0Db/ZvCrM3izMisOcIADiR3YbL5Rjo9f9tz9fK6/L0fGPzZrx0cJlVio1bwF5taluXGAA6kcmE2azXJ8/Oq5NvsX+qBydPyGrm0eFwEigAMc4AAHODBIB57oH+B/oX18R/+8HBtf0bXNdwx+kINPVbkc5CAHOMCB8xz4Tjn6gfUdbfIX++DywMHXz9rmGPDngbf5us3IAQ5wgANLcWDaNsfn/u1+F9v0n/vv+/cXOg8GLmXQwkt4cYADHODAWQf6B/4mv/Wq5+7Tu/r35WtX/ch0s/mo7xNAxLMiqn9RyAEOcGCvHNjqf5v+wp72n6cYuklzQ9c2T9kEhAAHOMDJOgVdAAADdklEQVQBDnBgTxz4327SjOfZsxf+MeWBgz/pZwfsydD3qiz9Ok4xHOAAB4bpwOf37P3+mlo4/a2DTyhAMcABDnCAAxxYqAOPdm3lT/Wr2cAX8d+We8avmG02f9i1zX8a/kKHr8aHWePmYi4c4MBuOvDErB3/QXnsQ5cuYo/ek8/Rfwvh2aT53a4dPSIEhAAHOMABDnCgyoGHZ5PxTUt9yG8RtfDMZHzl6R8q9H0CVAmwm1Xpczu1cIADHBiWA0937ejvp5OD7yll7ZJF7L+D+Rz9LYz+PYz+pxTN2ub+rm1mgkAQcIADHOBAUgdms0lz33Rz9JfdZPT+lbrNv9OyKN/+zddO2/HVs83Rzd3m6JNd23zl9A8derRrmye7tjmZVApVPqwqNw/z4AAH5nGg38P6vezR03vb3f1e1+95p075Dx54zU73UR+PAAIIIIAAAggggAACCCCAAAIIIIAAAggggAACCCCAAAIIIIAAAggggAACCCCAAAIIIIAAAggggAACCCCAAAIIIIAAAggggAACCCCAAAIIIIAAAggggAACCCCAAAIIIIAAAggggAACCCCAAAIIIIAAAggggAACCCCAAAIIIIAAAggggAACCCCAAAIIIIAAAggggAACCCCAAAIIIIAAAggggAACCCCAAAIIIIAAAggggAACCCCAAAIIIIAAAggggAACCCCAAAIIIIAAAggggAACCCCAAAIIIIAAAggggAACCCCAAAIIIIAAAggggAACCCCAAAIIIIAAAggggAACCCCAAAIIIIAAAggggAACCCCAAAIIIIAAAggggAACCCCAAAIIIIAAAggggAACCCCAAAIIIIAAAggggAACCCCAAAIIIIAAAggggAACCCCAAAIIIIAAAggggAACCCCAAAIIIIAAAggggAACCCCAAAIIIIAAAggggAACCCCAAAIIIIAAAggggAACCCCAAAIIIIAAAggggAACCCCAAAIIIIAAAggggAACCCCAAAIIIIAAAggggAACCCCAAAIIIIAAAggggAACCCCAAAIIIIAAAggggAACCCCAAAIIIIAAAggggAACCCCAAAIIIIAAAggggAACCCCAAAIIIIAAAggggAACCCCAAAIIIIAAAggggAACCCCAAAIIIIAAAggggAACCCCAAAIIIIAAAggggAACCGQm8P81IGYrl8k4gQAAAABJRU5ErkJggg==;" parent="1" vertex="1">
          <mxGeometry x="114" y="170" width="52" height="52" as="geometry" />
        </mxCell>
        <mxCell id="ejDFjRWyY2k5rN37OPCX-18" style="edgeStyle=orthogonalEdgeStyle;rounded=0;orthogonalLoop=1;jettySize=auto;html=1;entryX=0;entryY=0.5;entryDx=0;entryDy=0;" parent="1" source="ejDFjRWyY2k5rN37OPCX-5" target="ejDFjRWyY2k5rN37OPCX-13" edge="1">
          <mxGeometry relative="1" as="geometry" />
        </mxCell>
        <mxCell id="ejDFjRWyY2k5rN37OPCX-5" value="" style="shape=image;verticalLabelPosition=bottom;labelBackgroundColor=default;verticalAlign=top;aspect=fixed;imageAspect=0;image=data:image/png,iVBORw0KGgoAAAANSUhEUgAAAgAAAAIACAYAAAD0eNT6AAAAAXNSR0IArs4c6QAAIABJREFUeAHt3V2sZWdZwPFTIlBIjPIhCeHDxs6cIviFjV4Q1Ao0UOzXzF47oFckmhqoVhP1ypuaeEEMEipUIomSmHjTCMyZArWggWAsMR3amb3OtNKPaaHihdJSvWK61z6vWdOZyUw77Zx3n33OXvt5fiSln+fMef/Pf6/3/6695py1Nf9DAAEEEEAAAQQQQAABBBBAAAEEEEAAAQQQQAABBBBAAAEEEEAAAQQQQAABBBBAAAEEEEAAAQQQQAABBBBAAAEEEEAAAQQQQAABBBBAAAEEEEAAAQQQQAABBBBAAAEEEEAAAQQQQAABBBBAAAEEEEAAAQQQQAABBBBAAAEEEEAAAQQQQAABBBBAAAEEEEAAAQQQQAABBBBAAAEEEEAAAQQQQAABBBBAAAEEEEAAAQQQQAABBBBAAAEEEEAAAQQQQAABBBBAAAEEEEAAAQQQQAABBBBAAAEEEEAAAQQQQAABBBBAAAEEEEAAAQQQQAABBBBAAAEEEEAAAQQQQAABBBBAAAEEEEAAAQQQQAABBBBAAAEEEEAAAQQQQAABBBBAAAEEEEAAAQQQQAABBBBAAAEEEEAAAQQQQAABBBBAAAEEEEAAAQQQQAABBBBAAAEEEEAAAQQQQAABBBBAAAEEEEAAAQQQQAABBBBAAAEEEEAAAQQQQAABBBBAAAEEEEAAAQQQQAABBBBAAAEEEEAAAQQQQAABBBBAAAEEEEAAAQQQQAABBBBAAAEEEEAAAQQQQAABBBBAAAEEEEAAAQQQQAABBBBAAAEEEEAAAQQQQAABBBBAAAEEEEAAAQQQQAABBBBAAAEEEEAAAQQQQAABBBBAAAEEEEAAAQQQQAABBBBAAAEEEEAAAQQQQAABBBBAAAEEEEAAAQQQQAABBBBAAAEEEEAAAQQQQAABBBCYm0A5duB1083Re2ft6JaubW7vNpt/nrXNpGubR7u2eaprm5Nd2xR/hGDwf6dn+sRs0tzXTZq7us3RZ2ft+E+7dvyBZ46P3l6O3PTSuWXygQgggAACwyVQjlz3ym7S3DBtm9tOb/RbNvcQm/uiIq0Pvnu7dvTXfRT0gThcm31lCCCAAAIvSqCUW18ybZur+tNe1zb9KXBRm4XPE5/l1qxtjk03R3/2zPHxL7yoaP4lAggggMAwCJTHPnTpbLP5SNc2J2z6omcRDkzb5qH+LYNy7OAbh2G5rwIBBBBA4CyB/jb/rG3+uGub/1rERd/nEA8XcKDr2uaL0+Pjd50Vz18ggAACCCyPQP/+ftc2j1/ggu12ffzb9UuZ8axt7j/1vEC59SXLM9+vjAACCCQlUO7/4GVd29xp43daX5YDpx4qnYxuLGXtkqQvQ8tGAAEE9pZANxndePq3dy3lBLisDcevO9jY+fdnjo9/eW9fBX41BBBAIBGB8vA1L+8mzadshIPdCDMHWde7Wf7j+h9N9JK0VAQQQGD3CZQHD7yma8fftPnb/AfuwOPTycH37P4rwq+AAAIIJCBQ2g++adqOHhj4hT/z6dfaz3/gcqv/xlP9HasEL09LRAABBHaHQJmM3tK1o+/a/J38V9CBe8vk4E/tzivDZ0UAAQQCE+hP/jZ/G/8Kbvzn3hH5wbQdXx34ZWppCCCAwGIJ9O/5u+1v81/xzf9MCHSztvn9xb5CfDYEEEAgIIFTT/t74O/M5uHP57+/vrI8ppvNR33PgIAXLEtCAIHFEfBb/Zz8g5z8LxQrn+5/WNXiXi0+EwIIIBCEQHd83AS++F9oQ/DPgpzwt+3t5uiz7gQEuWBZBgIILIbA6W/v+/S2L6TZNg7rjRNLm6NPLuZV47MggAACAQj43v5u/WeKv2k7+vMAL1tLQAABBHZG4PT3949zwnNaN8ttODCbjG/a2SvHRyOAAAIrTKAcue6VfqSv03+m0/85az05nYx/bYVfvr50BBBAYH4Cs3b8J+dcEJ0ct3FyxCtUMD3pOwbOf/3wkQggsKIETv+Ev+/Z0EJtaCKuMuJm7fhofydsRV/GvmwEEECgnsBss/mIzd/mz4GmdJujf6h/BfkIBBBAYAUJ9N8QpWubEy7+AoADzzqw9fV3lLKx3x8YcIAD8zpwsmysP1U29j9aNvYfKxv7v1I29n2qbKz/XtnYf3W5c/21g8iF6ebBX3fht/lz4FwHRmXrq1fO+8L3cTYNDnDgYg7Mysb+o+Xw+sfL4f3Xlq9ddulSgqBrm79z8T/34u+v+dCU7uiBUr70tou9iP17F3oOcGARDjxdNvZ9phxef+eefYfScs/4FV3b+K5/lQ+L2SBzRNLsW9eWcviKRby4fQ6bBAc4sF0HHiqH1n+n3PHWl+3qXYFu0txgM8uxmZnzfHOeffPd233R+u9c4DnAgUU68EQ5tP+WXXt7YNo2t9kY5tsYcMvDzUOBHoj0UCgHlujAI2Xj8vct/G7ArG0mNrI8G5lZzztrDwUu8eK3yBOVz+WEvroOHNr/j+XO9TcsJATKsQOv69pmy6Yw76bg41K5c/RGDwXaPFZ38zC7KLP7fv+7BnYcAdPN0XtTXcA96Oc7A+7QAQ8Fug3sTggHBuDAVtnY97HyN1e+dO4QmLWjWwSAUzwH6hzwUKANYAAbQJTTrHXs7M7M18sXLvvxuSKga5vbXfzrLv544dU74KFAESACODAQBzbL5/a9sToCunb8VRuaDY0D8zmwdffbnV52dnrBDz8OLMaBE+UL+y6vioBZO25d/Oe7+OOGm+8U6AQ4kBOgTXQxm+iqczxRPvfTr992BHRt87iNzEbGgfkd8FCgCBABHBiMA4f2t+WLb37VtiKga5snXfznv/hjh13vgIcCbQCD2QCchFf9FL+Ir//r2/rdAV3bnLSJ2cQ4sHMHPBQoAkQABwbkwF9c9C6AC//OL/wYYvisA75T4IAufos4Rfkc7iassgNb5fC+G140AmxeNi8OLNABPz54lS+YvnYbfjQHvv+i3zbYxX+BF/8dfoc5s4gxCw8Fug3sTggHhuPA+h0veBfAphNj0zHHYc3RQ4E2gOFsAGaRfhaH1t9/wQiwcQxr4zCPOPPwUKCNJ/3G4y2Fobyl8FD58r6XPy8CbDhxNhyzHNosPRRoAxRBHBiIA4fWbxYA3qf30wD30gEPBQ7lBOTrcBrP7sB3yx1vfdl5EeDUOLRTo68nmpMeChzICcgGmH0DtP7D+35bAOzlCdCv5Y6D7xTowis+ODAIB/Z9u5S1S85GQLTTlvW4gzBUBzwU6E6A98M5sHQHDl3+DgHgZO5kvucO9A8F/qKT0CBOQjaipW9EPFjWteDTAmDPL/5O5kM9me/p1+WhwGVd9Py6NlwOnHJg/amzvyVwTy9+Nl2nbg4UDwU6fTt9c2CpDhxev+bUXQAB4GTOgb13wHcKtAEsdQNwNyD73YBnf1Kgi//eX/wxx7x3wEOBIkAEcGApDhzef8QdALejvSWxVAc8FLiUi5/Tb/bTr/Vv7J+VO9726jWnUadRDizRAQ8FuhgLEg4sw4HDV7xLACz1BLjEjce6B3P3w0OBbgO7E8KBvXdg34cFgI1wMBth5jsRHgq0Aez9BoB5cuafEAACQAAMxAEPBdqQkm9I3grY07cC1u8SAAO5+Gc+/Vr7mbeCPBRoAxRBHNgzB+4XAALAHYAhOeChQKfAPT0F7tlmY67Dm+sjAmBIF39fixjpf3Lgt64t5fAVLpjDu2CaiZlEcuC/BYBN16Y7QAc8FOhk6lY4B3bZgR8KgAFe/L0nfuY98dx/9lCgDWCXN4BIp1lrmePujAAQAO4ADNYBDwXaAEUQB3bPAQEw2It/7tOvuyCn5++hQCe7OU52Ns3d2zQjsRUAAsAdgIE74KFAF/NIm461DMdnATDwi7+TsDshvQMeChzORdMGZhZRHBAAAsAdgBVxwEOBNp4oG491DMNlAbAiF393AtwJ6FoPBdo4hrFxmEOMOQgAAeAOwCo5cOxA2brrZz0Y58E4DnBgxw4IgFW6+PtaxUrvwNEbSvnS23b84neKi3GKM0dznNcBAWBTtamuogP3X1/Kl39GBDgFcoADczsgAFbx4u9rFi29A0dvLFt3//zcL/55Tw0+zomTAzEcEAA2U5vpijsw+8Y7S9lYFwJOghzgQJUDAmDFL/5+d4DfHXDq+wTce03Z+qefq3rxO8XFOMWZoznO64AAEADuAERxYDIqs3ve7dkAp0AhyIFtOSAAolz8rUPInOPA7N73la1/+aVS7nzLti4E854gfJzTJwdW1wEBcM5F0+10t9MjOtDHwOxff/VUEJz6HgJfemspd14hDJwSOZDcAQEgAJycOcABDnAgoQMCIOHQI55yrcndGw5wgAN1DggAAaD8OcABDnAgoQMCIOHQVXJdJeOFFwc4ENEBASAAlD8HOMABDiR0QAAkHHrEkrUmJzQOcIADdQ4IAAGg/DnAAQ5wIKEDAiDh0FVyXSXjhRcHOBDRAQEgAJQ/BzjAAQ4kdEAAJBx6xJK1Jic0DnCAA3UOCAABoPw5wAEOcCChAwIg4dBVcl0l44UXBzgQ0QEBIACUPwc4wAEOJHRAACQcesSStSYnNA5wgAN1DggAAaD8OcABDnAgoQMCIOHQVXJdJeOFFwc4ENEBASAAlD8HOMABDiR0QAAkHHrEkrUmJzQOcIADdQ4IAAGg/DnAAQ5wIKEDAiDh0FVyXSXjhRcHOBDRAQEgAJQ/BzjAAQ4kdEAAJBx6xJK1Jic0DnCAA3UOCAABoPw5wAEOcCChAwIg4dBVcl0l44UXBzgQ0QEBIACUPwc4wAEOJHRAACQcesSStSYnNA5wgAN1DggAAaD8OcABDnAgoQMCIOHQVXJdJeOFFwc4ENEBASAAlD8HOMABDiR0QAAkHHrEkrUmJzQOcIADdQ4IAAGg/DnAAQ5wIKEDAiDh0FVyXSXjhRcHOBDRAQEgAJQ/BzjAAQ4kdEAAJBx6xJK1Jic0DnCAA3UOCAABoPw5wAEOcCChAwIg4dBVcl0l44UXBzgQ0QEBIACUPwc4wAEOJHRAACQcesSStSYnNA5wgAN1DggAAaD8OcABDnAgoQMCIOHQVXJdJeOFFwc4ENEBASAAlD8HOMABDiR0QAAkHHrEkrUmJzQOcIADdQ4IAAGg/DnAAQ5wIKEDAiDh0FVyXSXjhRcHOBDRAQEgAJQ/BzjAAQ4kdEAAJBx6xJK1Jic0DnCAA3UOCAABoPw5wAEOcCChAwIg4dBVcl0l44UXBzgQ0QEBIACUPwc4wAEOJHRAACQcesSStSYnNA5wgAN1DggAAaD8OcABDnAgoQMCIOHQVXJdJeOFFwc4ENEBASAAlD8HOMABDiR0QAAkHHrEkrUmJzQOcIADdQ4IAAGg/DnAAQ5wIKEDAiDh0FVyXSXjhRcHOBDRAQEgAJQ/BzjAAQ4kdEAAJBx6xJK1Jic0DnCAA3UOCAABoPw5wAEOcCChAwIg4dBVcl0l44UXBzgQ0QEBIACUPwc4wAEOJHRAACQcesSStSYnNA5wgAN1DggAAaD8OcABDnAgoQMCIOHQVXJdJeOFFwc4ENEBASAAlD8HOMABDiR0QAAkHHrEkrUmJzQOcIADdQ4IAAGg/DnAAQ5wIKEDAiDh0FVyXSXjhRcHOBDRAQEgAJQ/BzjAAQ4kdEAAJBx6xJK1Jic0DnCAA3UOCAABoPw5wAEOcCChAwIg4dBVcl0l44UXBzgQ0QEBIACUPwc4wAEOJHRAACQcesSStSYnNA5wgAN1DggAAaD8OcABDnAgoQMCIOHQVXJdJeOFFwc4ENEBASAAlD8HOMABDiR0QAAkHHrEkrUmJzQOcIADdQ4IAAGg/DnAAQ5wIKEDAiDh0FVyXSXjhRcHOBDRAQEgAJQ/BzjAAQ4kdEAAJBx6xJK1Jic0DnCAA3UOCAABoPw5wAEOcCChAwIg4dBVcl0l44UXBzgQ0QEBIACUPwc4wAEOJHRAACQcesSStSYnNA5wgAN1DggAAaD8OcABDnAgoQMCIOHQVXJdJeOFFwc4ENEBASAAlD8HOMABDiR0QAAkHHrEkrUmJzQOcIADdQ4IAAGg/DnAAQ5wIKEDAiDh0FVyXSXjhRcHOBDRAQEgAJQ/BzjAAQ4kdEAAJBx6xJK1Jic0DnCAA3UOCAABoPw5wAEOcCChAwIg4dBVcl0l44UXBzgQ0QEBIACUPwc4wAEOJHRAACQcesSStSYnNA5wgAN1DggAAaD8OcABDnAgoQMCIOHQVXJdJeOFFwc4ENEBASAAlD8HOMABDiR0QAAkHHrEkrUmJzQOcIADdQ4IAAGg/DnAAQ5wIKEDAiDh0FVyXSXjhRcHOBDRAQEgAJQ/BzjAAQ4kdEAAJBx6xJK1Jic0DnCAA3UOCAABoPw5wAEOcCChAwIg4dBVcl0l44UXBzgQ0QEBIACUPwc4wAEOJHRAACQcesSStSYnNA5wgAN1DggAAaD8OcABDnAgoQMCIOHQVXJdJeOFFwc4ENEBASAAlD8HOMABDiR0QAAkHHrEkrUmJzQOcIADdQ4IAAGg/DnAAQ5wIKEDAiDh0FVyXSXjhRcHOBDRAQEgAJQ/BzjAAQ4kdEAAJBx6xJK1Jic0DnCAA3UOCAABoPw5wAEOcCChAwIg4dBVcl0l44UXBzgQ0QEBIACUPwc4wAEOJHRAACQcesSStSYnNA5wgAN1DggAAaD8OcABDnAgoQMCIOHQVXJdJeOFFwc4ENEBASAAlD8HOMABDiR0QAAkHHrEkrUmJzQOcIADdQ4IAAGg/DnAAQ5wIKEDAiDh0FVyXSXjhRcHOBDRAQEgAJQ/BzjAAQ4kdEAAJBx6xJK1Jic0DnCAA3UOCAABoPw5wAEOcCChAwIg4dBVcl0l44UXBzgQ0QEBIACUPwc4wAEOJHRAACQcesSStSYnNA5wgAN1DggAAaD8OcABDnAgoQMCIOHQVXJdJeOFFwc4ENEBASAAlD8HOMABDiR0QAAkHHrEkrUmJzQOcIADdQ4IAAGg/DnAAQ5wIKEDAiDh0FVyXSXjhRcHOBDRAQEgAJQ/BzjAAQ4kdEAAJBx6xJK1Jic0DnCAA3UOCAABoPw5wAEOcCChAwIg4dBVcl0l44UXBzgQ0QEBIACUPwc4wAEOJHRAACQcesSStSYnNA5wgAN1DggAAaD8OcABDnAgoQMCIOHQVXJdJeOFFwc4ENEBASAAlD8HOMABDiR0QAAkHHrEkrUmJzQOcIADdQ4IAAGg/DnAAQ5wIKEDAiDh0FVyXSXjhRcHOBDRAQEgAJQ/BzjAAQ4kdEAAJBx6xJK1Jic0DnCAA3UOCAABoPw5wAEOcCChAwIg4dBVcl0l44UXBzgQ0QEBIACUPwc4wAEOJHRAACQcesSStSYnNA5wgAN1DggAAaD8OcABDnAgoQMCIOHQVXJdJeOFFwc4ENEBASAAlD8HOMABDiR0QAAkHHrEkrUmJzQOcIADdQ4IAAGg/DnAAQ5wIKEDAiDh0FVyXSXjhRcHOBDRAQEgAJQ/BzjAAQ4kdEAAJBx6xJK1Jic0DnCAA3UOCAABoPw5wAEOcCChAwIg4dBVcl0l44UXBzgQ0QEBIACUPwc4wAEOJHRAACQcesSStSYnNA5wgAN1DggAAaD8OcABDnAgoQMCIOHQVXJdJeOFFwc4ENEBASAAlD8HOMABDiR0QAAkHHrEkrUmJzQOcIADdQ4IAAGg/DnAAQ5wIKEDAiDh0FVyXSXjhRcHOBDRAQEgAJQ/BzjAAQ4kdEAAJBx6xJK1Jic0DnCAA3UOCAABoPw5wAEOcCChAwIg4dBVcl0l44UXBzgQ0QEBIACUPwc4wAEOJHRAACQcesSStSYnNA5wgAN1DggAAaD8OcABDnAgoQMCIOHQVXJdJeOFFwc4ENEBASAAlD8HOMABDiR0QAAkHHrEkrUmJzQOcIADdQ4IAAGg/DnAAQ5wIKEDAiDh0FVyXSXjhRcHOBDRAQEgAJQ/BzjAAQ4kdEAAJBx6xJK1Jic0DnCAA3UOCAABoPw5wAEOcCChAwIg4dBVcl0l44UXBzgQ0QEBIACUPwc4wAEOJHRAACQcesSStSYnNA5wgAN1DggAAaD8OcABDnAgoQMCIOHQVXJdJeOFFwc4ENEBASAAlD8HOMABDiR0QAAkHHrEkrUmJzQOcIADdQ4IAAGg/DnAAQ5wIKEDAiDh0FVyXSXjhRcHOBDRAQEgAJQ/BzjAAQ4kdEAAJBx6xJK1Jic0DnCAA3UOCAABoPw5wAEOcCChAwIg4dBVcl0l44UXBzgQ0QEBIACUPwc4wAEOJHRAACQcesSStSYnNA5wgAN1DggAAaD8OcABDnAgoQMCIOHQVXJdJeOFFwc4ENEBASAAlD8HOMABDiR0QAAkHHrEkrUmJzQOcIADdQ4IAAGg/DnAAQ5wIKEDAiDh0FVyXSXjhRcHOBDRAQEgAJQ/BzjAAQ4kdEAAJBx6xJK1Jic0DnCAA3UOCAABoPw5wAEOcCChAwIg4dBVcl0l44UXBzgQ0QEBIACUPwc4wAEOJHRAACQcesSStSYnNA5wgAN1DggAAaD8OcABDnAgoQMCIOHQVXJdJeOFFwc4ENEBASAAlD8HOMABDiR0QAAkHHrEkrUmJzQOcIADdQ4IAAGg/DnAAQ5wIKEDAiDh0FVyXSXjhRcHOBDRAQEgAJQ/BzjAAQ4kdEAAJBx6xJK1Jic0DnCAA3UOCAABoPw5wAEOcCChAwIg4dBVcl0l44UXBzgQ0QEBIACUPwc4wAEOJHRAACQcesSStSYnNA5wgAN1DggAAaD8OcABDnAgoQMCIOHQVXJdJeOFFwc4ENEBASAAlD8HOMABDiR0QAAkHHrEkrUmJzQOcIADdQ4IAAGg/DnAAQ5wIKEDAiDh0FVyXSXjhRcHOBDRAQEgAJQ/BzjAAQ4kdEAAJBx6xJK1Jic0DnCAA3UOCAABoPw5wAEOcCChAwIg4dBVcl0l44UXBzgQ0QEBIACUPwc4wAEOJHRAACQcesSStSYnNA5wgAN1DggAAaD8OcABDnAgoQMCIOHQVXJdJeOFFwc4ENEBASAAlD8HOMABDiR0QAAkHHrEkrUmJzQOcIADdQ4IAAGg/DnAAQ5wIKEDAiDh0FVyXSXjhRcHOBDRAQEgAJQ/BzjAAQ4kdEAAJBx6xJK1Jic0DnCAA3UOCAABoPw5wAEOcCChAwIg4dBVcl0l44UXBzgQ0QEBIACUPwc4wAEOJHRAACQcesSStSYnNA5wgAN1DggAAaD8OcABDnAgoQMCIOHQVXJdJeOFFwc4ENEBASAAlD8HOMABDiR0QAAkHHrEkrUmJzQOcIADdQ4IAAGg/DnAAQ5wIKEDAiDh0FVyXSXjhRcHOBDRAQEgAJQ/BzjAAQ4kdEAAJBx6xJK1Jic0DnCAA3UOCAABoPw5wAEOcCChAwIg4dBVcl0l44UXBzgQ0QEBIACUPwc4wAEOJHRAACQcesSStSYnNA5wgAN1DggAAaD8OcABDnAgoQMCIOHQVXJdJeOFFwc4ENEBASAAlD8HOMABDiR0QAAkHHrEkrUmJzQOcIADdQ4IAAGg/DnAAQ5wIKEDAiDh0FVyXSXjhRcHOBDRAQEgAJQ/BzjAAQ4kdEAAJBx6xJK1Jic0DnCAA3UOCAABoPw5wAEOcCChAwIg4dBVcl0l44UXBzgQ0QEBIACUPwc4wAEOJHRAACQcesSStSYnNA5wgAN1DggAAaD8OcABDnAgoQMCIOHQVXJdJeOFFwc4ENGBPgBORlyYNXnBcoADHOAAB17QgR/2AfAkQC8IyG0xd0g4wAEOcCCiA//TB8DjAkAAcIADHOAAB1I5cGJt1o5bQ0819Igla01OaBzgAAcqHJi1zbG1rh1/VQAIAA5wgAMc4EAqB+7u3wK43dBTDV0lV1Sy14bXBgc4ENSBv1qbtaNbgi7ORmej4wAHOMABDlzAgdnm6Oa16ebovQJA4XKAAxzgAAfyODCdHHzPWrlv/BNd22wZfJ7Bm7VZc4ADHEjtwKw8eOA1a/3/Zm0zIUNqGdwiu8AtMq8JrwkOcCCiA7NJc9+pzb//v2k7+kTERVqTFy8HOMABDnDgfAembfOxswHQHR9fD9D5gPDAgwMc4AAHQjowGb3/bACUe8av6Nrm6ZALdWvX7X0OcIADHODAGQee7vf8swHQ/0XXNn8rANQuBzjAAQ5wILADk+Yz523+/d9M2+YqQw88dPV7pn79mQsc4EBaB6bHml95XgCUcutLurZ5VASIAA5wgAMc4EBIBx4uZe2S5wVA/w9m7fjDhh5y6Glrl8985gAHOPCsA7PJ+KYLbv79PywPX/PybtJ8DywvGA5wgAMc4EAoB57o9/gXDIBn7wI0f2TooYbu9O/9Tg5wgAPJHeh/7s+Lbv6n7gIcue6V3eboMREgAjjAAQ5wgAMRHBg9Uh770KUXDYD+P+gmzTWGHmHo1sBjDnCAAxwY/8a2Nv8z/1E3aTZA88LhAAc4wAEOrLQDnz+zr2/7z+X4+M1d2/zA4Fd68N73S/6+n9ev1y8HUjvwVGk/+KZtb/zn/odd21zrRwWnlkdACAgOcIADq+nAVteOD5y7p1f/9bRtblOQIoADHOAABziwOg5MJ83Hqzf8537Aqe8N0Db/ZvCrM3izMisOcIADiR3YbL5Rjo9f9tz9fK6/L0fGPzZrx0cJlVio1bwF5taluXGAA6kcmE2azXJ8/Oq5NvsX+qBydPyGrm0eFwEigAMc4AAHODBIB57oH+B/oX18R/+8HBtf0bXNdwx+kINPVbkc5CAHOMCB8xz4Tjn6gfUdbfIX++DywMHXz9rmGPDngbf5us3IAQ5wgANLcWDaNsfn/u1+F9v0n/vv+/cXOg8GLmXQwkt4cYADHODAWQf6B/4mv/Wq5+7Tu/r35WtX/ch0s/mo7xNAxLMiqn9RyAEOcGCvHNjqf5v+wp72n6cYuklzQ9c2T9kEhAAHOMDJOgVdAAADdklEQVQBDnBgTxz4327SjOfZsxf+MeWBgz/pZwfsydD3qiz9Ok4xHOAAB4bpwOf37P3+mlo4/a2DTyhAMcABDnCAAxxYqAOPdm3lT/Wr2cAX8d+We8avmG02f9i1zX8a/kKHr8aHWePmYi4c4MBuOvDErB3/QXnsQ5cuYo/ek8/Rfwvh2aT53a4dPSIEhAAHOMABDnCgyoGHZ5PxTUt9yG8RtfDMZHzl6R8q9H0CVAmwm1Xpczu1cIADHBiWA0937ejvp5OD7yll7ZJF7L+D+Rz9LYz+PYz+pxTN2ub+rm1mgkAQcIADHOBAUgdms0lz33Rz9JfdZPT+lbrNv9OyKN/+zddO2/HVs83Rzd3m6JNd23zl9A8derRrmye7tjmZVApVPqwqNw/z4AAH5nGg38P6vezR03vb3f1e1+95p075Dx54zU73UR+PAAIIIIAAAggggAACCCCAAAIIIIAAAggggAACCCCAAAIIIIAAAggggAACCCCAAAIIIIAAAggggAACCCCAAAIIIIAAAggggAACCCCAAAIIIIAAAggggAACCCCAAAIIIIAAAggggAACCCCAAAIIIIAAAggggAACCCCAAAIIIIAAAggggAACCCCAAAIIIIAAAggggAACCCCAAAIIIIAAAggggAACCCCAAAIIIIAAAggggAACCCCAAAIIIIAAAggggAACCCCAAAIIIIAAAggggAACCCCAAAIIIIAAAggggAACCCCAAAIIIIAAAggggAACCCCAAAIIIIAAAggggAACCCCAAAIIIIAAAggggAACCCCAAAIIIIAAAggggAACCCCAAAIIIIAAAggggAACCCCAAAIIIIAAAggggAACCCCAAAIIIIAAAggggAACCCCAAAIIIIAAAggggAACCCCAAAIIIIAAAggggAACCCCAAAIIIIAAAggggAACCCCAAAIIIIAAAggggAACCCCAAAIIIIAAAggggAACCCCAAAIIIIAAAggggAACCCCAAAIIIIAAAggggAACCCCAAAIIIIAAAggggAACCCCAAAIIIIAAAggggAACCCCAAAIIIIAAAggggAACCCCAAAIIIIAAAggggAACCCCAAAIIIIAAAggggAACCCCAAAIIIIAAAggggAACCCCAAAIIIIAAAggggAACCCCAAAIIIIAAAggggAACCGQm8P81IGYrl8k4gQAAAABJRU5ErkJggg==;" parent="1" vertex="1">
          <mxGeometry x="114" y="240" width="52" height="52" as="geometry" />
        </mxCell>
        <mxCell id="ejDFjRWyY2k5rN37OPCX-19" style="edgeStyle=orthogonalEdgeStyle;rounded=0;orthogonalLoop=1;jettySize=auto;html=1;entryX=0;entryY=0.5;entryDx=0;entryDy=0;" parent="1" source="ejDFjRWyY2k5rN37OPCX-6" target="ejDFjRWyY2k5rN37OPCX-14" edge="1">
          <mxGeometry relative="1" as="geometry" />
        </mxCell>
        <mxCell id="ejDFjRWyY2k5rN37OPCX-6" value="" style="shape=image;verticalLabelPosition=bottom;labelBackgroundColor=default;verticalAlign=top;aspect=fixed;imageAspect=0;image=data:image/png,iVBORw0KGgoAAAANSUhEUgAAAgAAAAIACAYAAAD0eNT6AAAAAXNSR0IArs4c6QAAIABJREFUeAHt3V2sZWdZwPFTIlBIjPIhCeHDxs6cIviFjV4Q1Ao0UOzXzF47oFckmhqoVhP1ypuaeEEMEipUIomSmHjTCMyZArWggWAsMR3amb3OtNKPaaHihdJSvWK61z6vWdOZyUw77Zx3n33OXvt5fiSln+fMef/Pf6/3/6695py1Nf9DAAEEEEAAAQQQQAABBBBAAAEEEEAAAQQQQAABBBBAAAEEEEAAAQQQQAABBBBAAAEEEEAAAQQQQAABBBBAAAEEEEAAAQQQQAABBBBAAAEEEEAAAQQQQAABBBBAAAEEEEAAAQQQQAABBBBAAAEEEEAAAQQQQAABBBBAAAEEEEAAAQQQQAABBBBAAAEEEEAAAQQQQAABBBBAAAEEEEAAAQQQQAABBBBAAAEEEEAAAQQQQAABBBBAAAEEEEAAAQQQQAABBBBAAAEEEEAAAQQQQAABBBBAAAEEEEAAAQQQQAABBBBAAAEEEEAAAQQQQAABBBBAAAEEEEAAAQQQQAABBBBAAAEEEEAAAQQQQAABBBBAAAEEEEAAAQQQQAABBBBAAAEEEEAAAQQQQAABBBBAAAEEEEAAAQQQQAABBBBAAAEEEEAAAQQQQAABBBBAAAEEEEAAAQQQQAABBBBAAAEEEEAAAQQQQAABBBBAAAEEEEAAAQQQQAABBBBAAAEEEEAAAQQQQAABBBBAAAEEEEAAAQQQQAABBBBAAAEEEEAAAQQQQAABBBBAAAEEEEAAAQQQQAABBBBAAAEEEEAAAQQQQAABBBBAAAEEEEAAAQQQQAABBBBAAAEEEEAAAQQQQAABBBBAAAEEEEAAAQQQQAABBBBAAAEEEEAAAQQQQAABBBBAAAEEEEAAAQQQQAABBBBAAAEEEEAAAQQQQAABBBBAAAEEEEAAAQQQQAABBBCYm0A5duB1083Re2ft6JaubW7vNpt/nrXNpGubR7u2eaprm5Nd2xR/hGDwf6dn+sRs0tzXTZq7us3RZ2ft+E+7dvyBZ46P3l6O3PTSuWXygQgggAACwyVQjlz3ym7S3DBtm9tOb/RbNvcQm/uiIq0Pvnu7dvTXfRT0gThcm31lCCCAAAIvSqCUW18ybZur+tNe1zb9KXBRm4XPE5/l1qxtjk03R3/2zPHxL7yoaP4lAggggMAwCJTHPnTpbLP5SNc2J2z6omcRDkzb5qH+LYNy7OAbh2G5rwIBBBBA4CyB/jb/rG3+uGub/1rERd/nEA8XcKDr2uaL0+Pjd50Vz18ggAACCCyPQP/+ftc2j1/ggu12ffzb9UuZ8axt7j/1vEC59SXLM9+vjAACCCQlUO7/4GVd29xp43daX5YDpx4qnYxuLGXtkqQvQ8tGAAEE9pZANxndePq3dy3lBLisDcevO9jY+fdnjo9/eW9fBX41BBBAIBGB8vA1L+8mzadshIPdCDMHWde7Wf7j+h9N9JK0VAQQQGD3CZQHD7yma8fftPnb/AfuwOPTycH37P4rwq+AAAIIJCBQ2g++adqOHhj4hT/z6dfaz3/gcqv/xlP9HasEL09LRAABBHaHQJmM3tK1o+/a/J38V9CBe8vk4E/tzivDZ0UAAQQCE+hP/jZ/G/8Kbvzn3hH5wbQdXx34ZWppCCCAwGIJ9O/5u+1v81/xzf9MCHSztvn9xb5CfDYEEEAgIIFTT/t74O/M5uHP57+/vrI8ppvNR33PgIAXLEtCAIHFEfBb/Zz8g5z8LxQrn+5/WNXiXi0+EwIIIBCEQHd83AS++F9oQ/DPgpzwt+3t5uiz7gQEuWBZBgIILIbA6W/v+/S2L6TZNg7rjRNLm6NPLuZV47MggAACAQj43v5u/WeKv2k7+vMAL1tLQAABBHZG4PT3949zwnNaN8ttODCbjG/a2SvHRyOAAAIrTKAcue6VfqSv03+m0/85az05nYx/bYVfvr50BBBAYH4Cs3b8J+dcEJ0ct3FyxCtUMD3pOwbOf/3wkQggsKIETv+Ev+/Z0EJtaCKuMuJm7fhofydsRV/GvmwEEECgnsBss/mIzd/mz4GmdJujf6h/BfkIBBBAYAUJ9N8QpWubEy7+AoADzzqw9fV3lLKx3x8YcIAD8zpwsmysP1U29j9aNvYfKxv7v1I29n2qbKz/XtnYf3W5c/21g8iF6ebBX3fht/lz4FwHRmXrq1fO+8L3cTYNDnDgYg7Mysb+o+Xw+sfL4f3Xlq9ddulSgqBrm79z8T/34u+v+dCU7uiBUr70tou9iP17F3oOcGARDjxdNvZ9phxef+eefYfScs/4FV3b+K5/lQ+L2SBzRNLsW9eWcviKRby4fQ6bBAc4sF0HHiqH1n+n3PHWl+3qXYFu0txgM8uxmZnzfHOeffPd233R+u9c4DnAgUU68EQ5tP+WXXt7YNo2t9kY5tsYcMvDzUOBHoj0UCgHlujAI2Xj8vct/G7ArG0mNrI8G5lZzztrDwUu8eK3yBOVz+WEvroOHNr/j+XO9TcsJATKsQOv69pmy6Yw76bg41K5c/RGDwXaPFZ38zC7KLP7fv+7BnYcAdPN0XtTXcA96Oc7A+7QAQ8Fug3sTggHBuDAVtnY97HyN1e+dO4QmLWjWwSAUzwH6hzwUKANYAAbQJTTrHXs7M7M18sXLvvxuSKga5vbXfzrLv544dU74KFAESACODAQBzbL5/a9sToCunb8VRuaDY0D8zmwdffbnV52dnrBDz8OLMaBE+UL+y6vioBZO25d/Oe7+OOGm+8U6AQ4kBOgTXQxm+iqczxRPvfTr992BHRt87iNzEbGgfkd8FCgCBABHBiMA4f2t+WLb37VtiKga5snXfznv/hjh13vgIcCbQCD2QCchFf9FL+Ir//r2/rdAV3bnLSJ2cQ4sHMHPBQoAkQABwbkwF9c9C6AC//OL/wYYvisA75T4IAufos4Rfkc7iassgNb5fC+G140AmxeNi8OLNABPz54lS+YvnYbfjQHvv+i3zbYxX+BF/8dfoc5s4gxCw8Fug3sTggHhuPA+h0veBfAphNj0zHHYc3RQ4E2gOFsAGaRfhaH1t9/wQiwcQxr4zCPOPPwUKCNJ/3G4y2Fobyl8FD58r6XPy8CbDhxNhyzHNosPRRoAxRBHBiIA4fWbxYA3qf30wD30gEPBQ7lBOTrcBrP7sB3yx1vfdl5EeDUOLRTo68nmpMeChzICcgGmH0DtP7D+35bAOzlCdCv5Y6D7xTowis+ODAIB/Z9u5S1S85GQLTTlvW4gzBUBzwU6E6A98M5sHQHDl3+DgHgZO5kvucO9A8F/qKT0CBOQjaipW9EPFjWteDTAmDPL/5O5kM9me/p1+WhwGVd9Py6NlwOnHJg/amzvyVwTy9+Nl2nbg4UDwU6fTt9c2CpDhxev+bUXQAB4GTOgb13wHcKtAEsdQNwNyD73YBnf1Kgi//eX/wxx7x3wEOBIkAEcGApDhzef8QdALejvSWxVAc8FLiUi5/Tb/bTr/Vv7J+VO9726jWnUadRDizRAQ8FuhgLEg4sw4HDV7xLACz1BLjEjce6B3P3w0OBbgO7E8KBvXdg34cFgI1wMBth5jsRHgq0Aez9BoB5cuafEAACQAAMxAEPBdqQkm9I3grY07cC1u8SAAO5+Gc+/Vr7mbeCPBRoAxRBHNgzB+4XAALAHYAhOeChQKfAPT0F7tlmY67Dm+sjAmBIF39fixjpf3Lgt64t5fAVLpjDu2CaiZlEcuC/BYBN16Y7QAc8FOhk6lY4B3bZgR8KgAFe/L0nfuY98dx/9lCgDWCXN4BIp1lrmePujAAQAO4ADNYBDwXaAEUQB3bPAQEw2It/7tOvuyCn5++hQCe7OU52Ns3d2zQjsRUAAsAdgIE74KFAF/NIm461DMdnATDwi7+TsDshvQMeChzORdMGZhZRHBAAAsAdgBVxwEOBNp4oG491DMNlAbAiF393AtwJ6FoPBdo4hrFxmEOMOQgAAeAOwCo5cOxA2brrZz0Y58E4DnBgxw4IgFW6+PtaxUrvwNEbSvnS23b84neKi3GKM0dznNcBAWBTtamuogP3X1/Kl39GBDgFcoADczsgAFbx4u9rFi29A0dvLFt3//zcL/55Tw0+zomTAzEcEAA2U5vpijsw+8Y7S9lYFwJOghzgQJUDAmDFL/5+d4DfHXDq+wTce03Z+qefq3rxO8XFOMWZoznO64AAEADuAERxYDIqs3ve7dkAp0AhyIFtOSAAolz8rUPInOPA7N73la1/+aVS7nzLti4E854gfJzTJwdW1wEBcM5F0+10t9MjOtDHwOxff/VUEJz6HgJfemspd14hDJwSOZDcAQEgAJycOcABDnAgoQMCIOHQI55yrcndGw5wgAN1DggAAaD8OcABDnAgoQMCIOHQVXJdJeOFFwc4ENEBASAAlD8HOMABDiR0QAAkHHrEkrUmJzQOcIADdQ4IAAGg/DnAAQ5wIKEDAiDh0FVyXSXjhRcHOBDRAQEgAJQ/BzjAAQ4kdEAAJBx6xJK1Jic0DnCAA3UOCAABoPw5wAEOcCChAwIg4dBVcl0l44UXBzgQ0QEBIACUPwc4wAEOJHRAACQcesSStSYnNA5wgAN1DggAAaD8OcABDnAgoQMCIOHQVXJdJeOFFwc4ENEBASAAlD8HOMABDiR0QAAkHHrEkrUmJzQOcIADdQ4IAAGg/DnAAQ5wIKEDAiDh0FVyXSXjhRcHOBDRAQEgAJQ/BzjAAQ4kdEAAJBx6xJK1Jic0DnCAA3UOCAABoPw5wAEOcCChAwIg4dBVcl0l44UXBzgQ0QEBIACUPwc4wAEOJHRAACQcesSStSYnNA5wgAN1DggAAaD8OcABDnAgoQMCIOHQVXJdJeOFFwc4ENEBASAAlD8HOMABDiR0QAAkHHrEkrUmJzQOcIADdQ4IAAGg/DnAAQ5wIKEDAiDh0FVyXSXjhRcHOBDRAQEgAJQ/BzjAAQ4kdEAAJBx6xJK1Jic0DnCAA3UOCAABoPw5wAEOcCChAwIg4dBVcl0l44UXBzgQ0QEBIACUPwc4wAEOJHRAACQcesSStSYnNA5wgAN1DggAAaD8OcABDnAgoQMCIOHQVXJdJeOFFwc4ENEBASAAlD8HOMABDiR0QAAkHHrEkrUmJzQOcIADdQ4IAAGg/DnAAQ5wIKEDAiDh0FVyXSXjhRcHOBDRAQEgAJQ/BzjAAQ4kdEAAJBx6xJK1Jic0DnCAA3UOCAABoPw5wAEOcCChAwIg4dBVcl0l44UXBzgQ0QEBIACUPwc4wAEOJHRAACQcesSStSYnNA5wgAN1DggAAaD8OcABDnAgoQMCIOHQVXJdJeOFFwc4ENEBASAAlD8HOMABDiR0QAAkHHrEkrUmJzQOcIADdQ4IAAGg/DnAAQ5wIKEDAiDh0FVyXSXjhRcHOBDRAQEgAJQ/BzjAAQ4kdEAAJBx6xJK1Jic0DnCAA3UOCAABoPw5wAEOcCChAwIg4dBVcl0l44UXBzgQ0QEBIACUPwc4wAEOJHRAACQcesSStSYnNA5wgAN1DggAAaD8OcABDnAgoQMCIOHQVXJdJeOFFwc4ENEBASAAlD8HOMABDiR0QAAkHHrEkrUmJzQOcIADdQ4IAAGg/DnAAQ5wIKEDAiDh0FVyXSXjhRcHOBDRAQEgAJQ/BzjAAQ4kdEAAJBx6xJK1Jic0DnCAA3UOCAABoPw5wAEOcCChAwIg4dBVcl0l44UXBzgQ0QEBIACUPwc4wAEOJHRAACQcesSStSYnNA5wgAN1DggAAaD8OcABDnAgoQMCIOHQVXJdJeOFFwc4ENEBASAAlD8HOMABDiR0QAAkHHrEkrUmJzQOcIADdQ4IAAGg/DnAAQ5wIKEDAiDh0FVyXSXjhRcHOBDRAQEgAJQ/BzjAAQ4kdEAAJBx6xJK1Jic0DnCAA3UOCAABoPw5wAEOcCChAwIg4dBVcl0l44UXBzgQ0QEBIACUPwc4wAEOJHRAACQcesSStSYnNA5wgAN1DggAAaD8OcABDnAgoQMCIOHQVXJdJeOFFwc4ENEBASAAlD8HOMABDiR0QAAkHHrEkrUmJzQOcIADdQ4IAAGg/DnAAQ5wIKEDAiDh0FVyXSXjhRcHOBDRAQEgAJQ/BzjAAQ4kdEAAJBx6xJK1Jic0DnCAA3UOCAABoPw5wAEOcCChAwIg4dBVcl0l44UXBzgQ0QEBIACUPwc4wAEOJHRAACQcesSStSYnNA5wgAN1DggAAaD8OcABDnAgoQMCIOHQVXJdJeOFFwc4ENEBASAAlD8HOMABDiR0QAAkHHrEkrUmJzQOcIADdQ4IAAGg/DnAAQ5wIKEDAiDh0FVyXSXjhRcHOBDRAQEgAJQ/BzjAAQ4kdEAAJBx6xJK1Jic0DnCAA3UOCAABoPw5wAEOcCChAwIg4dBVcl0l44UXBzgQ0QEBIACUPwc4wAEOJHRAACQcesSStSYnNA5wgAN1DggAAaD8OcABDnAgoQMCIOHQVXJdJeOFFwc4ENEBASAAlD8HOMABDiR0QAAkHHrEkrUmJzQOcIADdQ4IAAGg/DnAAQ5wIKEDAiDh0FVyXSXjhRcHOBDRAQEgAJQ/BzjAAQ4kdEAAJBx6xJK1Jic0DnCAA3UOCAABoPw5wAEOcCChAwIg4dBVcl0l44UXBzgQ0QEBIACUPwc4wAEOJHRAACQcesSStSYnNA5wgAN1DggAAaD8OcABDnAgoQMCIOHQVXJdJeOFFwc4ENEBASAAlD8HOMABDiR0QAAkHHrEkrUmJzQOcIADdQ4IAAGg/DnAAQ5wIKEDAiDh0FVyXSXjhRcHOBDRAQEgAJQ/BzjAAQ4kdEAAJBx6xJK1Jic0DnCAA3UOCAABoPw5wAEOcCChAwIg4dBVcl0l44UXBzgQ0QEBIACUPwc4wAEOJHRAACQcesSStSYnNA5wgAN1DggAAaD8OcABDnAgoQMCIOHQVXJdJeOFFwc4ENEBASAAlD8HOMABDiR0QAAkHHrEkrUmJzQOcIADdQ4IAAGg/DnAAQ5wIKEDAiDh0FVyXSXjhRcHOBDRAQEgAJQ/BzjAAQ4kdEAAJBx6xJK1Jic0DnCAA3UOCAABoPw5wAEOcCChAwIg4dBVcl0l44UXBzgQ0QEBIACUPwc4wAEOJHRAACQcesSStSYnNA5wgAN1DggAAaD8OcABDnAgoQMCIOHQVXJdJeOFFwc4ENEBASAAlD8HOMABDiR0QAAkHHrEkrUmJzQOcIADdQ4IAAGg/DnAAQ5wIKEDAiDh0FVyXSXjhRcHOBDRAQEgAJQ/BzjAAQ4kdEAAJBx6xJK1Jic0DnCAA3UOCAABoPw5wAEOcCChAwIg4dBVcl0l44UXBzgQ0QEBIACUPwc4wAEOJHRAACQcesSStSYnNA5wgAN1DggAAaD8OcABDnAgoQMCIOHQVXJdJeOFFwc4ENEBASAAlD8HOMABDiR0QAAkHHrEkrUmJzQOcIADdQ4IAAGg/DnAAQ5wIKEDAiDh0FVyXSXjhRcHOBDRAQEgAJQ/BzjAAQ4kdEAAJBx6xJK1Jic0DnCAA3UOCAABoPw5wAEOcCChAwIg4dBVcl0l44UXBzgQ0QEBIACUPwc4wAEOJHRAACQcesSStSYnNA5wgAN1DggAAaD8OcABDnAgoQMCIOHQVXJdJeOFFwc4ENEBASAAlD8HOMABDiR0QAAkHHrEkrUmJzQOcIADdQ4IAAGg/DnAAQ5wIKEDAiDh0FVyXSXjhRcHOBDRAQEgAJQ/BzjAAQ4kdEAAJBx6xJK1Jic0DnCAA3UOCAABoPw5wAEOcCChAwIg4dBVcl0l44UXBzgQ0QEBIACUPwc4wAEOJHRAACQcesSStSYnNA5wgAN1DggAAaD8OcABDnAgoQMCIOHQVXJdJeOFFwc4ENEBASAAlD8HOMABDiR0QAAkHHrEkrUmJzQOcIADdQ4IAAGg/DnAAQ5wIKEDAiDh0FVyXSXjhRcHOBDRAQEgAJQ/BzjAAQ4kdEAAJBx6xJK1Jic0DnCAA3UOCAABoPw5wAEOcCChAwIg4dBVcl0l44UXBzgQ0QEBIACUPwc4wAEOJHRAACQcesSStSYnNA5wgAN1DggAAaD8OcABDnAgoQMCIOHQVXJdJeOFFwc4ENEBASAAlD8HOMABDiR0QAAkHHrEkrUmJzQOcIADdQ4IAAGg/DnAAQ5wIKEDAiDh0FVyXSXjhRcHOBDRAQEgAJQ/BzjAAQ4kdEAAJBx6xJK1Jic0DnCAA3UOCAABoPw5wAEOcCChAwIg4dBVcl0l44UXBzgQ0QEBIACUPwc4wAEOJHRAACQcesSStSYnNA5wgAN1DggAAaD8OcABDnAgoQMCIOHQVXJdJeOFFwc4ENEBASAAlD8HOMABDiR0QAAkHHrEkrUmJzQOcIADdQ4IAAGg/DnAAQ5wIKEDAiDh0FVyXSXjhRcHOBDRAQEgAJQ/BzjAAQ4kdEAAJBx6xJK1Jic0DnCAA3UOCAABoPw5wAEOcCChAwIg4dBVcl0l44UXBzgQ0QEBIACUPwc4wAEOJHRAACQcesSStSYnNA5wgAN1DggAAaD8OcABDnAgoQMCIOHQVXJdJeOFFwc4ENEBASAAlD8HOMABDiR0QAAkHHrEkrUmJzQOcIADdQ4IAAGg/DnAAQ5wIKEDAiDh0FVyXSXjhRcHOBDRAQEgAJQ/BzjAAQ4kdEAAJBx6xJK1Jic0DnCAA3UOCAABoPw5wAEOcCChAwIg4dBVcl0l44UXBzgQ0QEBIACUPwc4wAEOJHRAACQcesSStSYnNA5wgAN1DggAAaD8OcABDnAgoQMCIOHQVXJdJeOFFwc4ENEBASAAlD8HOMABDiR0QAAkHHrEkrUmJzQOcIADdQ4IAAGg/DnAAQ5wIKEDAiDh0FVyXSXjhRcHOBDRAQEgAJQ/BzjAAQ4kdEAAJBx6xJK1Jic0DnCAA3UOCAABoPw5wAEOcCChAwIg4dBVcl0l44UXBzgQ0QEBIACUPwc4wAEOJHRAACQcesSStSYnNA5wgAN1DggAAaD8OcABDnAgoQMCIOHQVXJdJeOFFwc4ENEBASAAlD8HOMABDiR0QAAkHHrEkrUmJzQOcIADdQ4IAAGg/DnAAQ5wIKEDAiDh0FVyXSXjhRcHOBDRAQEgAJQ/BzjAAQ4kdEAAJBx6xJK1Jic0DnCAA3UOCAABoPw5wAEOcCChAwIg4dBVcl0l44UXBzgQ0QEBIACUPwc4wAEOJHRAACQcesSStSYnNA5wgAN1DggAAaD8OcABDnAgoQMCIOHQVXJdJeOFFwc4ENEBASAAlD8HOMABDiR0QAAkHHrEkrUmJzQOcIADdQ4IAAGg/DnAAQ5wIKEDAiDh0FVyXSXjhRcHOBDRAQEgAJQ/BzjAAQ4kdEAAJBx6xJK1Jic0DnCAA3UOCAABoPw5wAEOcCChAwIg4dBVcl0l44UXBzgQ0QEBIACUPwc4wAEOJHRAACQcesSStSYnNA5wgAN1DggAAaD8OcABDnAgoQMCIOHQVXJdJeOFFwc4ENEBASAAlD8HOMABDiR0QAAkHHrEkrUmJzQOcIADdQ4IAAGg/DnAAQ5wIKEDAiDh0FVyXSXjhRcHOBDRAQEgAJQ/BzjAAQ4kdEAAJBx6xJK1Jic0DnCAA3UOCAABoPw5wAEOcCChAwIg4dBVcl0l44UXBzgQ0QEBIACUPwc4wAEOJHRAACQcesSStSYnNA5wgAN1DggAAaD8OcABDnAgoQMCIOHQVXJdJeOFFwc4ENGBPgBORlyYNXnBcoADHOAAB17QgR/2AfAkQC8IyG0xd0g4wAEOcCCiA//TB8DjAkAAcIADHOAAB1I5cGJt1o5bQ0819Igla01OaBzgAAcqHJi1zbG1rh1/VQAIAA5wgAMc4EAqB+7u3wK43dBTDV0lV1Sy14bXBgc4ENSBv1qbtaNbgi7ORmej4wAHOMABDlzAgdnm6Oa16ebovQJA4XKAAxzgAAfyODCdHHzPWrlv/BNd22wZfJ7Bm7VZc4ADHEjtwKw8eOA1a/3/Zm0zIUNqGdwiu8AtMq8JrwkOcCCiA7NJc9+pzb//v2k7+kTERVqTFy8HOMABDnDgfAembfOxswHQHR9fD9D5gPDAgwMc4AAHQjowGb3/bACUe8av6Nrm6ZALdWvX7X0OcIADHODAGQee7vf8swHQ/0XXNn8rANQuBzjAAQ5wILADk+Yz523+/d9M2+YqQw88dPV7pn79mQsc4EBaB6bHml95XgCUcutLurZ5VASIAA5wgAMc4EBIBx4uZe2S5wVA/w9m7fjDhh5y6Glrl8985gAHOPCsA7PJ+KYLbv79PywPX/PybtJ8DywvGA5wgAMc4EAoB57o9/gXDIBn7wI0f2TooYbu9O/9Tg5wgAPJHeh/7s+Lbv6n7gIcue6V3eboMREgAjjAAQ5wgAMRHBg9Uh770KUXDYD+P+gmzTWGHmHo1sBjDnCAAxwY/8a2Nv8z/1E3aTZA88LhAAc4wAEOrLQDnz+zr2/7z+X4+M1d2/zA4Fd68N73S/6+n9ev1y8HUjvwVGk/+KZtb/zn/odd21zrRwWnlkdACAgOcIADq+nAVteOD5y7p1f/9bRtblOQIoADHOAABziwOg5MJ83Hqzf8537Aqe8N0Db/ZvCrM3izMisOcIADiR3YbL5Rjo9f9tz9fK6/L0fGPzZrx0cJlVio1bwF5taluXGAA6kcmE2azXJ8/Oq5NvsX+qBydPyGrm0eFwEigAMc4AAHODBIB57oH+B/oX18R/+8HBtf0bXNdwx+kINPVbkc5CAHOMCB8xz4Tjn6gfUdbfIX++DywMHXz9rmGPDngbf5us3IAQ5wgANLcWDaNsfn/u1+F9v0n/vv+/cXOg8GLmXQwkt4cYADHODAWQf6B/4mv/Wq5+7Tu/r35WtX/ch0s/mo7xNAxLMiqn9RyAEOcGCvHNjqf5v+wp72n6cYuklzQ9c2T9kEhAAHOMDJOgVdAAADdklEQVQBDnBgTxz4327SjOfZsxf+MeWBgz/pZwfsydD3qiz9Ok4xHOAAB4bpwOf37P3+mlo4/a2DTyhAMcABDnCAAxxYqAOPdm3lT/Wr2cAX8d+We8avmG02f9i1zX8a/kKHr8aHWePmYi4c4MBuOvDErB3/QXnsQ5cuYo/ek8/Rfwvh2aT53a4dPSIEhAAHOMABDnCgyoGHZ5PxTUt9yG8RtfDMZHzl6R8q9H0CVAmwm1Xpczu1cIADHBiWA0937ejvp5OD7yll7ZJF7L+D+Rz9LYz+PYz+pxTN2ub+rm1mgkAQcIADHOBAUgdms0lz33Rz9JfdZPT+lbrNv9OyKN/+zddO2/HVs83Rzd3m6JNd23zl9A8derRrmye7tjmZVApVPqwqNw/z4AAH5nGg38P6vezR03vb3f1e1+95p075Dx54zU73UR+PAAIIIIAAAggggAACCCCAAAIIIIAAAggggAACCCCAAAIIIIAAAggggAACCCCAAAIIIIAAAggggAACCCCAAAIIIIAAAggggAACCCCAAAIIIIAAAggggAACCCCAAAIIIIAAAggggAACCCCAAAIIIIAAAggggAACCCCAAAIIIIAAAggggAACCCCAAAIIIIAAAggggAACCCCAAAIIIIAAAggggAACCCCAAAIIIIAAAggggAACCCCAAAIIIIAAAggggAACCCCAAAIIIIAAAggggAACCCCAAAIIIIAAAggggAACCCCAAAIIIIAAAggggAACCCCAAAIIIIAAAggggAACCCCAAAIIIIAAAggggAACCCCAAAIIIIAAAggggAACCCCAAAIIIIAAAggggAACCCCAAAIIIIAAAggggAACCCCAAAIIIIAAAggggAACCCCAAAIIIIAAAggggAACCCCAAAIIIIAAAggggAACCCCAAAIIIIAAAggggAACCCCAAAIIIIAAAggggAACCCCAAAIIIIAAAggggAACCCCAAAIIIIAAAggggAACCCCAAAIIIIAAAggggAACCCCAAAIIIIAAAggggAACCCCAAAIIIIAAAggggAACCCCAAAIIIIAAAggggAACCCCAAAIIIIAAAggggAACCCCAAAIIIIAAAggggAACCCCAAAIIIIAAAggggAACCCCAAAIIIIAAAggggAACCCCAAAIIIIAAAggggAACCGQm8P81IGYrl8k4gQAAAABJRU5ErkJggg==;" parent="1" vertex="1">
          <mxGeometry x="114" y="310" width="52" height="52" as="geometry" />
        </mxCell>
        <mxCell id="ejDFjRWyY2k5rN37OPCX-20" style="edgeStyle=orthogonalEdgeStyle;rounded=0;orthogonalLoop=1;jettySize=auto;html=1;entryX=0;entryY=0.5;entryDx=0;entryDy=0;" parent="1" source="ejDFjRWyY2k5rN37OPCX-7" target="ejDFjRWyY2k5rN37OPCX-15" edge="1">
          <mxGeometry relative="1" as="geometry" />
        </mxCell>
        <mxCell id="ejDFjRWyY2k5rN37OPCX-7" value="" style="shape=image;verticalLabelPosition=bottom;labelBackgroundColor=default;verticalAlign=top;aspect=fixed;imageAspect=0;image=data:image/png,iVBORw0KGgoAAAANSUhEUgAAAgAAAAIACAYAAAD0eNT6AAAAAXNSR0IArs4c6QAAIABJREFUeAHt3V2sZWdZwPFTIlBIjPIhCeHDxs6cIviFjV4Q1Ao0UOzXzF47oFckmhqoVhP1ypuaeEEMEipUIomSmHjTCMyZArWggWAsMR3amb3OtNKPaaHihdJSvWK61z6vWdOZyUw77Zx3n33OXvt5fiSln+fMef/Pf6/3/6695py1Nf9DAAEEEEAAAQQQQAABBBBAAAEEEEAAAQQQQAABBBBAAAEEEEAAAQQQQAABBBBAAAEEEEAAAQQQQAABBBBAAAEEEEAAAQQQQAABBBBAAAEEEEAAAQQQQAABBBBAAAEEEEAAAQQQQAABBBBAAAEEEEAAAQQQQAABBBBAAAEEEEAAAQQQQAABBBBAAAEEEEAAAQQQQAABBBBAAAEEEEAAAQQQQAABBBBAAAEEEEAAAQQQQAABBBBAAAEEEEAAAQQQQAABBBBAAAEEEEAAAQQQQAABBBBAAAEEEEAAAQQQQAABBBBAAAEEEEAAAQQQQAABBBBAAAEEEEAAAQQQQAABBBBAAAEEEEAAAQQQQAABBBBAAAEEEEAAAQQQQAABBBBAAAEEEEAAAQQQQAABBBBAAAEEEEAAAQQQQAABBBBAAAEEEEAAAQQQQAABBBBAAAEEEEAAAQQQQAABBBBAAAEEEEAAAQQQQAABBBBAAAEEEEAAAQQQQAABBBBAAAEEEEAAAQQQQAABBBBAAAEEEEAAAQQQQAABBBBAAAEEEEAAAQQQQAABBBBAAAEEEEAAAQQQQAABBBBAAAEEEEAAAQQQQAABBBBAAAEEEEAAAQQQQAABBBBAAAEEEEAAAQQQQAABBBBAAAEEEEAAAQQQQAABBBBAAAEEEEAAAQQQQAABBBBAAAEEEEAAAQQQQAABBBBAAAEEEEAAAQQQQAABBBBAAAEEEEAAAQQQQAABBBCYm0A5duB1083Re2ft6JaubW7vNpt/nrXNpGubR7u2eaprm5Nd2xR/hGDwf6dn+sRs0tzXTZq7us3RZ2ft+E+7dvyBZ46P3l6O3PTSuWXygQgggAACwyVQjlz3ym7S3DBtm9tOb/RbNvcQm/uiIq0Pvnu7dvTXfRT0gThcm31lCCCAAAIvSqCUW18ybZur+tNe1zb9KXBRm4XPE5/l1qxtjk03R3/2zPHxL7yoaP4lAggggMAwCJTHPnTpbLP5SNc2J2z6omcRDkzb5qH+LYNy7OAbh2G5rwIBBBBA4CyB/jb/rG3+uGub/1rERd/nEA8XcKDr2uaL0+Pjd50Vz18ggAACCCyPQP/+ftc2j1/ggu12ffzb9UuZ8axt7j/1vEC59SXLM9+vjAACCCQlUO7/4GVd29xp43daX5YDpx4qnYxuLGXtkqQvQ8tGAAEE9pZANxndePq3dy3lBLisDcevO9jY+fdnjo9/eW9fBX41BBBAIBGB8vA1L+8mzadshIPdCDMHWde7Wf7j+h9N9JK0VAQQQGD3CZQHD7yma8fftPnb/AfuwOPTycH37P4rwq+AAAIIJCBQ2g++adqOHhj4hT/z6dfaz3/gcqv/xlP9HasEL09LRAABBHaHQJmM3tK1o+/a/J38V9CBe8vk4E/tzivDZ0UAAQQCE+hP/jZ/G/8Kbvzn3hH5wbQdXx34ZWppCCCAwGIJ9O/5u+1v81/xzf9MCHSztvn9xb5CfDYEEEAgIIFTT/t74O/M5uHP57+/vrI8ppvNR33PgIAXLEtCAIHFEfBb/Zz8g5z8LxQrn+5/WNXiXi0+EwIIIBCEQHd83AS++F9oQ/DPgpzwt+3t5uiz7gQEuWBZBgIILIbA6W/v+/S2L6TZNg7rjRNLm6NPLuZV47MggAACAQj43v5u/WeKv2k7+vMAL1tLQAABBHZG4PT3949zwnNaN8ttODCbjG/a2SvHRyOAAAIrTKAcue6VfqSv03+m0/85az05nYx/bYVfvr50BBBAYH4Cs3b8J+dcEJ0ct3FyxCtUMD3pOwbOf/3wkQggsKIETv+Ev+/Z0EJtaCKuMuJm7fhofydsRV/GvmwEEECgnsBss/mIzd/mz4GmdJujf6h/BfkIBBBAYAUJ9N8QpWubEy7+AoADzzqw9fV3lLKx3x8YcIAD8zpwsmysP1U29j9aNvYfKxv7v1I29n2qbKz/XtnYf3W5c/21g8iF6ebBX3fht/lz4FwHRmXrq1fO+8L3cTYNDnDgYg7Mysb+o+Xw+sfL4f3Xlq9ddulSgqBrm79z8T/34u+v+dCU7uiBUr70tou9iP17F3oOcGARDjxdNvZ9phxef+eefYfScs/4FV3b+K5/lQ+L2SBzRNLsW9eWcviKRby4fQ6bBAc4sF0HHiqH1n+n3PHWl+3qXYFu0txgM8uxmZnzfHOeffPd233R+u9c4DnAgUU68EQ5tP+WXXt7YNo2t9kY5tsYcMvDzUOBHoj0UCgHlujAI2Xj8vct/G7ArG0mNrI8G5lZzztrDwUu8eK3yBOVz+WEvroOHNr/j+XO9TcsJATKsQOv69pmy6Yw76bg41K5c/RGDwXaPFZ38zC7KLP7fv+7BnYcAdPN0XtTXcA96Oc7A+7QAQ8Fug3sTggHBuDAVtnY97HyN1e+dO4QmLWjWwSAUzwH6hzwUKANYAAbQJTTrHXs7M7M18sXLvvxuSKga5vbXfzrLv544dU74KFAESACODAQBzbL5/a9sToCunb8VRuaDY0D8zmwdffbnV52dnrBDz8OLMaBE+UL+y6vioBZO25d/Oe7+OOGm+8U6AQ4kBOgTXQxm+iqczxRPvfTr992BHRt87iNzEbGgfkd8FCgCBABHBiMA4f2t+WLb37VtiKga5snXfznv/hjh13vgIcCbQCD2QCchFf9FL+Ir//r2/rdAV3bnLSJ2cQ4sHMHPBQoAkQABwbkwF9c9C6AC//OL/wYYvisA75T4IAufos4Rfkc7iassgNb5fC+G140AmxeNi8OLNABPz54lS+YvnYbfjQHvv+i3zbYxX+BF/8dfoc5s4gxCw8Fug3sTggHhuPA+h0veBfAphNj0zHHYc3RQ4E2gOFsAGaRfhaH1t9/wQiwcQxr4zCPOPPwUKCNJ/3G4y2Fobyl8FD58r6XPy8CbDhxNhyzHNosPRRoAxRBHBiIA4fWbxYA3qf30wD30gEPBQ7lBOTrcBrP7sB3yx1vfdl5EeDUOLRTo68nmpMeChzICcgGmH0DtP7D+35bAOzlCdCv5Y6D7xTowis+ODAIB/Z9u5S1S85GQLTTlvW4gzBUBzwU6E6A98M5sHQHDl3+DgHgZO5kvucO9A8F/qKT0CBOQjaipW9EPFjWteDTAmDPL/5O5kM9me/p1+WhwGVd9Py6NlwOnHJg/amzvyVwTy9+Nl2nbg4UDwU6fTt9c2CpDhxev+bUXQAB4GTOgb13wHcKtAEsdQNwNyD73YBnf1Kgi//eX/wxx7x3wEOBIkAEcGApDhzef8QdALejvSWxVAc8FLiUi5/Tb/bTr/Vv7J+VO9726jWnUadRDizRAQ8FuhgLEg4sw4HDV7xLACz1BLjEjce6B3P3w0OBbgO7E8KBvXdg34cFgI1wMBth5jsRHgq0Aez9BoB5cuafEAACQAAMxAEPBdqQkm9I3grY07cC1u8SAAO5+Gc+/Vr7mbeCPBRoAxRBHNgzB+4XAALAHYAhOeChQKfAPT0F7tlmY67Dm+sjAmBIF39fixjpf3Lgt64t5fAVLpjDu2CaiZlEcuC/BYBN16Y7QAc8FOhk6lY4B3bZgR8KgAFe/L0nfuY98dx/9lCgDWCXN4BIp1lrmePujAAQAO4ADNYBDwXaAEUQB3bPAQEw2It/7tOvuyCn5++hQCe7OU52Ns3d2zQjsRUAAsAdgIE74KFAF/NIm461DMdnATDwi7+TsDshvQMeChzORdMGZhZRHBAAAsAdgBVxwEOBNp4oG491DMNlAbAiF393AtwJ6FoPBdo4hrFxmEOMOQgAAeAOwCo5cOxA2brrZz0Y58E4DnBgxw4IgFW6+PtaxUrvwNEbSvnS23b84neKi3GKM0dznNcBAWBTtamuogP3X1/Kl39GBDgFcoADczsgAFbx4u9rFi29A0dvLFt3//zcL/55Tw0+zomTAzEcEAA2U5vpijsw+8Y7S9lYFwJOghzgQJUDAmDFL/5+d4DfHXDq+wTce03Z+qefq3rxO8XFOMWZoznO64AAEADuAERxYDIqs3ve7dkAp0AhyIFtOSAAolz8rUPInOPA7N73la1/+aVS7nzLti4E854gfJzTJwdW1wEBcM5F0+10t9MjOtDHwOxff/VUEJz6HgJfemspd14hDJwSOZDcAQEgAJycOcABDnAgoQMCIOHQI55yrcndGw5wgAN1DggAAaD8OcABDnAgoQMCIOHQVXJdJeOFFwc4ENEBASAAlD8HOMABDiR0QAAkHHrEkrUmJzQOcIADdQ4IAAGg/DnAAQ5wIKEDAiDh0FVyXSXjhRcHOBDRAQEgAJQ/BzjAAQ4kdEAAJBx6xJK1Jic0DnCAA3UOCAABoPw5wAEOcCChAwIg4dBVcl0l44UXBzgQ0QEBIACUPwc4wAEOJHRAACQcesSStSYnNA5wgAN1DggAAaD8OcABDnAgoQMCIOHQVXJdJeOFFwc4ENEBASAAlD8HOMABDiR0QAAkHHrEkrUmJzQOcIADdQ4IAAGg/DnAAQ5wIKEDAiDh0FVyXSXjhRcHOBDRAQEgAJQ/BzjAAQ4kdEAAJBx6xJK1Jic0DnCAA3UOCAABoPw5wAEOcCChAwIg4dBVcl0l44UXBzgQ0QEBIACUPwc4wAEOJHRAACQcesSStSYnNA5wgAN1DggAAaD8OcABDnAgoQMCIOHQVXJdJeOFFwc4ENEBASAAlD8HOMABDiR0QAAkHHrEkrUmJzQOcIADdQ4IAAGg/DnAAQ5wIKEDAiDh0FVyXSXjhRcHOBDRAQEgAJQ/BzjAAQ4kdEAAJBx6xJK1Jic0DnCAA3UOCAABoPw5wAEOcCChAwIg4dBVcl0l44UXBzgQ0QEBIACUPwc4wAEOJHRAACQcesSStSYnNA5wgAN1DggAAaD8OcABDnAgoQMCIOHQVXJdJeOFFwc4ENEBASAAlD8HOMABDiR0QAAkHHrEkrUmJzQOcIADdQ4IAAGg/DnAAQ5wIKEDAiDh0FVyXSXjhRcHOBDRAQEgAJQ/BzjAAQ4kdEAAJBx6xJK1Jic0DnCAA3UOCAABoPw5wAEOcCChAwIg4dBVcl0l44UXBzgQ0QEBIACUPwc4wAEOJHRAACQcesSStSYnNA5wgAN1DggAAaD8OcABDnAgoQMCIOHQVXJdJeOFFwc4ENEBASAAlD8HOMABDiR0QAAkHHrEkrUmJzQOcIADdQ4IAAGg/DnAAQ5wIKEDAiDh0FVyXSXjhRcHOBDRAQEgAJQ/BzjAAQ4kdEAAJBx6xJK1Jic0DnCAA3UOCAABoPw5wAEOcCChAwIg4dBVcl0l44UXBzgQ0QEBIACUPwc4wAEOJHRAACQcesSStSYnNA5wgAN1DggAAaD8OcABDnAgoQMCIOHQVXJdJeOFFwc4ENEBASAAlD8HOMABDiR0QAAkHHrEkrUmJzQOcIADdQ4IAAGg/DnAAQ5wIKEDAiDh0FVyXSXjhRcHOBDRAQEgAJQ/BzjAAQ4kdEAAJBx6xJK1Jic0DnCAA3UOCAABoPw5wAEOcCChAwIg4dBVcl0l44UXBzgQ0QEBIACUPwc4wAEOJHRAACQcesSStSYnNA5wgAN1DggAAaD8OcABDnAgoQMCIOHQVXJdJeOFFwc4ENEBASAAlD8HOMABDiR0QAAkHHrEkrUmJzQOcIADdQ4IAAGg/DnAAQ5wIKEDAiDh0FVyXSXjhRcHOBDRAQEgAJQ/BzjAAQ4kdEAAJBx6xJK1Jic0DnCAA3UOCAABoPw5wAEOcCChAwIg4dBVcl0l44UXBzgQ0QEBIACUPwc4wAEOJHRAACQcesSStSYnNA5wgAN1DggAAaD8OcABDnAgoQMCIOHQVXJdJeOFFwc4ENEBASAAlD8HOMABDiR0QAAkHHrEkrUmJzQOcIADdQ4IAAGg/DnAAQ5wIKEDAiDh0FVyXSXjhRcHOBDRAQEgAJQ/BzjAAQ4kdEAAJBx6xJK1Jic0DnCAA3UOCAABoPw5wAEOcCChAwIg4dBVcl0l44UXBzgQ0QEBIACUPwc4wAEOJHRAACQcesSStSYnNA5wgAN1DggAAaD8OcABDnAgoQMCIOHQVXJdJeOFFwc4ENEBASAAlD8HOMABDiR0QAAkHHrEkrUmJzQOcIADdQ4IAAGg/DnAAQ5wIKEDAiDh0FVyXSXjhRcHOBDRAQEgAJQ/BzjAAQ4kdEAAJBx6xJK1Jic0DnCAA3UOCAABoPw5wAEOcCChAwIg4dBVcl0l44UXBzgQ0QEBIACUPwc4wAEOJHRAACQcesSStSYnNA5wgAN1DggAAaD8OcABDnAgoQMCIOHQVXJdJeOFFwc4ENEBASAAlD8HOMABDiR0QAAkHHrEkrUmJzQOcIADdQ4IAAGg/DnAAQ5wIKEDAiDh0FVyXSXjhRcHOBDRAQEgAJQ/BzjAAQ4kdEAAJBx6xJK1Jic0DnCAA3UOCAABoPw5wAEOcCChAwIg4dBVcl0l44UXBzgQ0QEBIACUPwc4wAEOJHRAACQcesSStSYnNA5wgAN1DggAAaD8OcABDnAgoQMCIOHQVXJdJeOFFwc4ENEBASAAlD8HOMABDiR0QAAkHHrEkrUmJzQOcIADdQ4IAAGg/DnAAQ5wIKEDAiDh0FVyXSXjhRcHOBDRAQEgAJQ/BzjAAQ4kdEAAJBx6xJK1Jic0DnCAA3UOCAABoPw5wAEOcCChAwIg4dBVcl0l44UXBzgQ0QEBIACUPwc4wAEOJHRAACQcesSStSYnNA5wgAN1DggAAaD8OcABDnAgoQMCIOHQVXJdJeOFFwc4ENEBASAAlD8HOMABDiR0QAAkHHrEkrUmJzQOcIADdQ4IAAGg/DnAAQ5wIKEDAiDh0FVyXSXjhRcHOBDRAQEgAJQ/BzjAAQ4kdEAAJBx6xJK1Jic0DnCAA3UOCAABoPw5wAEOcCChAwIg4dBVcl0l44UXBzgQ0QEBIACUPwc4wAEOJHRAACQcesSStSYnNA5wgAN1DggAAaD8OcABDnAgoQMCIOHQVXJdJeOFFwc4ENEBASAAlD8HOMABDiR0QAAkHHrEkrUmJzQOcIADdQ4IAAGg/DnAAQ5wIKEDAiDh0FVyXSXjhRcHOBDRAQEgAJQ/BzjAAQ4kdEAAJBx6xJK1Jic0DnCAA3UOCAABoPw5wAEOcCChAwIg4dBVcl0l44UXBzgQ0QEBIACUPwc4wAEOJHRAACQcesSStSYnNA5wgAN1DggAAaD8OcABDnAgoQMCIOHQVXJdJeOFFwc4ENEBASAAlD8HOMABDiR0QAAkHHrEkrUmJzQOcIADdQ4IAAGg/DnAAQ5wIKEDAiDh0FVyXSXjhRcHOBDRAQEgAJQ/BzjAAQ4kdEAAJBx6xJK1Jic0DnCAA3UOCAABoPw5wAEOcCChAwIg4dBVcl0l44UXBzgQ0QEBIACUPwc4wAEOJHRAACQcesSStSYnNA5wgAN1DggAAaD8OcABDnAgoQMCIOHQVXJdJeOFFwc4ENEBASAAlD8HOMABDiR0QAAkHHrEkrUmJzQOcIADdQ4IAAGg/DnAAQ5wIKEDAiDh0FVyXSXjhRcHOBDRAQEgAJQ/BzjAAQ4kdEAAJBx6xJK1Jic0DnCAA3UOCAABoPw5wAEOcCChAwIg4dBVcl0l44UXBzgQ0QEBIACUPwc4wAEOJHRAACQcesSStSYnNA5wgAN1DggAAaD8OcABDnAgoQMCIOHQVXJdJeOFFwc4ENEBASAAlD8HOMABDiR0QAAkHHrEkrUmJzQOcIADdQ4IAAGg/DnAAQ5wIKEDAiDh0FVyXSXjhRcHOBDRAQEgAJQ/BzjAAQ4kdEAAJBx6xJK1Jic0DnCAA3UOCAABoPw5wAEOcCChAwIg4dBVcl0l44UXBzgQ0QEBIACUPwc4wAEOJHRAACQcesSStSYnNA5wgAN1DggAAaD8OcABDnAgoQMCIOHQVXJdJeOFFwc4ENEBASAAlD8HOMABDiR0QAAkHHrEkrUmJzQOcIADdQ4IAAGg/DnAAQ5wIKEDAiDh0FVyXSXjhRcHOBDRAQEgAJQ/BzjAAQ4kdEAAJBx6xJK1Jic0DnCAA3UOCAABoPw5wAEOcCChAwIg4dBVcl0l44UXBzgQ0QEBIACUPwc4wAEOJHRAACQcesSStSYnNA5wgAN1DggAAaD8OcABDnAgoQMCIOHQVXJdJeOFFwc4ENEBASAAlD8HOMABDiR0QAAkHHrEkrUmJzQOcIADdQ4IAAGg/DnAAQ5wIKEDAiDh0FVyXSXjhRcHOBDRAQEgAJQ/BzjAAQ4kdEAAJBx6xJK1Jic0DnCAA3UOCAABoPw5wAEOcCChAwIg4dBVcl0l44UXBzgQ0QEBIACUPwc4wAEOJHRAACQcesSStSYnNA5wgAN1DggAAaD8OcABDnAgoQMCIOHQVXJdJeOFFwc4ENEBASAAlD8HOMABDiR0QAAkHHrEkrUmJzQOcIADdQ4IAAGg/DnAAQ5wIKEDAiDh0FVyXSXjhRcHOBDRAQEgAJQ/BzjAAQ4kdEAAJBx6xJK1Jic0DnCAA3UOCAABoPw5wAEOcCChAwIg4dBVcl0l44UXBzgQ0QEBIACUPwc4wAEOJHRAACQcesSStSYnNA5wgAN1DggAAaD8OcABDnAgoQMCIOHQVXJdJeOFFwc4ENEBASAAlD8HOMABDiR0QAAkHHrEkrUmJzQOcIADdQ4IAAGg/DnAAQ5wIKEDAiDh0FVyXSXjhRcHOBDRAQEgAJQ/BzjAAQ4kdEAAJBx6xJK1Jic0DnCAA3UOCAABoPw5wAEOcCChAwIg4dBVcl0l44UXBzgQ0QEBIACUPwc4wAEOJHRAACQcesSStSYnNA5wgAN1DggAAaD8OcABDnAgoQMCIOHQVXJdJeOFFwc4ENEBASAAlD8HOMABDiR0QAAkHHrEkrUmJzQOcIADdQ4IAAGg/DnAAQ5wIKEDAiDh0FVyXSXjhRcHOBDRAQEgAJQ/BzjAAQ4kdEAAJBx6xJK1Jic0DnCAA3UOCAABoPw5wAEOcCChAwIg4dBVcl0l44UXBzgQ0QEBIACUPwc4wAEOJHRAACQcesSStSYnNA5wgAN1DggAAaD8OcABDnAgoQMCIOHQVXJdJeOFFwc4ENEBASAAlD8HOMABDiR0QAAkHHrEkrUmJzQOcIADdQ4IAAGg/DnAAQ5wIKEDAiDh0FVyXSXjhRcHOBDRAQEgAJQ/BzjAAQ4kdEAAJBx6xJK1Jic0DnCAA3UOCAABoPw5wAEOcCChAwIg4dBVcl0l44UXBzgQ0QEBIACUPwc4wAEOJHRAACQcesSStSYnNA5wgAN1DggAAaD8OcABDnAgoQMCIOHQVXJdJeOFFwc4ENEBASAAlD8HOMABDiR0QAAkHHrEkrUmJzQOcIADdQ4IAAGg/DnAAQ5wIKEDAiDh0FVyXSXjhRcHOBDRAQEgAJQ/BzjAAQ4kdEAAJBx6xJK1Jic0DnCAA3UOCAABoPw5wAEOcCChAwIg4dBVcl0l44UXBzgQ0QEBIACUPwc4wAEOJHRAACQcesSStSYnNA5wgAN1DggAAaD8OcABDnAgoQMCIOHQVXJdJeOFFwc4ENGBPgBORlyYNXnBcoADHOAAB17QgR/2AfAkQC8IyG0xd0g4wAEOcCCiA//TB8DjAkAAcIADHOAAB1I5cGJt1o5bQ0819Igla01OaBzgAAcqHJi1zbG1rh1/VQAIAA5wgAMc4EAqB+7u3wK43dBTDV0lV1Sy14bXBgc4ENSBv1qbtaNbgi7ORmej4wAHOMABDlzAgdnm6Oa16ebovQJA4XKAAxzgAAfyODCdHHzPWrlv/BNd22wZfJ7Bm7VZc4ADHEjtwKw8eOA1a/3/Zm0zIUNqGdwiu8AtMq8JrwkOcCCiA7NJc9+pzb//v2k7+kTERVqTFy8HOMABDnDgfAembfOxswHQHR9fD9D5gPDAgwMc4AAHQjowGb3/bACUe8av6Nrm6ZALdWvX7X0OcIADHODAGQee7vf8swHQ/0XXNn8rANQuBzjAAQ5wILADk+Yz523+/d9M2+YqQw88dPV7pn79mQsc4EBaB6bHml95XgCUcutLurZ5VASIAA5wgAMc4EBIBx4uZe2S5wVA/w9m7fjDhh5y6Glrl8985gAHOPCsA7PJ+KYLbv79PywPX/PybtJ8DywvGA5wgAMc4EAoB57o9/gXDIBn7wI0f2TooYbu9O/9Tg5wgAPJHeh/7s+Lbv6n7gIcue6V3eboMREgAjjAAQ5wgAMRHBg9Uh770KUXDYD+P+gmzTWGHmHo1sBjDnCAAxwY/8a2Nv8z/1E3aTZA88LhAAc4wAEOrLQDnz+zr2/7z+X4+M1d2/zA4Fd68N73S/6+n9ev1y8HUjvwVGk/+KZtb/zn/odd21zrRwWnlkdACAgOcIADq+nAVteOD5y7p1f/9bRtblOQIoADHOAABziwOg5MJ83Hqzf8537Aqe8N0Db/ZvCrM3izMisOcIADiR3YbL5Rjo9f9tz9fK6/L0fGPzZrx0cJlVio1bwF5taluXGAA6kcmE2azXJ8/Oq5NvsX+qBydPyGrm0eFwEigAMc4AAHODBIB57oH+B/oX18R/+8HBtf0bXNdwx+kINPVbkc5CAHOMCB8xz4Tjn6gfUdbfIX++DywMHXz9rmGPDngbf5us3IAQ5wgANLcWDaNsfn/u1+F9v0n/vv+/cXOg8GLmXQwkt4cYADHODAWQf6B/4mv/Wq5+7Tu/r35WtX/ch0s/mo7xNAxLMiqn9RyAEOcGCvHNjqf5v+wp72n6cYuklzQ9c2T9kEhAAHOMDJOgVdAAADdklEQVQBDnBgTxz4327SjOfZsxf+MeWBgz/pZwfsydD3qiz9Ok4xHOAAB4bpwOf37P3+mlo4/a2DTyhAMcABDnCAAxxYqAOPdm3lT/Wr2cAX8d+We8avmG02f9i1zX8a/kKHr8aHWePmYi4c4MBuOvDErB3/QXnsQ5cuYo/ek8/Rfwvh2aT53a4dPSIEhAAHOMABDnCgyoGHZ5PxTUt9yG8RtfDMZHzl6R8q9H0CVAmwm1Xpczu1cIADHBiWA0937ejvp5OD7yll7ZJF7L+D+Rz9LYz+PYz+pxTN2ub+rm1mgkAQcIADHOBAUgdms0lz33Rz9JfdZPT+lbrNv9OyKN/+zddO2/HVs83Rzd3m6JNd23zl9A8derRrmye7tjmZVApVPqwqNw/z4AAH5nGg38P6vezR03vb3f1e1+95p075Dx54zU73UR+PAAIIIIAAAggggAACCCCAAAIIIIAAAggggAACCCCAAAIIIIAAAggggAACCCCAAAIIIIAAAggggAACCCCAAAIIIIAAAggggAACCCCAAAIIIIAAAggggAACCCCAAAIIIIAAAggggAACCCCAAAIIIIAAAggggAACCCCAAAIIIIAAAggggAACCCCAAAIIIIAAAggggAACCCCAAAIIIIAAAggggAACCCCAAAIIIIAAAggggAACCCCAAAIIIIAAAggggAACCCCAAAIIIIAAAggggAACCCCAAAIIIIAAAggggAACCCCAAAIIIIAAAggggAACCCCAAAIIIIAAAggggAACCCCAAAIIIIAAAggggAACCCCAAAIIIIAAAggggAACCCCAAAIIIIAAAggggAACCCCAAAIIIIAAAggggAACCCCAAAIIIIAAAggggAACCCCAAAIIIIAAAggggAACCCCAAAIIIIAAAggggAACCCCAAAIIIIAAAggggAACCCCAAAIIIIAAAggggAACCCCAAAIIIIAAAggggAACCCCAAAIIIIAAAggggAACCCCAAAIIIIAAAggggAACCCCAAAIIIIAAAggggAACCCCAAAIIIIAAAggggAACCCCAAAIIIIAAAggggAACCCCAAAIIIIAAAggggAACCCCAAAIIIIAAAggggAACCCCAAAIIIIAAAggggAACCCCAAAIIIIAAAggggAACCCCAAAIIIIAAAggggAACCGQm8P81IGYrl8k4gQAAAABJRU5ErkJggg==;" parent="1" vertex="1">
          <mxGeometry x="114" y="380" width="52" height="52" as="geometry" />
        </mxCell>
        <mxCell id="ejDFjRWyY2k5rN37OPCX-21" style="edgeStyle=orthogonalEdgeStyle;rounded=0;orthogonalLoop=1;jettySize=auto;html=1;entryX=0;entryY=0.5;entryDx=0;entryDy=0;" parent="1" source="ejDFjRWyY2k5rN37OPCX-8" target="ejDFjRWyY2k5rN37OPCX-16" edge="1">
          <mxGeometry relative="1" as="geometry" />
        </mxCell>
        <mxCell id="ejDFjRWyY2k5rN37OPCX-8" value="" style="shape=image;verticalLabelPosition=bottom;labelBackgroundColor=default;verticalAlign=top;aspect=fixed;imageAspect=0;image=data:image/png,iVBORw0KGgoAAAANSUhEUgAAAgAAAAIACAYAAAD0eNT6AAAAAXNSR0IArs4c6QAAIABJREFUeAHt3V2sZWdZwPFTIlBIjPIhCeHDxs6cIviFjV4Q1Ao0UOzXzF47oFckmhqoVhP1ypuaeEEMEipUIomSmHjTCMyZArWggWAsMR3amb3OtNKPaaHihdJSvWK61z6vWdOZyUw77Zx3n33OXvt5fiSln+fMef/Pf6/3/6695py1Nf9DAAEEEEAAAQQQQAABBBBAAAEEEEAAAQQQQAABBBBAAAEEEEAAAQQQQAABBBBAAAEEEEAAAQQQQAABBBBAAAEEEEAAAQQQQAABBBBAAAEEEEAAAQQQQAABBBBAAAEEEEAAAQQQQAABBBBAAAEEEEAAAQQQQAABBBBAAAEEEEAAAQQQQAABBBBAAAEEEEAAAQQQQAABBBBAAAEEEEAAAQQQQAABBBBAAAEEEEAAAQQQQAABBBBAAAEEEEAAAQQQQAABBBBAAAEEEEAAAQQQQAABBBBAAAEEEEAAAQQQQAABBBBAAAEEEEAAAQQQQAABBBBAAAEEEEAAAQQQQAABBBBAAAEEEEAAAQQQQAABBBBAAAEEEEAAAQQQQAABBBBAAAEEEEAAAQQQQAABBBBAAAEEEEAAAQQQQAABBBBAAAEEEEAAAQQQQAABBBBAAAEEEEAAAQQQQAABBBBAAAEEEEAAAQQQQAABBBBAAAEEEEAAAQQQQAABBBBAAAEEEEAAAQQQQAABBBBAAAEEEEAAAQQQQAABBBBAAAEEEEAAAQQQQAABBBBAAAEEEEAAAQQQQAABBBBAAAEEEEAAAQQQQAABBBBAAAEEEEAAAQQQQAABBBBAAAEEEEAAAQQQQAABBBBAAAEEEEAAAQQQQAABBBBAAAEEEEAAAQQQQAABBBBAAAEEEEAAAQQQQAABBBBAAAEEEEAAAQQQQAABBBBAAAEEEEAAAQQQQAABBBCYm0A5duB1083Re2ft6JaubW7vNpt/nrXNpGubR7u2eaprm5Nd2xR/hGDwf6dn+sRs0tzXTZq7us3RZ2ft+E+7dvyBZ46P3l6O3PTSuWXygQgggAACwyVQjlz3ym7S3DBtm9tOb/RbNvcQm/uiIq0Pvnu7dvTXfRT0gThcm31lCCCAAAIvSqCUW18ybZur+tNe1zb9KXBRm4XPE5/l1qxtjk03R3/2zPHxL7yoaP4lAggggMAwCJTHPnTpbLP5SNc2J2z6omcRDkzb5qH+LYNy7OAbh2G5rwIBBBBA4CyB/jb/rG3+uGub/1rERd/nEA8XcKDr2uaL0+Pjd50Vz18ggAACCCyPQP/+ftc2j1/ggu12ffzb9UuZ8axt7j/1vEC59SXLM9+vjAACCCQlUO7/4GVd29xp43daX5YDpx4qnYxuLGXtkqQvQ8tGAAEE9pZANxndePq3dy3lBLisDcevO9jY+fdnjo9/eW9fBX41BBBAIBGB8vA1L+8mzadshIPdCDMHWde7Wf7j+h9N9JK0VAQQQGD3CZQHD7yma8fftPnb/AfuwOPTycH37P4rwq+AAAIIJCBQ2g++adqOHhj4hT/z6dfaz3/gcqv/xlP9HasEL09LRAABBHaHQJmM3tK1o+/a/J38V9CBe8vk4E/tzivDZ0UAAQQCE+hP/jZ/G/8Kbvzn3hH5wbQdXx34ZWppCCCAwGIJ9O/5u+1v81/xzf9MCHSztvn9xb5CfDYEEEAgIIFTT/t74O/M5uHP57+/vrI8ppvNR33PgIAXLEtCAIHFEfBb/Zz8g5z8LxQrn+5/WNXiXi0+EwIIIBCEQHd83AS++F9oQ/DPgpzwt+3t5uiz7gQEuWBZBgIILIbA6W/v+/S2L6TZNg7rjRNLm6NPLuZV47MggAACAQj43v5u/WeKv2k7+vMAL1tLQAABBHZG4PT3949zwnNaN8ttODCbjG/a2SvHRyOAAAIrTKAcue6VfqSv03+m0/85az05nYx/bYVfvr50BBBAYH4Cs3b8J+dcEJ0ct3FyxCtUMD3pOwbOf/3wkQggsKIETv+Ev+/Z0EJtaCKuMuJm7fhofydsRV/GvmwEEECgnsBss/mIzd/mz4GmdJujf6h/BfkIBBBAYAUJ9N8QpWubEy7+AoADzzqw9fV3lLKx3x8YcIAD8zpwsmysP1U29j9aNvYfKxv7v1I29n2qbKz/XtnYf3W5c/21g8iF6ebBX3fht/lz4FwHRmXrq1fO+8L3cTYNDnDgYg7Mysb+o+Xw+sfL4f3Xlq9ddulSgqBrm79z8T/34u+v+dCU7uiBUr70tou9iP17F3oOcGARDjxdNvZ9phxef+eefYfScs/4FV3b+K5/lQ+L2SBzRNLsW9eWcviKRby4fQ6bBAc4sF0HHiqH1n+n3PHWl+3qXYFu0txgM8uxmZnzfHOeffPd233R+u9c4DnAgUU68EQ5tP+WXXt7YNo2t9kY5tsYcMvDzUOBHoj0UCgHlujAI2Xj8vct/G7ArG0mNrI8G5lZzztrDwUu8eK3yBOVz+WEvroOHNr/j+XO9TcsJATKsQOv69pmy6Yw76bg41K5c/RGDwXaPFZ38zC7KLP7fv+7BnYcAdPN0XtTXcA96Oc7A+7QAQ8Fug3sTggHBuDAVtnY97HyN1e+dO4QmLWjWwSAUzwH6hzwUKANYAAbQJTTrHXs7M7M18sXLvvxuSKga5vbXfzrLv544dU74KFAESACODAQBzbL5/a9sToCunb8VRuaDY0D8zmwdffbnV52dnrBDz8OLMaBE+UL+y6vioBZO25d/Oe7+OOGm+8U6AQ4kBOgTXQxm+iqczxRPvfTr992BHRt87iNzEbGgfkd8FCgCBABHBiMA4f2t+WLb37VtiKga5snXfznv/hjh13vgIcCbQCD2QCchFf9FL+Ir//r2/rdAV3bnLSJ2cQ4sHMHPBQoAkQABwbkwF9c9C6AC//OL/wYYvisA75T4IAufos4Rfkc7iassgNb5fC+G140AmxeNi8OLNABPz54lS+YvnYbfjQHvv+i3zbYxX+BF/8dfoc5s4gxCw8Fug3sTggHhuPA+h0veBfAphNj0zHHYc3RQ4E2gOFsAGaRfhaH1t9/wQiwcQxr4zCPOPPwUKCNJ/3G4y2Fobyl8FD58r6XPy8CbDhxNhyzHNosPRRoAxRBHBiIA4fWbxYA3qf30wD30gEPBQ7lBOTrcBrP7sB3yx1vfdl5EeDUOLRTo68nmpMeChzICcgGmH0DtP7D+35bAOzlCdCv5Y6D7xTowis+ODAIB/Z9u5S1S85GQLTTlvW4gzBUBzwU6E6A98M5sHQHDl3+DgHgZO5kvucO9A8F/qKT0CBOQjaipW9EPFjWteDTAmDPL/5O5kM9me/p1+WhwGVd9Py6NlwOnHJg/amzvyVwTy9+Nl2nbg4UDwU6fTt9c2CpDhxev+bUXQAB4GTOgb13wHcKtAEsdQNwNyD73YBnf1Kgi//eX/wxx7x3wEOBIkAEcGApDhzef8QdALejvSWxVAc8FLiUi5/Tb/bTr/Vv7J+VO9726jWnUadRDizRAQ8FuhgLEg4sw4HDV7xLACz1BLjEjce6B3P3w0OBbgO7E8KBvXdg34cFgI1wMBth5jsRHgq0Aez9BoB5cuafEAACQAAMxAEPBdqQkm9I3grY07cC1u8SAAO5+Gc+/Vr7mbeCPBRoAxRBHNgzB+4XAALAHYAhOeChQKfAPT0F7tlmY67Dm+sjAmBIF39fixjpf3Lgt64t5fAVLpjDu2CaiZlEcuC/BYBN16Y7QAc8FOhk6lY4B3bZgR8KgAFe/L0nfuY98dx/9lCgDWCXN4BIp1lrmePujAAQAO4ADNYBDwXaAEUQB3bPAQEw2It/7tOvuyCn5++hQCe7OU52Ns3d2zQjsRUAAsAdgIE74KFAF/NIm461DMdnATDwi7+TsDshvQMeChzORdMGZhZRHBAAAsAdgBVxwEOBNp4oG491DMNlAbAiF393AtwJ6FoPBdo4hrFxmEOMOQgAAeAOwCo5cOxA2brrZz0Y58E4DnBgxw4IgFW6+PtaxUrvwNEbSvnS23b84neKi3GKM0dznNcBAWBTtamuogP3X1/Kl39GBDgFcoADczsgAFbx4u9rFi29A0dvLFt3//zcL/55Tw0+zomTAzEcEAA2U5vpijsw+8Y7S9lYFwJOghzgQJUDAmDFL/5+d4DfHXDq+wTce03Z+qefq3rxO8XFOMWZoznO64AAEADuAERxYDIqs3ve7dkAp0AhyIFtOSAAolz8rUPInOPA7N73la1/+aVS7nzLti4E854gfJzTJwdW1wEBcM5F0+10t9MjOtDHwOxff/VUEJz6HgJfemspd14hDJwSOZDcAQEgAJycOcABDnAgoQMCIOHQI55yrcndGw5wgAN1DggAAaD8OcABDnAgoQMCIOHQVXJdJeOFFwc4ENEBASAAlD8HOMABDiR0QAAkHHrEkrUmJzQOcIADdQ4IAAGg/DnAAQ5wIKEDAiDh0FVyXSXjhRcHOBDRAQEgAJQ/BzjAAQ4kdEAAJBx6xJK1Jic0DnCAA3UOCAABoPw5wAEOcCChAwIg4dBVcl0l44UXBzgQ0QEBIACUPwc4wAEOJHRAACQcesSStSYnNA5wgAN1DggAAaD8OcABDnAgoQMCIOHQVXJdJeOFFwc4ENEBASAAlD8HOMABDiR0QAAkHHrEkrUmJzQOcIADdQ4IAAGg/DnAAQ5wIKEDAiDh0FVyXSXjhRcHOBDRAQEgAJQ/BzjAAQ4kdEAAJBx6xJK1Jic0DnCAA3UOCAABoPw5wAEOcCChAwIg4dBVcl0l44UXBzgQ0QEBIACUPwc4wAEOJHRAACQcesSStSYnNA5wgAN1DggAAaD8OcABDnAgoQMCIOHQVXJdJeOFFwc4ENEBASAAlD8HOMABDiR0QAAkHHrEkrUmJzQOcIADdQ4IAAGg/DnAAQ5wIKEDAiDh0FVyXSXjhRcHOBDRAQEgAJQ/BzjAAQ4kdEAAJBx6xJK1Jic0DnCAA3UOCAABoPw5wAEOcCChAwIg4dBVcl0l44UXBzgQ0QEBIACUPwc4wAEOJHRAACQcesSStSYnNA5wgAN1DggAAaD8OcABDnAgoQMCIOHQVXJdJeOFFwc4ENEBASAAlD8HOMABDiR0QAAkHHrEkrUmJzQOcIADdQ4IAAGg/DnAAQ5wIKEDAiDh0FVyXSXjhRcHOBDRAQEgAJQ/BzjAAQ4kdEAAJBx6xJK1Jic0DnCAA3UOCAABoPw5wAEOcCChAwIg4dBVcl0l44UXBzgQ0QEBIACUPwc4wAEOJHRAACQcesSStSYnNA5wgAN1DggAAaD8OcABDnAgoQMCIOHQVXJdJeOFFwc4ENEBASAAlD8HOMABDiR0QAAkHHrEkrUmJzQOcIADdQ4IAAGg/DnAAQ5wIKEDAiDh0FVyXSXjhRcHOBDRAQEgAJQ/BzjAAQ4kdEAAJBx6xJK1Jic0DnCAA3UOCAABoPw5wAEOcCChAwIg4dBVcl0l44UXBzgQ0QEBIACUPwc4wAEOJHRAACQcesSStSYnNA5wgAN1DggAAaD8OcABDnAgoQMCIOHQVXJdJeOFFwc4ENEBASAAlD8HOMABDiR0QAAkHHrEkrUmJzQOcIADdQ4IAAGg/DnAAQ5wIKEDAiDh0FVyXSXjhRcHOBDRAQEgAJQ/BzjAAQ4kdEAAJBx6xJK1Jic0DnCAA3UOCAABoPw5wAEOcCChAwIg4dBVcl0l44UXBzgQ0QEBIACUPwc4wAEOJHRAACQcesSStSYnNA5wgAN1DggAAaD8OcABDnAgoQMCIOHQVXJdJeOFFwc4ENEBASAAlD8HOMABDiR0QAAkHHrEkrUmJzQOcIADdQ4IAAGg/DnAAQ5wIKEDAiDh0FVyXSXjhRcHOBDRAQEgAJQ/BzjAAQ4kdEAAJBx6xJK1Jic0DnCAA3UOCAABoPw5wAEOcCChAwIg4dBVcl0l44UXBzgQ0QEBIACUPwc4wAEOJHRAACQcesSStSYnNA5wgAN1DggAAaD8OcABDnAgoQMCIOHQVXJdJeOFFwc4ENEBASAAlD8HOMABDiR0QAAkHHrEkrUmJzQOcIADdQ4IAAGg/DnAAQ5wIKEDAiDh0FVyXSXjhRcHOBDRAQEgAJQ/BzjAAQ4kdEAAJBx6xJK1Jic0DnCAA3UOCAABoPw5wAEOcCChAwIg4dBVcl0l44UXBzgQ0QEBIACUPwc4wAEOJHRAACQcesSStSYnNA5wgAN1DggAAaD8OcABDnAgoQMCIOHQVXJdJeOFFwc4ENEBASAAlD8HOMABDiR0QAAkHHrEkrUmJzQOcIADdQ4IAAGg/DnAAQ5wIKEDAiDh0FVyXSXjhRcHOBDRAQEgAJQ/BzjAAQ4kdEAAJBx6xJK1Jic0DnCAA3UOCAABoPw5wAEOcCChAwIg4dBVcl0l44UXBzgQ0QEBIACUPwc4wAEOJHRAACQcesSStSYnNA5wgAN1DggAAaD8OcABDnAgoQMCIOHQVXJdJeOFFwc4ENEBASAAlD8HOMABDiR0QAAkHHrEkrUmJzQOcIADdQ4IAAGg/DnAAQ5wIKEDAiDh0FVyXSXjhRcHOBDRAQEgAJQ/BzjAAQ4kdEAAJBx6xJK1Jic0DnCAA3UOCAABoPw5wAEOcCChAwIg4dBVcl0l44UXBzgQ0QEBIACUPwc4wAEOJHRAACQcesSStSYnNA5wgAN1DggAAaD8OcABDnAgoQMCIOHQVXJdJeOFFwc4ENEBASAAlD8HOMABDiR0QAAkHHrEkrUmJzQOcIADdQ4IAAGg/DnAAQ5wIKEDAiDh0FVyXSXjhRcHOBDRAQEgAJQ/BzjAAQ4kdEAAJBx6xJK1Jic0DnCAA3UOCAABoPw5wAEOcCChAwIg4dBVcl0l44UXBzgQ0QEBIACUPwc4wAEOJHRAACQcesSStSYnNA5wgAN1DggAAaD8OcABDnAgoQMCIOHQVXJdJeOFFwc4ENEBASAAlD8HOMABDiR0QAAkHHrEkrUmJzQOcIADdQ4IAAGg/DnAAQ5wIKEDAiDh0FVyXSXjhRcHOBDRAQEgAJQ/BzjAAQ4kdEAAJBx6xJK1Jic0DnCAA3UOCAABoPw5wAEOcCChAwIg4dBVcl0l44UXBzgQ0QEBIACUPwc4wAEOJHRAACQcesSStSYnNA5wgAN1DggAAaD8OcABDnAgoQMCIOHQVXJdJeOFFwc4ENEBASAAlD8HOMABDiR0QAAkHHrEkrUmJzQOcIADdQ4IAAGg/DnAAQ5wIKEDAiDh0FVyXSXjhRcHOBDRAQEgAJQ/BzjAAQ4kdEAAJBx6xJK1Jic0DnCAA3UOCAABoPw5wAEOcCChAwIg4dBVcl0l44UXBzgQ0QEBIACUPwc4wAEOJHRAACQcesSStSYnNA5wgAN1DggAAaD8OcABDnAgoQMCIOHQVXJdJeOFFwc4ENEBASAAlD8HOMABDiR0QAAkHHrEkrUmJzQOcIADdQ4IAAGg/DnAAQ5wIKEDAiDh0FVyXSXjhRcHOBDRAQEgAJQ/BzjAAQ4kdEAAJBx6xJK1Jic0DnCAA3UOCAABoPw5wAEOcCChAwIg4dBVcl0l44UXBzgQ0QEBIACUPwc4wAEOJHRAACQcesSStSYnNA5wgAN1DggAAaD8OcABDnAgoQMCIOHQVXJdJeOFFwc4ENEBASAAlD8HOMABDiR0QAAkHHrEkrUmJzQOcIADdQ4IAAGg/DnAAQ5wIKEDAiDh0FVyXSXjhRcHOBDRAQEgAJQ/BzjAAQ4kdEAAJBx6xJK1Jic0DnCAA3UOCAABoPw5wAEOcCChAwIg4dBVcl0l44UXBzgQ0QEBIACUPwc4wAEOJHRAACQcesSStSYnNA5wgAN1DggAAaD8OcABDnAgoQMCIOHQVXJdJeOFFwc4ENEBASAAlD8HOMABDiR0QAAkHHrEkrUmJzQOcIADdQ4IAAGg/DnAAQ5wIKEDAiDh0FVyXSXjhRcHOBDRAQEgAJQ/BzjAAQ4kdEAAJBx6xJK1Jic0DnCAA3UOCAABoPw5wAEOcCChAwIg4dBVcl0l44UXBzgQ0QEBIACUPwc4wAEOJHRAACQcesSStSYnNA5wgAN1DggAAaD8OcABDnAgoQMCIOHQVXJdJeOFFwc4ENEBASAAlD8HOMABDiR0QAAkHHrEkrUmJzQOcIADdQ4IAAGg/DnAAQ5wIKEDAiDh0FVyXSXjhRcHOBDRAQEgAJQ/BzjAAQ4kdEAAJBx6xJK1Jic0DnCAA3UOCAABoPw5wAEOcCChAwIg4dBVcl0l44UXBzgQ0QEBIACUPwc4wAEOJHRAACQcesSStSYnNA5wgAN1DggAAaD8OcABDnAgoQMCIOHQVXJdJeOFFwc4ENEBASAAlD8HOMABDiR0QAAkHHrEkrUmJzQOcIADdQ4IAAGg/DnAAQ5wIKEDAiDh0FVyXSXjhRcHOBDRAQEgAJQ/BzjAAQ4kdEAAJBx6xJK1Jic0DnCAA3UOCAABoPw5wAEOcCChAwIg4dBVcl0l44UXBzgQ0QEBIACUPwc4wAEOJHRAACQcesSStSYnNA5wgAN1DggAAaD8OcABDnAgoQMCIOHQVXJdJeOFFwc4ENEBASAAlD8HOMABDiR0QAAkHHrEkrUmJzQOcIADdQ4IAAGg/DnAAQ5wIKEDAiDh0FVyXSXjhRcHOBDRAQEgAJQ/BzjAAQ4kdEAAJBx6xJK1Jic0DnCAA3UOCAABoPw5wAEOcCChAwIg4dBVcl0l44UXBzgQ0QEBIACUPwc4wAEOJHRAACQcesSStSYnNA5wgAN1DggAAaD8OcABDnAgoQMCIOHQVXJdJeOFFwc4ENEBASAAlD8HOMABDiR0QAAkHHrEkrUmJzQOcIADdQ4IAAGg/DnAAQ5wIKEDAiDh0FVyXSXjhRcHOBDRAQEgAJQ/BzjAAQ4kdEAAJBx6xJK1Jic0DnCAA3UOCAABoPw5wAEOcCChAwIg4dBVcl0l44UXBzgQ0QEBIACUPwc4wAEOJHRAACQcesSStSYnNA5wgAN1DggAAaD8OcABDnAgoQMCIOHQVXJdJeOFFwc4ENEBASAAlD8HOMABDiR0QAAkHHrEkrUmJzQOcIADdQ4IAAGg/DnAAQ5wIKEDAiDh0FVyXSXjhRcHOBDRAQEgAJQ/BzjAAQ4kdEAAJBx6xJK1Jic0DnCAA3UOCAABoPw5wAEOcCChAwIg4dBVcl0l44UXBzgQ0QEBIACUPwc4wAEOJHRAACQcesSStSYnNA5wgAN1DggAAaD8OcABDnAgoQMCIOHQVXJdJeOFFwc4ENEBASAAlD8HOMABDiR0QAAkHHrEkrUmJzQOcIADdQ4IAAGg/DnAAQ5wIKEDAiDh0FVyXSXjhRcHOBDRAQEgAJQ/BzjAAQ4kdEAAJBx6xJK1Jic0DnCAA3UOCAABoPw5wAEOcCChAwIg4dBVcl0l44UXBzgQ0QEBIACUPwc4wAEOJHRAACQcesSStSYnNA5wgAN1DggAAaD8OcABDnAgoQMCIOHQVXJdJeOFFwc4ENEBASAAlD8HOMABDiR0QAAkHHrEkrUmJzQOcIADdQ4IAAGg/DnAAQ5wIKEDAiDh0FVyXSXjhRcHOBDRAQEgAJQ/BzjAAQ4kdEAAJBx6xJK1Jic0DnCAA3UOCAABoPw5wAEOcCChAwIg4dBVcl0l44UXBzgQ0QEBIACUPwc4wAEOJHRAACQcesSStSYnNA5wgAN1DggAAaD8OcABDnAgoQMCIOHQVXJdJeOFFwc4ENGBPgBORlyYNXnBcoADHOAAB17QgR/2AfAkQC8IyG0xd0g4wAEOcCCiA//TB8DjAkAAcIADHOAAB1I5cGJt1o5bQ0819Igla01OaBzgAAcqHJi1zbG1rh1/VQAIAA5wgAMc4EAqB+7u3wK43dBTDV0lV1Sy14bXBgc4ENSBv1qbtaNbgi7ORmej4wAHOMABDlzAgdnm6Oa16ebovQJA4XKAAxzgAAfyODCdHHzPWrlv/BNd22wZfJ7Bm7VZc4ADHEjtwKw8eOA1a/3/Zm0zIUNqGdwiu8AtMq8JrwkOcCCiA7NJc9+pzb//v2k7+kTERVqTFy8HOMABDnDgfAembfOxswHQHR9fD9D5gPDAgwMc4AAHQjowGb3/bACUe8av6Nrm6ZALdWvX7X0OcIADHODAGQee7vf8swHQ/0XXNn8rANQuBzjAAQ5wILADk+Yz523+/d9M2+YqQw88dPV7pn79mQsc4EBaB6bHml95XgCUcutLurZ5VASIAA5wgAMc4EBIBx4uZe2S5wVA/w9m7fjDhh5y6Glrl8985gAHOPCsA7PJ+KYLbv79PywPX/PybtJ8DywvGA5wgAMc4EAoB57o9/gXDIBn7wI0f2TooYbu9O/9Tg5wgAPJHeh/7s+Lbv6n7gIcue6V3eboMREgAjjAAQ5wgAMRHBg9Uh770KUXDYD+P+gmzTWGHmHo1sBjDnCAAxwY/8a2Nv8z/1E3aTZA88LhAAc4wAEOrLQDnz+zr2/7z+X4+M1d2/zA4Fd68N73S/6+n9ev1y8HUjvwVGk/+KZtb/zn/odd21zrRwWnlkdACAgOcIADq+nAVteOD5y7p1f/9bRtblOQIoADHOAABziwOg5MJ83Hqzf8537Aqe8N0Db/ZvCrM3izMisOcIADiR3YbL5Rjo9f9tz9fK6/L0fGPzZrx0cJlVio1bwF5taluXGAA6kcmE2azXJ8/Oq5NvsX+qBydPyGrm0eFwEigAMc4AAHODBIB57oH+B/oX18R/+8HBtf0bXNdwx+kINPVbkc5CAHOMCB8xz4Tjn6gfUdbfIX++DywMHXz9rmGPDngbf5us3IAQ5wgANLcWDaNsfn/u1+F9v0n/vv+/cXOg8GLmXQwkt4cYADHODAWQf6B/4mv/Wq5+7Tu/r35WtX/ch0s/mo7xNAxLMiqn9RyAEOcGCvHNjqf5v+wp72n6cYuklzQ9c2T9kEhAAHOMDJOgVdAAADdklEQVQBDnBgTxz4327SjOfZsxf+MeWBgz/pZwfsydD3qiz9Ok4xHOAAB4bpwOf37P3+mlo4/a2DTyhAMcABDnCAAxxYqAOPdm3lT/Wr2cAX8d+We8avmG02f9i1zX8a/kKHr8aHWePmYi4c4MBuOvDErB3/QXnsQ5cuYo/ek8/Rfwvh2aT53a4dPSIEhAAHOMABDnCgyoGHZ5PxTUt9yG8RtfDMZHzl6R8q9H0CVAmwm1Xpczu1cIADHBiWA0937ejvp5OD7yll7ZJF7L+D+Rz9LYz+PYz+pxTN2ub+rm1mgkAQcIADHOBAUgdms0lz33Rz9JfdZPT+lbrNv9OyKN/+zddO2/HVs83Rzd3m6JNd23zl9A8derRrmye7tjmZVApVPqwqNw/z4AAH5nGg38P6vezR03vb3f1e1+95p075Dx54zU73UR+PAAIIIIAAAggggAACCCCAAAIIIIAAAggggAACCCCAAAIIIIAAAggggAACCCCAAAIIIIAAAggggAACCCCAAAIIIIAAAggggAACCCCAAAIIIIAAAggggAACCCCAAAIIIIAAAggggAACCCCAAAIIIIAAAggggAACCCCAAAIIIIAAAggggAACCCCAAAIIIIAAAggggAACCCCAAAIIIIAAAggggAACCCCAAAIIIIAAAggggAACCCCAAAIIIIAAAggggAACCCCAAAIIIIAAAggggAACCCCAAAIIIIAAAggggAACCCCAAAIIIIAAAggggAACCCCAAAIIIIAAAggggAACCCCAAAIIIIAAAggggAACCCCAAAIIIIAAAggggAACCCCAAAIIIIAAAggggAACCCCAAAIIIIAAAggggAACCCCAAAIIIIAAAggggAACCCCAAAIIIIAAAggggAACCCCAAAIIIIAAAggggAACCCCAAAIIIIAAAggggAACCCCAAAIIIIAAAggggAACCCCAAAIIIIAAAggggAACCCCAAAIIIIAAAggggAACCCCAAAIIIIAAAggggAACCCCAAAIIIIAAAggggAACCCCAAAIIIIAAAggggAACCCCAAAIIIIAAAggggAACCCCAAAIIIIAAAggggAACCCCAAAIIIIAAAggggAACCCCAAAIIIIAAAggggAACCCCAAAIIIIAAAggggAACCCCAAAIIIIAAAggggAACCGQm8P81IGYrl8k4gQAAAABJRU5ErkJggg==;" parent="1" vertex="1">
          <mxGeometry x="114" y="450" width="52" height="52" as="geometry" />
        </mxCell>
        <mxCell id="ejDFjRWyY2k5rN37OPCX-9" value="" style="rounded=0;whiteSpace=wrap;html=1;fillColor=none;" parent="1" vertex="1">
          <mxGeometry x="240" y="111" width="150" height="480" as="geometry" />
        </mxCell>
        <mxCell id="ejDFjRWyY2k5rN37OPCX-10" value="BRONZE" style="rounded=0;whiteSpace=wrap;html=1;strokeColor=#d79b00;fillColor=#ffe6cc;fontStyle=3" parent="1" vertex="1">
          <mxGeometry x="265" y="101" width="100" height="30" as="geometry" />
        </mxCell>
        <mxCell id="ejDFjRWyY2k5rN37OPCX-12" value="edu_leve" style="rounded=0;whiteSpace=wrap;html=1;strokeColor=#d79b00;fillColor=#ffe6cc;" parent="1" vertex="1">
          <mxGeometry x="250" y="181" width="130" height="30" as="geometry" />
        </mxCell>
        <mxCell id="ejDFjRWyY2k5rN37OPCX-13" value="employee" style="rounded=0;whiteSpace=wrap;html=1;strokeColor=#d79b00;fillColor=#ffe6cc;" parent="1" vertex="1">
          <mxGeometry x="250" y="251" width="130" height="30" as="geometry" />
        </mxCell>
        <mxCell id="ejDFjRWyY2k5rN37OPCX-14" value="performance_rating" style="rounded=0;whiteSpace=wrap;html=1;strokeColor=#d79b00;fillColor=#ffe6cc;" parent="1" vertex="1">
          <mxGeometry x="250" y="321" width="130" height="30" as="geometry" />
        </mxCell>
        <mxCell id="ejDFjRWyY2k5rN37OPCX-15" value="rating_level" style="rounded=0;whiteSpace=wrap;html=1;strokeColor=#d79b00;fillColor=#ffe6cc;" parent="1" vertex="1">
          <mxGeometry x="250" y="391" width="130" height="30" as="geometry" />
        </mxCell>
        <mxCell id="ejDFjRWyY2k5rN37OPCX-16" value="satisfied_level" style="rounded=0;whiteSpace=wrap;html=1;strokeColor=#d79b00;fillColor=#ffe6cc;" parent="1" vertex="1">
          <mxGeometry x="250" y="461" width="130" height="30" as="geometry" />
        </mxCell>
        <mxCell id="ejDFjRWyY2k5rN37OPCX-23" value="" style="shape=image;verticalLabelPosition=bottom;labelBackgroundColor=default;verticalAlign=top;aspect=fixed;imageAspect=0;image=data:image/png,iVBORw0KGgoAAAANSUhEUgAAAgAAAAIACAYAAAD0eNT6AAAAAXNSR0IArs4c6QAAIABJREFUeAHtnQl0HdWd5pPudGZ6ejsz0z3BDkjGISQdErInnY12Y5qloZOQxEAk2ewQExMMZAyBJMhmx8QhQIgJW1hiiA2JrafFkhdZlqxdtiVZm2VL2CI9pzuTXqYzmV4S7vRf5sWP53ffq+XWrVuvfpyjI6x6r+6t3/3u//tevVtVb3gD/0EAAhCAAAQgAAEIQAACEIAABCAAAQhAAAIQgAAEIAABCEAAAhCAAAQgAAEIQAACEIAABCAAAQhAAAIQgAAEIAABCEAAAhCAAAQgAAEIQAACEIAABCAAAQhAAAIQgAAEIAABCEAAAhCAAAQgAAEIQAACEIAABCAAAQhAAAIQgAAEIAABCEAAAhCAAAQgAAEIQAACEIAABCAAAQhAAAIQgAAEIAABCEAAAhCAAAQgAAEIQAACEIAABCAAAQhAAAIQgAAEIAABCEAAAhCAAAQgAAEIQAACEIAABCAAAQhAAAIQgAAEIAABCEAAAhCAAAQgAAEIQAACEIAABCAAAQhAAAIQgAAEIAABCEAAAhCAAAQgAAEIQAACEIAABCAAAQhAAAIQgAAEIAABCEAAAhCAAAQgAAEIQAACEIAABCAAAQhAAAIQgAAEIAABCEAAAhCAAAQgAAEIQAACEIAABCAAAQhAAAIQgAAEIAABCEAAAhCAAAQgAAEIQAACEIAABCAAAQhAAAIQgAAEIAABCEAAAhCAAAQgAAEIQAACEIAABCAAAQhAAAIQgAAEIOAigZmZmd8dOnTov/IDAzRgXwP9/Qf/yMW6QJ8gAIEyIaCU+q2xgzPvGZ+e+cr4yzPPjk/P9I5Pz/zd+PTMr8enZxQ/MEAD8Wigc3BMbdrR82rjzv5fbO8Z3Ng2OHhimZQdDgMCEIiTwPjUT98xNj1z9/j0zCEKfDwFHu5wL6YBCQA/2db1m5+6HT2/3t4/eFecdYO2IQCBBBMYffmnH5iYnnmJT/iYTzHzYVv8+sgPABIGNm7vUtt7Bh9JcAmi6xCAgG0CY6+88t8npmcexfjjL+yYK2PgRQOFAkD2jMDO/uFrbdcQ2oMABBJIYPzlV/5ifHrmp16KDq/BnNCAGxooFgDk64CtA8OnJrAc0WUIQMAWgbHpV77Gp343CjrGyjj40UCxACBnApo6+n7e39//O7ZqCe1AAAIJIaCUeuPE1Cv3+yk4vBaDQgPuaKBUAJAQsK17b0tCShLdhAAEbBEYn555gGLuTjFnLBgLvxrwEgA2bu9Wbf0jN9qqK7QDAQg4TmB86vA3/BYbXo9BoQG3NOAlAMhZgMyOnl9t7x05xfGyRPcgAIGoCYxNHz6L7/zdKuQYK+MRRANeA8CR9QD9fz8yMvLmqOsL+4cABBwlMDw19Zbx6Zm/DVJseA8mhQbc0oCfAMB6AEeLMt2CgC0CY9OHn6aIu1XEGQ/GI6gG/AYA1gPYqrS0AwHHCIy9/MrHxqdnXg1abHgfRoUG3NKA3wDAegDHijLdgYAtAuPTM00UcLcKOOPBeITRQJAAwHoAWxWXdiDgCIGJqVfey6d/zCaM2fBe9/QTNACwHsCRwkw3IGCDwMTLMw9RwN0r4IwJYxJGA2ECAOsBbFRe2oBAzATkVqDj0zN/F6bQ8F6MCg24p4EwAYD1ADEXZpqHgA0CEwcPfZLi7V7xZkwYk7AaCBsAWA9gowLTBgRiJDA+dfjrYQsN78es0IB7GjARAFgPEGNxpmkIRE1g4uWZDMXbveLNmDAmYTVgKgDIeoDWvn3Lo65F7B8CELBMYHx6Zn/YQsP7MSs04J4GTAUAOQtQt6Pn11sHhk+1XJ5oDgIQiIqAUuq3xqdn/o3i7V7xZkwYk7AaMBkAjqwH6Pu5LBqOqh6xXwhAwCKBycnJPwxbZHg/RoUG3NSA6QDAegCLxZmmIBA1gfHDh+dSvN0s3owL4xJWA1EEANYDRF2V2T8ELBEYnfqbyrBFhvdjVGjATQ1EEQBYD2CpONMMBKImQABws3BjqIyLCQ1EFQCOrAfo//uRkZE3R12j2D8EIBARAQIARmPCaNiHmzqKMgCwHiCiosxuIWCLAAHAzcKNoTIuJjQQdQDgeQG2KjXtQCACAgQAjMaE0bAPN3UUdQBgPUAERZldQsAWAQKAm4UbQ2VcTGjARgBgPYCtak07EDBMgACA0ZgwGvbhpo5sBQDWAxguzOwOAjYIEADcLNwYKuNiQgM2AwDrAWxUbNqAgEECBACMxoTRsA83dWQzALAewGBhZlcQsEGAAOBm4cZQGRcTGrAdAFgPYKNq0wYEDBEgAGA0JoyGfbipozgCAOsBDBVndgOBqAkQANws3Bgq42JCA3EFANYDRF252T8EDBAgAGA0JoyGfbipo7gCAOsBDBRndgGBqAkQANws3Bgq42JCA3EGANYDRF292T8EQhIgAGA0JoyGfbipo7gDAOsBQhZo3g6BKAkQANws3Bgq42JCAy4EANYDRFnB2TcEQhAgAGA0JoyGfbipIxcCAOsBQhRo3gqBKAkQANws3Bgq42JCA64EANYDRFnF2TcEAhIgAGA0JoyGfbipI5cCAOsBAhZp3gaBqAgQANws3Bgq42JCA64FANYDRFXJ2S8EAhAgAGA0JoyGfbipI9cCAOsBAhRp3gKBqAgQANws3Bgq42JCAy4GANYDRFXN2S8EfBIgAGA0JoyGfbipI1cDAOsBfBZqXg6BKAgQANws3Bgq42JCAy4HANYDRFHR2ScEfBAgAGA0JoyGfbipI5cDAOsBfBRqXgqBKAgQANws3Bgq42JCA64HANYDRFHV2ScEPBIgAGA0JoyGfbipoyQEANYDeCzWvAwCpgkQANws3Bgq42JCA0kJAKwHMF3Z2R8EPBAgAGA0JoyGfbipo6QEANYDeCjWvAQCpgkQANws3Bgq42JCA0kKABICNnfs/nlrq3qT6TrH/iAAgQIECAAYjQmjYR9u6ihpAWB2PUDP3uYCpYo/QQACpgkQANws3Bgq42JCA0kMAKwHMF3l2R8ENAQIABiNCaNhH27qKIkBgPUAmmLNnyFgmgABwM3CjaEyLiY0kNQAwHoA05We/UGgAAECAEZjwmjYh5s6SnIAYD1AgYLNnyBgkgABwM3CjaEyLiY0kPQAwHoAk9WefUEgjwABAKMxYTTsw00dJT0AsB4gr2DzTwiYJEAAcLNwY6iMiwkNlEMAYD2AyYrPviCQQ4AAgNGYMBr24aaOyiUAsB4gp2jzvxAwRYAA4GbhxlAZFxMaKKcAwHoAU1Wf/UDgNQIEAIzGhNGwDzd1VE4BgPUA2BYEDBMgALhZuDFUxsWEBsotALAewLABsLt0EyAAYDQmjIZ9uKmjcgwArAdIt2dx9AYJEADcLNwYKuNiQgPlGgBYD2DQBNhVegkQADAaE0bDPtzUUbkGANYDpNezOHKDBAgAbhZuDJVxMaGBcg4ArAcwaATsKp0ECAAYjQmjYR9u6qjcAwDrAdLpWxy1IQIEADcLN4bKuJjQQBoCAOsBDJkBu0kfAQIARmPCaNiHmzpKQwBgPUD6fIsjNkSAAOBm4cZQGRcTGkhLAGA9gCFDYDfpIkAAwGhMGA37cFNHaQoArAdIl3dxtAYIEADcLNwYKuNiQgNpCwCsBzBgCuwiPQQIABiNCaNhH27qKG0BgPUA6fEujtQAAQKAm4UbQ2VcTGggjQGA9QAGjIFdpIMAAQCjMWE07MNNHaU1ALAeIB3+xVGGJEAAcLNwY6iMiwkNdA2OKTHDdP50q/b+0etClkjeDoHyJUAAwGhMGA37cFNH3UPjKTX/I6GnbkfPr7cODJ9avhWcI4NACAIEADcLN4bKuJjQQO/wRKoDAOsBQpgDby1/AgQAjMaE0bAPN3U0MHog9QGA9QDl72McYUACBAA3CzeGyriY0MDw5MsEgG1divsDBDQI3lbeBAgAGI0Jo2EfbupobGpGbWztJgRs61KZHb2/2r537ynlXdE5Ogj4IEAAcLNwY6iMiykNtHTuJgC8diXE5o7dP29tVW/yUSJ5KQTKlwABAKMxZTTsx00t7do9QgDIuRRyW8/e5vKt6BwZBHwQIAC4WbQxU8bFlAaG9k8TAHICAOsBfBgELy1vAgQAjMaU0bAfd7XU1N5PCMgJAdwfoLx9jaPzSIAA4G7RxlAZG1MaSPsNgQrdCZH1AB5NgpeVLwECACZjymTYj7taGpueUZm2Ps4C5JwF4P4A5etrHJlHAgQAd4s2hsrYmNQAZwEKPROB5wV4tApeVo4ECACYjEmTYV/u6knuCbC5Y4CzAHlnAVgPUI7OxjF5IkAAcLdgY6aMjWkNDE5MqU3buTFQ/pqA5l0D/5v7A3iyDF5UTgQIAJiMaZNhf25rqjvVjwgu9DXAkb9xf4BycjaOxRMBAoC+WA8enFLbJvaozGg3P44yaBrrVd2TY2ps+rAieOi1nM9mR98QXwXkfRXwk22sB/BkGryofAgQAF5fNIemptXd/c+rhVtXqMpMNT8JYfCepivVFR1rVMv4AEFg+vWazjd/+ffY1GG1rXuQEJAXAnheQPl4G0figQAB4GixlE+Tf9Z8LaafENMvFNDmZ5aor/f8gDMCHkPAjl7OBOSvB+D+AB6Mg5eUBwECwJEA0DjWq97ZcBnmn2Dzzw0EX9n1Xc4EeAgBcjagfffI7ONy840wzf9mPUB5+BtHUYIAAWBGyXf9H21ehvmXiflng8DavfWEAI8hYPfoAZVp6+UrgZyvBNoGRi8sUT7ZDIFkEyAAzKg7+9Zh/mVm/hICPtK8TI1MHyIEeAwBo1OHVFv/sNqYY4JpPguwuWPgZ8mu7vQeAiUIEABm1IKWGwkAZRgAJAQ8P9xKAPAYALKLBYcnX1ZylQD3C+hS3QNDHyxRQtkMgeQSSHsA6D+wH/MvU/OXAHBrz5MEAJ8BIBsERg8eUl1D46q5c7fauF1//Xw5nyVo7Rv6dnKrOz2HQAkCaQ8AzWMDBIAyDgBX73qAABAwAGSDgPweO3hYDYxOqs49Y6q1d0i1dO5Rzbt2q6aO/rL+2Tkw/EyJEspmCCSXQNoDwI6JIQJAGQcArgY4eplrrqHz/964TEzP3Jzc6k7PIVCCQNoDwPDUtHp7/cWEgDINAXJTJ8zOm9nB6VhOBIASBsLmZBNIewCQonfBjtsJAGUaAORWzhjbscYGE29MCADJ9jd6X4IAAWBGbdjXRgAowwBw4Y47MX8D3/+nOSwQAEoYCJuTTYAAcOSTwKXt9xMCyigEnNJ4+eyDnNJsXhy7t0/5xTgRAJLtb/S+BAECwJEiIXcD/EzrNwkBZRAC5JbO6/Zt59M/n/5Da4AAUMJA2JxsAgSAo58S5K5xN3U/zqLABIeAc7bdojaP94cu/MU+FbLt6JwpdxYEgGT7G70vQYAAcGwx27V/RN3d/4Kqartbnb3tFnXG1hX8OMzgc60r1fLOR9SP9u3A+PnUb1QDBIASBsLmZBMgABwbAMr9Uw3Hx5ijAW8aIAAk29/ofQkCBABvhYCCCSc0kD4NEABKGAibk02AAJC+ooaRMeZowJsGCADJ9jd6X4IAAcBbIaBgwgkNpE8DBIASBsLmZBMgAKSvqGFkjDka8KYBAkCy/Y3elyBAAPBWCCiYcEID6dMAAaCEgbA52QQIAOkrahgZY44GvGmAAJBsf6P3JQgQALwVAgomnNBA+jRAAChhIGxONgECQPqKGkbGmKMBbxogACTb3+h9CQIEAG+FgIIJJzSQPg0QAEoYCJuTTYAAkL6ihpEx5mjAmwYIAMn2N3pfggABwFshoGDCCQ2kTwMEgBIGwuZkEyAApK+oYWSMORrwpgECQLL9jd6XIEAA8FYIKJhwQgPp0wABoISBsDnZBAgA6StqGBljjga8aYAAkGx/o/clCBAAvBUCCiac0ED6NEAAKGEgbE42AQJA+ooaRsaYowFvGiAAJNvf6H0JAgQAb4WAggknNJA+DRAAShgIm5NNgACQvqKGkTHmaMCbBggAyfY3el+CAAHAWyGgYMIJDaRPAwSAEgbC5mQTIACkr6hhZIw5GvCmAQJAsv2N3pcgQADwVggomHBCA+nTAAGghIGwOdkECADpK2oYGWOOBrxpgACQbH+j9yUIEAC8FQIKJpzQQPo0QAAoYSBsTjYBAkD6ihpGxpijAW8aIAAk29/ofQkCBABvhYCCCSc0kD4NEABKGAibk02AAJC+ooaRMeZowJsGCADJ9jd6X4IAAcBbIaBgwgkNpE8DBIASBsLmZBMgAKSvqGFkjDka8KYBAkCy/Y3elyBAAPBWCCiYcEID6dMAAaCEgbA52QQIAOkrahgZY44GvGmAAJBsf6P3JQgQAPSFoHNyVNWPdqsMPzAoYw1sn9irRqYPKULBsbWAAFDCQNicbAIEgNdP+j0HD6hbe55SH2v+iqrMVPMDg1Ro4F0Nl6tL2+9XzWMDBIHpozWBAJBsf6P3JQgQAI5O9o0ju9T7m76UioJPuCHcFdLA/PrFamXvs2ps+jBBYHpGEQBKGAibk02AAHAkAGwc7VQnN1yC+fOJHw1kqtVN3Y8TAAgAyTY3el+aAAFgRslp/w9uXkrhx/zRwGsamJepUc8Nb0t9COAMQGkP4RUJJkAAmFG1vc9Q+DF/NJCngQVbvkoAmJ65OcHlna5DoDgBAsCM+mTL9RT/vOJf6Pth/pa+dQONY72pDgGcASjuH2xNOIG0B4C+AxOYP+aPBjQaWN2/gQCQ8BpP9yGgJZD2ANA81k/x1xR/PvGn7xN//pjf3JPuxYCcAdBaBxvKgUDaA0DbxBABgACABjQakEsC03yDIAJAObgcx6AlkPYAsG/qZS7/0xT//E+D/Dt9ZwQeG2wkAGirJxsgkHACaQ8A8unmi2138gmQEIAG8jRwUv0StfvgAQJAwms83YeAlgABYEbJTYDkumc+4abvEy5jrh/z5Z2PpNr85cMBXwForYMN5UCAAHDkToBLOx4kAOR9AsQc9eZY7mw+2rxMyRUyaf7+nwBQDg7HMRQlQAA4EgBkLcBFfBVACCIEqQ81XcNDgV57IBBnAIraBxuTToAAcPRhQKNTh9WqvueUPBmt3D/hcXzp/XSvG3v5GmzJzntV1+RY6j/5Z898EACS7nD0vygBAsDRAJCd9P0H9quH92xUV3V8W31hxyp1/vZafmBQthq4pH21Wtn7jNoyzqOAszUg+5sAUNQ+2Jh0AgSAYwNAdvLzGzZoIN0aIAAk3eHof1ECBIB0FzgMjvFHA3oNEACK2gcbk06AAKCf/BRG2KCBdGuAAJB0h6P/RQkQANJd4DA4xh8N6DVAAChqH2xMOgECgH7yUxhhgwbSrQECQNIdjv4XJUAASHeBw+AYfzSg1wABoKh9sDHpBAgA+slPYYQNGki3BggASXc4+l+UAAEg3QUOg2P80YBeAwSAovbBxqQTIADoJz+FETZoIN0aIAAk3eHof1ECBIB0FzgMjvFHA3oNEACK2gcbk06AAKCf/BRG2KCBdGuAAJB0h6P/RQkQANJd4DA4xh8N6DVAAChqH2xMOgECgH7yUxhhgwbSrQECQNIdjv4XJUAASHeBw+AYfzSg1wABoKh9sDHpBAgA+slPYYQNGki3BggASXc4+l+UAAEg3QUOg2P80YBeAwSAovbBxqQTIADoJz+FETZoIN0aIAAk3eHof1ECBIB0FzgMjvFHA3oNEACK2gcbk06AAKCf/BRG2KCBdGuAAJB0h6P/RQkQANJd4DA4xh8N6DVAAChqH2xMOgECgH7yUxhhgwbSrQECQNIdjv4XJUAASHeBw+AYfzSg1wABoKh9sDHpBAgA+slPYYQNGki3BggASXc4+l+UAAEg3QUOg2P80YBeAwSAovbBxqQTIADoJz+FETZoIN0aIAAk3eHof1ECBIB0FzgMjvFHA3oNEACK2gcbk06AAKCf/BRG2KCBdGuAAJB0h6P/RQkQANJd4DA4xh8N6DVAAChqH2xMOgECgH7yUxhhgwbSrQECQNIdjv4XJUAASHeBw+AYfzSg1wABoKh9sDHpBAgA+slPYYQNGki3BggASXc4+l+UAAGgcIEbnTqstowPqPX72tS6fdv5gUHZaqB+tFvtOXhAEXaOrQUEgKL2wcakEyAAvH7S9xwYU9d3rVXvbbpaVWaq+YFBKjRwUv0SdcGOO9Sm0U6CwPTRmkAASLrD0f+iBAgARyf788Ot6t2NV6ai4BNuCHeFNDAvU6NWdD+m5AwYZwRmFAGgqH2wMekECABHAoCc6p+fWYz584kfDWSq1Vd2fZcAME0ASLq/0f8SBAgAM6r/wKQ6tZFT/oU+EfK39J4peGJwc+pDAGcAShgIm5NNgAAwo27teZJPfXzyRwN5GvhEy3I1Np3urwIIAMn2N3pfggABYEZ9rPk6in9e8eeTf3o/+eeOfWa0O9VnAQgAJQyEzckmkPYA0HNgHPPH/NGARgP3DvyIAJDsEk/vIaAnkPYA0DzWT/HXFP/cT4L8fzrPCNzU/TgBQF8+2QKBZBNIewBo3z9MACAAoAGNBlb1PUcASHaJp/cQ0BNIewAYmT6k3tlwGQagMQA++afzk3923J8cbCYA6MsnWyCQbAJpDwBys5MlO+8lABAA0ECeBk5uuETtPXiQAJDsEk/vIaAnQACYUY1jverE+hoMIM8Asp8C+Z3OswByR8C03w2QqwD03sGWMiBAADhyJ8Abur5HACAAoIHXNPCpluU8IIg7AZaBw3EIRQkQAI4EgJGpQ+ry9m9hAISA1GtA7ovROjGY+k//cvaDMwBF7YONSSdAADj6MCCZ8Gt2v8iTAAkBqQwB8zNL1NKOB1X/gf2Y/2tPBCQAJN3hEtj/t6w+8/fesuqM98ypPf2041aefs5xK09fFNXP6Y8svTTt3/PlH//gwSklq5/la4GL2+9Ti9vu5QcGZauBa3Y9pFb3b1Dtk/sw/pxHAXMGIIHmmcQuH1e7YN7c2tOXzalduGFO7cLDc2oXKls/J6w685V8A+Tfrz8rAA94oIF0aoAzAEl01AT0+V21i9583MqFF8+pXdg+p3bhq7YMP7+dE1ad9VOKWzqLG+POuKOB4hogACTATBPVxfWLfvu4lWcstf1JP9/4s/+uWHX231AEihcB+MAHDaRTAwSARLmr2519y6q/+Oic2oV7subrwu/KVWf/L4pbOosb4864o4HiGiAAuO2pSendG+esXHjd3NqF/+aC6ef2Yd7t5/wtRaB4EYAPfNBAOjVAAEiKxTraz3m1C/7znNqFP841XZf+f/4d5/6M4pbO4sa4M+5ooLgGCACOGmsSuvXH937iD+bULmx1yfDz+3LSnef9nCJQvAjABz5oIJ0aIAAkwWld7OOjH/ydObULN+cbrmv/fvtdn/5Hils6ixvjzrijgeIaIAC4aK4J6NOc2oWPumb2hfrzzrs/838oAsWLAHzggwbSqQECQALM1rUuzl15xmcKma2Lfzvlns/9kuKWzuLGuDPuaKC4BggArrmr4/2ZW7vgj+fUnv53Lpp9oT69574v/BtFoHgRgA980EA6NUAAcNxwXevecbVnPFTIaF3923tXX/Brils6ixvjzrijgeIaIAC45rAO9+f42gUnuXitf7Hw8b7VF/IAkLwHgFAUixdF+MAnLRogADhsuK51bU7twrXFzNbFbQQAinlaijnHidb9aoAA4JrLOtqf42vP+m9zblv4CxdNvlifCAAURb9FkdejmbRogADgqOG61q25K8+4tpjRurqNAEAxT0sx5zjRul8NEABcc1pH+3Nc7cJOV02+WL8IABRFv0WR16OZtGiAAOCo4brUrT+pXXDcnNqFrxYzWle3EQAo5mkp5hwnWverAQKAS07raF/mrjz9i64afKl+EQAoin6LIq9HM2nRAAHAUdN1qVtza09/pJTRurqdAEAxT0sx5zjRul8NEABcclpH+zKnduFOVw2+VL8IABRFv0WR16OZtGiAAOCo6brUrTm1C/+2lNG6up0AQDFPSzHnONG6Xw0QAFxyWjf78sY5tQt/5arBl+oXAYCi6Lco8no0kxYNEADcNF1nevWW1Wf+XimTdXk7AYBinpZiznGidb8aIAA4Y7WOdqR2wZuSegmgBBMCAEXRb1Hk9WgmLRogADjquy51K4m3AM6elSAAUMzTUsw5TrTuVwMEAJec1sW+qDfIGoBDWUNN2m8CAEXRb1Hk9WgmLRogALhoug71af6WRX80976zDyfN+LP9JQBQzNNSzDlOtO5XAwQAh8zWxa5IADj+e59WWUNN2m8CAEXRb1Hk9WgmLRogALjoug71SQLACc98ngAwTVFMS1HkONF6WjRAAHDIbF3sigSAio1Vau7KMxIZAjgDQDFPSzHnONG6Xw0QAFx0XYf6JAGgMlOt3vqtcwgAnAVQfgsMr8eU0IC7GiAAOGS2LnYlGwBOePpzBAACAAEADaCBMtIAAcBF13WoT9kAUFlXpebe8ZeJCwF8BeDupw8+GTI2aCBeDRAAHDJbF7vymwCQqVbHP/ZZAkAZpX+Kb7zFF/7wj1sDBAAXXdehPuUGgNmzAHcm6ywAZwAosnEXWdpHg65qgADgkNm62JXXBYBMtUraJYEEAIqvq8WXfqHNuDVAAHDRdR3qU34AmL0i4DvnJuarAAIARTbuIkv7aNBVDRAAHDJbF7tSKABUbvyimnP3mYkIAQQAiq+rxZd+oc24NUAAcNF1HepTwQCQqVYVGy5Uc253fz0AAYAiG3eRpX006KoGCAAOma2LXdEFAPkqoGL9hWrOHW7fIZAAQPF1tfjSL7QZtwYIAC66rkN9KhYAsiFgrsNXBhAAKLJxF1naR4OuaoAA4JDZutiVUgFAQkDlSxept64+28k1AQQAiq+rxZd+oc24NUAAcNF1HeqTpwAgXwfUVanj135azVm50KkgQACgyMZdZGkfDbqqAQKAQ2brYle8BoAzm+twAAAgAElEQVTZMwGvrQtw6cFB71t9Afcu5+6FaAANoIECGiAAuOi6DvXJbwD4TRBYt0jNdeAJgu++9/P/6mr6pl98MkQDaCBODRAAHDJbF7sSNAD8Jgi8dJE6/vufVXPvP1vNXWn/ioG33/Xpf4xzgtE2BR4NoAFXNUAAcNF1HepT2ACQDQKzvzdVqRNeWKRO+MH56vhHP6OOf+Sv1Vu/e96xPw+f9+9vfeDcQ3PXnLNn7upzOuauPmtn0J+3P/S5ttv6nhm9t/9H/7Bm94uKHxigATSQdg2sHlj/y1X9z01X7bzrkYr6qqsC/9RVLa6sq/l8RaZ64fyGJSd/sP+q33HIvuhKWAJGA4BcMcAPDNAAGkAD5aqBf6/M1AzOy1R/p6Ku+rx3rV/05rAexPtjJEAAILQQ2tAAGkADATXw88pM9cPHb6o5KUYbo+mgBAgATPyAE79cP+FwXHx6RwP+NfCrykzN85V1i08M6kW8LwYCBAACAAEADaABNGBIA7+srK/5xhtaF7wpBjujSb8ECABMfEMTn09N/j81wQxmZamBeZnq3or6qvl+/YjXWyZAACAAEADQABpAAxFo4GcnZqo+YtnSaM4PAQIAEz+CiV+Wn2rgxFxBA7418M8V9VVn+PEkXmuRAAHAt6AxN07bogE0gAa8a+D/VtbXfNyirdGUVwIEAAIAn2rQABpAAxFr4GfzfnLRPK++xOssESAAMPEjnvh8UvL+SQlWsCpbDcjCQG4cZMnYvTZDACAAEADQABpAAzY0MK++eqVXb+J1FggQAJj4NiY+baAzNIAGKjNV/yLPFLBgbTThhQABgElJYUYDaAAN2NNA1YtevInXWCBAAGDi25v4sIY1GkAD1a9W1H3xFAv2RhOlCBAAKEgUJDSABtCAXQ1UPVbKm9hugQABgIlvd+LDG95oAA1U/9Px6xf9rgWLo4liBAgAFCOKERpAA2jAugbqaj5fzJvYZoEAAYCJb33ic6132V7rjZaoJ141UFFfvdaCxdFEMQIEACas1wnL69AKGkAD5jRQNVHMm9hmgQABgAltbkLDEpZoAA141sCrf7J+0e9bsDma0BEgAHgWK6dtOXWPBtAAGjCpgU0XvV/nTfzdAgECAAGATyxoAA2ggTg0MC9T81kLNkcTOgIEACZ+HBOfNtEdGkADFXVVi3XexN8tECAAMAkpxGgADaCBODQwr75qqQWbowkdAQIAEz+OiU+b6A4NoIHKTM0ynTfxdwsECABMQgoxGkADaCAeDRAALNi8vgkCABM/nokPd7ijATRAANC7s4UtBACKEEUIDaABNBCPBggAFmxe3wQBgIkfz8SHO9zRABogAOjd2cIWAgBFiCKEBtAAGohHAwQACzavb4IAwMSPZ+LDHe5oAA0QAPTubGELAYAiRBFCA2gADcSjAQKABZvXN0EAYOLHM/HhDnc0gAYIAHp3trCFAEARogihATSABuLRAAHAgs3rmyAAMPHjmfhwhzsaQAMEAL07W9hCAKAIUYTQABpAA/FogABgweb1TRAAmPjxTHy4wx0NoAECgN6dLWwhAFCEKEJoAA2ggXg0QACwYPP6JggATPx4Jj7c4Y4G0AABQO/OFrYQAMq3CJ3ccIla0HKj+mzrbeqiHXeoi9vvU0s7Hiz4c/WuB9TitnvV+a23qdO2XK/e2XCZSmNxEmZ/seWr6ottd6rLdt5fkJWOYam/X9Xx7VnG5267VZ3aeLVTfN/f9CVV1Xa3WtrxHbVk573qtC03ONW/qLX4Z83Xqqq2u2bHW47/Y81fSdXxR81Xv38CgAWb1zdBACiPACCGfcGOO9SdfevUuuFWtXP/kBqbPqzGp2cC/7RNDKmnhlrU17qfUOdsu0XNzywpu6L4tvol6qK2O9Xq/g2qeWwgNDM/vHsOjKnH9zapZZ0Pqfc1xRMI/nr7N9SGkZ0Fj3vbxB51Rfu31In1NWU37llDumDH7aputLvgHGka61U1bfeU7bFnGcT7mwCgd2cLWwgAyQ0AH968bNacN452qpGplwsWMT+GVOq1ew4eUGv31M9+Unp7/cWJLozyie++/vWq78BE5NxKcZXtI1OH1HPD29QXdqxS8zLRG66Y+sreZwoaf35/nx5qKbszQvMzi9Wa3S96GvtH9tSppOs9XpMvVmMJABZsXt8EAaCYON3bJoXoio41av2+NjU6Fe4Tfn6h9/PvngPjalXfc+qjzcsSFQQ+1HSNkoIuhuvneG2+tmGsZ/armCiLdm3vM76Of92+7WV1Bsir+WfHXc7U2AhmUY65m/smAOjd2cIWAoB7Jl9oor6j4VK1vPMR1bF/xFfhzhawqH5LCPn+YIP6ePN1TgcB+cR7Y9ejau/Bg07xKzYuYjrvjeCrAVmDEOTrIeFXSJtJ+5t85VOMu26bfB2StGN1v78EAAs2r2+CAOB2AJBTlf+z6/uqd9KNU9W64jgyfUjd1bdO/amDiwfFROX0uq7vLv9d1gl8vnWlUeN5frg1EAvRYNIXh8qnePluP8iYy5oYzgKYrpcEAL07W9hCADAtaHP7kwVasjAtSLGK6z1dk2Ozq8ld+eTxqZblqn3/cKIY5o+dfF3x5V0PGQkBEobCfP0hVwm4MrZB+nHetq+H0sJZW29O9PEHYRbtewgAFmxe3wQBwJxhm5oo8inr4T0bA52mzTePuP4t/Y/7bMBfblnh/JkTP+NzS/cToc3nc60rQxngptGu0H0wNU+C7EfWf/hhnv/aawwFsSB9L8/3EAD07mxhCwHArQAg1+A3j/WHKlL5RSuuf8tlZHI8cRSujzVfp7onx8qCY+74Xd+1NhTPS9vvD81k4dYVofoQhx6kzfc0XamGpqZDHf+tPU8m8tjjYl66XQKABZvXN0EAcCcAyI1kwhaoXLNw4f8HDk5GvqI9v8hIoZf7ILhw/Kb7IIsuZRFb/jF7/bdc9x62T98a2BC4fa/9jOJ1N3R9L/SxX9f5SCKPPQqeZvZJANC7s4UtBAA3AsCKrsdCF6ewhT2q9++benn27nJmCkbx8ZJFWk8NNpctSxmj/gOT6iMBL7+UyyCDXAGQqw25H0QSFwOaWE9z3vZvEAAyxeegv3lOALBg8/omCAAmxex/X/Pr5YYkL5W1YYl5yMIzuRWxv+Lgn+fSXQ+WPUvhKfeBCLoivV5z57tcky/1/0lbDBh28Z/w6D+wX8lVOVFrOF37JwDo3dnCFgKAf5MxNUHl2vS1e+tTYVhSQOVSQTkFbYpf/n7e3XilkhsUlTKvctl+SfvqQCyv3fVwaEZJWwwYdvGfaObu/hcC8c7XKf/OrbkEAAs2r2+CAJArRrv/L/efLxcz8nocgwenVFSLyO7pfyFVPNsn96mT6v0/n+FdDZcbuSFSVONo2iBNLP4Tff95S7oekGR6HArvjwCgd2cLWwgAdk0/Owlu7XkqVWaVGxDkunzTd7iTIp+ku/zl8gjz/1/qeCDQp9IHd28Mrb+kLAY0sfjvxZH2QJyz853fujpLALBg8/omCAA6YUb394t33he6+IYxDRfeK3fmC/oddqFiKpdnuXBctvuwZXwgkDGdve2W0LySshjQxOI/bgMcVT0kAOjd2cIWAkBUwi68X7k+XQqnLaOQtjKj3eqJwSb1nd0/UfcO/Eit7Hv2dT9y6vy7e+vUM0NbVONYb6g7xfk5LvkuupCZ+/2bBIntE3uNMt21f2SWWSFe+fy8/Fse0yyMZSzCrsLPZ3xmwLvTyUOH8vfl999Bz0D4HeOgrzez+G9SndxwiRGtBj2O8n0fAcCCzeubIAAUNuooJpw8yc/ECuxiRVouuZPL4OTWsZ9sCXYTHrnES25DvLL3WSXfMxdrL8w2WQ9g4mmCYoBh+pH73h+PdMweu8mzE/la+tDmLytZ/yGLInPbDvr/8gyG/Da8/DsNiwFZ/GevvnnR3LGvIQDo3dnCFgKAvQlye98PjRT8QkYhDyqRm5TId+HHTrLgxyiXKcrtYzeMtEfSdwkrYft7c8/jRvomj8iVKzPC9sfr+yVkmXjI0+bx/kB9LvfFgCz+Cz7vvWo4/OsIABZsXt8EAcDOJDltyw3GPvHlBoDOyVF1RccaK89qlzvQye19c9s38f8SMMIUknUBn26X2/c7+n4Yqg9B+3/Wtq+p4ZC3p5WvFE5tvDpQ/8t5MSCL/+zUtqDaP/I+AoDenS1sIQBEP0nkdPKGkZ1GjVOK/n3965V8igs3Af0d/zsaLp19UFGueYb9/02jnaGOIew9/5vG+5Sc6bDJMbctE2cwzt9eG6j/5bwYkMV//uZ2ribt/T8BwILN65sgAEQ/SeSGLWFNMvf9fQcm1IU7gt8P3sTkvqrj22pk6mVjx7Uo4A2CTmm8PHQfatruCWSeJjjKPiRUyV3mcsfY7/8v6wz+uOByXAzI4r/o65oZ/RMA9O5sYQsBINqJIp/+TT7dT77rlysJzEy+cMcuxmlqIVvQ66wXtNwYyjhlIaILK7y/tycT6jhkwWZQTZTjYkAW/4Wb20G15P99BAALNq9vggAQ7USp3nl3qMKe+0lQgsT7m74UuND7n5yl2SzZea+xy9rkdLTfPv7V9ltD8ZXL8vy2GcXrb+haG+o45OugoP0qt8WALP4rPW+DasX8+wgAene2sIUAEO1kqTPw4BUJAXI5nlw+Zn4Chj9+WUCXG1SC/r/cq8Dv8Z3feluotp8d2uq7Tb999PL6S9vvD3UcD+/ZGOo4ymkxIIv/ws9pL5o18xoCgAWb1zdBAIhusphYYCVmKjfz+VTL8lAF3sxkLcxKnpAm188HNf7s++RZ9x/cvNTXccoVBNn3B/n9g6HwlyGaYBv27pAP79nki1t+n01o1ZU7A7L4r/A8zR9zN/5NANC7s4UtBIDoJovcKz2IKeW/57Kd94cq7jYmujwoRR75m993v/9e3vk9X8caNgA8PdTiq72oWMYdAOS4ymExIIv/oqtn0WifAGDB5vVNEACimTDylLawK7vFPB8bbHTCoLxM/gcGfhw6AMjtcr20lX3NOSHvaf+jfTt8tZdt1/RvFwJAOSwGZPFfNPXMtN6P7o8AoHdnC1sIANFMmKq28Iv/5JTqh5quccKgjk5YPa8PbF6qhkLe1EZu6uOlrexrPtGyPFTokGcIZPcV52+5osLv2ZLc1z+0O9waADn2pC8GZPGffm7Gqe3ibRMALNi8vgkCQDSTZs3uF0MVdCnu8sjg4pMnmr6HafPbu8OdBfj+YIOvYz618arQnCW4hDlmE+89b1u4qxnCXAaY2/8kLwZk8Z979SBXW4X/nwCgd2cLWwgA0UyasE+nk2fbi7kVnjTR9NlEW/KJXBbz5X469fP/K7of83XMcge/sDckWtHlr00TnPL38e7GK0Mdh6nH1SZ5MSCL/9ytC/l6P/pvAoAFm9c3QQAwP2nktL0f0yv02jDXdR+dXOaPzcu+5QE/hY6p1N8kOEiA8NJG7mvkWv5S+y62XW4lbPuWyrn9z/7/C8M7Ah2H3IxJAkR2P2F/J3ExIIv/4pnrYbVWmSEA6N3ZwhYCgPmJY+LWv0Gf8R5+QobnISYe5AE3a/fUBzKxe/pfCGScuaEgaNsmecv9/HP75PX/7+5/PhA3Xd+TuBiQxX/h561OD9H+nQBgweb1TRAAzE+c23qeCVTIswXflYVpYSa+nFbPHo+X3+37hwN/5SF3I/TSRqnXyA2N5NbNYY477Hv9Xjoqd4c0ffYiaYsBWfxnvoaF1bH39xMA9O5sYQsBwPzkkUv3SplNse2ygND7BDLff1Ntf7P3aU+3CZbnGwQ59Z/t53ubrg71/XnuWDw11KLe1xTs0brZ/oT5LWsa1gx4W0Aqp+qjujtkkhYDsvjP3RpQei4QACzYvL4JAoD5ydM01hsqAFzcfl9ZBACZ/J9p/aaq13xHLw/iuatvnZHvr58MuO4g1/yz/y/9kq8V4rz7olxGum1iT0Ed9R+YVF/veUq9vf7iyHSSpMWALP4zX8NKG7epNgkAene2sIUAYErIR/cjK/izZhLk92lbboissNub2Ed5SJtyTFd2rFE3dT+ulnc+ouTxv/IYXFP9uWDH7aGY68Zpw8hOJffpj9JsizFYuHWFkkf9ytmU67vWqvNba631JQmLAVn89/p5VkxLbm4jAFiweX0TBACzE2h+ZkkoI5Lb6cZlNm4WCG/jI6fOZR2BzsjD/r13cmL2bEWcZwVsj08SFgOy+M/b/LCtHe/tEQD07mxhCwHA7AQ6pfGKUCYkl6R5nzxm+570duUMQ1ij9/J+uexwaceD6uSGS8p6rFxfDMjiv3KY/wQACzavb4IAYHYSyaIsLyaie005XAEQV5A4sb5GbRrtCsVfNy6F/i7fxcuCzQUtN5ZtEDCxGPD+gQ2R8GHxn9naFc+8JQDo3dnCFgKA2Ukkp4gLmYXXv8kCwngmolkOcR2DLF4bmw5+J0Kv45T/unI9K+DyYkAW/5XDnCUAWLB5fRMEALOTSBa75ZuDn3/Lwqu4zLNc2r2zb12oMfAzXvmvLcezAi4uBmTxn9m6Fd/cJwDo3dnCFgKA2YlEADDLM0hhkgWB64a3xxYCsqGgXM4KuLgYkMV/8c+zIHPz2PcQACzYvL4JAoDZiUQAMMvz2ILhbf9yc6AorwrImryX30m/gsC1xYAs/vM2B4LOHbvvIwDo3dnCFgKA2clEADDLM0wx+mjzMhX2qYxeDN7Pa5J6VsClxYAs/nNnjoWZn0feSwCwYPP6JggAZicTAcAsz7AF5v1NX1Kbx/tj/zogPyQkba2AS4sBWfzn1hwLN0cJAHp3trCFAGB2MhEAzPIMV1yO9EW+Dtiwr825EJANBXHfbdArYxcWA7L4z7355VU/hV9HALBg8/omCABmJxQBwCzPwkXDfxtyj4Cvdj0a6DHFWaOO+nfPgTG1ovtx9c6Gy5y8EsSFxYAs/vOvfVNzKJr9EAD07mxhCwHA7IQiAJjlabroyE17XtrX7uzZAAkZfQcm1C3dTzh3S+i4FwOy+M/tuRVsrhIALNi8vgkCgNlJRQAwyzNYUSndh3O33aqeHmpxOgi0jA+oM7aucOpsQJyLAVn8V1rXUc2X6PZLANC7s4UtBACzk4oAYJZndIXnSD8lCKzdU+/sVwMj04fUiu7H1LxMjRNBIM7FgCz+S9bc8jZ3CQAWbF7fBAHA7KQiAJjl6a2IhG/zlMbLZx/w4+IVA/K1gDxzQNYx2OJRrJ04FgOy+C+8xouNaXzbCAB6d7awhQBgdmIRAMzyjKMwyWl3MdzBg1NOfUWwdm+9mp9ZHHsIMLMYsNPXcbD4L/nzqvBcJgBYsHl9EwQAsxOLAGCWZ+GiYaeNUxuvUjd2Paq2TexxJgg8vGejL+OMgp/txYAs/rOj9yi0UnqfBAC9O1vYQgAwO7kIAGZ5li4gdtpz6azAtZ0Pxx4CbC4GZPGfHY3HM9cIABZsXt8EAcDs5CIAmOUZT1HSH4MLZwVkYeBfbb811hBw1ravhT4rsufgAU/3PDCx+O/y9m/Fyss1HbvTHwKA3p0tbCEA6It9kEnyqZbloQpj01gvhSpjdkyCjKOX98R5VkCecXBS/ZJYtWJjMSCL/5IxF7zMl8KvIQBYsHl9EwQAsxPsw5uXhQoAUtgLTxSz/aQNczzjuoLg+q61sWrFxmJAFv+Z06mbc54AoHdnC1sIAGYn2LsbrwwVALomx2It6m4WCbNjFNUxyrX6n97+TSWr9YenpkPpwMtth+WBQvKVRFTHU2q/US8GZPFfMnRfSifFtxMALNi8vgkCgNlJJpdpeSneuteMTB2K/dRu8Qlrlle5tmXrrMDXup+ILQDI2EW5GJDFf2mYawQAvTtb2EIAMD/Jwl4/ftqW62Mt6lGY8sebr1NX73pg9q52sor9/O216m0Rfof9wc1L1SXtq2cfALS883tq0Y7b1ckNl1jnGvVZgbaJoVhvEBTlYkAW/5mvTVHM7XD7JABYsHl9EwQA85Ms7N3kluy817pRhZvEeoZySnzTaGfBsyLy9LuVfc+qPzX49Lszt96knhvepsamDx/Tpqw6X9X3nKeV51HwOLXx6kjuK3B+a22seoliMSCL//RzKgptxrdPAoDenS1sIQCYn2iP7206xnx0p/wL/f1bAxtiLeimioE80a6QEecfs3yK/UTL8tDHvKLrMTUy9XJJ9nJjHzkjYeo4/e5HbukrIa9zcrRkX/NZFfq3nIb32weTr49iMSCL/8zXJZNjbm5fBAALNq9vggBgfqLV9j4TqrCLQZmbYOaPz0vf5A56hcxK97eO/SPqvU1XBz7um7of99Xezv1DodrzwqDUa+R4TXx6jlsvphcDsvgvnjlbSq/RbCcA6N3ZwhYCgPnJdmn7/b7MqJApuvYYWD+TX+6F4OWTeP5xPzbYGCgALNy6IlB7391bF6g9PyxKvfZ9TVerXftHQulFzrKECU+l+uhlu8nFgCz+M1+TvIxhPK8hAFiweX0TBADzk+1Dm78cqqCLMd7T/0Ls5hS0IIiR55u7l3+LkQVZABn0KxdpT8Yq6HGaet/FO+8LxCuX6UU77oj1OEwuBmTxn/maZEqr5vdDANC7s4UtBIBoJpvc0Ce3QPv9/90HDyi5lMz8hIvmeLP9/FjzV5Rcyuj3eLOvv7nncV/H/I6GS9VQiGvur+t8xFd72eM0+VvWBMg6iCyDIL9deD6A3MUySN9z3/Pwnk2h99F/YH8sV3yY1ER69kUAsGDz+iYIANEY4rd3/zh0IZNFdEkrBPcPbAh13I/ubfB1zH/eckOo9qS/LjC+b2B9qOP4es9TsR+HicWAuWEg6P/fneCzZy5o0W4fCAB6d7awhQAQTQCoabsnVEGX4idnAd7f9KXYC7vXgiDfQ4e9B8K6fdt9He9nW28LxfmJwc2+2vPKwu/rrtn1UKjjuHfgR7Efh6nFgEGNP/s+CYV++fP6aOpgaa4EAAs2r2+CABCN8N9ef7GSW7Vmi1LQ32v31CemmMnli0GPM/s+vwvzPte6MlSbPxhqdoLvxe3h1gE8tGeTE8dhYjFgVgtBfr840u4Eh9LGF03dSV67BAC9O1vYQgCIbiKu2f1SKHPKFsAk3Bjoky3XB1qJnz3G7G+/D7gpmwAQciGgfHfuQvE3sRgwq4Ugv3nsb3T1LBp9EQAs2Ly+CQJAdBPm3G23GgkA8lVAnDeuKTXx59cvVhv2tYU+1iCr8gkAM7PcXQkAohUT9zYIYv5yxi2O2z2Xmh9sL1ZjCQB6d7awhQBQTJzhtsl94BsNrIyWYihXFcg14y4Wk7A3PsoW+yCn488PuQbgmaEtTjANe+8IV74CEH3GtRiQxX/h6lU8tYUAYMHm9U0QAKKdNHL6PmtwYX/LJyu5n3w8E7Uwp6q2u9To1LH33Q9yrHL/d7/H9lfbw51l2TTa5btNv3308vqwN79Z3e/G1QxyrHEtBmTxX+E56kV/8b2GAKB3ZwtbCADRThq5xnvr+G5jIaB1YlDJtfbxTdijvC7Ycbux594HNeIFW74aiq08IOikCJ9K6HWc5BN8kNCUfY88VMlrWzZeZ3sxIIv/js5LG+Nrrg0CgAWb1zdBAIh+4sjCpGyhNvG7e3JMyXff5iahfwZyynpkOvgNf/I5fLHtzkDH8+7GK0OzjfsuevK9de/kRKjjkNPuceohv23biwFZ/Od/DuePWTz/JgDo3dnCFgJA9BNH1gK8tK89VIHPN0w57X5n3/PWH20rlzeuGXjR6LHUj3YrYRS0APUcGA/Vn8xot5IzNUHbD/u+r/p8cFK+FuTfshYibD9Mv9/WYkAW/0Vfw0xr4+j+CAAWbF7fBAHAzuSRU9VBHpBTqNjn/q19cp+ST+OyEv/opIrmmOSsQ/NYfyizze179v/lq4QwfX9heEfoPn295weh+hC0//Igo7A3T5KrJ1xcIGprMSCL/6KZ70E17e99BAC9O1vYQgCwN3nu6lsX2qiyppn/Wx4Ju7TjO+pPGy4zamTyyfyvt39DPT/cGknfTazCl1sm5/Pw+28x0RXdj4c6E+Gv8FWrs7berDonR0P3vWV8wOiY+z0O3ettLQZk8Z+9GqYb6+B/JwBYsHl9EwQAe5NHvuttGu8LXfCLmZt8mpT76V/ZsUZ9ePOyQMYgi+LO3naLkvvL7wj5kJpifZWH+JhY0HjOtluMMZVbEZ+59aZA3LwWQbmSY1Xfc8YWUMpzBLy2bft1US8GZPGfvfoVjXYIAHp3trCFAGB3Askd82TleTFjNLlNFpf9eKRDyY1i5Fa9slq80I88vEjui79ptFPtm3rZSv/83vVPV4DkLEXYp+nlM5f7LgizO/p+WJBXIYal/rZm94tqw0h7qKcl5vdT/i2XQurYxP33qBcDsvjPbv0yrycCgAWb1zdBALA/gUxfFVDIFFz/m3ylYHLh3Td7n7YSWlzjKkElzAJK8wX92PkU1WJAFv8dy9rGeJptgwCgd2cLWwgA8UwiU3fPc82QvPRHvvf+wOalRj+1ypMI5SsFL+2X02uu7XTr8r9C5hDVYkAW/8VTuwqNcfC/EQAs2Ly+CQJAPJNIPrXJafdyMiMvxyImfebWm42af7b4mL480cvxxPmarsmxRNz7PqrFgCz+i6d2Zeebmd8EAL07W9hCAIhvEsmle08ONqcmBMhlkEFv+OOl2MhZADktHKcp22xbFnp64eLCa0wvBmTxX3x1y6yeCAAWbF7fBAEg3ok0P7N4drGZTeOIoy25cdEV7d+K3LCWdz6SigDwk5EO57/7zzUK04sBWfwXb93KHdtw/08A0LuzhS0EgPgnknwdICvI4zBmG23KJ/8rLH1alYWF64a3ly1LGS+5iuQTLcsjD1PhCvux88rUYkAW/x3L1vRY2dsfAcCCzeubIAC4M5lksZStS/BsGH/WrBaFvNOf32IkXwXs2j9SliFAblgkT5j0y+OtomwAAAlgSURBVMSF15taDMjiP3dqVnhdEQD07mxhCwHArckkt4aVS7tsGXSU7chxxLVQS9rtP7C/LDjmjtGK7scSaf5iFKYWA8alqfBm51atceN4CAAWbF7fBAHAvUkphXLtnvpEm9favfXqlMbLYzWr87bdqnZbvOlSrlFH8f+39/0wVp4mDCPsYkAW/7lXr8LpggCgd2cLWwgA7k6o81trldzjPwoziWqf8mS+S9pXO2NUC1puVB0J/zpATvvf2vOUM0zDFPywiwFZ/OduvQqmCwKABZvXN0EAcHtCyX35b+55XA0cdPvytpGpQ2p1/wb17sYrnTOqDzVdM3sL3qhCT5T7lXGvabvHOabBiv2RuSaPfw7CrOdAMu57EIZN+t5LANC7s4UtBAC3A0C2ILyz4TIll7jJzV+CFM+o3iOX931/sEHJMw6yfXXx9/zMEnVrz5OJulvgs0Nb1Yc2f9lprkHG+sIddwbSsKlnRwTpM++Jqk4SACzYvL4JAkBUwo5mv+9ouFR9eddDauPIrkBF1FQQkEuxZDX2x5uvS5RB/VnzteqJwSYlwcUUC9P72TI+oC5quzNRXP0a5JrdL/niL09plBtn+W2H10dTh8xxJQDo3dnCFgKA6xNE3z8x32/0Pq3k+mobhia38ZUnBl68875E3IK2WJE6bcsNShak2XwyY7GgIN/zy5MCq3febfQhScUYxLlNzNzrrbDlTIicAYuzv7Str0Ph2BAALNi8vgkCQFTCtrvfUxuvmv2u+L7+9bNGIt+XFjMcL9u6/+Ne8+uGW5U8ae+zrbcl3vQLFaqTGy6ZDTQP7d5o/JHCpRhL+HhmaIu6oWut+vDmZak0OLk1dONYb0Gttk4MqqUd30lFICqkzXT8jQCgd2cLWwgAdo3a5qQ+pfEKJauu5UY8cvOYpR0PzprNiq7HVP7P0l0Pqqt3PaDk+1m5F8GpjVen0pBkEaMwy/L6atejx7DKZ+f138s6H5q9HfL5rbepjzQvw9gyR+feaVuuV5e3r1E3dH1PXdXxbXXG1hXwyeFjs27YbYsAYMHm9U0QAI4WIbvCp114owE0kHYNEAD07mxhCwEg7ROQ48eE0AAaiEsDBAALNq9vggAQl/Bpl6KLBtBA2jVAANC7s4UtBIC0T0COHxNCA2ggLg0QACzYvL4JAkBcwqddii4aQANp1wABQO/OFrYQANI+ATl+TAgNoIG4NEAAsGDz+iYIAHEJn3YpumgADaRdAwQAvTtb2EIASPsE5PgxITSABuLSAAHAgs3rmyAAxCV82qXoogE0kHYNEAD07mxhCwEg7ROQ48eE0AAaiEsDBAALNq9vggAQl/Bpl6KLBtBA2jVAANC7s4UtBIC0T0COHxNCA2ggLg0QACzYvL4JAkBcwqddii4aQANp1wABQO/OFrYQANI+ATl+TAgNoIG4NEAAsGDz+iYIAHEJn3YpumgADaRdAwQAvTtb2PKOTZf9AZMw7ZOQ42cOoAE0EIMG6qqvsWBzNKElsH7Rb1dmql9F/DGIP0Ob6A4NoIH0aqCirmqx1pvYYIdAZab6F0zC9E5Cxp6xRwNoIA4NzMvUfNaOy9GKlkBlpnosjsGnTYoOGkADaCDFGqir+YDWmNhgh8C8TPUmJmGKJyFfRSj0j/7RgH0NyBo0Oy5HK1oC8+qrVyJ+++KHOczRABpIsQYmtabEBnsEKusWn55iEfLpjzMAaAANoAH7Gvi+PZejJS2B49cv+t3KTPU/EwL4NIIG0AAaQAM2NFBRV3OB1pTYYJdAZV31szYGnTYoLmgADaCB1GvgF29pXvx7dl2O1rQEKjbV/CWTMvWTktOg9k+DwhzmqdNARX31U1ozYkM8BCozNbsJAYQANIAG0AAaiFADrx7fUP2eeFyOVrUE5mWqL4xw0FOXcmFJEUUDaAANvF4DFfXVG7UmxIYYCag3vLGirroNwb5esPCABxpAA2jAiAb+9cRNNe+I0eVouhiByk0Xvb8yU/3viN2I2Dnrwfe7aAANoIHXNFCRqb6rmP+wzQEC8zLVXyMAEADQABpAA2jAoAb6T2o85z85YHF0oSiB2trfqsxUNxoceBIwn4LQABpAA+nVwN+f0Hjh24r6DhvdITA3c9V/qcxUdxIC+ASABtAAGkADITTw/06or/mUO+5GTzwReNuPF/+PykzNYIiBJ/GnN/Ez9ow9GkADv6yoqz7Pk+HwIvcI/Mn6Rb8/r76qhRDAJwA0gAbQABrwoYF/4JO/e57uv0etC940L1NTW5mp/rWPwSf9k/7RABpAA+nUQP/xm2pO8m82vMNZApX1NedW1ldPEwL4FIAG0AAaQAPHaqDqXyrrqu581/pFb3bWyOhYcALy5MCKTNVtlXXV/3js4DMhYIIG0AAaSKEGXq3MVP1kfsOSk4O7C+9MDIGTGqv/sKK+6qaKTPX+FIqd05rpPK3JuDPuaOD1Gvinykz1ExV1XzwlMeZFR80SmNew+KOVmapVlZma9spM1b8QCPgEhAbQABooWw2Mz6urebQiU/0FOSNs1k3YW7IJrF/02xX1VfNPzFSfWVFftagiU31lRX3VVfzAAA2gATSQPA1UZqqrTqiv+fS8hqr3yf1hkm1Q9B4CEIAABCAAAQhAAAIQgAAEIAABCEAAAhCAAAQgAAEIQAACEIAABCAAAQhAAAIQgAAEIAABCEAAAhCAAAQgAAEIQAACEIAABCAAAQhAAAIQgAAEIAABCEAAAhCAAAQgAAEIQAACEIAABCAAAQhAAAIQgAAEIAABCEAAAhCAAAQgAAEIQAACEIAABCAAAQhAAAIQgAAEIAABCEAAAhCAAAQgAAEIQAACEIAABCAAAQhAAAIQgAAEIAABCEAAAhCAAAQgAAEIQAACEIAABCAAAQhAAAIQgAAEIAABCEAAAhCAAAQgAAEIQAACEIAABCAAAQhAAAIQgAAEIAABCEAAAhCAAAQgAAEIQAACEIAABCAAAQhAAAIQgAAEIAABCEAAAhCAAAQgAAEIQAACEIAABCAAAQhAAAIQgAAEIAABCEAAAhCAAAQgAAEIQAACEIAABCAAAQhAAAIQgAAEIAABCEAAAhCAAAQgAAEIQAACEIAABCAAAQhAAAIQgAAEIAABCEAAAhCAAAQgAAEIQAACEIAABCAAAQhAAAIQgAAEIAABCEAAAhCAAAQgAAEIQAACEIAABNJO4P8DnFvEshlYpKAAAAAASUVORK5CYII=;" parent="1" vertex="1">
          <mxGeometry x="143" y="192" width="32" height="32" as="geometry" />
        </mxCell>
        <mxCell id="ejDFjRWyY2k5rN37OPCX-24" value="" style="shape=image;verticalLabelPosition=bottom;labelBackgroundColor=default;verticalAlign=top;aspect=fixed;imageAspect=0;image=data:image/png,iVBORw0KGgoAAAANSUhEUgAAAgAAAAIACAYAAAD0eNT6AAAAAXNSR0IArs4c6QAAIABJREFUeAHtnQl0HdWd5pPudGZ6ejsz0z3BDkjGISQdErInnY12Y5qloZOQxEAk2ewQExMMZAyBJMhmx8QhQIgJW1hiiA2JrafFkhdZlqxdtiVZm2VL2CI9pzuTXqYzmV4S7vRf5sWP53ffq+XWrVuvfpyjI6x6r+6t3/3u//tevVtVb3gD/0EAAhCAAAQgAAEIQAACEIAABCAAAQhAAAIQgAAEIAABCEAAAhCAAAQgAAEIQAACEIAABCAAAQhAAAIQgAAEIAABCEAAAhCAAAQgAAEIQAACEIAABCAAAQhAAAIQgAAEIAABCEAAAhCAAAQgAAEIQAACEIAABCAAAQhAAAIQgAAEIAABCEAAAhCAAAQgAAEIQAACEIAABCAAAQhAAAIQgAAEIAABCEAAAhCAAAQgAAEIQAACEIAABCAAAQhAAAIQgAAEIAABCEAAAhCAAAQgAAEIQAACEIAABCAAAQhAAAIQgAAEIAABCEAAAhCAAAQgAAEIQAACEIAABCAAAQhAAAIQgAAEIAABCEAAAhCAAAQgAAEIQAACEIAABCAAAQhAAAIQgAAEIAABCEAAAhCAAAQgAAEIQAACEIAABCAAAQhAAAIQgAAEIAABCEAAAhCAAAQgAAEIQAACEIAABCAAAQhAAAIQgAAEIAABCEAAAhCAAAQgAAEIQAACEIAABCAAAQhAAAIQgAAEIAABCEAAAhCAAAQgAAEIQAACEIAABCAAAQhAAAIQgAAEIOAigZmZmd8dOnTov/IDAzRgXwP9/Qf/yMW6QJ8gAIEyIaCU+q2xgzPvGZ+e+cr4yzPPjk/P9I5Pz/zd+PTMr8enZxQ/MEAD8Wigc3BMbdrR82rjzv5fbO8Z3Ng2OHhimZQdDgMCEIiTwPjUT98xNj1z9/j0zCEKfDwFHu5wL6YBCQA/2db1m5+6HT2/3t4/eFecdYO2IQCBBBMYffmnH5iYnnmJT/iYTzHzYVv8+sgPABIGNm7vUtt7Bh9JcAmi6xCAgG0CY6+88t8npmcexfjjL+yYK2PgRQOFAkD2jMDO/uFrbdcQ2oMABBJIYPzlV/5ifHrmp16KDq/BnNCAGxooFgDk64CtA8OnJrAc0WUIQMAWgbHpV77Gp343CjrGyjj40UCxACBnApo6+n7e39//O7ZqCe1AAAIJIaCUeuPE1Cv3+yk4vBaDQgPuaKBUAJAQsK17b0tCShLdhAAEbBEYn555gGLuTjFnLBgLvxrwEgA2bu9Wbf0jN9qqK7QDAQg4TmB86vA3/BYbXo9BoQG3NOAlAMhZgMyOnl9t7x05xfGyRPcgAIGoCYxNHz6L7/zdKuQYK+MRRANeA8CR9QD9fz8yMvLmqOsL+4cABBwlMDw19Zbx6Zm/DVJseA8mhQbc0oCfAMB6AEeLMt2CgC0CY9OHn6aIu1XEGQ/GI6gG/AYA1gPYqrS0AwHHCIy9/MrHxqdnXg1abHgfRoUG3NKA3wDAegDHijLdgYAtAuPTM00UcLcKOOPBeITRQJAAwHoAWxWXdiDgCIGJqVfey6d/zCaM2fBe9/QTNACwHsCRwkw3IGCDwMTLMw9RwN0r4IwJYxJGA2ECAOsBbFRe2oBAzATkVqDj0zN/F6bQ8F6MCg24p4EwAYD1ADEXZpqHgA0CEwcPfZLi7V7xZkwYk7AaCBsAWA9gowLTBgRiJDA+dfjrYQsN78es0IB7GjARAFgPEGNxpmkIRE1g4uWZDMXbveLNmDAmYTVgKgDIeoDWvn3Lo65F7B8CELBMYHx6Zn/YQsP7MSs04J4GTAUAOQtQt6Pn11sHhk+1XJ5oDgIQiIqAUuq3xqdn/o3i7V7xZkwYk7AaMBkAjqwH6Pu5LBqOqh6xXwhAwCKBycnJPwxbZHg/RoUG3NSA6QDAegCLxZmmIBA1gfHDh+dSvN0s3owL4xJWA1EEANYDRF2V2T8ELBEYnfqbyrBFhvdjVGjATQ1EEQBYD2CpONMMBKImQABws3BjqIyLCQ1EFQCOrAfo//uRkZE3R12j2D8EIBARAQIARmPCaNiHmzqKMgCwHiCiosxuIWCLAAHAzcKNoTIuJjQQdQDgeQG2KjXtQCACAgQAjMaE0bAPN3UUdQBgPUAERZldQsAWAQKAm4UbQ2VcTGjARgBgPYCtak07EDBMgACA0ZgwGvbhpo5sBQDWAxguzOwOAjYIEADcLNwYKuNiQgM2AwDrAWxUbNqAgEECBACMxoTRsA83dWQzALAewGBhZlcQsEGAAOBm4cZQGRcTGrAdAFgPYKNq0wYEDBEgAGA0JoyGfbipozgCAOsBDBVndgOBqAkQANws3Bgq42JCA3EFANYDRF252T8EDBAgAGA0JoyGfbipo7gCAOsBDBRndgGBqAkQANws3Bgq42JCA3EGANYDRF292T8EQhIgAGA0JoyGfbipo7gDAOsBQhZo3g6BKAkQANws3Bgq42JCAy4EANYDRFnB2TcEQhAgAGA0JoyGfbipIxcCAOsBQhRo3gqBKAkQANws3Bgq42JCA64EANYDRFnF2TcEAhIgAGA0JoyGfbipI5cCAOsBAhZp3gaBqAgQANws3Bgq42JCA64FANYDRFXJ2S8EAhAgAGA0JoyGfbipI9cCAOsBAhRp3gKBqAgQANws3Bgq42JCAy4GANYDRFXN2S8EfBIgAGA0JoyGfbipI1cDAOsBfBZqXg6BKAgQANws3Bgq42JCAy4HANYDRFHR2ScEfBAgAGA0JoyGfbipI5cDAOsBfBRqXgqBKAgQANws3Bgq42JCA64HANYDRFHV2ScEPBIgAGA0JoyGfbipoyQEANYDeCzWvAwCpgkQANws3Bgq42JCA0kJAKwHMF3Z2R8EPBAgAGA0JoyGfbipo6QEANYDeCjWvAQCpgkQANws3Bgq42JCA0kKABICNnfs/nlrq3qT6TrH/iAAgQIECAAYjQmjYR9u6ihpAWB2PUDP3uYCpYo/QQACpgkQANws3Bgq42JCA0kMAKwHMF3l2R8ENAQIABiNCaNhH27qKIkBgPUAmmLNnyFgmgABwM3CjaEyLiY0kNQAwHoA05We/UGgAAECAEZjwmjYh5s6SnIAYD1AgYLNnyBgkgABwM3CjaEyLiY0kPQAwHoAk9WefUEgjwABAKMxYTTsw00dJT0AsB4gr2DzTwiYJEAAcLNwY6iMiwkNlEMAYD2AyYrPviCQQ4AAgNGYMBr24aaOyiUAsB4gp2jzvxAwRYAA4GbhxlAZFxMaKKcAwHoAU1Wf/UDgNQIEAIzGhNGwDzd1VE4BgPUA2BYEDBMgALhZuDFUxsWEBsotALAewLABsLt0EyAAYDQmjIZ9uKmjcgwArAdIt2dx9AYJEADcLNwYKuNiQgPlGgBYD2DQBNhVegkQADAaE0bDPtzUUbkGANYDpNezOHKDBAgAbhZuDJVxMaGBcg4ArAcwaATsKp0ECAAYjQmjYR9u6qjcAwDrAdLpWxy1IQIEADcLN4bKuJjQQBoCAOsBDJkBu0kfAQIARmPCaNiHmzpKQwBgPUD6fIsjNkSAAOBm4cZQGRcTGkhLAGA9gCFDYDfpIkAAwGhMGA37cFNHaQoArAdIl3dxtAYIEADcLNwYKuNiQgNpCwCsBzBgCuwiPQQIABiNCaNhH27qKG0BgPUA6fEujtQAAQKAm4UbQ2VcTGggjQGA9QAGjIFdpIMAAQCjMWE07MNNHaU1ALAeIB3+xVGGJEAAcLNwY6iMiwkNdA2OKTHDdP50q/b+0etClkjeDoHyJUAAwGhMGA37cFNH3UPjKTX/I6GnbkfPr7cODJ9avhWcI4NACAIEADcLN4bKuJjQQO/wRKoDAOsBQpgDby1/AgQAjMaE0bAPN3U0MHog9QGA9QDl72McYUACBAA3CzeGyriY0MDw5MsEgG1divsDBDQI3lbeBAgAGI0Jo2EfbupobGpGbWztJgRs61KZHb2/2r537ynlXdE5Ogj4IEAAcLNwY6iMiykNtHTuJgC8diXE5o7dP29tVW/yUSJ5KQTKlwABAKMxZTTsx00t7do9QgDIuRRyW8/e5vKt6BwZBHwQIAC4WbQxU8bFlAaG9k8TAHICAOsBfBgELy1vAgQAjMaU0bAfd7XU1N5PCMgJAdwfoLx9jaPzSIAA4G7RxlAZG1MaSPsNgQrdCZH1AB5NgpeVLwECACZjymTYj7taGpueUZm2Ps4C5JwF4P4A5etrHJlHAgQAd4s2hsrYmNQAZwEKPROB5wV4tApeVo4ECACYjEmTYV/u6knuCbC5Y4CzAHlnAVgPUI7OxjF5IkAAcLdgY6aMjWkNDE5MqU3buTFQ/pqA5l0D/5v7A3iyDF5UTgQIAJiMaZNhf25rqjvVjwgu9DXAkb9xf4BycjaOxRMBAoC+WA8enFLbJvaozGg3P44yaBrrVd2TY2ps+rAieOi1nM9mR98QXwXkfRXwk22sB/BkGryofAgQAF5fNIemptXd/c+rhVtXqMpMNT8JYfCepivVFR1rVMv4AEFg+vWazjd/+ffY1GG1rXuQEJAXAnheQPl4G0figQAB4GixlE+Tf9Z8LaafENMvFNDmZ5aor/f8gDMCHkPAjl7OBOSvB+D+AB6Mg5eUBwECwJEA0DjWq97ZcBnmn2Dzzw0EX9n1Xc4EeAgBcjagfffI7ONy840wzf9mPUB5+BtHUYIAAWBGyXf9H21ehvmXiflng8DavfWEAI8hYPfoAZVp6+UrgZyvBNoGRi8sUT7ZDIFkEyAAzKg7+9Zh/mVm/hICPtK8TI1MHyIEeAwBo1OHVFv/sNqYY4JpPguwuWPgZ8mu7vQeAiUIEABm1IKWGwkAZRgAJAQ8P9xKAPAYALKLBYcnX1ZylQD3C+hS3QNDHyxRQtkMgeQSSHsA6D+wH/MvU/OXAHBrz5MEAJ8BIBsERg8eUl1D46q5c7fauF1//Xw5nyVo7Rv6dnKrOz2HQAkCaQ8AzWMDBIAyDgBX73qAABAwAGSDgPweO3hYDYxOqs49Y6q1d0i1dO5Rzbt2q6aO/rL+2Tkw/EyJEspmCCSXQNoDwI6JIQJAGQcArgY4eplrrqHz/964TEzP3Jzc6k7PIVCCQNoDwPDUtHp7/cWEgDINAXJTJ8zOm9nB6VhOBIASBsLmZBNIewCQonfBjtsJAGUaAORWzhjbscYGE29MCADJ9jd6X4IAAWBGbdjXRgAowwBw4Y47MX8D3/+nOSwQAEoYCJuTTYAAcOSTwKXt9xMCyigEnNJ4+eyDnNJsXhy7t0/5xTgRAJLtb/S+BAECwJEiIXcD/EzrNwkBZRAC5JbO6/Zt59M/n/5Da4AAUMJA2JxsAgSAo58S5K5xN3U/zqLABIeAc7bdojaP94cu/MU+FbLt6JwpdxYEgGT7G70vQYAAcGwx27V/RN3d/4Kqartbnb3tFnXG1hX8OMzgc60r1fLOR9SP9u3A+PnUb1QDBIASBsLmZBMgABwbAMr9Uw3Hx5ijAW8aIAAk29/ofQkCBABvhYCCCSc0kD4NEABKGAibk02AAJC+ooaRMeZowJsGCADJ9jd6X4IAAcBbIaBgwgkNpE8DBIASBsLmZBMgAKSvqGFkjDka8KYBAkCy/Y3elyBAAPBWCCiYcEID6dMAAaCEgbA52QQIAOkrahgZY44GvGmAAJBsf6P3JQgQALwVAgomnNBA+jRAAChhIGxONgECQPqKGkbGmKMBbxogACTb3+h9CQIEAG+FgIIJJzSQPg0QAEoYCJuTTYAAkL6ihpEx5mjAmwYIAMn2N3pfggABwFshoGDCCQ2kTwMEgBIGwuZkEyAApK+oYWSMORrwpgECQLL9jd6XIEAA8FYIKJhwQgPp0wABoISBsDnZBAgA6StqGBljjga8aYAAkGx/o/clCBAAvBUCCiac0ED6NEAAKGEgbE42AQJA+ooaRsaYowFvGiAAJNvf6H0JAgQAb4WAggknNJA+DRAAShgIm5NNgACQvqKGkTHmaMCbBggAyfY3el+CAAHAWyGgYMIJDaRPAwSAEgbC5mQTIACkr6hhZIw5GvCmAQJAsv2N3pcgQADwVggomHBCA+nTAAGghIGwOdkECADpK2oYGWOOBrxpgACQbH+j9yUIEAC8FQIKJpzQQPo0QAAoYSBsTjYBAkD6ihpGxpijAW8aIAAk29/ofQkCBABvhYCCCSc0kD4NEABKGAibk02AAJC+ooaRMeZowJsGCADJ9jd6X4IAAcBbIaBgwgkNpE8DBIASBsLmZBMgAKSvqGFkjDka8KYBAkCy/Y3elyBAAPBWCCiYcEID6dMAAaCEgbA52QQIAOkrahgZY44GvGmAAJBsf6P3JQgQAPSFoHNyVNWPdqsMPzAoYw1sn9irRqYPKULBsbWAAFDCQNicbAIEgNdP+j0HD6hbe55SH2v+iqrMVPMDg1Ro4F0Nl6tL2+9XzWMDBIHpozWBAJBsf6P3JQgQAI5O9o0ju9T7m76UioJPuCHcFdLA/PrFamXvs2ps+jBBYHpGEQBKGAibk02AAHAkAGwc7VQnN1yC+fOJHw1kqtVN3Y8TAAgAyTY3el+aAAFgRslp/w9uXkrhx/zRwGsamJepUc8Nb0t9COAMQGkP4RUJJkAAmFG1vc9Q+DF/NJCngQVbvkoAmJ65OcHlna5DoDgBAsCM+mTL9RT/vOJf6Pth/pa+dQONY72pDgGcASjuH2xNOIG0B4C+AxOYP+aPBjQaWN2/gQCQ8BpP9yGgJZD2ANA81k/x1xR/PvGn7xN//pjf3JPuxYCcAdBaBxvKgUDaA0DbxBABgACABjQakEsC03yDIAJAObgcx6AlkPYAsG/qZS7/0xT//E+D/Dt9ZwQeG2wkAGirJxsgkHACaQ8A8unmi2138gmQEIAG8jRwUv0StfvgAQJAwms83YeAlgABYEbJTYDkumc+4abvEy5jrh/z5Z2PpNr85cMBXwForYMN5UCAAHDkToBLOx4kAOR9AsQc9eZY7mw+2rxMyRUyaf7+nwBQDg7HMRQlQAA4EgBkLcBFfBVACCIEqQ81XcNDgV57IBBnAIraBxuTToAAcPRhQKNTh9WqvueUPBmt3D/hcXzp/XSvG3v5GmzJzntV1+RY6j/5Z898EACS7nD0vygBAsDRAJCd9P0H9quH92xUV3V8W31hxyp1/vZafmBQthq4pH21Wtn7jNoyzqOAszUg+5sAUNQ+2Jh0AgSAYwNAdvLzGzZoIN0aIAAk3eHof1ECBIB0FzgMjvFHA3oNEACK2gcbk06AAKCf/BRG2KCBdGuAAJB0h6P/RQkQANJd4DA4xh8N6DVAAChqH2xMOgECgH7yUxhhgwbSrQECQNIdjv4XJUAASHeBw+AYfzSg1wABoKh9sDHpBAgA+slPYYQNGki3BggASXc4+l+UAAEg3QUOg2P80YBeAwSAovbBxqQTIADoJz+FETZoIN0aIAAk3eHof1ECBIB0FzgMjvFHA3oNEACK2gcbk06AAKCf/BRG2KCBdGuAAJB0h6P/RQkQANJd4DA4xh8N6DVAAChqH2xMOgECgH7yUxhhgwbSrQECQNIdjv4XJUAASHeBw+AYfzSg1wABoKh9sDHpBAgA+slPYYQNGki3BggASXc4+l+UAAEg3QUOg2P80YBeAwSAovbBxqQTIADoJz+FETZoIN0aIAAk3eHof1ECBIB0FzgMjvFHA3oNEACK2gcbk06AAKCf/BRG2KCBdGuAAJB0h6P/RQkQANJd4DA4xh8N6DVAAChqH2xMOgECgH7yUxhhgwbSrQECQNIdjv4XJUAASHeBw+AYfzSg1wABoKh9sDHpBAgA+slPYYQNGki3BggASXc4+l+UAAEg3QUOg2P80YBeAwSAovbBxqQTIADoJz+FETZoIN0aIAAk3eHof1ECBIB0FzgMjvFHA3oNEACK2gcbk06AAKCf/BRG2KCBdGuAAJB0h6P/RQkQANJd4DA4xh8N6DVAAChqH2xMOgECgH7yUxhhgwbSrQECQNIdjv4XJUAASHeBw+AYfzSg1wABoKh9sDHpBAgA+slPYYQNGki3BggASXc4+l+UAAGgcIEbnTqstowPqPX72tS6fdv5gUHZaqB+tFvtOXhAEXaOrQUEgKL2wcakEyAAvH7S9xwYU9d3rVXvbbpaVWaq+YFBKjRwUv0SdcGOO9Sm0U6CwPTRmkAASLrD0f+iBAgARyf788Ot6t2NV6ai4BNuCHeFNDAvU6NWdD+m5AwYZwRmFAGgqH2wMekECABHAoCc6p+fWYz584kfDWSq1Vd2fZcAME0ASLq/0f8SBAgAM6r/wKQ6tZFT/oU+EfK39J4peGJwc+pDAGcAShgIm5NNgAAwo27teZJPfXzyRwN5GvhEy3I1Np3urwIIAMn2N3pfggABYEZ9rPk6in9e8eeTf3o/+eeOfWa0O9VnAQgAJQyEzckmkPYA0HNgHPPH/NGARgP3DvyIAJDsEk/vIaAnkPYA0DzWT/HXFP/cT4L8fzrPCNzU/TgBQF8+2QKBZBNIewBo3z9MACAAoAGNBlb1PUcASHaJp/cQ0BNIewAYmT6k3tlwGQagMQA++afzk3923J8cbCYA6MsnWyCQbAJpDwBys5MlO+8lABAA0ECeBk5uuETtPXiQAJDsEk/vIaAnQACYUY1jverE+hoMIM8Asp8C+Z3OswByR8C03w2QqwD03sGWMiBAADhyJ8Abur5HACAAoIHXNPCpluU8IIg7AZaBw3EIRQkQAI4EgJGpQ+ry9m9hAISA1GtA7ovROjGY+k//cvaDMwBF7YONSSdAADj6MCCZ8Gt2v8iTAAkBqQwB8zNL1NKOB1X/gf2Y/2tPBCQAJN3hEtj/t6w+8/fesuqM98ypPf2041aefs5xK09fFNXP6Y8svTTt3/PlH//gwSklq5/la4GL2+9Ti9vu5QcGZauBa3Y9pFb3b1Dtk/sw/pxHAXMGIIHmmcQuH1e7YN7c2tOXzalduGFO7cLDc2oXKls/J6w685V8A+Tfrz8rAA94oIF0aoAzAEl01AT0+V21i9583MqFF8+pXdg+p3bhq7YMP7+dE1ad9VOKWzqLG+POuKOB4hogACTATBPVxfWLfvu4lWcstf1JP9/4s/+uWHX231AEihcB+MAHDaRTAwSARLmr2519y6q/+Oic2oV7subrwu/KVWf/L4pbOosb4864o4HiGiAAuO2pSendG+esXHjd3NqF/+aC6ef2Yd7t5/wtRaB4EYAPfNBAOjVAAEiKxTraz3m1C/7znNqFP841XZf+f/4d5/6M4pbO4sa4M+5ooLgGCACOGmsSuvXH937iD+bULmx1yfDz+3LSnef9nCJQvAjABz5oIJ0aIAAkwWld7OOjH/ydObULN+cbrmv/fvtdn/5Hils6ixvjzrijgeIaIAC4aK4J6NOc2oWPumb2hfrzzrs/838oAsWLAHzggwbSqQECQALM1rUuzl15xmcKma2Lfzvlns/9kuKWzuLGuDPuaKC4BggArrmr4/2ZW7vgj+fUnv53Lpp9oT69574v/BtFoHgRgA980EA6NUAAcNxwXevecbVnPFTIaF3923tXX/Brils6ixvjzrijgeIaIAC45rAO9+f42gUnuXitf7Hw8b7VF/IAkLwHgFAUixdF+MAnLRogADhsuK51bU7twrXFzNbFbQQAinlaijnHidb9aoAA4JrLOtqf42vP+m9zblv4CxdNvlifCAAURb9FkdejmbRogADgqOG61q25K8+4tpjRurqNAEAxT0sx5zjRul8NEABcc1pH+3Nc7cJOV02+WL8IABRFv0WR16OZtGiAAOCo4brUrT+pXXDcnNqFrxYzWle3EQAo5mkp5hwnWverAQKAS07raF/mrjz9i64afKl+EQAoin6LIq9HM2nRAAHAUdN1qVtza09/pJTRurqdAEAxT0sx5zjRul8NEABcclpH+zKnduFOVw2+VL8IABRFv0WR16OZtGiAAOCo6brUrTm1C/+2lNG6up0AQDFPSzHnONG6Xw0QAFxyWjf78sY5tQt/5arBl+oXAYCi6Lco8no0kxYNEADcNF1nevWW1Wf+XimTdXk7AYBinpZiznGidb8aIAA4Y7WOdqR2wZuSegmgBBMCAEXRb1Hk9WgmLRogADjquy51K4m3AM6elSAAUMzTUsw5TrTuVwMEAJec1sW+qDfIGoBDWUNN2m8CAEXRb1Hk9WgmLRogALhoug71af6WRX80976zDyfN+LP9JQBQzNNSzDlOtO5XAwQAh8zWxa5IADj+e59WWUNN2m8CAEXRb1Hk9WgmLRogALjoug71SQLACc98ngAwTVFMS1HkONF6WjRAAHDIbF3sigSAio1Vau7KMxIZAjgDQDFPSzHnONG6Xw0QAFx0XYf6JAGgMlOt3vqtcwgAnAVQfgsMr8eU0IC7GiAAOGS2LnYlGwBOePpzBAACAAEADaCBMtIAAcBF13WoT9kAUFlXpebe8ZeJCwF8BeDupw8+GTI2aCBeDRAAHDJbF7vymwCQqVbHP/ZZAkAZpX+Kb7zFF/7wj1sDBAAXXdehPuUGgNmzAHcm6ywAZwAosnEXWdpHg65qgADgkNm62JXXBYBMtUraJYEEAIqvq8WXfqHNuDVAAHDRdR3qU34AmL0i4DvnJuarAAIARTbuIkv7aNBVDRAAHDJbF7tSKABUbvyimnP3mYkIAQQAiq+rxZd+oc24NUAAcNF1HepTwQCQqVYVGy5Uc253fz0AAYAiG3eRpX006KoGCAAOma2LXdEFAPkqoGL9hWrOHW7fIZAAQPF1tfjSL7QZtwYIAC66rkN9KhYAsiFgrsNXBhAAKLJxF1naR4OuaoAA4JDZutiVUgFAQkDlSxept64+28k1AQQAiq+rxZd+oc24NUAAcNF1HeqTpwAgXwfUVanj135azVm50KkgQACgyMZdZGkfDbqqAQKAQ2brYle8BoAzm+twAAAgAElEQVTZMwGvrQtw6cFB71t9Afcu5+6FaAANoIECGiAAuOi6DvXJbwD4TRBYt0jNdeAJgu++9/P/6mr6pl98MkQDaCBODRAAHDJbF7sSNAD8Jgi8dJE6/vufVXPvP1vNXWn/ioG33/Xpf4xzgtE2BR4NoAFXNUAAcNF1HepT2ACQDQKzvzdVqRNeWKRO+MH56vhHP6OOf+Sv1Vu/e96xPw+f9+9vfeDcQ3PXnLNn7upzOuauPmtn0J+3P/S5ttv6nhm9t/9H/7Bm94uKHxigATSQdg2sHlj/y1X9z01X7bzrkYr6qqsC/9RVLa6sq/l8RaZ64fyGJSd/sP+q33HIvuhKWAJGA4BcMcAPDNAAGkAD5aqBf6/M1AzOy1R/p6Ku+rx3rV/05rAexPtjJEAAILQQ2tAAGkADATXw88pM9cPHb6o5KUYbo+mgBAgATPyAE79cP+FwXHx6RwP+NfCrykzN85V1i08M6kW8LwYCBAACAAEADaABNGBIA7+srK/5xhtaF7wpBjujSb8ECABMfEMTn09N/j81wQxmZamBeZnq3or6qvl+/YjXWyZAACAAEADQABpAAxFo4GcnZqo+YtnSaM4PAQIAEz+CiV+Wn2rgxFxBA7418M8V9VVn+PEkXmuRAAHAt6AxN07bogE0gAa8a+D/VtbXfNyirdGUVwIEAAIAn2rQABpAAxFr4GfzfnLRPK++xOssESAAMPEjnvh8UvL+SQlWsCpbDcjCQG4cZMnYvTZDACAAEADQABpAAzY0MK++eqVXb+J1FggQAJj4NiY+baAzNIAGKjNV/yLPFLBgbTThhQABgElJYUYDaAAN2NNA1YtevInXWCBAAGDi25v4sIY1GkAD1a9W1H3xFAv2RhOlCBAAKEgUJDSABtCAXQ1UPVbKm9hugQABgIlvd+LDG95oAA1U/9Px6xf9rgWLo4liBAgAFCOKERpAA2jAugbqaj5fzJvYZoEAAYCJb33ic6132V7rjZaoJ141UFFfvdaCxdFEMQIEACas1wnL69AKGkAD5jRQNVHMm9hmgQABgAltbkLDEpZoAA141sCrf7J+0e9bsDma0BEgAHgWK6dtOXWPBtAAGjCpgU0XvV/nTfzdAgECAAGATyxoAA2ggTg0MC9T81kLNkcTOgIEACZ+HBOfNtEdGkADFXVVi3XexN8tECAAMAkpxGgADaCBODQwr75qqQWbowkdAQIAEz+OiU+b6A4NoIHKTM0ynTfxdwsECABMQgoxGkADaCAeDRAALNi8vgkCABM/nokPd7ijATRAANC7s4UtBACKEEUIDaABNBCPBggAFmxe3wQBgIkfz8SHO9zRABogAOjd2cIWAgBFiCKEBtAAGohHAwQACzavb4IAwMSPZ+LDHe5oAA0QAPTubGELAYAiRBFCA2gADcSjAQKABZvXN0EAYOLHM/HhDnc0gAYIAHp3trCFAEARogihATSABuLRAAHAgs3rmyAAMPHjmfhwhzsaQAMEAL07W9hCAKAIUYTQABpAA/FogABgweb1TRAAmPjxTHy4wx0NoAECgN6dLWwhAFCEKEJoAA2ggXg0QACwYPP6JggATPx4Jj7c4Y4G0AABQO/OFrYQAMq3CJ3ccIla0HKj+mzrbeqiHXeoi9vvU0s7Hiz4c/WuB9TitnvV+a23qdO2XK/e2XCZSmNxEmZ/seWr6ottd6rLdt5fkJWOYam/X9Xx7VnG5267VZ3aeLVTfN/f9CVV1Xa3WtrxHbVk573qtC03ONW/qLX4Z83Xqqq2u2bHW47/Y81fSdXxR81Xv38CgAWb1zdBACiPACCGfcGOO9SdfevUuuFWtXP/kBqbPqzGp2cC/7RNDKmnhlrU17qfUOdsu0XNzywpu6L4tvol6qK2O9Xq/g2qeWwgNDM/vHsOjKnH9zapZZ0Pqfc1xRMI/nr7N9SGkZ0Fj3vbxB51Rfu31In1NWU37llDumDH7aputLvgHGka61U1bfeU7bFnGcT7mwCgd2cLWwgAyQ0AH968bNacN452qpGplwsWMT+GVOq1ew4eUGv31M9+Unp7/cWJLozyie++/vWq78BE5NxKcZXtI1OH1HPD29QXdqxS8zLRG66Y+sreZwoaf35/nx5qKbszQvMzi9Wa3S96GvtH9tSppOs9XpMvVmMJABZsXt8EAaCYON3bJoXoio41av2+NjU6Fe4Tfn6h9/PvngPjalXfc+qjzcsSFQQ+1HSNkoIuhuvneG2+tmGsZ/armCiLdm3vM76Of92+7WV1Bsir+WfHXc7U2AhmUY65m/smAOjd2cIWAoB7Jl9oor6j4VK1vPMR1bF/xFfhzhawqH5LCPn+YIP6ePN1TgcB+cR7Y9ejau/Bg07xKzYuYjrvjeCrAVmDEOTrIeFXSJtJ+5t85VOMu26bfB2StGN1v78EAAs2r2+CAOB2AJBTlf+z6/uqd9KNU9W64jgyfUjd1bdO/amDiwfFROX0uq7vLv9d1gl8vnWlUeN5frg1EAvRYNIXh8qnePluP8iYy5oYzgKYrpcEAL07W9hCADAtaHP7kwVasjAtSLGK6z1dk2Ozq8ld+eTxqZblqn3/cKIY5o+dfF3x5V0PGQkBEobCfP0hVwm4MrZB+nHetq+H0sJZW29O9PEHYRbtewgAFmxe3wQBwJxhm5oo8inr4T0bA52mzTePuP4t/Y/7bMBfblnh/JkTP+NzS/cToc3nc60rQxngptGu0H0wNU+C7EfWf/hhnv/aawwFsSB9L8/3EAD07mxhCwHArQAg1+A3j/WHKlL5RSuuf8tlZHI8cRSujzVfp7onx8qCY+74Xd+1NhTPS9vvD81k4dYVofoQhx6kzfc0XamGpqZDHf+tPU8m8tjjYl66XQKABZvXN0EAcCcAyI1kwhaoXLNw4f8HDk5GvqI9v8hIoZf7ILhw/Kb7IIsuZRFb/jF7/bdc9x62T98a2BC4fa/9jOJ1N3R9L/SxX9f5SCKPPQqeZvZJANC7s4UtBAA3AsCKrsdCF6ewhT2q9++benn27nJmCkbx8ZJFWk8NNpctSxmj/gOT6iMBL7+UyyCDXAGQqw25H0QSFwOaWE9z3vZvEAAyxeegv3lOALBg8/omCAAmxex/X/Pr5YYkL5W1YYl5yMIzuRWxv+Lgn+fSXQ+WPUvhKfeBCLoivV5z57tcky/1/0lbDBh28Z/w6D+wX8lVOVFrOF37JwDo3dnCFgKAf5MxNUHl2vS1e+tTYVhSQOVSQTkFbYpf/n7e3XilkhsUlTKvctl+SfvqQCyv3fVwaEZJWwwYdvGfaObu/hcC8c7XKf/OrbkEAAs2r2+CAJArRrv/L/efLxcz8nocgwenVFSLyO7pfyFVPNsn96mT6v0/n+FdDZcbuSFSVONo2iBNLP4Tff95S7oekGR6HArvjwCgd2cLWwgAdk0/Owlu7XkqVWaVGxDkunzTd7iTIp+ku/zl8gjz/1/qeCDQp9IHd28Mrb+kLAY0sfjvxZH2QJyz853fujpLALBg8/omCAA6YUb394t33he6+IYxDRfeK3fmC/oddqFiKpdnuXBctvuwZXwgkDGdve2W0LySshjQxOI/bgMcVT0kAOjd2cIWAkBUwi68X7k+XQqnLaOQtjKj3eqJwSb1nd0/UfcO/Eit7Hv2dT9y6vy7e+vUM0NbVONYb6g7xfk5LvkuupCZ+/2bBIntE3uNMt21f2SWWSFe+fy8/Fse0yyMZSzCrsLPZ3xmwLvTyUOH8vfl999Bz0D4HeOgrzez+G9SndxwiRGtBj2O8n0fAcCCzeubIAAUNuooJpw8yc/ECuxiRVouuZPL4OTWsZ9sCXYTHrnES25DvLL3WSXfMxdrL8w2WQ9g4mmCYoBh+pH73h+PdMweu8mzE/la+tDmLytZ/yGLInPbDvr/8gyG/Da8/DsNiwFZ/GevvnnR3LGvIQDo3dnCFgKAvQlye98PjRT8QkYhDyqRm5TId+HHTrLgxyiXKcrtYzeMtEfSdwkrYft7c8/jRvomj8iVKzPC9sfr+yVkmXjI0+bx/kB9LvfFgCz+Cz7vvWo4/OsIABZsXt8EAcDOJDltyw3GPvHlBoDOyVF1RccaK89qlzvQye19c9s38f8SMMIUknUBn26X2/c7+n4Yqg9B+3/Wtq+p4ZC3p5WvFE5tvDpQ/8t5MSCL/+zUtqDaP/I+AoDenS1sIQBEP0nkdPKGkZ1GjVOK/n3965V8igs3Af0d/zsaLp19UFGueYb9/02jnaGOIew9/5vG+5Sc6bDJMbctE2cwzt9eG6j/5bwYkMV//uZ2ribt/T8BwILN65sgAEQ/SeSGLWFNMvf9fQcm1IU7gt8P3sTkvqrj22pk6mVjx7Uo4A2CTmm8PHQfatruCWSeJjjKPiRUyV3mcsfY7/8v6wz+uOByXAzI4r/o65oZ/RMA9O5sYQsBINqJIp/+TT7dT77rlysJzEy+cMcuxmlqIVvQ66wXtNwYyjhlIaILK7y/tycT6jhkwWZQTZTjYkAW/4Wb20G15P99BAALNq9vggAQ7USp3nl3qMKe+0lQgsT7m74UuND7n5yl2SzZea+xy9rkdLTfPv7V9ltD8ZXL8vy2GcXrb+haG+o45OugoP0qt8WALP4rPW+DasX8+wgAene2sIUAEO1kqTPw4BUJAXI5nlw+Zn4Chj9+WUCXG1SC/r/cq8Dv8Z3feluotp8d2uq7Tb999PL6S9vvD3UcD+/ZGOo4ymkxIIv/ws9pL5o18xoCgAWb1zdBAIhusphYYCVmKjfz+VTL8lAF3sxkLcxKnpAm188HNf7s++RZ9x/cvNTXccoVBNn3B/n9g6HwlyGaYBv27pAP79nki1t+n01o1ZU7A7L4r/A8zR9zN/5NANC7s4UtBIDoJovcKz2IKeW/57Kd94cq7jYmujwoRR75m993v/9e3vk9X8caNgA8PdTiq72oWMYdAOS4ymExIIv/oqtn0WifAGDB5vVNEACimTDylLawK7vFPB8bbHTCoLxM/gcGfhw6AMjtcr20lX3NOSHvaf+jfTt8tZdt1/RvFwJAOSwGZPFfNPXMtN6P7o8AoHdnC1sIANFMmKq28Iv/5JTqh5quccKgjk5YPa8PbF6qhkLe1EZu6uOlrexrPtGyPFTokGcIZPcV52+5osLv2ZLc1z+0O9waADn2pC8GZPGffm7Gqe3ibRMALNi8vgkCQDSTZs3uF0MVdCnu8sjg4pMnmr6HafPbu8OdBfj+YIOvYz618arQnCW4hDlmE+89b1u4qxnCXAaY2/8kLwZk8Z979SBXW4X/nwCgd2cLWwgA0UyasE+nk2fbi7kVnjTR9NlEW/KJXBbz5X469fP/K7of83XMcge/sDckWtHlr00TnPL38e7GK0Mdh6nH1SZ5MSCL/9ytC/l6P/pvAoAFm9c3QQAwP2nktL0f0yv02jDXdR+dXOaPzcu+5QE/hY6p1N8kOEiA8NJG7mvkWv5S+y62XW4lbPuWyrn9z/7/C8M7Ah2H3IxJAkR2P2F/J3ExIIv/4pnrYbVWmSEA6N3ZwhYCgPmJY+LWv0Gf8R5+QobnISYe5AE3a/fUBzKxe/pfCGScuaEgaNsmecv9/HP75PX/7+5/PhA3Xd+TuBiQxX/h561OD9H+nQBgweb1TRAAzE+c23qeCVTIswXflYVpYSa+nFbPHo+X3+37hwN/5SF3I/TSRqnXyA2N5NbNYY477Hv9Xjoqd4c0ffYiaYsBWfxnvoaF1bH39xMA9O5sYQsBwPzkkUv3SplNse2ygND7BDLff1Ntf7P3aU+3CZbnGwQ59Z/t53ubrg71/XnuWDw11KLe1xTs0brZ/oT5LWsa1gx4W0Aqp+qjujtkkhYDsvjP3RpQei4QACzYvL4JAoD5ydM01hsqAFzcfl9ZBACZ/J9p/aaq13xHLw/iuatvnZHvr58MuO4g1/yz/y/9kq8V4rz7olxGum1iT0Ed9R+YVF/veUq9vf7iyHSSpMWALP4zX8NKG7epNgkAene2sIUAYErIR/cjK/izZhLk92lbboissNub2Ed5SJtyTFd2rFE3dT+ulnc+ouTxv/IYXFP9uWDH7aGY68Zpw8hOJffpj9JsizFYuHWFkkf9ytmU67vWqvNba631JQmLAVn89/p5VkxLbm4jAFiweX0TBACzE2h+ZkkoI5Lb6cZlNm4WCG/jI6fOZR2BzsjD/r13cmL2bEWcZwVsj08SFgOy+M/b/LCtHe/tEQD07mxhCwHA7AQ6pfGKUCYkl6R5nzxm+570duUMQ1ij9/J+uexwaceD6uSGS8p6rFxfDMjiv3KY/wQACzavb4IAYHYSyaIsLyaie005XAEQV5A4sb5GbRrtCsVfNy6F/i7fxcuCzQUtN5ZtEDCxGPD+gQ2R8GHxn9naFc+8JQDo3dnCFgKA2Ukkp4gLmYXXv8kCwngmolkOcR2DLF4bmw5+J0Kv45T/unI9K+DyYkAW/5XDnCUAWLB5fRMEALOTSBa75ZuDn3/Lwqu4zLNc2r2zb12oMfAzXvmvLcezAi4uBmTxn9m6Fd/cJwDo3dnCFgKA2YlEADDLM0hhkgWB64a3xxYCsqGgXM4KuLgYkMV/8c+zIHPz2PcQACzYvL4JAoDZiUQAMMvz2ILhbf9yc6AorwrImryX30m/gsC1xYAs/vM2B4LOHbvvIwDo3dnCFgKA2clEADDLM0wx+mjzMhX2qYxeDN7Pa5J6VsClxYAs/nNnjoWZn0feSwCwYPP6JggAZicTAcAsz7AF5v1NX1Kbx/tj/zogPyQkba2AS4sBWfzn1hwLN0cJAHp3trCFAGB2MhEAzPIMV1yO9EW+Dtiwr825EJANBXHfbdArYxcWA7L4z7355VU/hV9HALBg8/omCABmJxQBwCzPwkXDfxtyj4Cvdj0a6DHFWaOO+nfPgTG1ovtx9c6Gy5y8EsSFxYAs/vOvfVNzKJr9EAD07mxhCwHA7IQiAJjlabroyE17XtrX7uzZAAkZfQcm1C3dTzh3S+i4FwOy+M/tuRVsrhIALNi8vgkCgNlJRQAwyzNYUSndh3O33aqeHmpxOgi0jA+oM7aucOpsQJyLAVn8V1rXUc2X6PZLANC7s4UtBACzk4oAYJZndIXnSD8lCKzdU+/sVwMj04fUiu7H1LxMjRNBIM7FgCz+S9bc8jZ3CQAWbF7fBAHA7KQiAJjl6a2IhG/zlMbLZx/w4+IVA/K1gDxzQNYx2OJRrJ04FgOy+C+8xouNaXzbCAB6d7awhQBgdmIRAMzyjKMwyWl3MdzBg1NOfUWwdm+9mp9ZHHsIMLMYsNPXcbD4L/nzqvBcJgBYsHl9EwQAsxOLAGCWZ+GiYaeNUxuvUjd2Paq2TexxJgg8vGejL+OMgp/txYAs/rOj9yi0UnqfBAC9O1vYQgAwO7kIAGZ5li4gdtpz6azAtZ0Pxx4CbC4GZPGfHY3HM9cIABZsXt8EAcDs5CIAmOUZT1HSH4MLZwVkYeBfbb811hBw1ravhT4rsufgAU/3PDCx+O/y9m/Fyss1HbvTHwKA3p0tbCEA6It9kEnyqZbloQpj01gvhSpjdkyCjKOX98R5VkCecXBS/ZJYtWJjMSCL/5IxF7zMl8KvIQBYsHl9EwQAsxPsw5uXhQoAUtgLTxSz/aQNczzjuoLg+q61sWrFxmJAFv+Z06mbc54AoHdnC1sIAGYn2LsbrwwVALomx2It6m4WCbNjFNUxyrX6n97+TSWr9YenpkPpwMtth+WBQvKVRFTHU2q/US8GZPFfMnRfSifFtxMALNi8vgkCgNlJJpdpeSneuteMTB2K/dRu8Qlrlle5tmXrrMDXup+ILQDI2EW5GJDFf2mYawQAvTtb2EIAMD/Jwl4/ftqW62Mt6lGY8sebr1NX73pg9q52sor9/O216m0Rfof9wc1L1SXtq2cfALS883tq0Y7b1ckNl1jnGvVZgbaJoVhvEBTlYkAW/5mvTVHM7XD7JABYsHl9EwQA85Ms7N3kluy817pRhZvEeoZySnzTaGfBsyLy9LuVfc+qPzX49Lszt96knhvepsamDx/Tpqw6X9X3nKeV51HwOLXx6kjuK3B+a22seoliMSCL//RzKgptxrdPAoDenS1sIQCYn2iP7206xnx0p/wL/f1bAxtiLeimioE80a6QEecfs3yK/UTL8tDHvKLrMTUy9XJJ9nJjHzkjYeo4/e5HbukrIa9zcrRkX/NZFfq3nIb32weTr49iMSCL/8zXJZNjbm5fBAALNq9vggBgfqLV9j4TqrCLQZmbYOaPz0vf5A56hcxK97eO/SPqvU1XBz7um7of99Xezv1DodrzwqDUa+R4TXx6jlsvphcDsvgvnjlbSq/RbCcA6N3ZwhYCgPnJdmn7/b7MqJApuvYYWD+TX+6F4OWTeP5xPzbYGCgALNy6IlB7391bF6g9PyxKvfZ9TVerXftHQulFzrKECU+l+uhlu8nFgCz+M1+TvIxhPK8hAFiweX0TBADzk+1Dm78cqqCLMd7T/0Ls5hS0IIiR55u7l3+LkQVZABn0KxdpT8Yq6HGaet/FO+8LxCuX6UU77oj1OEwuBmTxn/maZEqr5vdDANC7s4UtBIBoJpvc0Ce3QPv9/90HDyi5lMz8hIvmeLP9/FjzV5Rcyuj3eLOvv7nncV/H/I6GS9VQiGvur+t8xFd72eM0+VvWBMg6iCyDIL9deD6A3MUySN9z3/Pwnk2h99F/YH8sV3yY1ER69kUAsGDz+iYIANEY4rd3/zh0IZNFdEkrBPcPbAh13I/ubfB1zH/eckOo9qS/LjC+b2B9qOP4es9TsR+HicWAuWEg6P/fneCzZy5o0W4fCAB6d7awhQAQTQCoabsnVEGX4idnAd7f9KXYC7vXgiDfQ4e9B8K6fdt9He9nW28LxfmJwc2+2vPKwu/rrtn1UKjjuHfgR7Efh6nFgEGNP/s+CYV++fP6aOpgaa4EAAs2r2+CABCN8N9ef7GSW7Vmi1LQ32v31CemmMnli0GPM/s+vwvzPte6MlSbPxhqdoLvxe3h1gE8tGeTE8dhYjFgVgtBfr840u4Eh9LGF03dSV67BAC9O1vYQgCIbiKu2f1SKHPKFsAk3Bjoky3XB1qJnz3G7G+/D7gpmwAQciGgfHfuQvE3sRgwq4Ugv3nsb3T1LBp9EQAs2Ly+CQJAdBPm3G23GgkA8lVAnDeuKTXx59cvVhv2tYU+1iCr8gkAM7PcXQkAohUT9zYIYv5yxi2O2z2Xmh9sL1ZjCQB6d7awhQBQTJzhtsl94BsNrIyWYihXFcg14y4Wk7A3PsoW+yCn488PuQbgmaEtTjANe+8IV74CEH3GtRiQxX/h6lU8tYUAYMHm9U0QAKKdNHL6PmtwYX/LJyu5n3w8E7Uwp6q2u9To1LH33Q9yrHL/d7/H9lfbw51l2TTa5btNv3308vqwN79Z3e/G1QxyrHEtBmTxX+E56kV/8b2GAKB3ZwtbCADRThq5xnvr+G5jIaB1YlDJtfbxTdijvC7Ycbux594HNeIFW74aiq08IOikCJ9K6HWc5BN8kNCUfY88VMlrWzZeZ3sxIIv/js5LG+Nrrg0CgAWb1zdBAIh+4sjCpGyhNvG7e3JMyXff5iahfwZyynpkOvgNf/I5fLHtzkDH8+7GK0OzjfsuevK9de/kRKjjkNPuceohv23biwFZ/Od/DuePWTz/JgDo3dnCFgJA9BNH1gK8tK89VIHPN0w57X5n3/PWH20rlzeuGXjR6LHUj3YrYRS0APUcGA/Vn8xot5IzNUHbD/u+r/p8cFK+FuTfshYibD9Mv9/WYkAW/0Vfw0xr4+j+CAAWbF7fBAHAzuSRU9VBHpBTqNjn/q19cp+ST+OyEv/opIrmmOSsQ/NYfyizze179v/lq4QwfX9heEfoPn295weh+hC0//Igo7A3T5KrJ1xcIGprMSCL/6KZ70E17e99BAC9O1vYQgCwN3nu6lsX2qiyppn/Wx4Ju7TjO+pPGy4zamTyyfyvt39DPT/cGknfTazCl1sm5/Pw+28x0RXdj4c6E+Gv8FWrs7berDonR0P3vWV8wOiY+z0O3ettLQZk8Z+9GqYb6+B/JwBYsHl9EwQAe5NHvuttGu8LXfCLmZt8mpT76V/ZsUZ9ePOyQMYgi+LO3naLkvvL7wj5kJpifZWH+JhY0HjOtluMMZVbEZ+59aZA3LwWQbmSY1Xfc8YWUMpzBLy2bft1US8GZPGfvfoVjXYIAHp3trCFAGB3Askd82TleTFjNLlNFpf9eKRDyY1i5Fa9slq80I88vEjui79ptFPtm3rZSv/83vVPV4DkLEXYp+nlM5f7LgizO/p+WJBXIYal/rZm94tqw0h7qKcl5vdT/i2XQurYxP33qBcDsvjPbv0yrycCgAWb1zdBALA/gUxfFVDIFFz/m3ylYHLh3Td7n7YSWlzjKkElzAJK8wX92PkU1WJAFv8dy9rGeJptgwCgd2cLWwgA8UwiU3fPc82QvPRHvvf+wOalRj+1ypMI5SsFL+2X02uu7XTr8r9C5hDVYkAW/8VTuwqNcfC/EQAs2Ly+CQJAPJNIPrXJafdyMiMvxyImfebWm42af7b4mL480cvxxPmarsmxRNz7PqrFgCz+i6d2Zeebmd8EAL07W9hCAIhvEsmle08ONqcmBMhlkEFv+OOl2MhZADktHKcp22xbFnp64eLCa0wvBmTxX3x1y6yeCAAWbF7fBAEg3ok0P7N4drGZTeOIoy25cdEV7d+K3LCWdz6SigDwk5EO57/7zzUK04sBWfwXb93KHdtw/08A0LuzhS0EgPgnknwdICvI4zBmG23KJ/8rLH1alYWF64a3ly1LGS+5iuQTLcsjD1PhCvux88rUYkAW/x3L1vRY2dsfAcCCzeubIAC4M5lksZStS/BsGH/WrBaFvNOf32IkXwXs2j9SliFAblgkT5j0y+OtomwAAAlgSURBVMSF15taDMjiP3dqVnhdEQD07mxhCwHArckkt4aVS7tsGXSU7chxxLVQS9rtP7C/LDjmjtGK7scSaf5iFKYWA8alqfBm51atceN4CAAWbF7fBAHAvUkphXLtnvpEm9favfXqlMbLYzWr87bdqnZbvOlSrlFH8f+39/0wVp4mDCPsYkAW/7lXr8LpggCgd2cLWwgA7k6o81trldzjPwoziWqf8mS+S9pXO2NUC1puVB0J/zpATvvf2vOUM0zDFPywiwFZ/OduvQqmCwKABZvXN0EAcHtCyX35b+55XA0cdPvytpGpQ2p1/wb17sYrnTOqDzVdM3sL3qhCT5T7lXGvabvHOabBiv2RuSaPfw7CrOdAMu57EIZN+t5LANC7s4UtBAC3A0C2ILyz4TIll7jJzV+CFM+o3iOX931/sEHJMw6yfXXx9/zMEnVrz5OJulvgs0Nb1Yc2f9lprkHG+sIddwbSsKlnRwTpM++Jqk4SACzYvL4JAkBUwo5mv+9ouFR9eddDauPIrkBF1FQQkEuxZDX2x5uvS5RB/VnzteqJwSYlwcUUC9P72TI+oC5quzNRXP0a5JrdL/niL09plBtn+W2H10dTh8xxJQDo3dnCFgKA6xNE3z8x32/0Pq3k+mobhia38ZUnBl68875E3IK2WJE6bcsNShak2XwyY7GgIN/zy5MCq3febfQhScUYxLlNzNzrrbDlTIicAYuzv7Str0Ph2BAALNi8vgkCQFTCtrvfUxuvmv2u+L7+9bNGIt+XFjMcL9u6/+Ne8+uGW5U8ae+zrbcl3vQLFaqTGy6ZDTQP7d5o/JHCpRhL+HhmaIu6oWut+vDmZak0OLk1dONYb0Gttk4MqqUd30lFICqkzXT8jQCgd2cLWwgAdo3a5qQ+pfEKJauu5UY8cvOYpR0PzprNiq7HVP7P0l0Pqqt3PaDk+1m5F8GpjVen0pBkEaMwy/L6atejx7DKZ+f138s6H5q9HfL5rbepjzQvw9gyR+feaVuuV5e3r1E3dH1PXdXxbXXG1hXwyeFjs27YbYsAYMHm9U0QAI4WIbvCp114owE0kHYNEAD07mxhCwEg7ROQ48eE0AAaiEsDBAALNq9vggAQl/Bpl6KLBtBA2jVAANC7s4UtBIC0T0COHxNCA2ggLg0QACzYvL4JAkBcwqddii4aQANp1wABQO/OFrYQANI+ATl+TAgNoIG4NEAAsGDz+iYIAHEJn3YpumgADaRdAwQAvTtb2EIASPsE5PgxITSABuLSAAHAgs3rmyAAxCV82qXoogE0kHYNEAD07mxhCwEg7ROQ48eE0AAaiEsDBAALNq9vggAQl/Bpl6KLBtBA2jVAANC7s4UtBIC0T0COHxNCA2ggLg0QACzYvL4JAkBcwqddii4aQANp1wABQO/OFrYQANI+ATl+TAgNoIG4NEAAsGDz+iYIAHEJn3YpumgADaRdAwQAvTtb2PKOTZf9AZMw7ZOQ42cOoAE0EIMG6qqvsWBzNKElsH7Rb1dmql9F/DGIP0Ob6A4NoIH0aqCirmqx1pvYYIdAZab6F0zC9E5Cxp6xRwNoIA4NzMvUfNaOy9GKlkBlpnosjsGnTYoOGkADaCDFGqir+YDWmNhgh8C8TPUmJmGKJyFfRSj0j/7RgH0NyBo0Oy5HK1oC8+qrVyJ+++KHOczRABpIsQYmtabEBnsEKusWn55iEfLpjzMAaAANoAH7Gvi+PZejJS2B49cv+t3KTPU/EwL4NIIG0AAaQAM2NFBRV3OB1pTYYJdAZV31szYGnTYoLmgADaCB1GvgF29pXvx7dl2O1rQEKjbV/CWTMvWTktOg9k+DwhzmqdNARX31U1ozYkM8BCozNbsJAYQANIAG0AAaiFADrx7fUP2eeFyOVrUE5mWqL4xw0FOXcmFJEUUDaAANvF4DFfXVG7UmxIYYCag3vLGirroNwb5esPCABxpAA2jAiAb+9cRNNe+I0eVouhiByk0Xvb8yU/3viN2I2Dnrwfe7aAANoIHXNFCRqb6rmP+wzQEC8zLVXyMAEADQABpAA2jAoAb6T2o85z85YHF0oSiB2trfqsxUNxoceBIwn4LQABpAA+nVwN+f0Hjh24r6DhvdITA3c9V/qcxUdxIC+ASABtAAGkADITTw/06or/mUO+5GTzwReNuPF/+PykzNYIiBJ/GnN/Ez9ow9GkADv6yoqz7Pk+HwIvcI/Mn6Rb8/r76qhRDAJwA0gAbQABrwoYF/4JO/e57uv0etC940L1NTW5mp/rWPwSf9k/7RABpAA+nUQP/xm2pO8m82vMNZApX1NedW1ldPEwL4FIAG0AAaQAPHaqDqXyrrqu581/pFb3bWyOhYcALy5MCKTNVtlXXV/3js4DMhYIIG0AAaSKEGXq3MVP1kfsOSk4O7C+9MDIGTGqv/sKK+6qaKTPX+FIqd05rpPK3JuDPuaOD1Gvinykz1ExV1XzwlMeZFR80SmNew+KOVmapVlZma9spM1b8QCPgEhAbQABooWw2Mz6urebQiU/0FOSNs1k3YW7IJrF/02xX1VfNPzFSfWVFftagiU31lRX3VVfzAAA2gATSQPA1UZqqrTqiv+fS8hqr3yf1hkm1Q9B4CEIAABCAAAQhAAAIQgAAEIAABCEAAAhCAAAQgAAEIQAACEIAABCAAAQhAAAIQgAAEIAABCEAAAhCAAAQgAAEIQAACEIAABCAAAQhAAAIQgAAEIAABCEAAAhCAAAQgAAEIQAACEIAABCAAAQhAAAIQgAAEIAABCEAAAhCAAAQgAAEIQAACEIAABCAAAQhAAAIQgAAEIAABCEAAAhCAAAQgAAEIQAACEIAABCAAAQhAAAIQgAAEIAABCEAAAhCAAAQgAAEIQAACEIAABCAAAQhAAAIQgAAEIAABCEAAAhCAAAQgAAEIQAACEIAABCAAAQhAAAIQgAAEIAABCEAAAhCAAAQgAAEIQAACEIAABCAAAQhAAAIQgAAEIAABCEAAAhCAAAQgAAEIQAACEIAABCAAAQhAAAIQgAAEIAABCEAAAhCAAAQgAAEIQAACEIAABCAAAQhAAAIQgAAEIAABCEAAAhCAAAQgAAEIQAACEIAABCAAAQhAAAIQgAAEIAABCEAAAhCAAAQgAAEIQAACEIAABCAAAQhAAAIQgAAEIAABCEAAAhCAAAQgAAEIQAACEIAABNJO4P8DnFvEshlYpKAAAAAASUVORK5CYII=;" parent="1" vertex="1">
          <mxGeometry x="143" y="263" width="32" height="32" as="geometry" />
        </mxCell>
        <mxCell id="ejDFjRWyY2k5rN37OPCX-25" value="" style="shape=image;verticalLabelPosition=bottom;labelBackgroundColor=default;verticalAlign=top;aspect=fixed;imageAspect=0;image=data:image/png,iVBORw0KGgoAAAANSUhEUgAAAgAAAAIACAYAAAD0eNT6AAAAAXNSR0IArs4c6QAAIABJREFUeAHtnQl0HdWd5pPudGZ6ejsz0z3BDkjGISQdErInnY12Y5qloZOQxEAk2ewQExMMZAyBJMhmx8QhQIgJW1hiiA2JrafFkhdZlqxdtiVZm2VL2CI9pzuTXqYzmV4S7vRf5sWP53ffq+XWrVuvfpyjI6x6r+6t3/3u//tevVtVb3gD/0EAAhCAAAQgAAEIQAACEIAABCAAAQhAAAIQgAAEIAABCEAAAhCAAAQgAAEIQAACEIAABCAAAQhAAAIQgAAEIAABCEAAAhCAAAQgAAEIQAACEIAABCAAAQhAAAIQgAAEIAABCEAAAhCAAAQgAAEIQAACEIAABCAAAQhAAAIQgAAEIAABCEAAAhCAAAQgAAEIQAACEIAABCAAAQhAAAIQgAAEIAABCEAAAhCAAAQgAAEIQAACEIAABCAAAQhAAAIQgAAEIAABCEAAAhCAAAQgAAEIQAACEIAABCAAAQhAAAIQgAAEIAABCEAAAhCAAAQgAAEIQAACEIAABCAAAQhAAAIQgAAEIAABCEAAAhCAAAQgAAEIQAACEIAABCAAAQhAAAIQgAAEIAABCEAAAhCAAAQgAAEIQAACEIAABCAAAQhAAAIQgAAEIAABCEAAAhCAAAQgAAEIQAACEIAABCAAAQhAAAIQgAAEIAABCEAAAhCAAAQgAAEIQAACEIAABCAAAQhAAAIQgAAEIAABCEAAAhCAAAQgAAEIQAACEIAABCAAAQhAAAIQgAAEIOAigZmZmd8dOnTov/IDAzRgXwP9/Qf/yMW6QJ8gAIEyIaCU+q2xgzPvGZ+e+cr4yzPPjk/P9I5Pz/zd+PTMr8enZxQ/MEAD8Wigc3BMbdrR82rjzv5fbO8Z3Ng2OHhimZQdDgMCEIiTwPjUT98xNj1z9/j0zCEKfDwFHu5wL6YBCQA/2db1m5+6HT2/3t4/eFecdYO2IQCBBBMYffmnH5iYnnmJT/iYTzHzYVv8+sgPABIGNm7vUtt7Bh9JcAmi6xCAgG0CY6+88t8npmcexfjjL+yYK2PgRQOFAkD2jMDO/uFrbdcQ2oMABBJIYPzlV/5ifHrmp16KDq/BnNCAGxooFgDk64CtA8OnJrAc0WUIQMAWgbHpV77Gp343CjrGyjj40UCxACBnApo6+n7e39//O7ZqCe1AAAIJIaCUeuPE1Cv3+yk4vBaDQgPuaKBUAJAQsK17b0tCShLdhAAEbBEYn555gGLuTjFnLBgLvxrwEgA2bu9Wbf0jN9qqK7QDAQg4TmB86vA3/BYbXo9BoQG3NOAlAMhZgMyOnl9t7x05xfGyRPcgAIGoCYxNHz6L7/zdKuQYK+MRRANeA8CR9QD9fz8yMvLmqOsL+4cABBwlMDw19Zbx6Zm/DVJseA8mhQbc0oCfAMB6AEeLMt2CgC0CY9OHn6aIu1XEGQ/GI6gG/AYA1gPYqrS0AwHHCIy9/MrHxqdnXg1abHgfRoUG3NKA3wDAegDHijLdgYAtAuPTM00UcLcKOOPBeITRQJAAwHoAWxWXdiDgCIGJqVfey6d/zCaM2fBe9/QTNACwHsCRwkw3IGCDwMTLMw9RwN0r4IwJYxJGA2ECAOsBbFRe2oBAzATkVqDj0zN/F6bQ8F6MCg24p4EwAYD1ADEXZpqHgA0CEwcPfZLi7V7xZkwYk7AaCBsAWA9gowLTBgRiJDA+dfjrYQsN78es0IB7GjARAFgPEGNxpmkIRE1g4uWZDMXbveLNmDAmYTVgKgDIeoDWvn3Lo65F7B8CELBMYHx6Zn/YQsP7MSs04J4GTAUAOQtQt6Pn11sHhk+1XJ5oDgIQiIqAUuq3xqdn/o3i7V7xZkwYk7AaMBkAjqwH6Pu5LBqOqh6xXwhAwCKBycnJPwxbZHg/RoUG3NSA6QDAegCLxZmmIBA1gfHDh+dSvN0s3owL4xJWA1EEANYDRF2V2T8ELBEYnfqbyrBFhvdjVGjATQ1EEQBYD2CpONMMBKImQABws3BjqIyLCQ1EFQCOrAfo//uRkZE3R12j2D8EIBARAQIARmPCaNiHmzqKMgCwHiCiosxuIWCLAAHAzcKNoTIuJjQQdQDgeQG2KjXtQCACAgQAjMaE0bAPN3UUdQBgPUAERZldQsAWAQKAm4UbQ2VcTGjARgBgPYCtak07EDBMgACA0ZgwGvbhpo5sBQDWAxguzOwOAjYIEADcLNwYKuNiQgM2AwDrAWxUbNqAgEECBACMxoTRsA83dWQzALAewGBhZlcQsEGAAOBm4cZQGRcTGrAdAFgPYKNq0wYEDBEgAGA0JoyGfbipozgCAOsBDBVndgOBqAkQANws3Bgq42JCA3EFANYDRF252T8EDBAgAGA0JoyGfbipo7gCAOsBDBRndgGBqAkQANws3Bgq42JCA3EGANYDRF292T8EQhIgAGA0JoyGfbipo7gDAOsBQhZo3g6BKAkQANws3Bgq42JCAy4EANYDRFnB2TcEQhAgAGA0JoyGfbipIxcCAOsBQhRo3gqBKAkQANws3Bgq42JCA64EANYDRFnF2TcEAhIgAGA0JoyGfbipI5cCAOsBAhZp3gaBqAgQANws3Bgq42JCA64FANYDRFXJ2S8EAhAgAGA0JoyGfbipI9cCAOsBAhRp3gKBqAgQANws3Bgq42JCAy4GANYDRFXN2S8EfBIgAGA0JoyGfbipI1cDAOsBfBZqXg6BKAgQANws3Bgq42JCAy4HANYDRFHR2ScEfBAgAGA0JoyGfbipI5cDAOsBfBRqXgqBKAgQANws3Bgq42JCA64HANYDRFHV2ScEPBIgAGA0JoyGfbipoyQEANYDeCzWvAwCpgkQANws3Bgq42JCA0kJAKwHMF3Z2R8EPBAgAGA0JoyGfbipo6QEANYDeCjWvAQCpgkQANws3Bgq42JCA0kKABICNnfs/nlrq3qT6TrH/iAAgQIECAAYjQmjYR9u6ihpAWB2PUDP3uYCpYo/QQACpgkQANws3Bgq42JCA0kMAKwHMF3l2R8ENAQIABiNCaNhH27qKIkBgPUAmmLNnyFgmgABwM3CjaEyLiY0kNQAwHoA05We/UGgAAECAEZjwmjYh5s6SnIAYD1AgYLNnyBgkgABwM3CjaEyLiY0kPQAwHoAk9WefUEgjwABAKMxYTTsw00dJT0AsB4gr2DzTwiYJEAAcLNwY6iMiwkNlEMAYD2AyYrPviCQQ4AAgNGYMBr24aaOyiUAsB4gp2jzvxAwRYAA4GbhxlAZFxMaKKcAwHoAU1Wf/UDgNQIEAIzGhNGwDzd1VE4BgPUA2BYEDBMgALhZuDFUxsWEBsotALAewLABsLt0EyAAYDQmjIZ9uKmjcgwArAdIt2dx9AYJEADcLNwYKuNiQgPlGgBYD2DQBNhVegkQADAaE0bDPtzUUbkGANYDpNezOHKDBAgAbhZuDJVxMaGBcg4ArAcwaATsKp0ECAAYjQmjYR9u6qjcAwDrAdLpWxy1IQIEADcLN4bKuJjQQBoCAOsBDJkBu0kfAQIARmPCaNiHmzpKQwBgPUD6fIsjNkSAAOBm4cZQGRcTGkhLAGA9gCFDYDfpIkAAwGhMGA37cFNHaQoArAdIl3dxtAYIEADcLNwYKuNiQgNpCwCsBzBgCuwiPQQIABiNCaNhH27qKG0BgPUA6fEujtQAAQKAm4UbQ2VcTGggjQGA9QAGjIFdpIMAAQCjMWE07MNNHaU1ALAeIB3+xVGGJEAAcLNwY6iMiwkNdA2OKTHDdP50q/b+0etClkjeDoHyJUAAwGhMGA37cFNH3UPjKTX/I6GnbkfPr7cODJ9avhWcI4NACAIEADcLN4bKuJjQQO/wRKoDAOsBQpgDby1/AgQAjMaE0bAPN3U0MHog9QGA9QDl72McYUACBAA3CzeGyriY0MDw5MsEgG1divsDBDQI3lbeBAgAGI0Jo2EfbupobGpGbWztJgRs61KZHb2/2r537ynlXdE5Ogj4IEAAcLNwY6iMiykNtHTuJgC8diXE5o7dP29tVW/yUSJ5KQTKlwABAKMxZTTsx00t7do9QgDIuRRyW8/e5vKt6BwZBHwQIAC4WbQxU8bFlAaG9k8TAHICAOsBfBgELy1vAgQAjMaU0bAfd7XU1N5PCMgJAdwfoLx9jaPzSIAA4G7RxlAZG1MaSPsNgQrdCZH1AB5NgpeVLwECACZjymTYj7taGpueUZm2Ps4C5JwF4P4A5etrHJlHAgQAd4s2hsrYmNQAZwEKPROB5wV4tApeVo4ECACYjEmTYV/u6knuCbC5Y4CzAHlnAVgPUI7OxjF5IkAAcLdgY6aMjWkNDE5MqU3buTFQ/pqA5l0D/5v7A3iyDF5UTgQIAJiMaZNhf25rqjvVjwgu9DXAkb9xf4BycjaOxRMBAoC+WA8enFLbJvaozGg3P44yaBrrVd2TY2ps+rAieOi1nM9mR98QXwXkfRXwk22sB/BkGryofAgQAF5fNIemptXd/c+rhVtXqMpMNT8JYfCepivVFR1rVMv4AEFg+vWazjd/+ffY1GG1rXuQEJAXAnheQPl4G0figQAB4GixlE+Tf9Z8LaafENMvFNDmZ5aor/f8gDMCHkPAjl7OBOSvB+D+AB6Mg5eUBwECwJEA0DjWq97ZcBnmn2Dzzw0EX9n1Xc4EeAgBcjagfffI7ONy840wzf9mPUB5+BtHUYIAAWBGyXf9H21ehvmXiflng8DavfWEAI8hYPfoAZVp6+UrgZyvBNoGRi8sUT7ZDIFkEyAAzKg7+9Zh/mVm/hICPtK8TI1MHyIEeAwBo1OHVFv/sNqYY4JpPguwuWPgZ8mu7vQeAiUIEABm1IKWGwkAZRgAJAQ8P9xKAPAYALKLBYcnX1ZylQD3C+hS3QNDHyxRQtkMgeQSSHsA6D+wH/MvU/OXAHBrz5MEAJ8BIBsERg8eUl1D46q5c7fauF1//Xw5nyVo7Rv6dnKrOz2HQAkCaQ8AzWMDBIAyDgBX73qAABAwAGSDgPweO3hYDYxOqs49Y6q1d0i1dO5Rzbt2q6aO/rL+2Tkw/EyJEspmCCSXQNoDwI6JIQJAGQcArgY4eplrrqHz/964TEzP3Jzc6k7PIVCCQNoDwPDUtHp7/cWEgDINAXJTJ8zOm9nB6VhOBIASBsLmZBNIewCQonfBjtsJAGUaAORWzhjbscYGE29MCADJ9jd6X4IAAWBGbdjXRgAowwBw4Y47MX8D3/+nOSwQAEoYCJuTTYAAcOSTwKXt9xMCyigEnNJ4+eyDnNJsXhy7t0/5xTgRAJLtb/S+BAECwJEiIXcD/EzrNwkBZRAC5JbO6/Zt59M/n/5Da4AAUMJA2JxsAgSAo58S5K5xN3U/zqLABIeAc7bdojaP94cu/MU+FbLt6JwpdxYEgGT7G70vQYAAcGwx27V/RN3d/4Kqartbnb3tFnXG1hX8OMzgc60r1fLOR9SP9u3A+PnUb1QDBIASBsLmZBMgABwbAMr9Uw3Hx5ijAW8aIAAk29/ofQkCBABvhYCCCSc0kD4NEABKGAibk02AAJC+ooaRMeZowJsGCADJ9jd6X4IAAcBbIaBgwgkNpE8DBIASBsLmZBMgAKSvqGFkjDka8KYBAkCy/Y3elyBAAPBWCCiYcEID6dMAAaCEgbA52QQIAOkrahgZY44GvGmAAJBsf6P3JQgQALwVAgomnNBA+jRAAChhIGxONgECQPqKGkbGmKMBbxogACTb3+h9CQIEAG+FgIIJJzSQPg0QAEoYCJuTTYAAkL6ihpEx5mjAmwYIAMn2N3pfggABwFshoGDCCQ2kTwMEgBIGwuZkEyAApK+oYWSMORrwpgECQLL9jd6XIEAA8FYIKJhwQgPp0wABoISBsDnZBAgA6StqGBljjga8aYAAkGx/o/clCBAAvBUCCiac0ED6NEAAKGEgbE42AQJA+ooaRsaYowFvGiAAJNvf6H0JAgQAb4WAggknNJA+DRAAShgIm5NNgACQvqKGkTHmaMCbBggAyfY3el+CAAHAWyGgYMIJDaRPAwSAEgbC5mQTIACkr6hhZIw5GvCmAQJAsv2N3pcgQADwVggomHBCA+nTAAGghIGwOdkECADpK2oYGWOOBrxpgACQbH+j9yUIEAC8FQIKJpzQQPo0QAAoYSBsTjYBAkD6ihpGxpijAW8aIAAk29/ofQkCBABvhYCCCSc0kD4NEABKGAibk02AAJC+ooaRMeZowJsGCADJ9jd6X4IAAcBbIaBgwgkNpE8DBIASBsLmZBMgAKSvqGFkjDka8KYBAkCy/Y3elyBAAPBWCCiYcEID6dMAAaCEgbA52QQIAOkrahgZY44GvGmAAJBsf6P3JQgQAPSFoHNyVNWPdqsMPzAoYw1sn9irRqYPKULBsbWAAFDCQNicbAIEgNdP+j0HD6hbe55SH2v+iqrMVPMDg1Ro4F0Nl6tL2+9XzWMDBIHpozWBAJBsf6P3JQgQAI5O9o0ju9T7m76UioJPuCHcFdLA/PrFamXvs2ps+jBBYHpGEQBKGAibk02AAHAkAGwc7VQnN1yC+fOJHw1kqtVN3Y8TAAgAyTY3el+aAAFgRslp/w9uXkrhx/zRwGsamJepUc8Nb0t9COAMQGkP4RUJJkAAmFG1vc9Q+DF/NJCngQVbvkoAmJ65OcHlna5DoDgBAsCM+mTL9RT/vOJf6Pth/pa+dQONY72pDgGcASjuH2xNOIG0B4C+AxOYP+aPBjQaWN2/gQCQ8BpP9yGgJZD2ANA81k/x1xR/PvGn7xN//pjf3JPuxYCcAdBaBxvKgUDaA0DbxBABgACABjQakEsC03yDIAJAObgcx6AlkPYAsG/qZS7/0xT//E+D/Dt9ZwQeG2wkAGirJxsgkHACaQ8A8unmi2138gmQEIAG8jRwUv0StfvgAQJAwms83YeAlgABYEbJTYDkumc+4abvEy5jrh/z5Z2PpNr85cMBXwForYMN5UCAAHDkToBLOx4kAOR9AsQc9eZY7mw+2rxMyRUyaf7+nwBQDg7HMRQlQAA4EgBkLcBFfBVACCIEqQ81XcNDgV57IBBnAIraBxuTToAAcPRhQKNTh9WqvueUPBmt3D/hcXzp/XSvG3v5GmzJzntV1+RY6j/5Z898EACS7nD0vygBAsDRAJCd9P0H9quH92xUV3V8W31hxyp1/vZafmBQthq4pH21Wtn7jNoyzqOAszUg+5sAUNQ+2Jh0AgSAYwNAdvLzGzZoIN0aIAAk3eHof1ECBIB0FzgMjvFHA3oNEACK2gcbk06AAKCf/BRG2KCBdGuAAJB0h6P/RQkQANJd4DA4xh8N6DVAAChqH2xMOgECgH7yUxhhgwbSrQECQNIdjv4XJUAASHeBw+AYfzSg1wABoKh9sDHpBAgA+slPYYQNGki3BggASXc4+l+UAAEg3QUOg2P80YBeAwSAovbBxqQTIADoJz+FETZoIN0aIAAk3eHof1ECBIB0FzgMjvFHA3oNEACK2gcbk06AAKCf/BRG2KCBdGuAAJB0h6P/RQkQANJd4DA4xh8N6DVAAChqH2xMOgECgH7yUxhhgwbSrQECQNIdjv4XJUAASHeBw+AYfzSg1wABoKh9sDHpBAgA+slPYYQNGki3BggASXc4+l+UAAEg3QUOg2P80YBeAwSAovbBxqQTIADoJz+FETZoIN0aIAAk3eHof1ECBIB0FzgMjvFHA3oNEACK2gcbk06AAKCf/BRG2KCBdGuAAJB0h6P/RQkQANJd4DA4xh8N6DVAAChqH2xMOgECgH7yUxhhgwbSrQECQNIdjv4XJUAASHeBw+AYfzSg1wABoKh9sDHpBAgA+slPYYQNGki3BggASXc4+l+UAAEg3QUOg2P80YBeAwSAovbBxqQTIADoJz+FETZoIN0aIAAk3eHof1ECBIB0FzgMjvFHA3oNEACK2gcbk06AAKCf/BRG2KCBdGuAAJB0h6P/RQkQANJd4DA4xh8N6DVAAChqH2xMOgECgH7yUxhhgwbSrQECQNIdjv4XJUAASHeBw+AYfzSg1wABoKh9sDHpBAgA+slPYYQNGki3BggASXc4+l+UAAGgcIEbnTqstowPqPX72tS6fdv5gUHZaqB+tFvtOXhAEXaOrQUEgKL2wcakEyAAvH7S9xwYU9d3rVXvbbpaVWaq+YFBKjRwUv0SdcGOO9Sm0U6CwPTRmkAASLrD0f+iBAgARyf788Ot6t2NV6ai4BNuCHeFNDAvU6NWdD+m5AwYZwRmFAGgqH2wMekECABHAoCc6p+fWYz584kfDWSq1Vd2fZcAME0ASLq/0f8SBAgAM6r/wKQ6tZFT/oU+EfK39J4peGJwc+pDAGcAShgIm5NNgAAwo27teZJPfXzyRwN5GvhEy3I1Np3urwIIAMn2N3pfggABYEZ9rPk6in9e8eeTf3o/+eeOfWa0O9VnAQgAJQyEzckmkPYA0HNgHPPH/NGARgP3DvyIAJDsEk/vIaAnkPYA0DzWT/HXFP/cT4L8fzrPCNzU/TgBQF8+2QKBZBNIewBo3z9MACAAoAGNBlb1PUcASHaJp/cQ0BNIewAYmT6k3tlwGQagMQA++afzk3923J8cbCYA6MsnWyCQbAJpDwBys5MlO+8lABAA0ECeBk5uuETtPXiQAJDsEk/vIaAnQACYUY1jverE+hoMIM8Asp8C+Z3OswByR8C03w2QqwD03sGWMiBAADhyJ8Abur5HACAAoIHXNPCpluU8IIg7AZaBw3EIRQkQAI4EgJGpQ+ry9m9hAISA1GtA7ovROjGY+k//cvaDMwBF7YONSSdAADj6MCCZ8Gt2v8iTAAkBqQwB8zNL1NKOB1X/gf2Y/2tPBCQAJN3hEtj/t6w+8/fesuqM98ypPf2041aefs5xK09fFNXP6Y8svTTt3/PlH//gwSklq5/la4GL2+9Ti9vu5QcGZauBa3Y9pFb3b1Dtk/sw/pxHAXMGIIHmmcQuH1e7YN7c2tOXzalduGFO7cLDc2oXKls/J6w685V8A+Tfrz8rAA94oIF0aoAzAEl01AT0+V21i9583MqFF8+pXdg+p3bhq7YMP7+dE1ad9VOKWzqLG+POuKOB4hogACTATBPVxfWLfvu4lWcstf1JP9/4s/+uWHX231AEihcB+MAHDaRTAwSARLmr2519y6q/+Oic2oV7subrwu/KVWf/L4pbOosb4864o4HiGiAAuO2pSendG+esXHjd3NqF/+aC6ef2Yd7t5/wtRaB4EYAPfNBAOjVAAEiKxTraz3m1C/7znNqFP841XZf+f/4d5/6M4pbO4sa4M+5ooLgGCACOGmsSuvXH937iD+bULmx1yfDz+3LSnef9nCJQvAjABz5oIJ0aIAAkwWld7OOjH/ydObULN+cbrmv/fvtdn/5Hils6ixvjzrijgeIaIAC4aK4J6NOc2oWPumb2hfrzzrs/838oAsWLAHzggwbSqQECQALM1rUuzl15xmcKma2Lfzvlns/9kuKWzuLGuDPuaKC4BggArrmr4/2ZW7vgj+fUnv53Lpp9oT69574v/BtFoHgRgA980EA6NUAAcNxwXevecbVnPFTIaF3923tXX/Brils6ixvjzrijgeIaIAC45rAO9+f42gUnuXitf7Hw8b7VF/IAkLwHgFAUixdF+MAnLRogADhsuK51bU7twrXFzNbFbQQAinlaijnHidb9aoAA4JrLOtqf42vP+m9zblv4CxdNvlifCAAURb9FkdejmbRogADgqOG61q25K8+4tpjRurqNAEAxT0sx5zjRul8NEABcc1pH+3Nc7cJOV02+WL8IABRFv0WR16OZtGiAAOCo4brUrT+pXXDcnNqFrxYzWle3EQAo5mkp5hwnWverAQKAS07raF/mrjz9i64afKl+EQAoin6LIq9HM2nRAAHAUdN1qVtza09/pJTRurqdAEAxT0sx5zjRul8NEABcclpH+zKnduFOVw2+VL8IABRFv0WR16OZtGiAAOCo6brUrTm1C/+2lNG6up0AQDFPSzHnONG6Xw0QAFxyWjf78sY5tQt/5arBl+oXAYCi6Lco8no0kxYNEADcNF1nevWW1Wf+XimTdXk7AYBinpZiznGidb8aIAA4Y7WOdqR2wZuSegmgBBMCAEXRb1Hk9WgmLRogADjquy51K4m3AM6elSAAUMzTUsw5TrTuVwMEAJec1sW+qDfIGoBDWUNN2m8CAEXRb1Hk9WgmLRogALhoug71af6WRX80976zDyfN+LP9JQBQzNNSzDlOtO5XAwQAh8zWxa5IADj+e59WWUNN2m8CAEXRb1Hk9WgmLRogALjoug71SQLACc98ngAwTVFMS1HkONF6WjRAAHDIbF3sigSAio1Vau7KMxIZAjgDQDFPSzHnONG6Xw0QAFx0XYf6JAGgMlOt3vqtcwgAnAVQfgsMr8eU0IC7GiAAOGS2LnYlGwBOePpzBAACAAEADaCBMtIAAcBF13WoT9kAUFlXpebe8ZeJCwF8BeDupw8+GTI2aCBeDRAAHDJbF7vymwCQqVbHP/ZZAkAZpX+Kb7zFF/7wj1sDBAAXXdehPuUGgNmzAHcm6ywAZwAosnEXWdpHg65qgADgkNm62JXXBYBMtUraJYEEAIqvq8WXfqHNuDVAAHDRdR3qU34AmL0i4DvnJuarAAIARTbuIkv7aNBVDRAAHDJbF7tSKABUbvyimnP3mYkIAQQAiq+rxZd+oc24NUAAcNF1HepTwQCQqVYVGy5Uc253fz0AAYAiG3eRpX006KoGCAAOma2LXdEFAPkqoGL9hWrOHW7fIZAAQPF1tfjSL7QZtwYIAC66rkN9KhYAsiFgrsNXBhAAKLJxF1naR4OuaoAA4JDZutiVUgFAQkDlSxept64+28k1AQQAiq+rxZd+oc24NUAAcNF1HeqTpwAgXwfUVanj135azVm50KkgQACgyMZdZGkfDbqqAQKAQ2brYle8BoAzm+twAAAgAElEQVTZMwGvrQtw6cFB71t9Afcu5+6FaAANoIECGiAAuOi6DvXJbwD4TRBYt0jNdeAJgu++9/P/6mr6pl98MkQDaCBODRAAHDJbF7sSNAD8Jgi8dJE6/vufVXPvP1vNXWn/ioG33/Xpf4xzgtE2BR4NoAFXNUAAcNF1HepT2ACQDQKzvzdVqRNeWKRO+MH56vhHP6OOf+Sv1Vu/e96xPw+f9+9vfeDcQ3PXnLNn7upzOuauPmtn0J+3P/S5ttv6nhm9t/9H/7Bm94uKHxigATSQdg2sHlj/y1X9z01X7bzrkYr6qqsC/9RVLa6sq/l8RaZ64fyGJSd/sP+q33HIvuhKWAJGA4BcMcAPDNAAGkAD5aqBf6/M1AzOy1R/p6Ku+rx3rV/05rAexPtjJEAAILQQ2tAAGkADATXw88pM9cPHb6o5KUYbo+mgBAgATPyAE79cP+FwXHx6RwP+NfCrykzN85V1i08M6kW8LwYCBAACAAEADaABNGBIA7+srK/5xhtaF7wpBjujSb8ECABMfEMTn09N/j81wQxmZamBeZnq3or6qvl+/YjXWyZAACAAEADQABpAAxFo4GcnZqo+YtnSaM4PAQIAEz+CiV+Wn2rgxFxBA7418M8V9VVn+PEkXmuRAAHAt6AxN07bogE0gAa8a+D/VtbXfNyirdGUVwIEAAIAn2rQABpAAxFr4GfzfnLRPK++xOssESAAMPEjnvh8UvL+SQlWsCpbDcjCQG4cZMnYvTZDACAAEADQABpAAzY0MK++eqVXb+J1FggQAJj4NiY+baAzNIAGKjNV/yLPFLBgbTThhQABgElJYUYDaAAN2NNA1YtevInXWCBAAGDi25v4sIY1GkAD1a9W1H3xFAv2RhOlCBAAKEgUJDSABtCAXQ1UPVbKm9hugQABgIlvd+LDG95oAA1U/9Px6xf9rgWLo4liBAgAFCOKERpAA2jAugbqaj5fzJvYZoEAAYCJb33ic6132V7rjZaoJ141UFFfvdaCxdFEMQIEACas1wnL69AKGkAD5jRQNVHMm9hmgQABgAltbkLDEpZoAA141sCrf7J+0e9bsDma0BEgAHgWK6dtOXWPBtAAGjCpgU0XvV/nTfzdAgECAAGATyxoAA2ggTg0MC9T81kLNkcTOgIEACZ+HBOfNtEdGkADFXVVi3XexN8tECAAMAkpxGgADaCBODQwr75qqQWbowkdAQIAEz+OiU+b6A4NoIHKTM0ynTfxdwsECABMQgoxGkADaCAeDRAALNi8vgkCABM/nokPd7ijATRAANC7s4UtBACKEEUIDaABNBCPBggAFmxe3wQBgIkfz8SHO9zRABogAOjd2cIWAgBFiCKEBtAAGohHAwQACzavb4IAwMSPZ+LDHe5oAA0QAPTubGELAYAiRBFCA2gADcSjAQKABZvXN0EAYOLHM/HhDnc0gAYIAHp3trCFAEARogihATSABuLRAAHAgs3rmyAAMPHjmfhwhzsaQAMEAL07W9hCAKAIUYTQABpAA/FogABgweb1TRAAmPjxTHy4wx0NoAECgN6dLWwhAFCEKEJoAA2ggXg0QACwYPP6JggATPx4Jj7c4Y4G0AABQO/OFrYQAMq3CJ3ccIla0HKj+mzrbeqiHXeoi9vvU0s7Hiz4c/WuB9TitnvV+a23qdO2XK/e2XCZSmNxEmZ/seWr6ottd6rLdt5fkJWOYam/X9Xx7VnG5267VZ3aeLVTfN/f9CVV1Xa3WtrxHbVk573qtC03ONW/qLX4Z83Xqqq2u2bHW47/Y81fSdXxR81Xv38CgAWb1zdBACiPACCGfcGOO9SdfevUuuFWtXP/kBqbPqzGp2cC/7RNDKmnhlrU17qfUOdsu0XNzywpu6L4tvol6qK2O9Xq/g2qeWwgNDM/vHsOjKnH9zapZZ0Pqfc1xRMI/nr7N9SGkZ0Fj3vbxB51Rfu31In1NWU37llDumDH7aputLvgHGka61U1bfeU7bFnGcT7mwCgd2cLWwgAyQ0AH968bNacN452qpGplwsWMT+GVOq1ew4eUGv31M9+Unp7/cWJLozyie++/vWq78BE5NxKcZXtI1OH1HPD29QXdqxS8zLRG66Y+sreZwoaf35/nx5qKbszQvMzi9Wa3S96GvtH9tSppOs9XpMvVmMJABZsXt8EAaCYON3bJoXoio41av2+NjU6Fe4Tfn6h9/PvngPjalXfc+qjzcsSFQQ+1HSNkoIuhuvneG2+tmGsZ/armCiLdm3vM76Of92+7WV1Bsir+WfHXc7U2AhmUY65m/smAOjd2cIWAoB7Jl9oor6j4VK1vPMR1bF/xFfhzhawqH5LCPn+YIP6ePN1TgcB+cR7Y9ejau/Bg07xKzYuYjrvjeCrAVmDEOTrIeFXSJtJ+5t85VOMu26bfB2StGN1v78EAAs2r2+CAOB2AJBTlf+z6/uqd9KNU9W64jgyfUjd1bdO/amDiwfFROX0uq7vLv9d1gl8vnWlUeN5frg1EAvRYNIXh8qnePluP8iYy5oYzgKYrpcEAL07W9hCADAtaHP7kwVasjAtSLGK6z1dk2Ozq8ld+eTxqZblqn3/cKIY5o+dfF3x5V0PGQkBEobCfP0hVwm4MrZB+nHetq+H0sJZW29O9PEHYRbtewgAFmxe3wQBwJxhm5oo8inr4T0bA52mzTePuP4t/Y/7bMBfblnh/JkTP+NzS/cToc3nc60rQxngptGu0H0wNU+C7EfWf/hhnv/aawwFsSB9L8/3EAD07mxhCwHArQAg1+A3j/WHKlL5RSuuf8tlZHI8cRSujzVfp7onx8qCY+74Xd+1NhTPS9vvD81k4dYVofoQhx6kzfc0XamGpqZDHf+tPU8m8tjjYl66XQKABZvXN0EAcCcAyI1kwhaoXLNw4f8HDk5GvqI9v8hIoZf7ILhw/Kb7IIsuZRFb/jF7/bdc9x62T98a2BC4fa/9jOJ1N3R9L/SxX9f5SCKPPQqeZvZJANC7s4UtBAA3AsCKrsdCF6ewhT2q9++benn27nJmCkbx8ZJFWk8NNpctSxmj/gOT6iMBL7+UyyCDXAGQqw25H0QSFwOaWE9z3vZvEAAyxeegv3lOALBg8/omCAAmxex/X/Pr5YYkL5W1YYl5yMIzuRWxv+Lgn+fSXQ+WPUvhKfeBCLoivV5z57tcky/1/0lbDBh28Z/w6D+wX8lVOVFrOF37JwDo3dnCFgKAf5MxNUHl2vS1e+tTYVhSQOVSQTkFbYpf/n7e3XilkhsUlTKvctl+SfvqQCyv3fVwaEZJWwwYdvGfaObu/hcC8c7XKf/OrbkEAAs2r2+CAJArRrv/L/efLxcz8nocgwenVFSLyO7pfyFVPNsn96mT6v0/n+FdDZcbuSFSVONo2iBNLP4Tff95S7oekGR6HArvjwCgd2cLWwgAdk0/Owlu7XkqVWaVGxDkunzTd7iTIp+ku/zl8gjz/1/qeCDQp9IHd28Mrb+kLAY0sfjvxZH2QJyz853fujpLALBg8/omCAA6YUb394t33he6+IYxDRfeK3fmC/oddqFiKpdnuXBctvuwZXwgkDGdve2W0LySshjQxOI/bgMcVT0kAOjd2cIWAkBUwi68X7k+XQqnLaOQtjKj3eqJwSb1nd0/UfcO/Eit7Hv2dT9y6vy7e+vUM0NbVONYb6g7xfk5LvkuupCZ+/2bBIntE3uNMt21f2SWWSFe+fy8/Fse0yyMZSzCrsLPZ3xmwLvTyUOH8vfl999Bz0D4HeOgrzez+G9SndxwiRGtBj2O8n0fAcCCzeubIAAUNuooJpw8yc/ECuxiRVouuZPL4OTWsZ9sCXYTHrnES25DvLL3WSXfMxdrL8w2WQ9g4mmCYoBh+pH73h+PdMweu8mzE/la+tDmLytZ/yGLInPbDvr/8gyG/Da8/DsNiwFZ/GevvnnR3LGvIQDo3dnCFgKAvQlye98PjRT8QkYhDyqRm5TId+HHTrLgxyiXKcrtYzeMtEfSdwkrYft7c8/jRvomj8iVKzPC9sfr+yVkmXjI0+bx/kB9LvfFgCz+Cz7vvWo4/OsIABZsXt8EAcDOJDltyw3GPvHlBoDOyVF1RccaK89qlzvQye19c9s38f8SMMIUknUBn26X2/c7+n4Yqg9B+3/Wtq+p4ZC3p5WvFE5tvDpQ/8t5MSCL/+zUtqDaP/I+AoDenS1sIQBEP0nkdPKGkZ1GjVOK/n3965V8igs3Af0d/zsaLp19UFGueYb9/02jnaGOIew9/5vG+5Sc6bDJMbctE2cwzt9eG6j/5bwYkMV//uZ2ribt/T8BwILN65sgAEQ/SeSGLWFNMvf9fQcm1IU7gt8P3sTkvqrj22pk6mVjx7Uo4A2CTmm8PHQfatruCWSeJjjKPiRUyV3mcsfY7/8v6wz+uOByXAzI4r/o65oZ/RMA9O5sYQsBINqJIp/+TT7dT77rlysJzEy+cMcuxmlqIVvQ66wXtNwYyjhlIaILK7y/tycT6jhkwWZQTZTjYkAW/4Wb20G15P99BAALNq9vggAQ7USp3nl3qMKe+0lQgsT7m74UuND7n5yl2SzZea+xy9rkdLTfPv7V9ltD8ZXL8vy2GcXrb+haG+o45OugoP0qt8WALP4rPW+DasX8+wgAene2sIUAEO1kqTPw4BUJAXI5nlw+Zn4Chj9+WUCXG1SC/r/cq8Dv8Z3feluotp8d2uq7Tb999PL6S9vvD3UcD+/ZGOo4ymkxIIv/ws9pL5o18xoCgAWb1zdBAIhusphYYCVmKjfz+VTL8lAF3sxkLcxKnpAm188HNf7s++RZ9x/cvNTXccoVBNn3B/n9g6HwlyGaYBv27pAP79nki1t+n01o1ZU7A7L4r/A8zR9zN/5NANC7s4UtBIDoJovcKz2IKeW/57Kd94cq7jYmujwoRR75m993v/9e3vk9X8caNgA8PdTiq72oWMYdAOS4ymExIIv/oqtn0WifAGDB5vVNEACimTDylLawK7vFPB8bbHTCoLxM/gcGfhw6AMjtcr20lX3NOSHvaf+jfTt8tZdt1/RvFwJAOSwGZPFfNPXMtN6P7o8AoHdnC1sIANFMmKq28Iv/5JTqh5quccKgjk5YPa8PbF6qhkLe1EZu6uOlrexrPtGyPFTokGcIZPcV52+5osLv2ZLc1z+0O9waADn2pC8GZPGffm7Gqe3ibRMALNi8vgkCQDSTZs3uF0MVdCnu8sjg4pMnmr6HafPbu8OdBfj+YIOvYz618arQnCW4hDlmE+89b1u4qxnCXAaY2/8kLwZk8Z979SBXW4X/nwCgd2cLWwgA0UyasE+nk2fbi7kVnjTR9NlEW/KJXBbz5X469fP/K7of83XMcge/sDckWtHlr00TnPL38e7GK0Mdh6nH1SZ5MSCL/9ytC/l6P/pvAoAFm9c3QQAwP2nktL0f0yv02jDXdR+dXOaPzcu+5QE/hY6p1N8kOEiA8NJG7mvkWv5S+y62XW4lbPuWyrn9z/7/C8M7Ah2H3IxJAkR2P2F/J3ExIIv/4pnrYbVWmSEA6N3ZwhYCgPmJY+LWv0Gf8R5+QobnISYe5AE3a/fUBzKxe/pfCGScuaEgaNsmecv9/HP75PX/7+5/PhA3Xd+TuBiQxX/h561OD9H+nQBgweb1TRAAzE+c23qeCVTIswXflYVpYSa+nFbPHo+X3+37hwN/5SF3I/TSRqnXyA2N5NbNYY477Hv9Xjoqd4c0ffYiaYsBWfxnvoaF1bH39xMA9O5sYQsBwPzkkUv3SplNse2ygND7BDLff1Ntf7P3aU+3CZbnGwQ59Z/t53ubrg71/XnuWDw11KLe1xTs0brZ/oT5LWsa1gx4W0Aqp+qjujtkkhYDsvjP3RpQei4QACzYvL4JAoD5ydM01hsqAFzcfl9ZBACZ/J9p/aaq13xHLw/iuatvnZHvr58MuO4g1/yz/y/9kq8V4rz7olxGum1iT0Ed9R+YVF/veUq9vf7iyHSSpMWALP4zX8NKG7epNgkAene2sIUAYErIR/cjK/izZhLk92lbboissNub2Ed5SJtyTFd2rFE3dT+ulnc+ouTxv/IYXFP9uWDH7aGY68Zpw8hOJffpj9JsizFYuHWFkkf9ytmU67vWqvNba631JQmLAVn89/p5VkxLbm4jAFiweX0TBACzE2h+ZkkoI5Lb6cZlNm4WCG/jI6fOZR2BzsjD/r13cmL2bEWcZwVsj08SFgOy+M/b/LCtHe/tEQD07mxhCwHA7AQ6pfGKUCYkl6R5nzxm+570duUMQ1ij9/J+uexwaceD6uSGS8p6rFxfDMjiv3KY/wQACzavb4IAYHYSyaIsLyaie005XAEQV5A4sb5GbRrtCsVfNy6F/i7fxcuCzQUtN5ZtEDCxGPD+gQ2R8GHxn9naFc+8JQDo3dnCFgKA2Ukkp4gLmYXXv8kCwngmolkOcR2DLF4bmw5+J0Kv45T/unI9K+DyYkAW/5XDnCUAWLB5fRMEALOTSBa75ZuDn3/Lwqu4zLNc2r2zb12oMfAzXvmvLcezAi4uBmTxn9m6Fd/cJwDo3dnCFgKA2YlEADDLM0hhkgWB64a3xxYCsqGgXM4KuLgYkMV/8c+zIHPz2PcQACzYvL4JAoDZiUQAMMvz2ILhbf9yc6AorwrImryX30m/gsC1xYAs/vM2B4LOHbvvIwDo3dnCFgKA2clEADDLM0wx+mjzMhX2qYxeDN7Pa5J6VsClxYAs/nNnjoWZn0feSwCwYPP6JggAZicTAcAsz7AF5v1NX1Kbx/tj/zogPyQkba2AS4sBWfzn1hwLN0cJAHp3trCFAGB2MhEAzPIMV1yO9EW+Dtiwr825EJANBXHfbdArYxcWA7L4z7355VU/hV9HALBg8/omCABmJxQBwCzPwkXDfxtyj4Cvdj0a6DHFWaOO+nfPgTG1ovtx9c6Gy5y8EsSFxYAs/vOvfVNzKJr9EAD07mxhCwHA7IQiAJjlabroyE17XtrX7uzZAAkZfQcm1C3dTzh3S+i4FwOy+M/tuRVsrhIALNi8vgkCgNlJRQAwyzNYUSndh3O33aqeHmpxOgi0jA+oM7aucOpsQJyLAVn8V1rXUc2X6PZLANC7s4UtBACzk4oAYJZndIXnSD8lCKzdU+/sVwMj04fUiu7H1LxMjRNBIM7FgCz+S9bc8jZ3CQAWbF7fBAHA7KQiAJjl6a2IhG/zlMbLZx/w4+IVA/K1gDxzQNYx2OJRrJ04FgOy+C+8xouNaXzbCAB6d7awhQBgdmIRAMzyjKMwyWl3MdzBg1NOfUWwdm+9mp9ZHHsIMLMYsNPXcbD4L/nzqvBcJgBYsHl9EwQAsxOLAGCWZ+GiYaeNUxuvUjd2Paq2TexxJgg8vGejL+OMgp/txYAs/rOj9yi0UnqfBAC9O1vYQgAwO7kIAGZ5li4gdtpz6azAtZ0Pxx4CbC4GZPGfHY3HM9cIABZsXt8EAcDs5CIAmOUZT1HSH4MLZwVkYeBfbb811hBw1ravhT4rsufgAU/3PDCx+O/y9m/Fyss1HbvTHwKA3p0tbCEA6It9kEnyqZbloQpj01gvhSpjdkyCjKOX98R5VkCecXBS/ZJYtWJjMSCL/5IxF7zMl8KvIQBYsHl9EwQAsxPsw5uXhQoAUtgLTxSz/aQNczzjuoLg+q61sWrFxmJAFv+Z06mbc54AoHdnC1sIAGYn2LsbrwwVALomx2It6m4WCbNjFNUxyrX6n97+TSWr9YenpkPpwMtth+WBQvKVRFTHU2q/US8GZPFfMnRfSifFtxMALNi8vgkCgNlJJpdpeSneuteMTB2K/dRu8Qlrlle5tmXrrMDXup+ILQDI2EW5GJDFf2mYawQAvTtb2EIAMD/Jwl4/ftqW62Mt6lGY8sebr1NX73pg9q52sor9/O216m0Rfof9wc1L1SXtq2cfALS883tq0Y7b1ckNl1jnGvVZgbaJoVhvEBTlYkAW/5mvTVHM7XD7JABYsHl9EwQA85Ms7N3kluy817pRhZvEeoZySnzTaGfBsyLy9LuVfc+qPzX49Lszt96knhvepsamDx/Tpqw6X9X3nKeV51HwOLXx6kjuK3B+a22seoliMSCL//RzKgptxrdPAoDenS1sIQCYn2iP7206xnx0p/wL/f1bAxtiLeimioE80a6QEecfs3yK/UTL8tDHvKLrMTUy9XJJ9nJjHzkjYeo4/e5HbukrIa9zcrRkX/NZFfq3nIb32weTr49iMSCL/8zXJZNjbm5fBAALNq9vggBgfqLV9j4TqrCLQZmbYOaPz0vf5A56hcxK97eO/SPqvU1XBz7um7of99Xezv1DodrzwqDUa+R4TXx6jlsvphcDsvgvnjlbSq/RbCcA6N3ZwhYCgPnJdmn7/b7MqJApuvYYWD+TX+6F4OWTeP5xPzbYGCgALNy6IlB7391bF6g9PyxKvfZ9TVerXftHQulFzrKECU+l+uhlu8nFgCz+M1+TvIxhPK8hAFiweX0TBADzk+1Dm78cqqCLMd7T/0Ls5hS0IIiR55u7l3+LkQVZABn0KxdpT8Yq6HGaet/FO+8LxCuX6UU77oj1OEwuBmTxn/maZEqr5vdDANC7s4UtBIBoJpvc0Ce3QPv9/90HDyi5lMz8hIvmeLP9/FjzV5Rcyuj3eLOvv7nncV/H/I6GS9VQiGvur+t8xFd72eM0+VvWBMg6iCyDIL9deD6A3MUySN9z3/Pwnk2h99F/YH8sV3yY1ER69kUAsGDz+iYIANEY4rd3/zh0IZNFdEkrBPcPbAh13I/ubfB1zH/eckOo9qS/LjC+b2B9qOP4es9TsR+HicWAuWEg6P/fneCzZy5o0W4fCAB6d7awhQAQTQCoabsnVEGX4idnAd7f9KXYC7vXgiDfQ4e9B8K6fdt9He9nW28LxfmJwc2+2vPKwu/rrtn1UKjjuHfgR7Efh6nFgEGNP/s+CYV++fP6aOpgaa4EAAs2r2+CABCN8N9ef7GSW7Vmi1LQ32v31CemmMnli0GPM/s+vwvzPte6MlSbPxhqdoLvxe3h1gE8tGeTE8dhYjFgVgtBfr840u4Eh9LGF03dSV67BAC9O1vYQgCIbiKu2f1SKHPKFsAk3Bjoky3XB1qJnz3G7G+/D7gpmwAQciGgfHfuQvE3sRgwq4Ugv3nsb3T1LBp9EQAs2Ly+CQJAdBPm3G23GgkA8lVAnDeuKTXx59cvVhv2tYU+1iCr8gkAM7PcXQkAohUT9zYIYv5yxi2O2z2Xmh9sL1ZjCQB6d7awhQBQTJzhtsl94BsNrIyWYihXFcg14y4Wk7A3PsoW+yCn488PuQbgmaEtTjANe+8IV74CEH3GtRiQxX/h6lU8tYUAYMHm9U0QAKKdNHL6PmtwYX/LJyu5n3w8E7Uwp6q2u9To1LH33Q9yrHL/d7/H9lfbw51l2TTa5btNv3308vqwN79Z3e/G1QxyrHEtBmTxX+E56kV/8b2GAKB3ZwtbCADRThq5xnvr+G5jIaB1YlDJtfbxTdijvC7Ycbux594HNeIFW74aiq08IOikCJ9K6HWc5BN8kNCUfY88VMlrWzZeZ3sxIIv/js5LG+Nrrg0CgAWb1zdBAIh+4sjCpGyhNvG7e3JMyXff5iahfwZyynpkOvgNf/I5fLHtzkDH8+7GK0OzjfsuevK9de/kRKjjkNPuceohv23biwFZ/Od/DuePWTz/JgDo3dnCFgJA9BNH1gK8tK89VIHPN0w57X5n3/PWH20rlzeuGXjR6LHUj3YrYRS0APUcGA/Vn8xot5IzNUHbD/u+r/p8cFK+FuTfshYibD9Mv9/WYkAW/0Vfw0xr4+j+CAAWbF7fBAHAzuSRU9VBHpBTqNjn/q19cp+ST+OyEv/opIrmmOSsQ/NYfyizze179v/lq4QwfX9heEfoPn295weh+hC0//Igo7A3T5KrJ1xcIGprMSCL/6KZ70E17e99BAC9O1vYQgCwN3nu6lsX2qiyppn/Wx4Ju7TjO+pPGy4zamTyyfyvt39DPT/cGknfTazCl1sm5/Pw+28x0RXdj4c6E+Gv8FWrs7berDonR0P3vWV8wOiY+z0O3ettLQZk8Z+9GqYb6+B/JwBYsHl9EwQAe5NHvuttGu8LXfCLmZt8mpT76V/ZsUZ9ePOyQMYgi+LO3naLkvvL7wj5kJpifZWH+JhY0HjOtluMMZVbEZ+59aZA3LwWQbmSY1Xfc8YWUMpzBLy2bft1US8GZPGfvfoVjXYIAHp3trCFAGB3Askd82TleTFjNLlNFpf9eKRDyY1i5Fa9slq80I88vEjui79ptFPtm3rZSv/83vVPV4DkLEXYp+nlM5f7LgizO/p+WJBXIYal/rZm94tqw0h7qKcl5vdT/i2XQurYxP33qBcDsvjPbv0yrycCgAWb1zdBALA/gUxfFVDIFFz/m3ylYHLh3Td7n7YSWlzjKkElzAJK8wX92PkU1WJAFv8dy9rGeJptgwCgd2cLWwgA8UwiU3fPc82QvPRHvvf+wOalRj+1ypMI5SsFL+2X02uu7XTr8r9C5hDVYkAW/8VTuwqNcfC/EQAs2Ly+CQJAPJNIPrXJafdyMiMvxyImfebWm42af7b4mL480cvxxPmarsmxRNz7PqrFgCz+i6d2Zeebmd8EAL07W9hCAIhvEsmle08ONqcmBMhlkEFv+OOl2MhZADktHKcp22xbFnp64eLCa0wvBmTxX3x1y6yeCAAWbF7fBAEg3ok0P7N4drGZTeOIoy25cdEV7d+K3LCWdz6SigDwk5EO57/7zzUK04sBWfwXb93KHdtw/08A0LuzhS0EgPgnknwdICvI4zBmG23KJ/8rLH1alYWF64a3ly1LGS+5iuQTLcsjD1PhCvux88rUYkAW/x3L1vRY2dsfAcCCzeubIAC4M5lksZStS/BsGH/WrBaFvNOf32IkXwXs2j9SliFAblgkT5j0y+OtomwAAAlgSURBVMSF15taDMjiP3dqVnhdEQD07mxhCwHArckkt4aVS7tsGXSU7chxxLVQS9rtP7C/LDjmjtGK7scSaf5iFKYWA8alqfBm51atceN4CAAWbF7fBAHAvUkphXLtnvpEm9favfXqlMbLYzWr87bdqnZbvOlSrlFH8f+39/0wVp4mDCPsYkAW/7lXr8LpggCgd2cLWwgA7k6o81trldzjPwoziWqf8mS+S9pXO2NUC1puVB0J/zpATvvf2vOUM0zDFPywiwFZ/OduvQqmCwKABZvXN0EAcHtCyX35b+55XA0cdPvytpGpQ2p1/wb17sYrnTOqDzVdM3sL3qhCT5T7lXGvabvHOabBiv2RuSaPfw7CrOdAMu57EIZN+t5LANC7s4UtBAC3A0C2ILyz4TIll7jJzV+CFM+o3iOX931/sEHJMw6yfXXx9/zMEnVrz5OJulvgs0Nb1Yc2f9lprkHG+sIddwbSsKlnRwTpM++Jqk4SACzYvL4JAkBUwo5mv+9ouFR9eddDauPIrkBF1FQQkEuxZDX2x5uvS5RB/VnzteqJwSYlwcUUC9P72TI+oC5quzNRXP0a5JrdL/niL09plBtn+W2H10dTh8xxJQDo3dnCFgKA6xNE3z8x32/0Pq3k+mobhia38ZUnBl68875E3IK2WJE6bcsNShak2XwyY7GgIN/zy5MCq3febfQhScUYxLlNzNzrrbDlTIicAYuzv7Str0Ph2BAALNi8vgkCQFTCtrvfUxuvmv2u+L7+9bNGIt+XFjMcL9u6/+Ne8+uGW5U8ae+zrbcl3vQLFaqTGy6ZDTQP7d5o/JHCpRhL+HhmaIu6oWut+vDmZak0OLk1dONYb0Gttk4MqqUd30lFICqkzXT8jQCgd2cLWwgAdo3a5qQ+pfEKJauu5UY8cvOYpR0PzprNiq7HVP7P0l0Pqqt3PaDk+1m5F8GpjVen0pBkEaMwy/L6atejx7DKZ+f138s6H5q9HfL5rbepjzQvw9gyR+feaVuuV5e3r1E3dH1PXdXxbXXG1hXwyeFjs27YbYsAYMHm9U0QAI4WIbvCp114owE0kHYNEAD07mxhCwEg7ROQ48eE0AAaiEsDBAALNq9vggAQl/Bpl6KLBtBA2jVAANC7s4UtBIC0T0COHxNCA2ggLg0QACzYvL4JAkBcwqddii4aQANp1wABQO/OFrYQANI+ATl+TAgNoIG4NEAAsGDz+iYIAHEJn3YpumgADaRdAwQAvTtb2EIASPsE5PgxITSABuLSAAHAgs3rmyAAxCV82qXoogE0kHYNEAD07mxhCwEg7ROQ48eE0AAaiEsDBAALNq9vggAQl/Bpl6KLBtBA2jVAANC7s4UtBIC0T0COHxNCA2ggLg0QACzYvL4JAkBcwqddii4aQANp1wABQO/OFrYQANI+ATl+TAgNoIG4NEAAsGDz+iYIAHEJn3YpumgADaRdAwQAvTtb2PKOTZf9AZMw7ZOQ42cOoAE0EIMG6qqvsWBzNKElsH7Rb1dmql9F/DGIP0Ob6A4NoIH0aqCirmqx1pvYYIdAZab6F0zC9E5Cxp6xRwNoIA4NzMvUfNaOy9GKlkBlpnosjsGnTYoOGkADaCDFGqir+YDWmNhgh8C8TPUmJmGKJyFfRSj0j/7RgH0NyBo0Oy5HK1oC8+qrVyJ+++KHOczRABpIsQYmtabEBnsEKusWn55iEfLpjzMAaAANoAH7Gvi+PZejJS2B49cv+t3KTPU/EwL4NIIG0AAaQAM2NFBRV3OB1pTYYJdAZV31szYGnTYoLmgADaCB1GvgF29pXvx7dl2O1rQEKjbV/CWTMvWTktOg9k+DwhzmqdNARX31U1ozYkM8BCozNbsJAYQANIAG0AAaiFADrx7fUP2eeFyOVrUE5mWqL4xw0FOXcmFJEUUDaAANvF4DFfXVG7UmxIYYCag3vLGirroNwb5esPCABxpAA2jAiAb+9cRNNe+I0eVouhiByk0Xvb8yU/3viN2I2Dnrwfe7aAANoIHXNFCRqb6rmP+wzQEC8zLVXyMAEADQABpAA2jAoAb6T2o85z85YHF0oSiB2trfqsxUNxoceBIwn4LQABpAA+nVwN+f0Hjh24r6DhvdITA3c9V/qcxUdxIC+ASABtAAGkADITTw/06or/mUO+5GTzwReNuPF/+PykzNYIiBJ/GnN/Ez9ow9GkADv6yoqz7Pk+HwIvcI/Mn6Rb8/r76qhRDAJwA0gAbQABrwoYF/4JO/e57uv0etC940L1NTW5mp/rWPwSf9k/7RABpAA+nUQP/xm2pO8m82vMNZApX1NedW1ldPEwL4FIAG0AAaQAPHaqDqXyrrqu581/pFb3bWyOhYcALy5MCKTNVtlXXV/3js4DMhYIIG0AAaSKEGXq3MVP1kfsOSk4O7C+9MDIGTGqv/sKK+6qaKTPX+FIqd05rpPK3JuDPuaOD1Gvinykz1ExV1XzwlMeZFR80SmNew+KOVmapVlZma9spM1b8QCPgEhAbQABooWw2Mz6urebQiU/0FOSNs1k3YW7IJrF/02xX1VfNPzFSfWVFftagiU31lRX3VVfzAAA2gATSQPA1UZqqrTqiv+fS8hqr3yf1hkm1Q9B4CEIAABCAAAQhAAAIQgAAEIAABCEAAAhCAAAQgAAEIQAACEIAABCAAAQhAAAIQgAAEIAABCEAAAhCAAAQgAAEIQAACEIAABCAAAQhAAAIQgAAEIAABCEAAAhCAAAQgAAEIQAACEIAABCAAAQhAAAIQgAAEIAABCEAAAhCAAAQgAAEIQAACEIAABCAAAQhAAAIQgAAEIAABCEAAAhCAAAQgAAEIQAACEIAABCAAAQhAAAIQgAAEIAABCEAAAhCAAAQgAAEIQAACEIAABCAAAQhAAAIQgAAEIAABCEAAAhCAAAQgAAEIQAACEIAABCAAAQhAAAIQgAAEIAABCEAAAhCAAAQgAAEIQAACEIAABCAAAQhAAAIQgAAEIAABCEAAAhCAAAQgAAEIQAACEIAABCAAAQhAAAIQgAAEIAABCEAAAhCAAAQgAAEIQAACEIAABCAAAQhAAAIQgAAEIAABCEAAAhCAAAQgAAEIQAACEIAABCAAAQhAAAIQgAAEIAABCEAAAhCAAAQgAAEIQAACEIAABCAAAQhAAAIQgAAEIAABCEAAAhCAAAQgAAEIQAACEIAABNJO4P8DnFvEshlYpKAAAAAASUVORK5CYII=;" parent="1" vertex="1">
          <mxGeometry x="143" y="333" width="32" height="32" as="geometry" />
        </mxCell>
        <mxCell id="ejDFjRWyY2k5rN37OPCX-26" value="" style="shape=image;verticalLabelPosition=bottom;labelBackgroundColor=default;verticalAlign=top;aspect=fixed;imageAspect=0;image=data:image/png,iVBORw0KGgoAAAANSUhEUgAAAgAAAAIACAYAAAD0eNT6AAAAAXNSR0IArs4c6QAAIABJREFUeAHtnQl0HdWd5pPudGZ6ejsz0z3BDkjGISQdErInnY12Y5qloZOQxEAk2ewQExMMZAyBJMhmx8QhQIgJW1hiiA2JrafFkhdZlqxdtiVZm2VL2CI9pzuTXqYzmV4S7vRf5sWP53ffq+XWrVuvfpyjI6x6r+6t3/3u//tevVtVb3gD/0EAAhCAAAQgAAEIQAACEIAABCAAAQhAAAIQgAAEIAABCEAAAhCAAAQgAAEIQAACEIAABCAAAQhAAAIQgAAEIAABCEAAAhCAAAQgAAEIQAACEIAABCAAAQhAAAIQgAAEIAABCEAAAhCAAAQgAAEIQAACEIAABCAAAQhAAAIQgAAEIAABCEAAAhCAAAQgAAEIQAACEIAABCAAAQhAAAIQgAAEIAABCEAAAhCAAAQgAAEIQAACEIAABCAAAQhAAAIQgAAEIAABCEAAAhCAAAQgAAEIQAACEIAABCAAAQhAAAIQgAAEIAABCEAAAhCAAAQgAAEIQAACEIAABCAAAQhAAAIQgAAEIAABCEAAAhCAAAQgAAEIQAACEIAABCAAAQhAAAIQgAAEIAABCEAAAhCAAAQgAAEIQAACEIAABCAAAQhAAAIQgAAEIAABCEAAAhCAAAQgAAEIQAACEIAABCAAAQhAAAIQgAAEIAABCEAAAhCAAAQgAAEIQAACEIAABCAAAQhAAAIQgAAEIAABCEAAAhCAAAQgAAEIQAACEIAABCAAAQhAAAIQgAAEIOAigZmZmd8dOnTov/IDAzRgXwP9/Qf/yMW6QJ8gAIEyIaCU+q2xgzPvGZ+e+cr4yzPPjk/P9I5Pz/zd+PTMr8enZxQ/MEAD8Wigc3BMbdrR82rjzv5fbO8Z3Ng2OHhimZQdDgMCEIiTwPjUT98xNj1z9/j0zCEKfDwFHu5wL6YBCQA/2db1m5+6HT2/3t4/eFecdYO2IQCBBBMYffmnH5iYnnmJT/iYTzHzYVv8+sgPABIGNm7vUtt7Bh9JcAmi6xCAgG0CY6+88t8npmcexfjjL+yYK2PgRQOFAkD2jMDO/uFrbdcQ2oMABBJIYPzlV/5ifHrmp16KDq/BnNCAGxooFgDk64CtA8OnJrAc0WUIQMAWgbHpV77Gp343CjrGyjj40UCxACBnApo6+n7e39//O7ZqCe1AAAIJIaCUeuPE1Cv3+yk4vBaDQgPuaKBUAJAQsK17b0tCShLdhAAEbBEYn555gGLuTjFnLBgLvxrwEgA2bu9Wbf0jN9qqK7QDAQg4TmB86vA3/BYbXo9BoQG3NOAlAMhZgMyOnl9t7x05xfGyRPcgAIGoCYxNHz6L7/zdKuQYK+MRRANeA8CR9QD9fz8yMvLmqOsL+4cABBwlMDw19Zbx6Zm/DVJseA8mhQbc0oCfAMB6AEeLMt2CgC0CY9OHn6aIu1XEGQ/GI6gG/AYA1gPYqrS0AwHHCIy9/MrHxqdnXg1abHgfRoUG3NKA3wDAegDHijLdgYAtAuPTM00UcLcKOOPBeITRQJAAwHoAWxWXdiDgCIGJqVfey6d/zCaM2fBe9/QTNACwHsCRwkw3IGCDwMTLMw9RwN0r4IwJYxJGA2ECAOsBbFRe2oBAzATkVqDj0zN/F6bQ8F6MCg24p4EwAYD1ADEXZpqHgA0CEwcPfZLi7V7xZkwYk7AaCBsAWA9gowLTBgRiJDA+dfjrYQsN78es0IB7GjARAFgPEGNxpmkIRE1g4uWZDMXbveLNmDAmYTVgKgDIeoDWvn3Lo65F7B8CELBMYHx6Zn/YQsP7MSs04J4GTAUAOQtQt6Pn11sHhk+1XJ5oDgIQiIqAUuq3xqdn/o3i7V7xZkwYk7AaMBkAjqwH6Pu5LBqOqh6xXwhAwCKBycnJPwxbZHg/RoUG3NSA6QDAegCLxZmmIBA1gfHDh+dSvN0s3owL4xJWA1EEANYDRF2V2T8ELBEYnfqbyrBFhvdjVGjATQ1EEQBYD2CpONMMBKImQABws3BjqIyLCQ1EFQCOrAfo//uRkZE3R12j2D8EIBARAQIARmPCaNiHmzqKMgCwHiCiosxuIWCLAAHAzcKNoTIuJjQQdQDgeQG2KjXtQCACAgQAjMaE0bAPN3UUdQBgPUAERZldQsAWAQKAm4UbQ2VcTGjARgBgPYCtak07EDBMgACA0ZgwGvbhpo5sBQDWAxguzOwOAjYIEADcLNwYKuNiQgM2AwDrAWxUbNqAgEECBACMxoTRsA83dWQzALAewGBhZlcQsEGAAOBm4cZQGRcTGrAdAFgPYKNq0wYEDBEgAGA0JoyGfbipozgCAOsBDBVndgOBqAkQANws3Bgq42JCA3EFANYDRF252T8EDBAgAGA0JoyGfbipo7gCAOsBDBRndgGBqAkQANws3Bgq42JCA3EGANYDRF292T8EQhIgAGA0JoyGfbipo7gDAOsBQhZo3g6BKAkQANws3Bgq42JCAy4EANYDRFnB2TcEQhAgAGA0JoyGfbipIxcCAOsBQhRo3gqBKAkQANws3Bgq42JCA64EANYDRFnF2TcEAhIgAGA0JoyGfbipI5cCAOsBAhZp3gaBqAgQANws3Bgq42JCA64FANYDRFXJ2S8EAhAgAGA0JoyGfbipI9cCAOsBAhRp3gKBqAgQANws3Bgq42JCAy4GANYDRFXN2S8EfBIgAGA0JoyGfbipI1cDAOsBfBZqXg6BKAgQANws3Bgq42JCAy4HANYDRFHR2ScEfBAgAGA0JoyGfbipI5cDAOsBfBRqXgqBKAgQANws3Bgq42JCA64HANYDRFHV2ScEPBIgAGA0JoyGfbipoyQEANYDeCzWvAwCpgkQANws3Bgq42JCA0kJAKwHMF3Z2R8EPBAgAGA0JoyGfbipo6QEANYDeCjWvAQCpgkQANws3Bgq42JCA0kKABICNnfs/nlrq3qT6TrH/iAAgQIECAAYjQmjYR9u6ihpAWB2PUDP3uYCpYo/QQACpgkQANws3Bgq42JCA0kMAKwHMF3l2R8ENAQIABiNCaNhH27qKIkBgPUAmmLNnyFgmgABwM3CjaEyLiY0kNQAwHoA05We/UGgAAECAEZjwmjYh5s6SnIAYD1AgYLNnyBgkgABwM3CjaEyLiY0kPQAwHoAk9WefUEgjwABAKMxYTTsw00dJT0AsB4gr2DzTwiYJEAAcLNwY6iMiwkNlEMAYD2AyYrPviCQQ4AAgNGYMBr24aaOyiUAsB4gp2jzvxAwRYAA4GbhxlAZFxMaKKcAwHoAU1Wf/UDgNQIEAIzGhNGwDzd1VE4BgPUA2BYEDBMgALhZuDFUxsWEBsotALAewLABsLt0EyAAYDQmjIZ9uKmjcgwArAdIt2dx9AYJEADcLNwYKuNiQgPlGgBYD2DQBNhVegkQADAaE0bDPtzUUbkGANYDpNezOHKDBAgAbhZuDJVxMaGBcg4ArAcwaATsKp0ECAAYjQmjYR9u6qjcAwDrAdLpWxy1IQIEADcLN4bKuJjQQBoCAOsBDJkBu0kfAQIARmPCaNiHmzpKQwBgPUD6fIsjNkSAAOBm4cZQGRcTGkhLAGA9gCFDYDfpIkAAwGhMGA37cFNHaQoArAdIl3dxtAYIEADcLNwYKuNiQgNpCwCsBzBgCuwiPQQIABiNCaNhH27qKG0BgPUA6fEujtQAAQKAm4UbQ2VcTGggjQGA9QAGjIFdpIMAAQCjMWE07MNNHaU1ALAeIB3+xVGGJEAAcLNwY6iMiwkNdA2OKTHDdP50q/b+0etClkjeDoHyJUAAwGhMGA37cFNH3UPjKTX/I6GnbkfPr7cODJ9avhWcI4NACAIEADcLN4bKuJjQQO/wRKoDAOsBQpgDby1/AgQAjMaE0bAPN3U0MHog9QGA9QDl72McYUACBAA3CzeGyriY0MDw5MsEgG1divsDBDQI3lbeBAgAGI0Jo2EfbupobGpGbWztJgRs61KZHb2/2r537ynlXdE5Ogj4IEAAcLNwY6iMiykNtHTuJgC8diXE5o7dP29tVW/yUSJ5KQTKlwABAKMxZTTsx00t7do9QgDIuRRyW8/e5vKt6BwZBHwQIAC4WbQxU8bFlAaG9k8TAHICAOsBfBgELy1vAgQAjMaU0bAfd7XU1N5PCMgJAdwfoLx9jaPzSIAA4G7RxlAZG1MaSPsNgQrdCZH1AB5NgpeVLwECACZjymTYj7taGpueUZm2Ps4C5JwF4P4A5etrHJlHAgQAd4s2hsrYmNQAZwEKPROB5wV4tApeVo4ECACYjEmTYV/u6knuCbC5Y4CzAHlnAVgPUI7OxjF5IkAAcLdgY6aMjWkNDE5MqU3buTFQ/pqA5l0D/5v7A3iyDF5UTgQIAJiMaZNhf25rqjvVjwgu9DXAkb9xf4BycjaOxRMBAoC+WA8enFLbJvaozGg3P44yaBrrVd2TY2ps+rAieOi1nM9mR98QXwXkfRXwk22sB/BkGryofAgQAF5fNIemptXd/c+rhVtXqMpMNT8JYfCepivVFR1rVMv4AEFg+vWazjd/+ffY1GG1rXuQEJAXAnheQPl4G0figQAB4GixlE+Tf9Z8LaafENMvFNDmZ5aor/f8gDMCHkPAjl7OBOSvB+D+AB6Mg5eUBwECwJEA0DjWq97ZcBnmn2Dzzw0EX9n1Xc4EeAgBcjagfffI7ONy840wzf9mPUB5+BtHUYIAAWBGyXf9H21ehvmXiflng8DavfWEAI8hYPfoAZVp6+UrgZyvBNoGRi8sUT7ZDIFkEyAAzKg7+9Zh/mVm/hICPtK8TI1MHyIEeAwBo1OHVFv/sNqYY4JpPguwuWPgZ8mu7vQeAiUIEABm1IKWGwkAZRgAJAQ8P9xKAPAYALKLBYcnX1ZylQD3C+hS3QNDHyxRQtkMgeQSSHsA6D+wH/MvU/OXAHBrz5MEAJ8BIBsERg8eUl1D46q5c7fauF1//Xw5nyVo7Rv6dnKrOz2HQAkCaQ8AzWMDBIAyDgBX73qAABAwAGSDgPweO3hYDYxOqs49Y6q1d0i1dO5Rzbt2q6aO/rL+2Tkw/EyJEspmCCSXQNoDwI6JIQJAGQcArgY4eplrrqHz/964TEzP3Jzc6k7PIVCCQNoDwPDUtHp7/cWEgDINAXJTJ8zOm9nB6VhOBIASBsLmZBNIewCQonfBjtsJAGUaAORWzhjbscYGE29MCADJ9jd6X4IAAWBGbdjXRgAowwBw4Y47MX8D3/+nOSwQAEoYCJuTTYAAcOSTwKXt9xMCyigEnNJ4+eyDnNJsXhy7t0/5xTgRAJLtb/S+BAECwJEiIXcD/EzrNwkBZRAC5JbO6/Zt59M/n/5Da4AAUMJA2JxsAgSAo58S5K5xN3U/zqLABIeAc7bdojaP94cu/MU+FbLt6JwpdxYEgGT7G70vQYAAcGwx27V/RN3d/4Kqartbnb3tFnXG1hX8OMzgc60r1fLOR9SP9u3A+PnUb1QDBIASBsLmZBMgABwbAMr9Uw3Hx5ijAW8aIAAk29/ofQkCBABvhYCCCSc0kD4NEABKGAibk02AAJC+ooaRMeZowJsGCADJ9jd6X4IAAcBbIaBgwgkNpE8DBIASBsLmZBMgAKSvqGFkjDka8KYBAkCy/Y3elyBAAPBWCCiYcEID6dMAAaCEgbA52QQIAOkrahgZY44GvGmAAJBsf6P3JQgQALwVAgomnNBA+jRAAChhIGxONgECQPqKGkbGmKMBbxogACTb3+h9CQIEAG+FgIIJJzSQPg0QAEoYCJuTTYAAkL6ihpEx5mjAmwYIAMn2N3pfggABwFshoGDCCQ2kTwMEgBIGwuZkEyAApK+oYWSMORrwpgECQLL9jd6XIEAA8FYIKJhwQgPp0wABoISBsDnZBAgA6StqGBljjga8aYAAkGx/o/clCBAAvBUCCiac0ED6NEAAKGEgbE42AQJA+ooaRsaYowFvGiAAJNvf6H0JAgQAb4WAggknNJA+DRAAShgIm5NNgACQvqKGkTHmaMCbBggAyfY3el+CAAHAWyGgYMIJDaRPAwSAEgbC5mQTIACkr6hhZIw5GvCmAQJAsv2N3pcgQADwVggomHBCA+nTAAGghIGwOdkECADpK2oYGWOOBrxpgACQbH+j9yUIEAC8FQIKJpzQQPo0QAAoYSBsTjYBAkD6ihpGxpijAW8aIAAk29/ofQkCBABvhYCCCSc0kD4NEABKGAibk02AAJC+ooaRMeZowJsGCADJ9jd6X4IAAcBbIaBgwgkNpE8DBIASBsLmZBMgAKSvqGFkjDka8KYBAkCy/Y3elyBAAPBWCCiYcEID6dMAAaCEgbA52QQIAOkrahgZY44GvGmAAJBsf6P3JQgQAPSFoHNyVNWPdqsMPzAoYw1sn9irRqYPKULBsbWAAFDCQNicbAIEgNdP+j0HD6hbe55SH2v+iqrMVPMDg1Ro4F0Nl6tL2+9XzWMDBIHpozWBAJBsf6P3JQgQAI5O9o0ju9T7m76UioJPuCHcFdLA/PrFamXvs2ps+jBBYHpGEQBKGAibk02AAHAkAGwc7VQnN1yC+fOJHw1kqtVN3Y8TAAgAyTY3el+aAAFgRslp/w9uXkrhx/zRwGsamJepUc8Nb0t9COAMQGkP4RUJJkAAmFG1vc9Q+DF/NJCngQVbvkoAmJ65OcHlna5DoDgBAsCM+mTL9RT/vOJf6Pth/pa+dQONY72pDgGcASjuH2xNOIG0B4C+AxOYP+aPBjQaWN2/gQCQ8BpP9yGgJZD2ANA81k/x1xR/PvGn7xN//pjf3JPuxYCcAdBaBxvKgUDaA0DbxBABgACABjQakEsC03yDIAJAObgcx6AlkPYAsG/qZS7/0xT//E+D/Dt9ZwQeG2wkAGirJxsgkHACaQ8A8unmi2138gmQEIAG8jRwUv0StfvgAQJAwms83YeAlgABYEbJTYDkumc+4abvEy5jrh/z5Z2PpNr85cMBXwForYMN5UCAAHDkToBLOx4kAOR9AsQc9eZY7mw+2rxMyRUyaf7+nwBQDg7HMRQlQAA4EgBkLcBFfBVACCIEqQ81XcNDgV57IBBnAIraBxuTToAAcPRhQKNTh9WqvueUPBmt3D/hcXzp/XSvG3v5GmzJzntV1+RY6j/5Z898EACS7nD0vygBAsDRAJCd9P0H9quH92xUV3V8W31hxyp1/vZafmBQthq4pH21Wtn7jNoyzqOAszUg+5sAUNQ+2Jh0AgSAYwNAdvLzGzZoIN0aIAAk3eHof1ECBIB0FzgMjvFHA3oNEACK2gcbk06AAKCf/BRG2KCBdGuAAJB0h6P/RQkQANJd4DA4xh8N6DVAAChqH2xMOgECgH7yUxhhgwbSrQECQNIdjv4XJUAASHeBw+AYfzSg1wABoKh9sDHpBAgA+slPYYQNGki3BggASXc4+l+UAAEg3QUOg2P80YBeAwSAovbBxqQTIADoJz+FETZoIN0aIAAk3eHof1ECBIB0FzgMjvFHA3oNEACK2gcbk06AAKCf/BRG2KCBdGuAAJB0h6P/RQkQANJd4DA4xh8N6DVAAChqH2xMOgECgH7yUxhhgwbSrQECQNIdjv4XJUAASHeBw+AYfzSg1wABoKh9sDHpBAgA+slPYYQNGki3BggASXc4+l+UAAEg3QUOg2P80YBeAwSAovbBxqQTIADoJz+FETZoIN0aIAAk3eHof1ECBIB0FzgMjvFHA3oNEACK2gcbk06AAKCf/BRG2KCBdGuAAJB0h6P/RQkQANJd4DA4xh8N6DVAAChqH2xMOgECgH7yUxhhgwbSrQECQNIdjv4XJUAASHeBw+AYfzSg1wABoKh9sDHpBAgA+slPYYQNGki3BggASXc4+l+UAAEg3QUOg2P80YBeAwSAovbBxqQTIADoJz+FETZoIN0aIAAk3eHof1ECBIB0FzgMjvFHA3oNEACK2gcbk06AAKCf/BRG2KCBdGuAAJB0h6P/RQkQANJd4DA4xh8N6DVAAChqH2xMOgECgH7yUxhhgwbSrQECQNIdjv4XJUAASHeBw+AYfzSg1wABoKh9sDHpBAgA+slPYYQNGki3BggASXc4+l+UAAGgcIEbnTqstowPqPX72tS6fdv5gUHZaqB+tFvtOXhAEXaOrQUEgKL2wcakEyAAvH7S9xwYU9d3rVXvbbpaVWaq+YFBKjRwUv0SdcGOO9Sm0U6CwPTRmkAASLrD0f+iBAgARyf788Ot6t2NV6ai4BNuCHeFNDAvU6NWdD+m5AwYZwRmFAGgqH2wMekECABHAoCc6p+fWYz584kfDWSq1Vd2fZcAME0ASLq/0f8SBAgAM6r/wKQ6tZFT/oU+EfK39J4peGJwc+pDAGcAShgIm5NNgAAwo27teZJPfXzyRwN5GvhEy3I1Np3urwIIAMn2N3pfggABYEZ9rPk6in9e8eeTf3o/+eeOfWa0O9VnAQgAJQyEzckmkPYA0HNgHPPH/NGARgP3DvyIAJDsEk/vIaAnkPYA0DzWT/HXFP/cT4L8fzrPCNzU/TgBQF8+2QKBZBNIewBo3z9MACAAoAGNBlb1PUcASHaJp/cQ0BNIewAYmT6k3tlwGQagMQA++afzk3923J8cbCYA6MsnWyCQbAJpDwBys5MlO+8lABAA0ECeBk5uuETtPXiQAJDsEk/vIaAnQACYUY1jverE+hoMIM8Asp8C+Z3OswByR8C03w2QqwD03sGWMiBAADhyJ8Abur5HACAAoIHXNPCpluU8IIg7AZaBw3EIRQkQAI4EgJGpQ+ry9m9hAISA1GtA7ovROjGY+k//cvaDMwBF7YONSSdAADj6MCCZ8Gt2v8iTAAkBqQwB8zNL1NKOB1X/gf2Y/2tPBCQAJN3hEtj/t6w+8/fesuqM98ypPf2041aefs5xK09fFNXP6Y8svTTt3/PlH//gwSklq5/la4GL2+9Ti9vu5QcGZauBa3Y9pFb3b1Dtk/sw/pxHAXMGIIHmmcQuH1e7YN7c2tOXzalduGFO7cLDc2oXKls/J6w685V8A+Tfrz8rAA94oIF0aoAzAEl01AT0+V21i9583MqFF8+pXdg+p3bhq7YMP7+dE1ad9VOKWzqLG+POuKOB4hogACTATBPVxfWLfvu4lWcstf1JP9/4s/+uWHX231AEihcB+MAHDaRTAwSARLmr2519y6q/+Oic2oV7subrwu/KVWf/L4pbOosb4864o4HiGiAAuO2pSendG+esXHjd3NqF/+aC6ef2Yd7t5/wtRaB4EYAPfNBAOjVAAEiKxTraz3m1C/7znNqFP841XZf+f/4d5/6M4pbO4sa4M+5ooLgGCACOGmsSuvXH937iD+bULmx1yfDz+3LSnef9nCJQvAjABz5oIJ0aIAAkwWld7OOjH/ydObULN+cbrmv/fvtdn/5Hils6ixvjzrijgeIaIAC4aK4J6NOc2oWPumb2hfrzzrs/838oAsWLAHzggwbSqQECQALM1rUuzl15xmcKma2Lfzvlns/9kuKWzuLGuDPuaKC4BggArrmr4/2ZW7vgj+fUnv53Lpp9oT69574v/BtFoHgRgA980EA6NUAAcNxwXevecbVnPFTIaF3923tXX/Brils6ixvjzrijgeIaIAC45rAO9+f42gUnuXitf7Hw8b7VF/IAkLwHgFAUixdF+MAnLRogADhsuK51bU7twrXFzNbFbQQAinlaijnHidb9aoAA4JrLOtqf42vP+m9zblv4CxdNvlifCAAURb9FkdejmbRogADgqOG61q25K8+4tpjRurqNAEAxT0sx5zjRul8NEABcc1pH+3Nc7cJOV02+WL8IABRFv0WR16OZtGiAAOCo4brUrT+pXXDcnNqFrxYzWle3EQAo5mkp5hwnWverAQKAS07raF/mrjz9i64afKl+EQAoin6LIq9HM2nRAAHAUdN1qVtza09/pJTRurqdAEAxT0sx5zjRul8NEABcclpH+zKnduFOVw2+VL8IABRFv0WR16OZtGiAAOCo6brUrTm1C/+2lNG6up0AQDFPSzHnONG6Xw0QAFxyWjf78sY5tQt/5arBl+oXAYCi6Lco8no0kxYNEADcNF1nevWW1Wf+XimTdXk7AYBinpZiznGidb8aIAA4Y7WOdqR2wZuSegmgBBMCAEXRb1Hk9WgmLRogADjquy51K4m3AM6elSAAUMzTUsw5TrTuVwMEAJec1sW+qDfIGoBDWUNN2m8CAEXRb1Hk9WgmLRogALhoug71af6WRX80976zDyfN+LP9JQBQzNNSzDlOtO5XAwQAh8zWxa5IADj+e59WWUNN2m8CAEXRb1Hk9WgmLRogALjoug71SQLACc98ngAwTVFMS1HkONF6WjRAAHDIbF3sigSAio1Vau7KMxIZAjgDQDFPSzHnONG6Xw0QAFx0XYf6JAGgMlOt3vqtcwgAnAVQfgsMr8eU0IC7GiAAOGS2LnYlGwBOePpzBAACAAEADaCBMtIAAcBF13WoT9kAUFlXpebe8ZeJCwF8BeDupw8+GTI2aCBeDRAAHDJbF7vymwCQqVbHP/ZZAkAZpX+Kb7zFF/7wj1sDBAAXXdehPuUGgNmzAHcm6ywAZwAosnEXWdpHg65qgADgkNm62JXXBYBMtUraJYEEAIqvq8WXfqHNuDVAAHDRdR3qU34AmL0i4DvnJuarAAIARTbuIkv7aNBVDRAAHDJbF7tSKABUbvyimnP3mYkIAQQAiq+rxZd+oc24NUAAcNF1HepTwQCQqVYVGy5Uc253fz0AAYAiG3eRpX006KoGCAAOma2LXdEFAPkqoGL9hWrOHW7fIZAAQPF1tfjSL7QZtwYIAC66rkN9KhYAsiFgrsNXBhAAKLJxF1naR4OuaoAA4JDZutiVUgFAQkDlSxept64+28k1AQQAiq+rxZd+oc24NUAAcNF1HeqTpwAgXwfUVanj135azVm50KkgQACgyMZdZGkfDbqqAQKAQ2brYle8BoAzm+twAAAgAElEQVTZMwGvrQtw6cFB71t9Afcu5+6FaAANoIECGiAAuOi6DvXJbwD4TRBYt0jNdeAJgu++9/P/6mr6pl98MkQDaCBODRAAHDJbF7sSNAD8Jgi8dJE6/vufVXPvP1vNXWn/ioG33/Xpf4xzgtE2BR4NoAFXNUAAcNF1HepT2ACQDQKzvzdVqRNeWKRO+MH56vhHP6OOf+Sv1Vu/e96xPw+f9+9vfeDcQ3PXnLNn7upzOuauPmtn0J+3P/S5ttv6nhm9t/9H/7Bm94uKHxigATSQdg2sHlj/y1X9z01X7bzrkYr6qqsC/9RVLa6sq/l8RaZ64fyGJSd/sP+q33HIvuhKWAJGA4BcMcAPDNAAGkAD5aqBf6/M1AzOy1R/p6Ku+rx3rV/05rAexPtjJEAAILQQ2tAAGkADATXw88pM9cPHb6o5KUYbo+mgBAgATPyAE79cP+FwXHx6RwP+NfCrykzN85V1i08M6kW8LwYCBAACAAEADaABNGBIA7+srK/5xhtaF7wpBjujSb8ECABMfEMTn09N/j81wQxmZamBeZnq3or6qvl+/YjXWyZAACAAEADQABpAAxFo4GcnZqo+YtnSaM4PAQIAEz+CiV+Wn2rgxFxBA7418M8V9VVn+PEkXmuRAAHAt6AxN07bogE0gAa8a+D/VtbXfNyirdGUVwIEAAIAn2rQABpAAxFr4GfzfnLRPK++xOssESAAMPEjnvh8UvL+SQlWsCpbDcjCQG4cZMnYvTZDACAAEADQABpAAzY0MK++eqVXb+J1FggQAJj4NiY+baAzNIAGKjNV/yLPFLBgbTThhQABgElJYUYDaAAN2NNA1YtevInXWCBAAGDi25v4sIY1GkAD1a9W1H3xFAv2RhOlCBAAKEgUJDSABtCAXQ1UPVbKm9hugQABgIlvd+LDG95oAA1U/9Px6xf9rgWLo4liBAgAFCOKERpAA2jAugbqaj5fzJvYZoEAAYCJb33ic6132V7rjZaoJ141UFFfvdaCxdFEMQIEACas1wnL69AKGkAD5jRQNVHMm9hmgQABgAltbkLDEpZoAA141sCrf7J+0e9bsDma0BEgAHgWK6dtOXWPBtAAGjCpgU0XvV/nTfzdAgECAAGATyxoAA2ggTg0MC9T81kLNkcTOgIEACZ+HBOfNtEdGkADFXVVi3XexN8tECAAMAkpxGgADaCBODQwr75qqQWbowkdAQIAEz+OiU+b6A4NoIHKTM0ynTfxdwsECABMQgoxGkADaCAeDRAALNi8vgkCABM/nokPd7ijATRAANC7s4UtBACKEEUIDaABNBCPBggAFmxe3wQBgIkfz8SHO9zRABogAOjd2cIWAgBFiCKEBtAAGohHAwQACzavb4IAwMSPZ+LDHe5oAA0QAPTubGELAYAiRBFCA2gADcSjAQKABZvXN0EAYOLHM/HhDnc0gAYIAHp3trCFAEARogihATSABuLRAAHAgs3rmyAAMPHjmfhwhzsaQAMEAL07W9hCAKAIUYTQABpAA/FogABgweb1TRAAmPjxTHy4wx0NoAECgN6dLWwhAFCEKEJoAA2ggXg0QACwYPP6JggATPx4Jj7c4Y4G0AABQO/OFrYQAMq3CJ3ccIla0HKj+mzrbeqiHXeoi9vvU0s7Hiz4c/WuB9TitnvV+a23qdO2XK/e2XCZSmNxEmZ/seWr6ottd6rLdt5fkJWOYam/X9Xx7VnG5267VZ3aeLVTfN/f9CVV1Xa3WtrxHbVk573qtC03ONW/qLX4Z83Xqqq2u2bHW47/Y81fSdXxR81Xv38CgAWb1zdBACiPACCGfcGOO9SdfevUuuFWtXP/kBqbPqzGp2cC/7RNDKmnhlrU17qfUOdsu0XNzywpu6L4tvol6qK2O9Xq/g2qeWwgNDM/vHsOjKnH9zapZZ0Pqfc1xRMI/nr7N9SGkZ0Fj3vbxB51Rfu31In1NWU37llDumDH7aputLvgHGka61U1bfeU7bFnGcT7mwCgd2cLWwgAyQ0AH968bNacN452qpGplwsWMT+GVOq1ew4eUGv31M9+Unp7/cWJLozyie++/vWq78BE5NxKcZXtI1OH1HPD29QXdqxS8zLRG66Y+sreZwoaf35/nx5qKbszQvMzi9Wa3S96GvtH9tSppOs9XpMvVmMJABZsXt8EAaCYON3bJoXoio41av2+NjU6Fe4Tfn6h9/PvngPjalXfc+qjzcsSFQQ+1HSNkoIuhuvneG2+tmGsZ/armCiLdm3vM76Of92+7WV1Bsir+WfHXc7U2AhmUY65m/smAOjd2cIWAoB7Jl9oor6j4VK1vPMR1bF/xFfhzhawqH5LCPn+YIP6ePN1TgcB+cR7Y9ejau/Bg07xKzYuYjrvjeCrAVmDEOTrIeFXSJtJ+5t85VOMu26bfB2StGN1v78EAAs2r2+CAOB2AJBTlf+z6/uqd9KNU9W64jgyfUjd1bdO/amDiwfFROX0uq7vLv9d1gl8vnWlUeN5frg1EAvRYNIXh8qnePluP8iYy5oYzgKYrpcEAL07W9hCADAtaHP7kwVasjAtSLGK6z1dk2Ozq8ld+eTxqZblqn3/cKIY5o+dfF3x5V0PGQkBEobCfP0hVwm4MrZB+nHetq+H0sJZW29O9PEHYRbtewgAFmxe3wQBwJxhm5oo8inr4T0bA52mzTePuP4t/Y/7bMBfblnh/JkTP+NzS/cToc3nc60rQxngptGu0H0wNU+C7EfWf/hhnv/aawwFsSB9L8/3EAD07mxhCwHArQAg1+A3j/WHKlL5RSuuf8tlZHI8cRSujzVfp7onx8qCY+74Xd+1NhTPS9vvD81k4dYVofoQhx6kzfc0XamGpqZDHf+tPU8m8tjjYl66XQKABZvXN0EAcCcAyI1kwhaoXLNw4f8HDk5GvqI9v8hIoZf7ILhw/Kb7IIsuZRFb/jF7/bdc9x62T98a2BC4fa/9jOJ1N3R9L/SxX9f5SCKPPQqeZvZJANC7s4UtBAA3AsCKrsdCF6ewhT2q9++benn27nJmCkbx8ZJFWk8NNpctSxmj/gOT6iMBL7+UyyCDXAGQqw25H0QSFwOaWE9z3vZvEAAyxeegv3lOALBg8/omCAAmxex/X/Pr5YYkL5W1YYl5yMIzuRWxv+Lgn+fSXQ+WPUvhKfeBCLoivV5z57tcky/1/0lbDBh28Z/w6D+wX8lVOVFrOF37JwDo3dnCFgKAf5MxNUHl2vS1e+tTYVhSQOVSQTkFbYpf/n7e3XilkhsUlTKvctl+SfvqQCyv3fVwaEZJWwwYdvGfaObu/hcC8c7XKf/OrbkEAAs2r2+CAJArRrv/L/efLxcz8nocgwenVFSLyO7pfyFVPNsn96mT6v0/n+FdDZcbuSFSVONo2iBNLP4Tff95S7oekGR6HArvjwCgd2cLWwgAdk0/Owlu7XkqVWaVGxDkunzTd7iTIp+ku/zl8gjz/1/qeCDQp9IHd28Mrb+kLAY0sfjvxZH2QJyz853fujpLALBg8/omCAA6YUb394t33he6+IYxDRfeK3fmC/oddqFiKpdnuXBctvuwZXwgkDGdve2W0LySshjQxOI/bgMcVT0kAOjd2cIWAkBUwi68X7k+XQqnLaOQtjKj3eqJwSb1nd0/UfcO/Eit7Hv2dT9y6vy7e+vUM0NbVONYb6g7xfk5LvkuupCZ+/2bBIntE3uNMt21f2SWWSFe+fy8/Fse0yyMZSzCrsLPZ3xmwLvTyUOH8vfl999Bz0D4HeOgrzez+G9SndxwiRGtBj2O8n0fAcCCzeubIAAUNuooJpw8yc/ECuxiRVouuZPL4OTWsZ9sCXYTHrnES25DvLL3WSXfMxdrL8w2WQ9g4mmCYoBh+pH73h+PdMweu8mzE/la+tDmLytZ/yGLInPbDvr/8gyG/Da8/DsNiwFZ/GevvnnR3LGvIQDo3dnCFgKAvQlye98PjRT8QkYhDyqRm5TId+HHTrLgxyiXKcrtYzeMtEfSdwkrYft7c8/jRvomj8iVKzPC9sfr+yVkmXjI0+bx/kB9LvfFgCz+Cz7vvWo4/OsIABZsXt8EAcDOJDltyw3GPvHlBoDOyVF1RccaK89qlzvQye19c9s38f8SMMIUknUBn26X2/c7+n4Yqg9B+3/Wtq+p4ZC3p5WvFE5tvDpQ/8t5MSCL/+zUtqDaP/I+AoDenS1sIQBEP0nkdPKGkZ1GjVOK/n3965V8igs3Af0d/zsaLp19UFGueYb9/02jnaGOIew9/5vG+5Sc6bDJMbctE2cwzt9eG6j/5bwYkMV//uZ2ribt/T8BwILN65sgAEQ/SeSGLWFNMvf9fQcm1IU7gt8P3sTkvqrj22pk6mVjx7Uo4A2CTmm8PHQfatruCWSeJjjKPiRUyV3mcsfY7/8v6wz+uOByXAzI4r/o65oZ/RMA9O5sYQsBINqJIp/+TT7dT77rlysJzEy+cMcuxmlqIVvQ66wXtNwYyjhlIaILK7y/tycT6jhkwWZQTZTjYkAW/4Wb20G15P99BAALNq9vggAQ7USp3nl3qMKe+0lQgsT7m74UuND7n5yl2SzZea+xy9rkdLTfPv7V9ltD8ZXL8vy2GcXrb+haG+o45OugoP0qt8WALP4rPW+DasX8+wgAene2sIUAEO1kqTPw4BUJAXI5nlw+Zn4Chj9+WUCXG1SC/r/cq8Dv8Z3feluotp8d2uq7Tb999PL6S9vvD3UcD+/ZGOo4ymkxIIv/ws9pL5o18xoCgAWb1zdBAIhusphYYCVmKjfz+VTL8lAF3sxkLcxKnpAm188HNf7s++RZ9x/cvNTXccoVBNn3B/n9g6HwlyGaYBv27pAP79nki1t+n01o1ZU7A7L4r/A8zR9zN/5NANC7s4UtBIDoJovcKz2IKeW/57Kd94cq7jYmujwoRR75m993v/9e3vk9X8caNgA8PdTiq72oWMYdAOS4ymExIIv/oqtn0WifAGDB5vVNEACimTDylLawK7vFPB8bbHTCoLxM/gcGfhw6AMjtcr20lX3NOSHvaf+jfTt8tZdt1/RvFwJAOSwGZPFfNPXMtN6P7o8AoHdnC1sIANFMmKq28Iv/5JTqh5quccKgjk5YPa8PbF6qhkLe1EZu6uOlrexrPtGyPFTokGcIZPcV52+5osLv2ZLc1z+0O9waADn2pC8GZPGffm7Gqe3ibRMALNi8vgkCQDSTZs3uF0MVdCnu8sjg4pMnmr6HafPbu8OdBfj+YIOvYz618arQnCW4hDlmE+89b1u4qxnCXAaY2/8kLwZk8Z979SBXW4X/nwCgd2cLWwgA0UyasE+nk2fbi7kVnjTR9NlEW/KJXBbz5X469fP/K7of83XMcge/sDckWtHlr00TnPL38e7GK0Mdh6nH1SZ5MSCL/9ytC/l6P/pvAoAFm9c3QQAwP2nktL0f0yv02jDXdR+dXOaPzcu+5QE/hY6p1N8kOEiA8NJG7mvkWv5S+y62XW4lbPuWyrn9z/7/C8M7Ah2H3IxJAkR2P2F/J3ExIIv/4pnrYbVWmSEA6N3ZwhYCgPmJY+LWv0Gf8R5+QobnISYe5AE3a/fUBzKxe/pfCGScuaEgaNsmecv9/HP75PX/7+5/PhA3Xd+TuBiQxX/h561OD9H+nQBgweb1TRAAzE+c23qeCVTIswXflYVpYSa+nFbPHo+X3+37hwN/5SF3I/TSRqnXyA2N5NbNYY477Hv9Xjoqd4c0ffYiaYsBWfxnvoaF1bH39xMA9O5sYQsBwPzkkUv3SplNse2ygND7BDLff1Ntf7P3aU+3CZbnGwQ59Z/t53ubrg71/XnuWDw11KLe1xTs0brZ/oT5LWsa1gx4W0Aqp+qjujtkkhYDsvjP3RpQei4QACzYvL4JAoD5ydM01hsqAFzcfl9ZBACZ/J9p/aaq13xHLw/iuatvnZHvr58MuO4g1/yz/y/9kq8V4rz7olxGum1iT0Ed9R+YVF/veUq9vf7iyHSSpMWALP4zX8NKG7epNgkAene2sIUAYErIR/cjK/izZhLk92lbboissNub2Ed5SJtyTFd2rFE3dT+ulnc+ouTxv/IYXFP9uWDH7aGY68Zpw8hOJffpj9JsizFYuHWFkkf9ytmU67vWqvNba631JQmLAVn89/p5VkxLbm4jAFiweX0TBACzE2h+ZkkoI5Lb6cZlNm4WCG/jI6fOZR2BzsjD/r13cmL2bEWcZwVsj08SFgOy+M/b/LCtHe/tEQD07mxhCwHA7AQ6pfGKUCYkl6R5nzxm+570duUMQ1ij9/J+uexwaceD6uSGS8p6rFxfDMjiv3KY/wQACzavb4IAYHYSyaIsLyaie005XAEQV5A4sb5GbRrtCsVfNy6F/i7fxcuCzQUtN5ZtEDCxGPD+gQ2R8GHxn9naFc+8JQDo3dnCFgKA2Ukkp4gLmYXXv8kCwngmolkOcR2DLF4bmw5+J0Kv45T/unI9K+DyYkAW/5XDnCUAWLB5fRMEALOTSBa75ZuDn3/Lwqu4zLNc2r2zb12oMfAzXvmvLcezAi4uBmTxn9m6Fd/cJwDo3dnCFgKA2YlEADDLM0hhkgWB64a3xxYCsqGgXM4KuLgYkMV/8c+zIHPz2PcQACzYvL4JAoDZiUQAMMvz2ILhbf9yc6AorwrImryX30m/gsC1xYAs/vM2B4LOHbvvIwDo3dnCFgKA2clEADDLM0wx+mjzMhX2qYxeDN7Pa5J6VsClxYAs/nNnjoWZn0feSwCwYPP6JggAZicTAcAsz7AF5v1NX1Kbx/tj/zogPyQkba2AS4sBWfzn1hwLN0cJAHp3trCFAGB2MhEAzPIMV1yO9EW+Dtiwr825EJANBXHfbdArYxcWA7L4z7355VU/hV9HALBg8/omCABmJxQBwCzPwkXDfxtyj4Cvdj0a6DHFWaOO+nfPgTG1ovtx9c6Gy5y8EsSFxYAs/vOvfVNzKJr9EAD07mxhCwHA7IQiAJjlabroyE17XtrX7uzZAAkZfQcm1C3dTzh3S+i4FwOy+M/tuRVsrhIALNi8vgkCgNlJRQAwyzNYUSndh3O33aqeHmpxOgi0jA+oM7aucOpsQJyLAVn8V1rXUc2X6PZLANC7s4UtBACzk4oAYJZndIXnSD8lCKzdU+/sVwMj04fUiu7H1LxMjRNBIM7FgCz+S9bc8jZ3CQAWbF7fBAHA7KQiAJjl6a2IhG/zlMbLZx/w4+IVA/K1gDxzQNYx2OJRrJ04FgOy+C+8xouNaXzbCAB6d7awhQBgdmIRAMzyjKMwyWl3MdzBg1NOfUWwdm+9mp9ZHHsIMLMYsNPXcbD4L/nzqvBcJgBYsHl9EwQAsxOLAGCWZ+GiYaeNUxuvUjd2Paq2TexxJgg8vGejL+OMgp/txYAs/rOj9yi0UnqfBAC9O1vYQgAwO7kIAGZ5li4gdtpz6azAtZ0Pxx4CbC4GZPGfHY3HM9cIABZsXt8EAcDs5CIAmOUZT1HSH4MLZwVkYeBfbb811hBw1ravhT4rsufgAU/3PDCx+O/y9m/Fyss1HbvTHwKA3p0tbCEA6It9kEnyqZbloQpj01gvhSpjdkyCjKOX98R5VkCecXBS/ZJYtWJjMSCL/5IxF7zMl8KvIQBYsHl9EwQAsxPsw5uXhQoAUtgLTxSz/aQNczzjuoLg+q61sWrFxmJAFv+Z06mbc54AoHdnC1sIAGYn2LsbrwwVALomx2It6m4WCbNjFNUxyrX6n97+TSWr9YenpkPpwMtth+WBQvKVRFTHU2q/US8GZPFfMnRfSifFtxMALNi8vgkCgNlJJpdpeSneuteMTB2K/dRu8Qlrlle5tmXrrMDXup+ILQDI2EW5GJDFf2mYawQAvTtb2EIAMD/Jwl4/ftqW62Mt6lGY8sebr1NX73pg9q52sor9/O216m0Rfof9wc1L1SXtq2cfALS883tq0Y7b1ckNl1jnGvVZgbaJoVhvEBTlYkAW/5mvTVHM7XD7JABYsHl9EwQA85Ms7N3kluy817pRhZvEeoZySnzTaGfBsyLy9LuVfc+qPzX49Lszt96knhvepsamDx/Tpqw6X9X3nKeV51HwOLXx6kjuK3B+a22seoliMSCL//RzKgptxrdPAoDenS1sIQCYn2iP7206xnx0p/wL/f1bAxtiLeimioE80a6QEecfs3yK/UTL8tDHvKLrMTUy9XJJ9nJjHzkjYeo4/e5HbukrIa9zcrRkX/NZFfq3nIb32weTr49iMSCL/8zXJZNjbm5fBAALNq9vggBgfqLV9j4TqrCLQZmbYOaPz0vf5A56hcxK97eO/SPqvU1XBz7um7of99Xezv1DodrzwqDUa+R4TXx6jlsvphcDsvgvnjlbSq/RbCcA6N3ZwhYCgPnJdmn7/b7MqJApuvYYWD+TX+6F4OWTeP5xPzbYGCgALNy6IlB7391bF6g9PyxKvfZ9TVerXftHQulFzrKECU+l+uhlu8nFgCz+M1+TvIxhPK8hAFiweX0TBADzk+1Dm78cqqCLMd7T/0Ls5hS0IIiR55u7l3+LkQVZABn0KxdpT8Yq6HGaet/FO+8LxCuX6UU77oj1OEwuBmTxn/maZEqr5vdDANC7s4UtBIBoJpvc0Ce3QPv9/90HDyi5lMz8hIvmeLP9/FjzV5Rcyuj3eLOvv7nncV/H/I6GS9VQiGvur+t8xFd72eM0+VvWBMg6iCyDIL9deD6A3MUySN9z3/Pwnk2h99F/YH8sV3yY1ER69kUAsGDz+iYIANEY4rd3/zh0IZNFdEkrBPcPbAh13I/ubfB1zH/eckOo9qS/LjC+b2B9qOP4es9TsR+HicWAuWEg6P/fneCzZy5o0W4fCAB6d7awhQAQTQCoabsnVEGX4idnAd7f9KXYC7vXgiDfQ4e9B8K6fdt9He9nW28LxfmJwc2+2vPKwu/rrtn1UKjjuHfgR7Efh6nFgEGNP/s+CYV++fP6aOpgaa4EAAs2r2+CABCN8N9ef7GSW7Vmi1LQ32v31CemmMnli0GPM/s+vwvzPte6MlSbPxhqdoLvxe3h1gE8tGeTE8dhYjFgVgtBfr840u4Eh9LGF03dSV67BAC9O1vYQgCIbiKu2f1SKHPKFsAk3Bjoky3XB1qJnz3G7G+/D7gpmwAQciGgfHfuQvE3sRgwq4Ugv3nsb3T1LBp9EQAs2Ly+CQJAdBPm3G23GgkA8lVAnDeuKTXx59cvVhv2tYU+1iCr8gkAM7PcXQkAohUT9zYIYv5yxi2O2z2Xmh9sL1ZjCQB6d7awhQBQTJzhtsl94BsNrIyWYihXFcg14y4Wk7A3PsoW+yCn488PuQbgmaEtTjANe+8IV74CEH3GtRiQxX/h6lU8tYUAYMHm9U0QAKKdNHL6PmtwYX/LJyu5n3w8E7Uwp6q2u9To1LH33Q9yrHL/d7/H9lfbw51l2TTa5btNv3308vqwN79Z3e/G1QxyrHEtBmTxX+E56kV/8b2GAKB3ZwtbCADRThq5xnvr+G5jIaB1YlDJtfbxTdijvC7Ycbux594HNeIFW74aiq08IOikCJ9K6HWc5BN8kNCUfY88VMlrWzZeZ3sxIIv/js5LG+Nrrg0CgAWb1zdBAIh+4sjCpGyhNvG7e3JMyXff5iahfwZyynpkOvgNf/I5fLHtzkDH8+7GK0OzjfsuevK9de/kRKjjkNPuceohv23biwFZ/Od/DuePWTz/JgDo3dnCFgJA9BNH1gK8tK89VIHPN0w57X5n3/PWH20rlzeuGXjR6LHUj3YrYRS0APUcGA/Vn8xot5IzNUHbD/u+r/p8cFK+FuTfshYibD9Mv9/WYkAW/0Vfw0xr4+j+CAAWbF7fBAHAzuSRU9VBHpBTqNjn/q19cp+ST+OyEv/opIrmmOSsQ/NYfyizze179v/lq4QwfX9heEfoPn295weh+hC0//Igo7A3T5KrJ1xcIGprMSCL/6KZ70E17e99BAC9O1vYQgCwN3nu6lsX2qiyppn/Wx4Ju7TjO+pPGy4zamTyyfyvt39DPT/cGknfTazCl1sm5/Pw+28x0RXdj4c6E+Gv8FWrs7berDonR0P3vWV8wOiY+z0O3ettLQZk8Z+9GqYb6+B/JwBYsHl9EwQAe5NHvuttGu8LXfCLmZt8mpT76V/ZsUZ9ePOyQMYgi+LO3naLkvvL7wj5kJpifZWH+JhY0HjOtluMMZVbEZ+59aZA3LwWQbmSY1Xfc8YWUMpzBLy2bft1US8GZPGfvfoVjXYIAHp3trCFAGB3Askd82TleTFjNLlNFpf9eKRDyY1i5Fa9slq80I88vEjui79ptFPtm3rZSv/83vVPV4DkLEXYp+nlM5f7LgizO/p+WJBXIYal/rZm94tqw0h7qKcl5vdT/i2XQurYxP33qBcDsvjPbv0yrycCgAWb1zdBALA/gUxfFVDIFFz/m3ylYHLh3Td7n7YSWlzjKkElzAJK8wX92PkU1WJAFv8dy9rGeJptgwCgd2cLWwgA8UwiU3fPc82QvPRHvvf+wOalRj+1ypMI5SsFL+2X02uu7XTr8r9C5hDVYkAW/8VTuwqNcfC/EQAs2Ly+CQJAPJNIPrXJafdyMiMvxyImfebWm42af7b4mL480cvxxPmarsmxRNz7PqrFgCz+i6d2Zeebmd8EAL07W9hCAIhvEsmle08ONqcmBMhlkEFv+OOl2MhZADktHKcp22xbFnp64eLCa0wvBmTxX3x1y6yeCAAWbF7fBAEg3ok0P7N4drGZTeOIoy25cdEV7d+K3LCWdz6SigDwk5EO57/7zzUK04sBWfwXb93KHdtw/08A0LuzhS0EgPgnknwdICvI4zBmG23KJ/8rLH1alYWF64a3ly1LGS+5iuQTLcsjD1PhCvux88rUYkAW/x3L1vRY2dsfAcCCzeubIAC4M5lksZStS/BsGH/WrBaFvNOf32IkXwXs2j9SliFAblgkT5j0y+OtomwAAAlgSURBVMSF15taDMjiP3dqVnhdEQD07mxhCwHArckkt4aVS7tsGXSU7chxxLVQS9rtP7C/LDjmjtGK7scSaf5iFKYWA8alqfBm51atceN4CAAWbF7fBAHAvUkphXLtnvpEm9favfXqlMbLYzWr87bdqnZbvOlSrlFH8f+39/0wVp4mDCPsYkAW/7lXr8LpggCgd2cLWwgA7k6o81trldzjPwoziWqf8mS+S9pXO2NUC1puVB0J/zpATvvf2vOUM0zDFPywiwFZ/OduvQqmCwKABZvXN0EAcHtCyX35b+55XA0cdPvytpGpQ2p1/wb17sYrnTOqDzVdM3sL3qhCT5T7lXGvabvHOabBiv2RuSaPfw7CrOdAMu57EIZN+t5LANC7s4UtBAC3A0C2ILyz4TIll7jJzV+CFM+o3iOX931/sEHJMw6yfXXx9/zMEnVrz5OJulvgs0Nb1Yc2f9lprkHG+sIddwbSsKlnRwTpM++Jqk4SACzYvL4JAkBUwo5mv+9ouFR9eddDauPIrkBF1FQQkEuxZDX2x5uvS5RB/VnzteqJwSYlwcUUC9P72TI+oC5quzNRXP0a5JrdL/niL09plBtn+W2H10dTh8xxJQDo3dnCFgKA6xNE3z8x32/0Pq3k+mobhia38ZUnBl68875E3IK2WJE6bcsNShak2XwyY7GgIN/zy5MCq3febfQhScUYxLlNzNzrrbDlTIicAYuzv7Str0Ph2BAALNi8vgkCQFTCtrvfUxuvmv2u+L7+9bNGIt+XFjMcL9u6/+Ne8+uGW5U8ae+zrbcl3vQLFaqTGy6ZDTQP7d5o/JHCpRhL+HhmaIu6oWut+vDmZak0OLk1dONYb0Gttk4MqqUd30lFICqkzXT8jQCgd2cLWwgAdo3a5qQ+pfEKJauu5UY8cvOYpR0PzprNiq7HVP7P0l0Pqqt3PaDk+1m5F8GpjVen0pBkEaMwy/L6atejx7DKZ+f138s6H5q9HfL5rbepjzQvw9gyR+feaVuuV5e3r1E3dH1PXdXxbXXG1hXwyeFjs27YbYsAYMHm9U0QAI4WIbvCp114owE0kHYNEAD07mxhCwEg7ROQ48eE0AAaiEsDBAALNq9vggAQl/Bpl6KLBtBA2jVAANC7s4UtBIC0T0COHxNCA2ggLg0QACzYvL4JAkBcwqddii4aQANp1wABQO/OFrYQANI+ATl+TAgNoIG4NEAAsGDz+iYIAHEJn3YpumgADaRdAwQAvTtb2EIASPsE5PgxITSABuLSAAHAgs3rmyAAxCV82qXoogE0kHYNEAD07mxhCwEg7ROQ48eE0AAaiEsDBAALNq9vggAQl/Bpl6KLBtBA2jVAANC7s4UtBIC0T0COHxNCA2ggLg0QACzYvL4JAkBcwqddii4aQANp1wABQO/OFrYQANI+ATl+TAgNoIG4NEAAsGDz+iYIAHEJn3YpumgADaRdAwQAvTtb2PKOTZf9AZMw7ZOQ42cOoAE0EIMG6qqvsWBzNKElsH7Rb1dmql9F/DGIP0Ob6A4NoIH0aqCirmqx1pvYYIdAZab6F0zC9E5Cxp6xRwNoIA4NzMvUfNaOy9GKlkBlpnosjsGnTYoOGkADaCDFGqir+YDWmNhgh8C8TPUmJmGKJyFfRSj0j/7RgH0NyBo0Oy5HK1oC8+qrVyJ+++KHOczRABpIsQYmtabEBnsEKusWn55iEfLpjzMAaAANoAH7Gvi+PZejJS2B49cv+t3KTPU/EwL4NIIG0AAaQAM2NFBRV3OB1pTYYJdAZV31szYGnTYoLmgADaCB1GvgF29pXvx7dl2O1rQEKjbV/CWTMvWTktOg9k+DwhzmqdNARX31U1ozYkM8BCozNbsJAYQANIAG0AAaiFADrx7fUP2eeFyOVrUE5mWqL4xw0FOXcmFJEUUDaAANvF4DFfXVG7UmxIYYCag3vLGirroNwb5esPCABxpAA2jAiAb+9cRNNe+I0eVouhiByk0Xvb8yU/3viN2I2Dnrwfe7aAANoIHXNFCRqb6rmP+wzQEC8zLVXyMAEADQABpAA2jAoAb6T2o85z85YHF0oSiB2trfqsxUNxoceBIwn4LQABpAA+nVwN+f0Hjh24r6DhvdITA3c9V/qcxUdxIC+ASABtAAGkADITTw/06or/mUO+5GTzwReNuPF/+PykzNYIiBJ/GnN/Ez9ow9GkADv6yoqz7Pk+HwIvcI/Mn6Rb8/r76qhRDAJwA0gAbQABrwoYF/4JO/e57uv0etC940L1NTW5mp/rWPwSf9k/7RABpAA+nUQP/xm2pO8m82vMNZApX1NedW1ldPEwL4FIAG0AAaQAPHaqDqXyrrqu581/pFb3bWyOhYcALy5MCKTNVtlXXV/3js4DMhYIIG0AAaSKEGXq3MVP1kfsOSk4O7C+9MDIGTGqv/sKK+6qaKTPX+FIqd05rpPK3JuDPuaOD1Gvinykz1ExV1XzwlMeZFR80SmNew+KOVmapVlZma9spM1b8QCPgEhAbQABooWw2Mz6urebQiU/0FOSNs1k3YW7IJrF/02xX1VfNPzFSfWVFftagiU31lRX3VVfzAAA2gATSQPA1UZqqrTqiv+fS8hqr3yf1hkm1Q9B4CEIAABCAAAQhAAAIQgAAEIAABCEAAAhCAAAQgAAEIQAACEIAABCAAAQhAAAIQgAAEIAABCEAAAhCAAAQgAAEIQAACEIAABCAAAQhAAAIQgAAEIAABCEAAAhCAAAQgAAEIQAACEIAABCAAAQhAAAIQgAAEIAABCEAAAhCAAAQgAAEIQAACEIAABCAAAQhAAAIQgAAEIAABCEAAAhCAAAQgAAEIQAACEIAABCAAAQhAAAIQgAAEIAABCEAAAhCAAAQgAAEIQAACEIAABCAAAQhAAAIQgAAEIAABCEAAAhCAAAQgAAEIQAACEIAABCAAAQhAAAIQgAAEIAABCEAAAhCAAAQgAAEIQAACEIAABCAAAQhAAAIQgAAEIAABCEAAAhCAAAQgAAEIQAACEIAABCAAAQhAAAIQgAAEIAABCEAAAhCAAAQgAAEIQAACEIAABCAAAQhAAAIQgAAEIAABCEAAAhCAAAQgAAEIQAACEIAABCAAAQhAAAIQgAAEIAABCEAAAhCAAAQgAAEIQAACEIAABCAAAQhAAAIQgAAEIAABCEAAAhCAAAQgAAEIQAACEIAABNJO4P8DnFvEshlYpKAAAAAASUVORK5CYII=;" parent="1" vertex="1">
          <mxGeometry x="143" y="402" width="32" height="32" as="geometry" />
        </mxCell>
        <mxCell id="ejDFjRWyY2k5rN37OPCX-27" value="" style="shape=image;verticalLabelPosition=bottom;labelBackgroundColor=default;verticalAlign=top;aspect=fixed;imageAspect=0;image=data:image/png,iVBORw0KGgoAAAANSUhEUgAAAgAAAAIACAYAAAD0eNT6AAAAAXNSR0IArs4c6QAAIABJREFUeAHtnQl0HdWd5pPudGZ6ejsz0z3BDkjGISQdErInnY12Y5qloZOQxEAk2ewQExMMZAyBJMhmx8QhQIgJW1hiiA2JrafFkhdZlqxdtiVZm2VL2CI9pzuTXqYzmV4S7vRf5sWP53ffq+XWrVuvfpyjI6x6r+6t3/3u//tevVtVb3gD/0EAAhCAAAQgAAEIQAACEIAABCAAAQhAAAIQgAAEIAABCEAAAhCAAAQgAAEIQAACEIAABCAAAQhAAAIQgAAEIAABCEAAAhCAAAQgAAEIQAACEIAABCAAAQhAAAIQgAAEIAABCEAAAhCAAAQgAAEIQAACEIAABCAAAQhAAAIQgAAEIAABCEAAAhCAAAQgAAEIQAACEIAABCAAAQhAAAIQgAAEIAABCEAAAhCAAAQgAAEIQAACEIAABCAAAQhAAAIQgAAEIAABCEAAAhCAAAQgAAEIQAACEIAABCAAAQhAAAIQgAAEIAABCEAAAhCAAAQgAAEIQAACEIAABCAAAQhAAAIQgAAEIAABCEAAAhCAAAQgAAEIQAACEIAABCAAAQhAAAIQgAAEIAABCEAAAhCAAAQgAAEIQAACEIAABCAAAQhAAAIQgAAEIAABCEAAAhCAAAQgAAEIQAACEIAABCAAAQhAAAIQgAAEIAABCEAAAhCAAAQgAAEIQAACEIAABCAAAQhAAAIQgAAEIAABCEAAAhCAAAQgAAEIQAACEIAABCAAAQhAAAIQgAAEIOAigZmZmd8dOnTov/IDAzRgXwP9/Qf/yMW6QJ8gAIEyIaCU+q2xgzPvGZ+e+cr4yzPPjk/P9I5Pz/zd+PTMr8enZxQ/MEAD8Wigc3BMbdrR82rjzv5fbO8Z3Ng2OHhimZQdDgMCEIiTwPjUT98xNj1z9/j0zCEKfDwFHu5wL6YBCQA/2db1m5+6HT2/3t4/eFecdYO2IQCBBBMYffmnH5iYnnmJT/iYTzHzYVv8+sgPABIGNm7vUtt7Bh9JcAmi6xCAgG0CY6+88t8npmcexfjjL+yYK2PgRQOFAkD2jMDO/uFrbdcQ2oMABBJIYPzlV/5ifHrmp16KDq/BnNCAGxooFgDk64CtA8OnJrAc0WUIQMAWgbHpV77Gp343CjrGyjj40UCxACBnApo6+n7e39//O7ZqCe1AAAIJIaCUeuPE1Cv3+yk4vBaDQgPuaKBUAJAQsK17b0tCShLdhAAEbBEYn555gGLuTjFnLBgLvxrwEgA2bu9Wbf0jN9qqK7QDAQg4TmB86vA3/BYbXo9BoQG3NOAlAMhZgMyOnl9t7x05xfGyRPcgAIGoCYxNHz6L7/zdKuQYK+MRRANeA8CR9QD9fz8yMvLmqOsL+4cABBwlMDw19Zbx6Zm/DVJseA8mhQbc0oCfAMB6AEeLMt2CgC0CY9OHn6aIu1XEGQ/GI6gG/AYA1gPYqrS0AwHHCIy9/MrHxqdnXg1abHgfRoUG3NKA3wDAegDHijLdgYAtAuPTM00UcLcKOOPBeITRQJAAwHoAWxWXdiDgCIGJqVfey6d/zCaM2fBe9/QTNACwHsCRwkw3IGCDwMTLMw9RwN0r4IwJYxJGA2ECAOsBbFRe2oBAzATkVqDj0zN/F6bQ8F6MCg24p4EwAYD1ADEXZpqHgA0CEwcPfZLi7V7xZkwYk7AaCBsAWA9gowLTBgRiJDA+dfjrYQsN78es0IB7GjARAFgPEGNxpmkIRE1g4uWZDMXbveLNmDAmYTVgKgDIeoDWvn3Lo65F7B8CELBMYHx6Zn/YQsP7MSs04J4GTAUAOQtQt6Pn11sHhk+1XJ5oDgIQiIqAUuq3xqdn/o3i7V7xZkwYk7AaMBkAjqwH6Pu5LBqOqh6xXwhAwCKBycnJPwxbZHg/RoUG3NSA6QDAegCLxZmmIBA1gfHDh+dSvN0s3owL4xJWA1EEANYDRF2V2T8ELBEYnfqbyrBFhvdjVGjATQ1EEQBYD2CpONMMBKImQABws3BjqIyLCQ1EFQCOrAfo//uRkZE3R12j2D8EIBARAQIARmPCaNiHmzqKMgCwHiCiosxuIWCLAAHAzcKNoTIuJjQQdQDgeQG2KjXtQCACAgQAjMaE0bAPN3UUdQBgPUAERZldQsAWAQKAm4UbQ2VcTGjARgBgPYCtak07EDBMgACA0ZgwGvbhpo5sBQDWAxguzOwOAjYIEADcLNwYKuNiQgM2AwDrAWxUbNqAgEECBACMxoTRsA83dWQzALAewGBhZlcQsEGAAOBm4cZQGRcTGrAdAFgPYKNq0wYEDBEgAGA0JoyGfbipozgCAOsBDBVndgOBqAkQANws3Bgq42JCA3EFANYDRF252T8EDBAgAGA0JoyGfbipo7gCAOsBDBRndgGBqAkQANws3Bgq42JCA3EGANYDRF292T8EQhIgAGA0JoyGfbipo7gDAOsBQhZo3g6BKAkQANws3Bgq42JCAy4EANYDRFnB2TcEQhAgAGA0JoyGfbipIxcCAOsBQhRo3gqBKAkQANws3Bgq42JCA64EANYDRFnF2TcEAhIgAGA0JoyGfbipI5cCAOsBAhZp3gaBqAgQANws3Bgq42JCA64FANYDRFXJ2S8EAhAgAGA0JoyGfbipI9cCAOsBAhRp3gKBqAgQANws3Bgq42JCAy4GANYDRFXN2S8EfBIgAGA0JoyGfbipI1cDAOsBfBZqXg6BKAgQANws3Bgq42JCAy4HANYDRFHR2ScEfBAgAGA0JoyGfbipI5cDAOsBfBRqXgqBKAgQANws3Bgq42JCA64HANYDRFHV2ScEPBIgAGA0JoyGfbipoyQEANYDeCzWvAwCpgkQANws3Bgq42JCA0kJAKwHMF3Z2R8EPBAgAGA0JoyGfbipo6QEANYDeCjWvAQCpgkQANws3Bgq42JCA0kKABICNnfs/nlrq3qT6TrH/iAAgQIECAAYjQmjYR9u6ihpAWB2PUDP3uYCpYo/QQACpgkQANws3Bgq42JCA0kMAKwHMF3l2R8ENAQIABiNCaNhH27qKIkBgPUAmmLNnyFgmgABwM3CjaEyLiY0kNQAwHoA05We/UGgAAECAEZjwmjYh5s6SnIAYD1AgYLNnyBgkgABwM3CjaEyLiY0kPQAwHoAk9WefUEgjwABAKMxYTTsw00dJT0AsB4gr2DzTwiYJEAAcLNwY6iMiwkNlEMAYD2AyYrPviCQQ4AAgNGYMBr24aaOyiUAsB4gp2jzvxAwRYAA4GbhxlAZFxMaKKcAwHoAU1Wf/UDgNQIEAIzGhNGwDzd1VE4BgPUA2BYEDBMgALhZuDFUxsWEBsotALAewLABsLt0EyAAYDQmjIZ9uKmjcgwArAdIt2dx9AYJEADcLNwYKuNiQgPlGgBYD2DQBNhVegkQADAaE0bDPtzUUbkGANYDpNezOHKDBAgAbhZuDJVxMaGBcg4ArAcwaATsKp0ECAAYjQmjYR9u6qjcAwDrAdLpWxy1IQIEADcLN4bKuJjQQBoCAOsBDJkBu0kfAQIARmPCaNiHmzpKQwBgPUD6fIsjNkSAAOBm4cZQGRcTGkhLAGA9gCFDYDfpIkAAwGhMGA37cFNHaQoArAdIl3dxtAYIEADcLNwYKuNiQgNpCwCsBzBgCuwiPQQIABiNCaNhH27qKG0BgPUA6fEujtQAAQKAm4UbQ2VcTGggjQGA9QAGjIFdpIMAAQCjMWE07MNNHaU1ALAeIB3+xVGGJEAAcLNwY6iMiwkNdA2OKTHDdP50q/b+0etClkjeDoHyJUAAwGhMGA37cFNH3UPjKTX/I6GnbkfPr7cODJ9avhWcI4NACAIEADcLN4bKuJjQQO/wRKoDAOsBQpgDby1/AgQAjMaE0bAPN3U0MHog9QGA9QDl72McYUACBAA3CzeGyriY0MDw5MsEgG1divsDBDQI3lbeBAgAGI0Jo2EfbupobGpGbWztJgRs61KZHb2/2r537ynlXdE5Ogj4IEAAcLNwY6iMiykNtHTuJgC8diXE5o7dP29tVW/yUSJ5KQTKlwABAKMxZTTsx00t7do9QgDIuRRyW8/e5vKt6BwZBHwQIAC4WbQxU8bFlAaG9k8TAHICAOsBfBgELy1vAgQAjMaU0bAfd7XU1N5PCMgJAdwfoLx9jaPzSIAA4G7RxlAZG1MaSPsNgQrdCZH1AB5NgpeVLwECACZjymTYj7taGpueUZm2Ps4C5JwF4P4A5etrHJlHAgQAd4s2hsrYmNQAZwEKPROB5wV4tApeVo4ECACYjEmTYV/u6knuCbC5Y4CzAHlnAVgPUI7OxjF5IkAAcLdgY6aMjWkNDE5MqU3buTFQ/pqA5l0D/5v7A3iyDF5UTgQIAJiMaZNhf25rqjvVjwgu9DXAkb9xf4BycjaOxRMBAoC+WA8enFLbJvaozGg3P44yaBrrVd2TY2ps+rAieOi1nM9mR98QXwXkfRXwk22sB/BkGryofAgQAF5fNIemptXd/c+rhVtXqMpMNT8JYfCepivVFR1rVMv4AEFg+vWazjd/+ffY1GG1rXuQEJAXAnheQPl4G0figQAB4GixlE+Tf9Z8LaafENMvFNDmZ5aor/f8gDMCHkPAjl7OBOSvB+D+AB6Mg5eUBwECwJEA0DjWq97ZcBnmn2Dzzw0EX9n1Xc4EeAgBcjagfffI7ONy840wzf9mPUB5+BtHUYIAAWBGyXf9H21ehvmXiflng8DavfWEAI8hYPfoAZVp6+UrgZyvBNoGRi8sUT7ZDIFkEyAAzKg7+9Zh/mVm/hICPtK8TI1MHyIEeAwBo1OHVFv/sNqYY4JpPguwuWPgZ8mu7vQeAiUIEABm1IKWGwkAZRgAJAQ8P9xKAPAYALKLBYcnX1ZylQD3C+hS3QNDHyxRQtkMgeQSSHsA6D+wH/MvU/OXAHBrz5MEAJ8BIBsERg8eUl1D46q5c7fauF1//Xw5nyVo7Rv6dnKrOz2HQAkCaQ8AzWMDBIAyDgBX73qAABAwAGSDgPweO3hYDYxOqs49Y6q1d0i1dO5Rzbt2q6aO/rL+2Tkw/EyJEspmCCSXQNoDwI6JIQJAGQcArgY4eplrrqHz/964TEzP3Jzc6k7PIVCCQNoDwPDUtHp7/cWEgDINAXJTJ8zOm9nB6VhOBIASBsLmZBNIewCQonfBjtsJAGUaAORWzhjbscYGE29MCADJ9jd6X4IAAWBGbdjXRgAowwBw4Y47MX8D3/+nOSwQAEoYCJuTTYAAcOSTwKXt9xMCyigEnNJ4+eyDnNJsXhy7t0/5xTgRAJLtb/S+BAECwJEiIXcD/EzrNwkBZRAC5JbO6/Zt59M/n/5Da4AAUMJA2JxsAgSAo58S5K5xN3U/zqLABIeAc7bdojaP94cu/MU+FbLt6JwpdxYEgGT7G70vQYAAcGwx27V/RN3d/4Kqartbnb3tFnXG1hX8OMzgc60r1fLOR9SP9u3A+PnUb1QDBIASBsLmZBMgABwbAMr9Uw3Hx5ijAW8aIAAk29/ofQkCBABvhYCCCSc0kD4NEABKGAibk02AAJC+ooaRMeZowJsGCADJ9jd6X4IAAcBbIaBgwgkNpE8DBIASBsLmZBMgAKSvqGFkjDka8KYBAkCy/Y3elyBAAPBWCCiYcEID6dMAAaCEgbA52QQIAOkrahgZY44GvGmAAJBsf6P3JQgQALwVAgomnNBA+jRAAChhIGxONgECQPqKGkbGmKMBbxogACTb3+h9CQIEAG+FgIIJJzSQPg0QAEoYCJuTTYAAkL6ihpEx5mjAmwYIAMn2N3pfggABwFshoGDCCQ2kTwMEgBIGwuZkEyAApK+oYWSMORrwpgECQLL9jd6XIEAA8FYIKJhwQgPp0wABoISBsDnZBAgA6StqGBljjga8aYAAkGx/o/clCBAAvBUCCiac0ED6NEAAKGEgbE42AQJA+ooaRsaYowFvGiAAJNvf6H0JAgQAb4WAggknNJA+DRAAShgIm5NNgACQvqKGkTHmaMCbBggAyfY3el+CAAHAWyGgYMIJDaRPAwSAEgbC5mQTIACkr6hhZIw5GvCmAQJAsv2N3pcgQADwVggomHBCA+nTAAGghIGwOdkECADpK2oYGWOOBrxpgACQbH+j9yUIEAC8FQIKJpzQQPo0QAAoYSBsTjYBAkD6ihpGxpijAW8aIAAk29/ofQkCBABvhYCCCSc0kD4NEABKGAibk02AAJC+ooaRMeZowJsGCADJ9jd6X4IAAcBbIaBgwgkNpE8DBIASBsLmZBMgAKSvqGFkjDka8KYBAkCy/Y3elyBAAPBWCCiYcEID6dMAAaCEgbA52QQIAOkrahgZY44GvGmAAJBsf6P3JQgQAPSFoHNyVNWPdqsMPzAoYw1sn9irRqYPKULBsbWAAFDCQNicbAIEgNdP+j0HD6hbe55SH2v+iqrMVPMDg1Ro4F0Nl6tL2+9XzWMDBIHpozWBAJBsf6P3JQgQAI5O9o0ju9T7m76UioJPuCHcFdLA/PrFamXvs2ps+jBBYHpGEQBKGAibk02AAHAkAGwc7VQnN1yC+fOJHw1kqtVN3Y8TAAgAyTY3el+aAAFgRslp/w9uXkrhx/zRwGsamJepUc8Nb0t9COAMQGkP4RUJJkAAmFG1vc9Q+DF/NJCngQVbvkoAmJ65OcHlna5DoDgBAsCM+mTL9RT/vOJf6Pth/pa+dQONY72pDgGcASjuH2xNOIG0B4C+AxOYP+aPBjQaWN2/gQCQ8BpP9yGgJZD2ANA81k/x1xR/PvGn7xN//pjf3JPuxYCcAdBaBxvKgUDaA0DbxBABgACABjQakEsC03yDIAJAObgcx6AlkPYAsG/qZS7/0xT//E+D/Dt9ZwQeG2wkAGirJxsgkHACaQ8A8unmi2138gmQEIAG8jRwUv0StfvgAQJAwms83YeAlgABYEbJTYDkumc+4abvEy5jrh/z5Z2PpNr85cMBXwForYMN5UCAAHDkToBLOx4kAOR9AsQc9eZY7mw+2rxMyRUyaf7+nwBQDg7HMRQlQAA4EgBkLcBFfBVACCIEqQ81XcNDgV57IBBnAIraBxuTToAAcPRhQKNTh9WqvueUPBmt3D/hcXzp/XSvG3v5GmzJzntV1+RY6j/5Z898EACS7nD0vygBAsDRAJCd9P0H9quH92xUV3V8W31hxyp1/vZafmBQthq4pH21Wtn7jNoyzqOAszUg+5sAUNQ+2Jh0AgSAYwNAdvLzGzZoIN0aIAAk3eHof1ECBIB0FzgMjvFHA3oNEACK2gcbk06AAKCf/BRG2KCBdGuAAJB0h6P/RQkQANJd4DA4xh8N6DVAAChqH2xMOgECgH7yUxhhgwbSrQECQNIdjv4XJUAASHeBw+AYfzSg1wABoKh9sDHpBAgA+slPYYQNGki3BggASXc4+l+UAAEg3QUOg2P80YBeAwSAovbBxqQTIADoJz+FETZoIN0aIAAk3eHof1ECBIB0FzgMjvFHA3oNEACK2gcbk06AAKCf/BRG2KCBdGuAAJB0h6P/RQkQANJd4DA4xh8N6DVAAChqH2xMOgECgH7yUxhhgwbSrQECQNIdjv4XJUAASHeBw+AYfzSg1wABoKh9sDHpBAgA+slPYYQNGki3BggASXc4+l+UAAEg3QUOg2P80YBeAwSAovbBxqQTIADoJz+FETZoIN0aIAAk3eHof1ECBIB0FzgMjvFHA3oNEACK2gcbk06AAKCf/BRG2KCBdGuAAJB0h6P/RQkQANJd4DA4xh8N6DVAAChqH2xMOgECgH7yUxhhgwbSrQECQNIdjv4XJUAASHeBw+AYfzSg1wABoKh9sDHpBAgA+slPYYQNGki3BggASXc4+l+UAAEg3QUOg2P80YBeAwSAovbBxqQTIADoJz+FETZoIN0aIAAk3eHof1ECBIB0FzgMjvFHA3oNEACK2gcbk06AAKCf/BRG2KCBdGuAAJB0h6P/RQkQANJd4DA4xh8N6DVAAChqH2xMOgECgH7yUxhhgwbSrQECQNIdjv4XJUAASHeBw+AYfzSg1wABoKh9sDHpBAgA+slPYYQNGki3BggASXc4+l+UAAGgcIEbnTqstowPqPX72tS6fdv5gUHZaqB+tFvtOXhAEXaOrQUEgKL2wcakEyAAvH7S9xwYU9d3rVXvbbpaVWaq+YFBKjRwUv0SdcGOO9Sm0U6CwPTRmkAASLrD0f+iBAgARyf788Ot6t2NV6ai4BNuCHeFNDAvU6NWdD+m5AwYZwRmFAGgqH2wMekECABHAoCc6p+fWYz584kfDWSq1Vd2fZcAME0ASLq/0f8SBAgAM6r/wKQ6tZFT/oU+EfK39J4peGJwc+pDAGcAShgIm5NNgAAwo27teZJPfXzyRwN5GvhEy3I1Np3urwIIAMn2N3pfggABYEZ9rPk6in9e8eeTf3o/+eeOfWa0O9VnAQgAJQyEzckmkPYA0HNgHPPH/NGARgP3DvyIAJDsEk/vIaAnkPYA0DzWT/HXFP/cT4L8fzrPCNzU/TgBQF8+2QKBZBNIewBo3z9MACAAoAGNBlb1PUcASHaJp/cQ0BNIewAYmT6k3tlwGQagMQA++afzk3923J8cbCYA6MsnWyCQbAJpDwBys5MlO+8lABAA0ECeBk5uuETtPXiQAJDsEk/vIaAnQACYUY1jverE+hoMIM8Asp8C+Z3OswByR8C03w2QqwD03sGWMiBAADhyJ8Abur5HACAAoIHXNPCpluU8IIg7AZaBw3EIRQkQAI4EgJGpQ+ry9m9hAISA1GtA7ovROjGY+k//cvaDMwBF7YONSSdAADj6MCCZ8Gt2v8iTAAkBqQwB8zNL1NKOB1X/gf2Y/2tPBCQAJN3hEtj/t6w+8/fesuqM98ypPf2041aefs5xK09fFNXP6Y8svTTt3/PlH//gwSklq5/la4GL2+9Ti9vu5QcGZauBa3Y9pFb3b1Dtk/sw/pxHAXMGIIHmmcQuH1e7YN7c2tOXzalduGFO7cLDc2oXKls/J6w685V8A+Tfrz8rAA94oIF0aoAzAEl01AT0+V21i9583MqFF8+pXdg+p3bhq7YMP7+dE1ad9VOKWzqLG+POuKOB4hogACTATBPVxfWLfvu4lWcstf1JP9/4s/+uWHX231AEihcB+MAHDaRTAwSARLmr2519y6q/+Oic2oV7subrwu/KVWf/L4pbOosb4864o4HiGiAAuO2pSendG+esXHjd3NqF/+aC6ef2Yd7t5/wtRaB4EYAPfNBAOjVAAEiKxTraz3m1C/7znNqFP841XZf+f/4d5/6M4pbO4sa4M+5ooLgGCACOGmsSuvXH937iD+bULmx1yfDz+3LSnef9nCJQvAjABz5oIJ0aIAAkwWld7OOjH/ydObULN+cbrmv/fvtdn/5Hils6ixvjzrijgeIaIAC4aK4J6NOc2oWPumb2hfrzzrs/838oAsWLAHzggwbSqQECQALM1rUuzl15xmcKma2Lfzvlns/9kuKWzuLGuDPuaKC4BggArrmr4/2ZW7vgj+fUnv53Lpp9oT69574v/BtFoHgRgA980EA6NUAAcNxwXevecbVnPFTIaF3923tXX/Brils6ixvjzrijgeIaIAC45rAO9+f42gUnuXitf7Hw8b7VF/IAkLwHgFAUixdF+MAnLRogADhsuK51bU7twrXFzNbFbQQAinlaijnHidb9aoAA4JrLOtqf42vP+m9zblv4CxdNvlifCAAURb9FkdejmbRogADgqOG61q25K8+4tpjRurqNAEAxT0sx5zjRul8NEABcc1pH+3Nc7cJOV02+WL8IABRFv0WR16OZtGiAAOCo4brUrT+pXXDcnNqFrxYzWle3EQAo5mkp5hwnWverAQKAS07raF/mrjz9i64afKl+EQAoin6LIq9HM2nRAAHAUdN1qVtza09/pJTRurqdAEAxT0sx5zjRul8NEABcclpH+zKnduFOVw2+VL8IABRFv0WR16OZtGiAAOCo6brUrTm1C/+2lNG6up0AQDFPSzHnONG6Xw0QAFxyWjf78sY5tQt/5arBl+oXAYCi6Lco8no0kxYNEADcNF1nevWW1Wf+XimTdXk7AYBinpZiznGidb8aIAA4Y7WOdqR2wZuSegmgBBMCAEXRb1Hk9WgmLRogADjquy51K4m3AM6elSAAUMzTUsw5TrTuVwMEAJec1sW+qDfIGoBDWUNN2m8CAEXRb1Hk9WgmLRogALhoug71af6WRX80976zDyfN+LP9JQBQzNNSzDlOtO5XAwQAh8zWxa5IADj+e59WWUNN2m8CAEXRb1Hk9WgmLRogALjoug71SQLACc98ngAwTVFMS1HkONF6WjRAAHDIbF3sigSAio1Vau7KMxIZAjgDQDFPSzHnONG6Xw0QAFx0XYf6JAGgMlOt3vqtcwgAnAVQfgsMr8eU0IC7GiAAOGS2LnYlGwBOePpzBAACAAEADaCBMtIAAcBF13WoT9kAUFlXpebe8ZeJCwF8BeDupw8+GTI2aCBeDRAAHDJbF7vymwCQqVbHP/ZZAkAZpX+Kb7zFF/7wj1sDBAAXXdehPuUGgNmzAHcm6ywAZwAosnEXWdpHg65qgADgkNm62JXXBYBMtUraJYEEAIqvq8WXfqHNuDVAAHDRdR3qU34AmL0i4DvnJuarAAIARTbuIkv7aNBVDRAAHDJbF7tSKABUbvyimnP3mYkIAQQAiq+rxZd+oc24NUAAcNF1HepTwQCQqVYVGy5Uc253fz0AAYAiG3eRpX006KoGCAAOma2LXdEFAPkqoGL9hWrOHW7fIZAAQPF1tfjSL7QZtwYIAC66rkN9KhYAsiFgrsNXBhAAKLJxF1naR4OuaoAA4JDZutiVUgFAQkDlSxept64+28k1AQQAiq+rxZd+oc24NUAAcNF1HeqTpwAgXwfUVanj135azVm50KkgQACgyMZdZGkfDbqqAQKAQ2brYle8BoAzm+twAAAgAElEQVTZMwGvrQtw6cFB71t9Afcu5+6FaAANoIECGiAAuOi6DvXJbwD4TRBYt0jNdeAJgu++9/P/6mr6pl98MkQDaCBODRAAHDJbF7sSNAD8Jgi8dJE6/vufVXPvP1vNXWn/ioG33/Xpf4xzgtE2BR4NoAFXNUAAcNF1HepT2ACQDQKzvzdVqRNeWKRO+MH56vhHP6OOf+Sv1Vu/e96xPw+f9+9vfeDcQ3PXnLNn7upzOuauPmtn0J+3P/S5ttv6nhm9t/9H/7Bm94uKHxigATSQdg2sHlj/y1X9z01X7bzrkYr6qqsC/9RVLa6sq/l8RaZ64fyGJSd/sP+q33HIvuhKWAJGA4BcMcAPDNAAGkAD5aqBf6/M1AzOy1R/p6Ku+rx3rV/05rAexPtjJEAAILQQ2tAAGkADATXw88pM9cPHb6o5KUYbo+mgBAgATPyAE79cP+FwXHx6RwP+NfCrykzN85V1i08M6kW8LwYCBAACAAEADaABNGBIA7+srK/5xhtaF7wpBjujSb8ECABMfEMTn09N/j81wQxmZamBeZnq3or6qvl+/YjXWyZAACAAEADQABpAAxFo4GcnZqo+YtnSaM4PAQIAEz+CiV+Wn2rgxFxBA7418M8V9VVn+PEkXmuRAAHAt6AxN07bogE0gAa8a+D/VtbXfNyirdGUVwIEAAIAn2rQABpAAxFr4GfzfnLRPK++xOssESAAMPEjnvh8UvL+SQlWsCpbDcjCQG4cZMnYvTZDACAAEADQABpAAzY0MK++eqVXb+J1FggQAJj4NiY+baAzNIAGKjNV/yLPFLBgbTThhQABgElJYUYDaAAN2NNA1YtevInXWCBAAGDi25v4sIY1GkAD1a9W1H3xFAv2RhOlCBAAKEgUJDSABtCAXQ1UPVbKm9hugQABgIlvd+LDG95oAA1U/9Px6xf9rgWLo4liBAgAFCOKERpAA2jAugbqaj5fzJvYZoEAAYCJb33ic6132V7rjZaoJ141UFFfvdaCxdFEMQIEACas1wnL69AKGkAD5jRQNVHMm9hmgQABgAltbkLDEpZoAA141sCrf7J+0e9bsDma0BEgAHgWK6dtOXWPBtAAGjCpgU0XvV/nTfzdAgECAAGATyxoAA2ggTg0MC9T81kLNkcTOgIEACZ+HBOfNtEdGkADFXVVi3XexN8tECAAMAkpxGgADaCBODQwr75qqQWbowkdAQIAEz+OiU+b6A4NoIHKTM0ynTfxdwsECABMQgoxGkADaCAeDRAALNi8vgkCABM/nokPd7ijATRAANC7s4UtBACKEEUIDaABNBCPBggAFmxe3wQBgIkfz8SHO9zRABogAOjd2cIWAgBFiCKEBtAAGohHAwQACzavb4IAwMSPZ+LDHe5oAA0QAPTubGELAYAiRBFCA2gADcSjAQKABZvXN0EAYOLHM/HhDnc0gAYIAHp3trCFAEARogihATSABuLRAAHAgs3rmyAAMPHjmfhwhzsaQAMEAL07W9hCAKAIUYTQABpAA/FogABgweb1TRAAmPjxTHy4wx0NoAECgN6dLWwhAFCEKEJoAA2ggXg0QACwYPP6JggATPx4Jj7c4Y4G0AABQO/OFrYQAMq3CJ3ccIla0HKj+mzrbeqiHXeoi9vvU0s7Hiz4c/WuB9TitnvV+a23qdO2XK/e2XCZSmNxEmZ/seWr6ottd6rLdt5fkJWOYam/X9Xx7VnG5267VZ3aeLVTfN/f9CVV1Xa3WtrxHbVk573qtC03ONW/qLX4Z83Xqqq2u2bHW47/Y81fSdXxR81Xv38CgAWb1zdBACiPACCGfcGOO9SdfevUuuFWtXP/kBqbPqzGp2cC/7RNDKmnhlrU17qfUOdsu0XNzywpu6L4tvol6qK2O9Xq/g2qeWwgNDM/vHsOjKnH9zapZZ0Pqfc1xRMI/nr7N9SGkZ0Fj3vbxB51Rfu31In1NWU37llDumDH7aputLvgHGka61U1bfeU7bFnGcT7mwCgd2cLWwgAyQ0AH968bNacN452qpGplwsWMT+GVOq1ew4eUGv31M9+Unp7/cWJLozyie++/vWq78BE5NxKcZXtI1OH1HPD29QXdqxS8zLRG66Y+sreZwoaf35/nx5qKbszQvMzi9Wa3S96GvtH9tSppOs9XpMvVmMJABZsXt8EAaCYON3bJoXoio41av2+NjU6Fe4Tfn6h9/PvngPjalXfc+qjzcsSFQQ+1HSNkoIuhuvneG2+tmGsZ/armCiLdm3vM76Of92+7WV1Bsir+WfHXc7U2AhmUY65m/smAOjd2cIWAoB7Jl9oor6j4VK1vPMR1bF/xFfhzhawqH5LCPn+YIP6ePN1TgcB+cR7Y9ejau/Bg07xKzYuYjrvjeCrAVmDEOTrIeFXSJtJ+5t85VOMu26bfB2StGN1v78EAAs2r2+CAOB2AJBTlf+z6/uqd9KNU9W64jgyfUjd1bdO/amDiwfFROX0uq7vLv9d1gl8vnWlUeN5frg1EAvRYNIXh8qnePluP8iYy5oYzgKYrpcEAL07W9hCADAtaHP7kwVasjAtSLGK6z1dk2Ozq8ld+eTxqZblqn3/cKIY5o+dfF3x5V0PGQkBEobCfP0hVwm4MrZB+nHetq+H0sJZW29O9PEHYRbtewgAFmxe3wQBwJxhm5oo8inr4T0bA52mzTePuP4t/Y/7bMBfblnh/JkTP+NzS/cToc3nc60rQxngptGu0H0wNU+C7EfWf/hhnv/aawwFsSB9L8/3EAD07mxhCwHArQAg1+A3j/WHKlL5RSuuf8tlZHI8cRSujzVfp7onx8qCY+74Xd+1NhTPS9vvD81k4dYVofoQhx6kzfc0XamGpqZDHf+tPU8m8tjjYl66XQKABZvXN0EAcCcAyI1kwhaoXLNw4f8HDk5GvqI9v8hIoZf7ILhw/Kb7IIsuZRFb/jF7/bdc9x62T98a2BC4fa/9jOJ1N3R9L/SxX9f5SCKPPQqeZvZJANC7s4UtBAA3AsCKrsdCF6ewhT2q9++benn27nJmCkbx8ZJFWk8NNpctSxmj/gOT6iMBL7+UyyCDXAGQqw25H0QSFwOaWE9z3vZvEAAyxeegv3lOALBg8/omCAAmxex/X/Pr5YYkL5W1YYl5yMIzuRWxv+Lgn+fSXQ+WPUvhKfeBCLoivV5z57tcky/1/0lbDBh28Z/w6D+wX8lVOVFrOF37JwDo3dnCFgKAf5MxNUHl2vS1e+tTYVhSQOVSQTkFbYpf/n7e3XilkhsUlTKvctl+SfvqQCyv3fVwaEZJWwwYdvGfaObu/hcC8c7XKf/OrbkEAAs2r2+CAJArRrv/L/efLxcz8nocgwenVFSLyO7pfyFVPNsn96mT6v0/n+FdDZcbuSFSVONo2iBNLP4Tff95S7oekGR6HArvjwCgd2cLWwgAdk0/Owlu7XkqVWaVGxDkunzTd7iTIp+ku/zl8gjz/1/qeCDQp9IHd28Mrb+kLAY0sfjvxZH2QJyz853fujpLALBg8/omCAA6YUb394t33he6+IYxDRfeK3fmC/oddqFiKpdnuXBctvuwZXwgkDGdve2W0LySshjQxOI/bgMcVT0kAOjd2cIWAkBUwi68X7k+XQqnLaOQtjKj3eqJwSb1nd0/UfcO/Eit7Hv2dT9y6vy7e+vUM0NbVONYb6g7xfk5LvkuupCZ+/2bBIntE3uNMt21f2SWWSFe+fy8/Fse0yyMZSzCrsLPZ3xmwLvTyUOH8vfl999Bz0D4HeOgrzez+G9SndxwiRGtBj2O8n0fAcCCzeubIAAUNuooJpw8yc/ECuxiRVouuZPL4OTWsZ9sCXYTHrnES25DvLL3WSXfMxdrL8w2WQ9g4mmCYoBh+pH73h+PdMweu8mzE/la+tDmLytZ/yGLInPbDvr/8gyG/Da8/DsNiwFZ/GevvnnR3LGvIQDo3dnCFgKAvQlye98PjRT8QkYhDyqRm5TId+HHTrLgxyiXKcrtYzeMtEfSdwkrYft7c8/jRvomj8iVKzPC9sfr+yVkmXjI0+bx/kB9LvfFgCz+Cz7vvWo4/OsIABZsXt8EAcDOJDltyw3GPvHlBoDOyVF1RccaK89qlzvQye19c9s38f8SMMIUknUBn26X2/c7+n4Yqg9B+3/Wtq+p4ZC3p5WvFE5tvDpQ/8t5MSCL/+zUtqDaP/I+AoDenS1sIQBEP0nkdPKGkZ1GjVOK/n3965V8igs3Af0d/zsaLp19UFGueYb9/02jnaGOIew9/5vG+5Sc6bDJMbctE2cwzt9eG6j/5bwYkMV//uZ2ribt/T8BwILN65sgAEQ/SeSGLWFNMvf9fQcm1IU7gt8P3sTkvqrj22pk6mVjx7Uo4A2CTmm8PHQfatruCWSeJjjKPiRUyV3mcsfY7/8v6wz+uOByXAzI4r/o65oZ/RMA9O5sYQsBINqJIp/+TT7dT77rlysJzEy+cMcuxmlqIVvQ66wXtNwYyjhlIaILK7y/tycT6jhkwWZQTZTjYkAW/4Wb20G15P99BAALNq9vggAQ7USp3nl3qMKe+0lQgsT7m74UuND7n5yl2SzZea+xy9rkdLTfPv7V9ltD8ZXL8vy2GcXrb+haG+o45OugoP0qt8WALP4rPW+DasX8+wgAene2sIUAEO1kqTPw4BUJAXI5nlw+Zn4Chj9+WUCXG1SC/r/cq8Dv8Z3feluotp8d2uq7Tb999PL6S9vvD3UcD+/ZGOo4ymkxIIv/ws9pL5o18xoCgAWb1zdBAIhusphYYCVmKjfz+VTL8lAF3sxkLcxKnpAm188HNf7s++RZ9x/cvNTXccoVBNn3B/n9g6HwlyGaYBv27pAP79nki1t+n01o1ZU7A7L4r/A8zR9zN/5NANC7s4UtBIDoJovcKz2IKeW/57Kd94cq7jYmujwoRR75m993v/9e3vk9X8caNgA8PdTiq72oWMYdAOS4ymExIIv/oqtn0WifAGDB5vVNEACimTDylLawK7vFPB8bbHTCoLxM/gcGfhw6AMjtcr20lX3NOSHvaf+jfTt8tZdt1/RvFwJAOSwGZPFfNPXMtN6P7o8AoHdnC1sIANFMmKq28Iv/5JTqh5quccKgjk5YPa8PbF6qhkLe1EZu6uOlrexrPtGyPFTokGcIZPcV52+5osLv2ZLc1z+0O9waADn2pC8GZPGffm7Gqe3ibRMALNi8vgkCQDSTZs3uF0MVdCnu8sjg4pMnmr6HafPbu8OdBfj+YIOvYz618arQnCW4hDlmE+89b1u4qxnCXAaY2/8kLwZk8Z979SBXW4X/nwCgd2cLWwgA0UyasE+nk2fbi7kVnjTR9NlEW/KJXBbz5X469fP/K7of83XMcge/sDckWtHlr00TnPL38e7GK0Mdh6nH1SZ5MSCL/9ytC/l6P/pvAoAFm9c3QQAwP2nktL0f0yv02jDXdR+dXOaPzcu+5QE/hY6p1N8kOEiA8NJG7mvkWv5S+y62XW4lbPuWyrn9z/7/C8M7Ah2H3IxJAkR2P2F/J3ExIIv/4pnrYbVWmSEA6N3ZwhYCgPmJY+LWv0Gf8R5+QobnISYe5AE3a/fUBzKxe/pfCGScuaEgaNsmecv9/HP75PX/7+5/PhA3Xd+TuBiQxX/h561OD9H+nQBgweb1TRAAzE+c23qeCVTIswXflYVpYSa+nFbPHo+X3+37hwN/5SF3I/TSRqnXyA2N5NbNYY477Hv9Xjoqd4c0ffYiaYsBWfxnvoaF1bH39xMA9O5sYQsBwPzkkUv3SplNse2ygND7BDLff1Ntf7P3aU+3CZbnGwQ59Z/t53ubrg71/XnuWDw11KLe1xTs0brZ/oT5LWsa1gx4W0Aqp+qjujtkkhYDsvjP3RpQei4QACzYvL4JAoD5ydM01hsqAFzcfl9ZBACZ/J9p/aaq13xHLw/iuatvnZHvr58MuO4g1/yz/y/9kq8V4rz7olxGum1iT0Ed9R+YVF/veUq9vf7iyHSSpMWALP4zX8NKG7epNgkAene2sIUAYErIR/cjK/izZhLk92lbboissNub2Ed5SJtyTFd2rFE3dT+ulnc+ouTxv/IYXFP9uWDH7aGY68Zpw8hOJffpj9JsizFYuHWFkkf9ytmU67vWqvNba631JQmLAVn89/p5VkxLbm4jAFiweX0TBACzE2h+ZkkoI5Lb6cZlNm4WCG/jI6fOZR2BzsjD/r13cmL2bEWcZwVsj08SFgOy+M/b/LCtHe/tEQD07mxhCwHA7AQ6pfGKUCYkl6R5nzxm+570duUMQ1ij9/J+uexwaceD6uSGS8p6rFxfDMjiv3KY/wQACzavb4IAYHYSyaIsLyaie005XAEQV5A4sb5GbRrtCsVfNy6F/i7fxcuCzQUtN5ZtEDCxGPD+gQ2R8GHxn9naFc+8JQDo3dnCFgKA2Ukkp4gLmYXXv8kCwngmolkOcR2DLF4bmw5+J0Kv45T/unI9K+DyYkAW/5XDnCUAWLB5fRMEALOTSBa75ZuDn3/Lwqu4zLNc2r2zb12oMfAzXvmvLcezAi4uBmTxn9m6Fd/cJwDo3dnCFgKA2YlEADDLM0hhkgWB64a3xxYCsqGgXM4KuLgYkMV/8c+zIHPz2PcQACzYvL4JAoDZiUQAMMvz2ILhbf9yc6AorwrImryX30m/gsC1xYAs/vM2B4LOHbvvIwDo3dnCFgKA2clEADDLM0wx+mjzMhX2qYxeDN7Pa5J6VsClxYAs/nNnjoWZn0feSwCwYPP6JggAZicTAcAsz7AF5v1NX1Kbx/tj/zogPyQkba2AS4sBWfzn1hwLN0cJAHp3trCFAGB2MhEAzPIMV1yO9EW+Dtiwr825EJANBXHfbdArYxcWA7L4z7355VU/hV9HALBg8/omCABmJxQBwCzPwkXDfxtyj4Cvdj0a6DHFWaOO+nfPgTG1ovtx9c6Gy5y8EsSFxYAs/vOvfVNzKJr9EAD07mxhCwHA7IQiAJjlabroyE17XtrX7uzZAAkZfQcm1C3dTzh3S+i4FwOy+M/tuRVsrhIALNi8vgkCgNlJRQAwyzNYUSndh3O33aqeHmpxOgi0jA+oM7aucOpsQJyLAVn8V1rXUc2X6PZLANC7s4UtBACzk4oAYJZndIXnSD8lCKzdU+/sVwMj04fUiu7H1LxMjRNBIM7FgCz+S9bc8jZ3CQAWbF7fBAHA7KQiAJjl6a2IhG/zlMbLZx/w4+IVA/K1gDxzQNYx2OJRrJ04FgOy+C+8xouNaXzbCAB6d7awhQBgdmIRAMzyjKMwyWl3MdzBg1NOfUWwdm+9mp9ZHHsIMLMYsNPXcbD4L/nzqvBcJgBYsHl9EwQAsxOLAGCWZ+GiYaeNUxuvUjd2Paq2TexxJgg8vGejL+OMgp/txYAs/rOj9yi0UnqfBAC9O1vYQgAwO7kIAGZ5li4gdtpz6azAtZ0Pxx4CbC4GZPGfHY3HM9cIABZsXt8EAcDs5CIAmOUZT1HSH4MLZwVkYeBfbb811hBw1ravhT4rsufgAU/3PDCx+O/y9m/Fyss1HbvTHwKA3p0tbCEA6It9kEnyqZbloQpj01gvhSpjdkyCjKOX98R5VkCecXBS/ZJYtWJjMSCL/5IxF7zMl8KvIQBYsHl9EwQAsxPsw5uXhQoAUtgLTxSz/aQNczzjuoLg+q61sWrFxmJAFv+Z06mbc54AoHdnC1sIAGYn2LsbrwwVALomx2It6m4WCbNjFNUxyrX6n97+TSWr9YenpkPpwMtth+WBQvKVRFTHU2q/US8GZPFfMnRfSifFtxMALNi8vgkCgNlJJpdpeSneuteMTB2K/dRu8Qlrlle5tmXrrMDXup+ILQDI2EW5GJDFf2mYawQAvTtb2EIAMD/Jwl4/ftqW62Mt6lGY8sebr1NX73pg9q52sor9/O216m0Rfof9wc1L1SXtq2cfALS883tq0Y7b1ckNl1jnGvVZgbaJoVhvEBTlYkAW/5mvTVHM7XD7JABYsHl9EwQA85Ms7N3kluy817pRhZvEeoZySnzTaGfBsyLy9LuVfc+qPzX49Lszt96knhvepsamDx/Tpqw6X9X3nKeV51HwOLXx6kjuK3B+a22seoliMSCL//RzKgptxrdPAoDenS1sIQCYn2iP7206xnx0p/wL/f1bAxtiLeimioE80a6QEecfs3yK/UTL8tDHvKLrMTUy9XJJ9nJjHzkjYeo4/e5HbukrIa9zcrRkX/NZFfq3nIb32weTr49iMSCL/8zXJZNjbm5fBAALNq9vggBgfqLV9j4TqrCLQZmbYOaPz0vf5A56hcxK97eO/SPqvU1XBz7um7of99Xezv1DodrzwqDUa+R4TXx6jlsvphcDsvgvnjlbSq/RbCcA6N3ZwhYCgPnJdmn7/b7MqJApuvYYWD+TX+6F4OWTeP5xPzbYGCgALNy6IlB7391bF6g9PyxKvfZ9TVerXftHQulFzrKECU+l+uhlu8nFgCz+M1+TvIxhPK8hAFiweX0TBADzk+1Dm78cqqCLMd7T/0Ls5hS0IIiR55u7l3+LkQVZABn0KxdpT8Yq6HGaet/FO+8LxCuX6UU77oj1OEwuBmTxn/maZEqr5vdDANC7s4UtBIBoJpvc0Ce3QPv9/90HDyi5lMz8hIvmeLP9/FjzV5Rcyuj3eLOvv7nncV/H/I6GS9VQiGvur+t8xFd72eM0+VvWBMg6iCyDIL9deD6A3MUySN9z3/Pwnk2h99F/YH8sV3yY1ER69kUAsGDz+iYIANEY4rd3/zh0IZNFdEkrBPcPbAh13I/ubfB1zH/eckOo9qS/LjC+b2B9qOP4es9TsR+HicWAuWEg6P/fneCzZy5o0W4fCAB6d7awhQAQTQCoabsnVEGX4idnAd7f9KXYC7vXgiDfQ4e9B8K6fdt9He9nW28LxfmJwc2+2vPKwu/rrtn1UKjjuHfgR7Efh6nFgEGNP/s+CYV++fP6aOpgaa4EAAs2r2+CABCN8N9ef7GSW7Vmi1LQ32v31CemmMnli0GPM/s+vwvzPte6MlSbPxhqdoLvxe3h1gE8tGeTE8dhYjFgVgtBfr840u4Eh9LGF03dSV67BAC9O1vYQgCIbiKu2f1SKHPKFsAk3Bjoky3XB1qJnz3G7G+/D7gpmwAQciGgfHfuQvE3sRgwq4Ugv3nsb3T1LBp9EQAs2Ly+CQJAdBPm3G23GgkA8lVAnDeuKTXx59cvVhv2tYU+1iCr8gkAM7PcXQkAohUT9zYIYv5yxi2O2z2Xmh9sL1ZjCQB6d7awhQBQTJzhtsl94BsNrIyWYihXFcg14y4Wk7A3PsoW+yCn488PuQbgmaEtTjANe+8IV74CEH3GtRiQxX/h6lU8tYUAYMHm9U0QAKKdNHL6PmtwYX/LJyu5n3w8E7Uwp6q2u9To1LH33Q9yrHL/d7/H9lfbw51l2TTa5btNv3308vqwN79Z3e/G1QxyrHEtBmTxX+E56kV/8b2GAKB3ZwtbCADRThq5xnvr+G5jIaB1YlDJtfbxTdijvC7Ycbux594HNeIFW74aiq08IOikCJ9K6HWc5BN8kNCUfY88VMlrWzZeZ3sxIIv/js5LG+Nrrg0CgAWb1zdBAIh+4sjCpGyhNvG7e3JMyXff5iahfwZyynpkOvgNf/I5fLHtzkDH8+7GK0OzjfsuevK9de/kRKjjkNPuceohv23biwFZ/Od/DuePWTz/JgDo3dnCFgJA9BNH1gK8tK89VIHPN0w57X5n3/PWH20rlzeuGXjR6LHUj3YrYRS0APUcGA/Vn8xot5IzNUHbD/u+r/p8cFK+FuTfshYibD9Mv9/WYkAW/0Vfw0xr4+j+CAAWbF7fBAHAzuSRU9VBHpBTqNjn/q19cp+ST+OyEv/opIrmmOSsQ/NYfyizze179v/lq4QwfX9heEfoPn295weh+hC0//Igo7A3T5KrJ1xcIGprMSCL/6KZ70E17e99BAC9O1vYQgCwN3nu6lsX2qiyppn/Wx4Ju7TjO+pPGy4zamTyyfyvt39DPT/cGknfTazCl1sm5/Pw+28x0RXdj4c6E+Gv8FWrs7berDonR0P3vWV8wOiY+z0O3ettLQZk8Z+9GqYb6+B/JwBYsHl9EwQAe5NHvuttGu8LXfCLmZt8mpT76V/ZsUZ9ePOyQMYgi+LO3naLkvvL7wj5kJpifZWH+JhY0HjOtluMMZVbEZ+59aZA3LwWQbmSY1Xfc8YWUMpzBLy2bft1US8GZPGfvfoVjXYIAHp3trCFAGB3Askd82TleTFjNLlNFpf9eKRDyY1i5Fa9slq80I88vEjui79ptFPtm3rZSv/83vVPV4DkLEXYp+nlM5f7LgizO/p+WJBXIYal/rZm94tqw0h7qKcl5vdT/i2XQurYxP33qBcDsvjPbv0yrycCgAWb1zdBALA/gUxfFVDIFFz/m3ylYHLh3Td7n7YSWlzjKkElzAJK8wX92PkU1WJAFv8dy9rGeJptgwCgd2cLWwgA8UwiU3fPc82QvPRHvvf+wOalRj+1ypMI5SsFL+2X02uu7XTr8r9C5hDVYkAW/8VTuwqNcfC/EQAs2Ly+CQJAPJNIPrXJafdyMiMvxyImfebWm42af7b4mL480cvxxPmarsmxRNz7PqrFgCz+i6d2Zeebmd8EAL07W9hCAIhvEsmle08ONqcmBMhlkEFv+OOl2MhZADktHKcp22xbFnp64eLCa0wvBmTxX3x1y6yeCAAWbF7fBAEg3ok0P7N4drGZTeOIoy25cdEV7d+K3LCWdz6SigDwk5EO57/7zzUK04sBWfwXb93KHdtw/08A0LuzhS0EgPgnknwdICvI4zBmG23KJ/8rLH1alYWF64a3ly1LGS+5iuQTLcsjD1PhCvux88rUYkAW/x3L1vRY2dsfAcCCzeubIAC4M5lksZStS/BsGH/WrBaFvNOf32IkXwXs2j9SliFAblgkT5j0y+OtomwAAAlgSURBVMSF15taDMjiP3dqVnhdEQD07mxhCwHArckkt4aVS7tsGXSU7chxxLVQS9rtP7C/LDjmjtGK7scSaf5iFKYWA8alqfBm51atceN4CAAWbF7fBAHAvUkphXLtnvpEm9favfXqlMbLYzWr87bdqnZbvOlSrlFH8f+39/0wVp4mDCPsYkAW/7lXr8LpggCgd2cLWwgA7k6o81trldzjPwoziWqf8mS+S9pXO2NUC1puVB0J/zpATvvf2vOUM0zDFPywiwFZ/OduvQqmCwKABZvXN0EAcHtCyX35b+55XA0cdPvytpGpQ2p1/wb17sYrnTOqDzVdM3sL3qhCT5T7lXGvabvHOabBiv2RuSaPfw7CrOdAMu57EIZN+t5LANC7s4UtBAC3A0C2ILyz4TIll7jJzV+CFM+o3iOX931/sEHJMw6yfXXx9/zMEnVrz5OJulvgs0Nb1Yc2f9lprkHG+sIddwbSsKlnRwTpM++Jqk4SACzYvL4JAkBUwo5mv+9ouFR9eddDauPIrkBF1FQQkEuxZDX2x5uvS5RB/VnzteqJwSYlwcUUC9P72TI+oC5quzNRXP0a5JrdL/niL09plBtn+W2H10dTh8xxJQDo3dnCFgKA6xNE3z8x32/0Pq3k+mobhia38ZUnBl68875E3IK2WJE6bcsNShak2XwyY7GgIN/zy5MCq3febfQhScUYxLlNzNzrrbDlTIicAYuzv7Str0Ph2BAALNi8vgkCQFTCtrvfUxuvmv2u+L7+9bNGIt+XFjMcL9u6/+Ne8+uGW5U8ae+zrbcl3vQLFaqTGy6ZDTQP7d5o/JHCpRhL+HhmaIu6oWut+vDmZak0OLk1dONYb0Gttk4MqqUd30lFICqkzXT8jQCgd2cLWwgAdo3a5qQ+pfEKJauu5UY8cvOYpR0PzprNiq7HVP7P0l0Pqqt3PaDk+1m5F8GpjVen0pBkEaMwy/L6atejx7DKZ+f138s6H5q9HfL5rbepjzQvw9gyR+feaVuuV5e3r1E3dH1PXdXxbXXG1hXwyeFjs27YbYsAYMHm9U0QAI4WIbvCp114owE0kHYNEAD07mxhCwEg7ROQ48eE0AAaiEsDBAALNq9vggAQl/Bpl6KLBtBA2jVAANC7s4UtBIC0T0COHxNCA2ggLg0QACzYvL4JAkBcwqddii4aQANp1wABQO/OFrYQANI+ATl+TAgNoIG4NEAAsGDz+iYIAHEJn3YpumgADaRdAwQAvTtb2EIASPsE5PgxITSABuLSAAHAgs3rmyAAxCV82qXoogE0kHYNEAD07mxhCwEg7ROQ48eE0AAaiEsDBAALNq9vggAQl/Bpl6KLBtBA2jVAANC7s4UtBIC0T0COHxNCA2ggLg0QACzYvL4JAkBcwqddii4aQANp1wABQO/OFrYQANI+ATl+TAgNoIG4NEAAsGDz+iYIAHEJn3YpumgADaRdAwQAvTtb2PKOTZf9AZMw7ZOQ42cOoAE0EIMG6qqvsWBzNKElsH7Rb1dmql9F/DGIP0Ob6A4NoIH0aqCirmqx1pvYYIdAZab6F0zC9E5Cxp6xRwNoIA4NzMvUfNaOy9GKlkBlpnosjsGnTYoOGkADaCDFGqir+YDWmNhgh8C8TPUmJmGKJyFfRSj0j/7RgH0NyBo0Oy5HK1oC8+qrVyJ+++KHOczRABpIsQYmtabEBnsEKusWn55iEfLpjzMAaAANoAH7Gvi+PZejJS2B49cv+t3KTPU/EwL4NIIG0AAaQAM2NFBRV3OB1pTYYJdAZV31szYGnTYoLmgADaCB1GvgF29pXvx7dl2O1rQEKjbV/CWTMvWTktOg9k+DwhzmqdNARX31U1ozYkM8BCozNbsJAYQANIAG0AAaiFADrx7fUP2eeFyOVrUE5mWqL4xw0FOXcmFJEUUDaAANvF4DFfXVG7UmxIYYCag3vLGirroNwb5esPCABxpAA2jAiAb+9cRNNe+I0eVouhiByk0Xvb8yU/3viN2I2Dnrwfe7aAANoIHXNFCRqb6rmP+wzQEC8zLVXyMAEADQABpAA2jAoAb6T2o85z85YHF0oSiB2trfqsxUNxoceBIwn4LQABpAA+nVwN+f0Hjh24r6DhvdITA3c9V/qcxUdxIC+ASABtAAGkADITTw/06or/mUO+5GTzwReNuPF/+PykzNYIiBJ/GnN/Ez9ow9GkADv6yoqz7Pk+HwIvcI/Mn6Rb8/r76qhRDAJwA0gAbQABrwoYF/4JO/e57uv0etC940L1NTW5mp/rWPwSf9k/7RABpAA+nUQP/xm2pO8m82vMNZApX1NedW1ldPEwL4FIAG0AAaQAPHaqDqXyrrqu581/pFb3bWyOhYcALy5MCKTNVtlXXV/3js4DMhYIIG0AAaSKEGXq3MVP1kfsOSk4O7C+9MDIGTGqv/sKK+6qaKTPX+FIqd05rpPK3JuDPuaOD1Gvinykz1ExV1XzwlMeZFR80SmNew+KOVmapVlZma9spM1b8QCPgEhAbQABooWw2Mz6urebQiU/0FOSNs1k3YW7IJrF/02xX1VfNPzFSfWVFftagiU31lRX3VVfzAAA2gATSQPA1UZqqrTqiv+fS8hqr3yf1hkm1Q9B4CEIAABCAAAQhAAAIQgAAEIAABCEAAAhCAAAQgAAEIQAACEIAABCAAAQhAAAIQgAAEIAABCEAAAhCAAAQgAAEIQAACEIAABCAAAQhAAAIQgAAEIAABCEAAAhCAAAQgAAEIQAACEIAABCAAAQhAAAIQgAAEIAABCEAAAhCAAAQgAAEIQAACEIAABCAAAQhAAAIQgAAEIAABCEAAAhCAAAQgAAEIQAACEIAABCAAAQhAAAIQgAAEIAABCEAAAhCAAAQgAAEIQAACEIAABCAAAQhAAAIQgAAEIAABCEAAAhCAAAQgAAEIQAACEIAABCAAAQhAAAIQgAAEIAABCEAAAhCAAAQgAAEIQAACEIAABCAAAQhAAAIQgAAEIAABCEAAAhCAAAQgAAEIQAACEIAABCAAAQhAAAIQgAAEIAABCEAAAhCAAAQgAAEIQAACEIAABCAAAQhAAAIQgAAEIAABCEAAAhCAAAQgAAEIQAACEIAABCAAAQhAAAIQgAAEIAABCEAAAhCAAAQgAAEIQAACEIAABCAAAQhAAAIQgAAEIAABCEAAAhCAAAQgAAEIQAACEIAABNJO4P8DnFvEshlYpKAAAAAASUVORK5CYII=;" parent="1" vertex="1">
          <mxGeometry x="143" y="472" width="32" height="32" as="geometry" />
        </mxCell>
        <mxCell id="ejDFjRWyY2k5rN37OPCX-28" value="&lt;i&gt;Educationallevel&lt;/i&gt;" style="text;html=1;align=center;verticalAlign=middle;whiteSpace=wrap;rounded=0;" parent="1" vertex="1">
          <mxGeometry x="115" y="216" width="60" height="30" as="geometry" />
        </mxCell>
        <mxCell id="ejDFjRWyY2k5rN37OPCX-29" value="&lt;i&gt;Employee&lt;/i&gt;" style="text;html=1;align=center;verticalAlign=middle;whiteSpace=wrap;rounded=0;" parent="1" vertex="1">
          <mxGeometry x="114" y="287" width="60" height="30" as="geometry" />
        </mxCell>
        <mxCell id="ejDFjRWyY2k5rN37OPCX-30" value="&lt;i&gt;PerformanceRating&lt;/i&gt;" style="text;html=1;align=center;verticalAlign=middle;whiteSpace=wrap;rounded=0;" parent="1" vertex="1">
          <mxGeometry x="110" y="357" width="60" height="30" as="geometry" />
        </mxCell>
        <mxCell id="ejDFjRWyY2k5rN37OPCX-31" value="&lt;i&gt;Ratinglevel&lt;/i&gt;" style="text;html=1;align=center;verticalAlign=middle;whiteSpace=wrap;rounded=0;" parent="1" vertex="1">
          <mxGeometry x="110" y="426" width="60" height="30" as="geometry" />
        </mxCell>
        <mxCell id="ejDFjRWyY2k5rN37OPCX-32" value="&lt;i&gt;Satisfiedlevel&lt;/i&gt;" style="text;html=1;align=center;verticalAlign=middle;whiteSpace=wrap;rounded=0;" parent="1" vertex="1">
          <mxGeometry x="110" y="497" width="60" height="30" as="geometry" />
        </mxCell>
      </root>
    </mxGraphModel>
  </diagram>
</mxfile>
